# MagicaVoxel @ Ephtracy

# group
o 

# material
mtllib Carrot.mtl
usemtl palette

# normals
vn -1 0 0
vn 1 0 0
vn 0 0 1
vn 0 0 -1
vn 0 -1 0
vn 0 1 0

# texcoords
vt 0.0683594 0.5
vt 0.654297 0.5

# verts
v -0.2 0.5 0.6
v -0.2 0.5 0.3
v -0.2 0.9 0.6
v -0.2 0.9 0.3
v -0.2 1 0.7
v -0.2 1 0.2
v -0.2 1.2 0.7
v -0.2 1.2 0.2
v -0.0999999 0.1 0.5
v -0.0999999 0.1 0.4
v -0.0999999 0.2 0.6
v -0.0999999 0.2 0.5
v -0.0999999 0.2 0.4
v -0.0999999 0.2 0.3
v -0.0999999 0.5 0.7
v -0.0999999 0.5 0.6
v -0.0999999 0.5 0.3
v -0.0999999 0.5 0.2
v -0.0999999 0.9 0.7
v -0.0999999 0.9 0.6
v -0.0999999 0.9 0.3
v -0.0999999 0.9 0.2
v -0.0999999 1 0.6
v -0.0999999 1 0.3
v -0.0999999 1.2 0.6
v -0.0999999 1.2 0.3
v -0.0999999 1.3 0.6
v -0.0999999 1.3 0.3
v 5.96046e-08 0 0.5
v 5.96046e-08 0 0.4
v 5.96046e-08 0.1 0.6
v 5.96046e-08 0.1 0.5
v 5.96046e-08 0.1 0.4
v 5.96046e-08 0.1 0.3
v 5.96046e-08 0.2 0.6
v 5.96046e-08 0.2 0.5
v 5.96046e-08 0.2 0.4
v 5.96046e-08 0.2 0.3
v 0.1 0 0.5
v 0.1 0 0.4
v 0.1 0.1 0.6
v 0.1 0.1 0.5
v 0.1 0.1 0.4
v 0.1 0.1 0.3
v 0.1 0.2 0.6
v 0.1 0.2 0.5
v 0.1 0.2 0.4
v 0.1 0.2 0.3
v 0.2 0.1 0.5
v 0.2 0.1 0.4
v 0.2 0.2 0.6
v 0.2 0.2 0.5
v 0.2 0.2 0.4
v 0.2 0.2 0.3
v 0.2 0.5 0.7
v 0.2 0.5 0.6
v 0.2 0.5 0.3
v 0.2 0.5 0.2
v 0.2 0.9 0.7
v 0.2 0.9 0.6
v 0.2 0.9 0.3
v 0.2 0.9 0.2
v 0.2 1 0.6
v 0.2 1 0.3
v 0.2 1.2 0.6
v 0.2 1.2 0.3
v 0.2 1.3 0.6
v 0.2 1.3 0.3
v 0.3 0.5 0.6
v 0.3 0.5 0.3
v 0.3 0.9 0.6
v 0.3 0.9 0.3
v 0.3 1 0.7
v 0.3 1 0.2
v 0.3 1.2 0.7
v 0.3 1.2 0.2
v -0.2 1 0.7
v -0.2 1.2 0.7
v -0.0999999 0.5 0.7
v -0.0999999 0.9 0.7
v 0.2 0.5 0.7
v 0.2 0.9 0.7
v 0.3 1 0.7
v 0.3 1.2 0.7
v -0.2 0.5 0.6
v -0.2 0.9 0.6
v -0.0999999 0.2 0.6
v -0.0999999 0.5 0.6
v -0.0999999 0.9 0.6
v -0.0999999 1 0.6
v -0.0999999 1.2 0.6
v -0.0999999 1.3 0.6
v 5.96046e-08 0.1 0.6
v 5.96046e-08 0.2 0.6
v 0.1 0.1 0.6
v 0.1 0.2 0.6
v 0.2 0.2 0.6
v 0.2 0.5 0.6
v 0.2 0.9 0.6
v 0.2 1 0.6
v 0.2 1.2 0.6
v 0.2 1.3 0.6
v 0.3 0.5 0.6
v 0.3 0.9 0.6
v -0.0999999 0.1 0.5
v -0.0999999 0.2 0.5
v 5.96046e-08 0 0.5
v 5.96046e-08 0.1 0.5
v 5.96046e-08 0.2 0.5
v 0.1 0 0.5
v 0.1 0.1 0.5
v 0.1 0.2 0.5
v 0.2 0.1 0.5
v 0.2 0.2 0.5
v -0.0999999 0.1 0.4
v -0.0999999 0.2 0.4
v 5.96046e-08 0 0.4
v 5.96046e-08 0.1 0.4
v 5.96046e-08 0.2 0.4
v 0.1 0 0.4
v 0.1 0.1 0.4
v 0.1 0.2 0.4
v 0.2 0.1 0.4
v 0.2 0.2 0.4
v -0.2 0.5 0.3
v -0.2 0.9 0.3
v -0.0999999 0.2 0.3
v -0.0999999 0.5 0.3
v -0.0999999 0.9 0.3
v -0.0999999 1 0.3
v -0.0999999 1.2 0.3
v -0.0999999 1.3 0.3
v 5.96046e-08 0.1 0.3
v 5.96046e-08 0.2 0.3
v 0.1 0.1 0.3
v 0.1 0.2 0.3
v 0.2 0.2 0.3
v 0.2 0.5 0.3
v 0.2 0.9 0.3
v 0.2 1 0.3
v 0.2 1.2 0.3
v 0.2 1.3 0.3
v 0.3 0.5 0.3
v 0.3 0.9 0.3
v -0.2 1 0.2
v -0.2 1.2 0.2
v -0.0999999 0.5 0.2
v -0.0999999 0.9 0.2
v 0.2 0.5 0.2
v 0.2 0.9 0.2
v 0.3 1 0.2
v 0.3 1.2 0.2
v 5.96046e-08 0 0.5
v 0.1 0 0.5
v 5.96046e-08 0 0.4
v 0.1 0 0.4
v 5.96046e-08 0.1 0.6
v 0.1 0.1 0.6
v -0.0999999 0.1 0.5
v 5.96046e-08 0.1 0.5
v 0.1 0.1 0.5
v 0.2 0.1 0.5
v -0.0999999 0.1 0.4
v 5.96046e-08 0.1 0.4
v 0.1 0.1 0.4
v 0.2 0.1 0.4
v 5.96046e-08 0.1 0.3
v 0.1 0.1 0.3
v -0.0999999 0.2 0.6
v 5.96046e-08 0.2 0.6
v 0.1 0.2 0.6
v 0.2 0.2 0.6
v -0.0999999 0.2 0.5
v 5.96046e-08 0.2 0.5
v 0.1 0.2 0.5
v 0.2 0.2 0.5
v -0.0999999 0.2 0.4
v 5.96046e-08 0.2 0.4
v 0.1 0.2 0.4
v 0.2 0.2 0.4
v -0.0999999 0.2 0.3
v 5.96046e-08 0.2 0.3
v 0.1 0.2 0.3
v 0.2 0.2 0.3
v -0.0999999 0.5 0.7
v 0.2 0.5 0.7
v -0.2 0.5 0.6
v -0.0999999 0.5 0.6
v 0.2 0.5 0.6
v 0.3 0.5 0.6
v -0.2 0.5 0.3
v -0.0999999 0.5 0.3
v 0.2 0.5 0.3
v 0.3 0.5 0.3
v -0.0999999 0.5 0.2
v 0.2 0.5 0.2
v -0.2 1 0.7
v 0.3 1 0.7
v -0.0999999 1 0.6
v 0.2 1 0.6
v -0.0999999 1 0.3
v 0.2 1 0.3
v -0.2 1 0.2
v 0.3 1 0.2
v -0.0999999 0.9 0.7
v 0.2 0.9 0.7
v -0.2 0.9 0.6
v -0.0999999 0.9 0.6
v 0.2 0.9 0.6
v 0.3 0.9 0.6
v -0.2 0.9 0.3
v -0.0999999 0.9 0.3
v 0.2 0.9 0.3
v 0.3 0.9 0.3
v -0.0999999 0.9 0.2
v 0.2 0.9 0.2
v -0.2 1.2 0.7
v 0.3 1.2 0.7
v -0.0999999 1.2 0.6
v 0.2 1.2 0.6
v -0.0999999 1.2 0.3
v 0.2 1.2 0.3
v -0.2 1.2 0.2
v 0.3 1.2 0.2
v -0.0999999 1.3 0.6
v 0.2 1.3 0.6
v -0.0999999 1.3 0.3
v 0.2 1.3 0.3

# faces
f 3/1/1 2/1/1 1/1/1
f 4/1/1 2/1/1 3/1/1
f 7/2/1 6/2/1 5/2/1
f 8/2/1 6/2/1 7/2/1
f 12/1/1 10/1/1 9/1/1
f 13/1/1 10/1/1 12/1/1
f 16/1/1 12/1/1 11/1/1
f 16/1/1 14/1/1 13/1/1
f 16/1/1 13/1/1 12/1/1
f 17/1/1 14/1/1 16/1/1
f 19/1/1 16/1/1 15/1/1
f 20/1/1 16/1/1 19/1/1
f 21/1/1 18/1/1 17/1/1
f 22/1/1 18/1/1 21/1/1
f 23/1/1 21/1/1 20/1/1
f 24/1/1 21/1/1 23/1/1
f 27/2/1 26/2/1 25/2/1
f 28/2/1 26/2/1 27/2/1
f 32/1/1 30/1/1 29/1/1
f 33/1/1 30/1/1 32/1/1
f 35/1/1 32/1/1 31/1/1
f 36/1/1 32/1/1 35/1/1
f 37/1/1 34/1/1 33/1/1
f 38/1/1 34/1/1 37/1/1
f 39/1/2 40/1/2 42/1/2
f 42/1/2 40/1/2 43/1/2
f 41/1/2 42/1/2 45/1/2
f 45/1/2 42/1/2 46/1/2
f 43/1/2 44/1/2 47/1/2
f 47/1/2 44/1/2 48/1/2
f 49/1/2 50/1/2 52/1/2
f 52/1/2 50/1/2 53/1/2
f 51/1/2 52/1/2 56/1/2
f 53/1/2 54/1/2 56/1/2
f 52/1/2 53/1/2 56/1/2
f 56/1/2 54/1/2 57/1/2
f 55/1/2 56/1/2 59/1/2
f 59/1/2 56/1/2 60/1/2
f 57/1/2 58/1/2 61/1/2
f 61/1/2 58/1/2 62/1/2
f 60/1/2 61/1/2 63/1/2
f 63/1/2 61/1/2 64/1/2
f 65/2/2 66/2/2 67/2/2
f 67/2/2 66/2/2 68/2/2
f 69/1/2 70/1/2 71/1/2
f 71/1/2 70/1/2 72/1/2
f 73/2/2 74/2/2 75/2/2
f 75/2/2 74/2/2 76/2/2
f 81/1/3 80/1/3 79/1/3
f 82/1/3 80/1/3 81/1/3
f 83/2/3 78/2/3 77/2/3
f 84/2/3 78/2/3 83/2/3
f 88/1/3 86/1/3 85/1/3
f 89/1/3 86/1/3 88/1/3
f 94/1/3 88/1/3 87/1/3
f 95/1/3 94/1/3 93/1/3
f 96/1/3 88/1/3 94/1/3
f 96/1/3 94/1/3 95/1/3
f 97/1/3 88/1/3 96/1/3
f 98/1/3 88/1/3 97/1/3
f 99/1/3 90/1/3 89/1/3
f 100/1/3 90/1/3 99/1/3
f 101/2/3 92/2/3 91/2/3
f 102/2/3 92/2/3 101/2/3
f 103/1/3 99/1/3 98/1/3
f 104/1/3 99/1/3 103/1/3
f 108/1/3 106/1/3 105/1/3
f 109/1/3 106/1/3 108/1/3
f 110/1/3 108/1/3 107/1/3
f 111/1/3 108/1/3 110/1/3
f 113/1/3 112/1/3 111/1/3
f 114/1/3 112/1/3 113/1/3
f 115/1/4 116/1/4 118/1/4
f 118/1/4 116/1/4 119/1/4
f 117/1/4 118/1/4 120/1/4
f 120/1/4 118/1/4 121/1/4
f 121/1/4 122/1/4 123/1/4
f 123/1/4 122/1/4 124/1/4
f 125/1/4 126/1/4 128/1/4
f 128/1/4 126/1/4 129/1/4
f 127/1/4 128/1/4 134/1/4
f 133/1/4 134/1/4 135/1/4
f 134/1/4 128/1/4 136/1/4
f 135/1/4 134/1/4 136/1/4
f 136/1/4 128/1/4 137/1/4
f 137/1/4 128/1/4 138/1/4
f 129/1/4 130/1/4 139/1/4
f 139/1/4 130/1/4 140/1/4
f 131/2/4 132/2/4 141/2/4
f 141/2/4 132/2/4 142/2/4
f 138/1/4 139/1/4 143/1/4
f 143/1/4 139/1/4 144/1/4
f 147/1/4 148/1/4 149/1/4
f 149/1/4 148/1/4 150/1/4
f 145/2/4 146/2/4 151/2/4
f 151/2/4 146/2/4 152/2/4
f 155/1/5 154/1/5 153/1/5
f 156/1/5 154/1/5 155/1/5
f 160/1/5 158/1/5 157/1/5
f 161/1/5 158/1/5 160/1/5
f 163/1/5 160/1/5 159/1/5
f 164/1/5 160/1/5 163/1/5
f 165/1/5 162/1/5 161/1/5
f 166/1/5 162/1/5 165/1/5
f 167/1/5 165/1/5 164/1/5
f 168/1/5 165/1/5 167/1/5
f 173/1/5 170/1/5 169/1/5
f 174/1/5 170/1/5 173/1/5
f 175/1/5 172/1/5 171/1/5
f 176/1/5 172/1/5 175/1/5
f 181/1/5 178/1/5 177/1/5
f 182/1/5 178/1/5 181/1/5
f 183/1/5 180/1/5 179/1/5
f 184/1/5 180/1/5 183/1/5
f 188/1/5 186/1/5 185/1/5
f 189/1/5 186/1/5 188/1/5
f 191/1/5 188/1/5 187/1/5
f 192/1/5 188/1/5 191/1/5
f 193/1/5 190/1/5 189/1/5
f 194/1/5 190/1/5 193/1/5
f 195/1/5 193/1/5 192/1/5
f 196/1/5 193/1/5 195/1/5
f 199/2/5 198/2/5 197/2/5
f 200/2/5 198/2/5 199/2/5
f 201/2/5 199/2/5 197/2/5
f 202/2/5 198/2/5 200/2/5
f 203/2/5 201/2/5 197/2/5
f 203/2/5 202/2/5 201/2/5
f 204/2/5 198/2/5 202/2/5
f 204/2/5 202/2/5 203/2/5
f 205/1/6 206/1/6 208/1/6
f 208/1/6 206/1/6 209/1/6
f 207/1/6 208/1/6 211/1/6
f 211/1/6 208/1/6 212/1/6
f 209/1/6 210/1/6 213/1/6
f 213/1/6 210/1/6 214/1/6
f 212/1/6 213/1/6 215/1/6
f 215/1/6 213/1/6 216/1/6
f 217/2/6 218/2/6 219/2/6
f 219/2/6 218/2/6 220/2/6
f 217/2/6 219/2/6 221/2/6
f 220/2/6 218/2/6 222/2/6
f 217/2/6 221/2/6 223/2/6
f 221/2/6 222/2/6 223/2/6
f 222/2/6 218/2/6 224/2/6
f 223/2/6 222/2/6 224/2/6
f 225/2/6 226/2/6 227/2/6
f 227/2/6 226/2/6 228/2/6
