# MagicaVoxel @ Ephtracy

# group
o 

# material
mtllib Cat.mtl
usemtl palette

# normals
vn -1 0 0
vn 1 0 0
vn 0 0 1
vn 0 0 -1
vn 0 -1 0
vn 0 1 0

# texcoords
vt 0.0449219 0.5
vt 0.126953 0.5
vt 0.291016 0.5
vt 0.572266 0.5
vt 0.958984 0.5
vt 0.986328 0.5
vt 0.994141 0.5

# verts
v -0.9 2.2 0.8
v -0.9 2.2 0.4
v -0.9 2.9 0.8
v -0.9 2.9 0.4
v -0.8 1.1 1.2
v -0.8 1.1 0.1
v -0.8 2.2 0.8
v -0.8 2.2 0.4
v -0.8 2.5 1.2
v -0.8 2.5 0.8
v -0.8 2.5 0.4
v -0.8 2.5 0.1
v -0.8 2.9 0.8
v -0.8 2.9 0.4
v -0.8 3 0.8
v -0.8 3 0.4
v -0.7 0.3 0.8
v -0.7 0.3 0.5
v -0.7 0.4 0.8
v -0.7 0.4 0.5
v -0.7 1 1.2
v -0.7 1 0.8
v -0.7 1 0.5
v -0.7 1 0.1
v -0.7 1.1 1.3
v -0.7 1.1 1.2
v -0.7 1.1 0.1
v -0.7 1.1 0
v -0.7 2.5 1.3
v -0.7 2.5 1.2
v -0.7 2.5 0.7
v -0.7 2.5 0.4
v -0.7 2.5 0.1
v -0.7 2.5 0
v -0.7 2.6 1.2
v -0.7 2.6 0.7
v -0.7 2.6 0.4
v -0.7 2.6 0.1
v -0.6 2.8 0.8
v -0.6 2.8 0.7
v -0.6 2.9 0.8
v -0.6 2.9 0.7
v -0.5 0 1
v -0.5 0 0.3
v -0.5 0.3 0.8
v -0.5 0.3 0.5
v -0.5 0.4 0.8
v -0.5 0.4 0.5
v -0.5 1 1
v -0.5 1 0.8
v -0.5 1 0.5
v -0.5 1 0.3
v -0.5 2.7 0.8
v -0.5 2.7 0.7
v -0.5 2.8 0.8
v -0.5 2.8 0.7
v -0.4 0 1.4
v -0.4 0 1.3
v -0.4 0 1
v -0.4 0.3 1.4
v -0.4 0.3 1.3
v -0.4 0.3 1
v -0.4 1.3 1.5
v -0.4 1.3 1.3
v -0.4 1.5 1.5
v -0.4 1.5 1.3
v -0.4 2.6 0.8
v -0.4 2.6 0.7
v -0.4 2.7 0.8
v -0.4 2.7 0.7
v -0.2 1.7 1.3
v -0.2 1.7 1.2
v -0.2 1.8 1.3
v -0.2 1.8 1.2
v -0.2 2.1 1.3
v -0.2 2.1 1.2
v -0.2 2.2 1.3
v -0.2 2.2 1.2
v -0.1 0 0.3
v -0.1 0 -0.1
v -0.1 0.2 0.3
v -0.1 0.2 -0.1
v -0.1 1.2 1.4
v -0.1 1.2 1.3
v -0.1 1.3 1.4
v -0.1 1.3 1.3
v -0.1 1.5 1.5
v -0.1 1.5 1.3
v -0.1 1.6 1.5
v -0.1 1.6 1.3
v -0.1 1.8 1.3
v -0.1 1.8 1.2
v -0.1 2.1 1.3
v -0.1 2.1 1.2
v 0 0 -0.1
v 0 0 -0.2
v 0 0.2 -0.1
v 0 0.2 -0.2
v 0.1 0 -0.2
v 0.1 0 -0.3
v 0.1 0.2 -0.2
v 0.1 0.2 -0.3
v 0.2 0 1.4
v 0.2 0 1.3
v 0.2 0 1
v 0.2 0.3 1.4
v 0.2 0.3 1.3
v 0.2 0.3 1
v 0.2 1.3 1.5
v 0.2 1.3 1.4
v 0.2 1.4 1.5
v 0.2 1.4 1.4
v 0.4 2.6 0.8
v 0.4 2.6 0.4
v 0.4 2.8 0.8
v 0.4 2.8 0.4
v 0.5 0 0
v 0.5 0 -0.1
v 0.5 0.2 0
v 0.5 0.2 -0.1
v 0.5 2.8 0.8
v 0.5 2.8 0.4
v 0.5 2.9 0.8
v 0.5 2.9 0.4
v 0.6 0 0.1
v 0.6 0 0
v 0.6 0.2 0.1
v 0.6 0.2 0
v 0.6 1.7 1.3
v 0.6 1.7 1.2
v 0.6 1.8 1.3
v 0.6 1.8 1.2
v 0.6 2.1 1.3
v 0.6 2.1 1.2
v 0.6 2.2 1.3
v 0.6 2.2 1.2
v 0.6 2.9 0.8
v 0.6 2.9 0.4
v 0.6 3 0.8
v 0.6 3 0.4
v 0.7 1.8 1.3
v 0.7 1.8 1.2
v 0.7 2.1 1.3
v 0.7 2.1 1.2
v 0.8 0 0.4
v 0.8 0 0.1
v 0.8 0.2 0.4
v 0.8 0.2 0.1
v 0.9 0 1.1
v 0.9 0 0.4
v 0.9 0.2 1.1
v 0.9 0.2 0.4
v 0.9 2.5 0.8
v 0.9 2.5 0.7
v 0.9 2.9 0.8
v 0.9 2.9 0.7
v 1.1 0 1.3
v 1.1 0 1.1
v 1.1 0.2 1.3
v 1.1 0.2 1.1
v -0.8 2.5 0.8
v -0.8 2.5 0.7
v -0.8 2.9 0.8
v -0.8 2.9 0.7
v -0.6 1.8 1.3
v -0.6 1.8 1.2
v -0.6 2.1 1.3
v -0.6 2.1 1.2
v -0.5 1.7 1.3
v -0.5 1.7 1.2
v -0.5 1.8 1.3
v -0.5 1.8 1.2
v -0.5 2.1 1.3
v -0.5 2.1 1.2
v -0.5 2.2 1.3
v -0.5 2.2 1.2
v -0.5 2.9 0.8
v -0.5 2.9 0.4
v -0.5 3 0.8
v -0.5 3 0.4
v -0.4 2.8 0.8
v -0.4 2.8 0.4
v -0.4 2.9 0.8
v -0.4 2.9 0.4
v -0.3 2.6 0.8
v -0.3 2.6 0.4
v -0.3 2.8 0.8
v -0.3 2.8 0.4
v -0.1 0 1.4
v -0.1 0 1.3
v -0.1 0 1
v -0.1 0.3 1.4
v -0.1 0.3 1.3
v -0.1 0.3 1
v -0.1 1.3 1.5
v -0.1 1.3 1.4
v -0.1 1.4 1.5
v -0.1 1.4 1.4
v 0.1 0 0.3
v 0.1 0 0.1
v 0.1 0.2 0.3
v 0.1 0.2 0.1
v 0.2 0 0.1
v 0.2 0 0
v 0.2 0.2 0.1
v 0.2 0.2 0
v 0.2 1.2 1.4
v 0.2 1.2 1.3
v 0.2 1.3 1.4
v 0.2 1.3 1.3
v 0.2 1.5 1.5
v 0.2 1.5 1.3
v 0.2 1.6 1.5
v 0.2 1.6 1.3
v 0.2 1.8 1.3
v 0.2 1.8 1.2
v 0.2 2.1 1.3
v 0.2 2.1 1.2
v 0.3 0 0
v 0.3 0 -0.1
v 0.3 0.2 0
v 0.3 0.2 -0.1
v 0.3 1.7 1.3
v 0.3 1.7 1.2
v 0.3 1.8 1.3
v 0.3 1.8 1.2
v 0.3 2.1 1.3
v 0.3 2.1 1.2
v 0.3 2.2 1.3
v 0.3 2.2 1.2
v 0.5 0 1.4
v 0.5 0 1.3
v 0.5 0 1
v 0.5 0.3 1.4
v 0.5 0.3 1.3
v 0.5 0.3 1
v 0.5 1.3 1.5
v 0.5 1.3 1.3
v 0.5 1.5 1.5
v 0.5 1.5 1.3
v 0.5 2.6 0.8
v 0.5 2.6 0.7
v 0.5 2.7 0.8
v 0.5 2.7 0.7
v 0.6 0 1
v 0.6 0 0.3
v 0.6 0.3 0.8
v 0.6 0.3 0.5
v 0.6 0.4 0.8
v 0.6 0.4 0.5
v 0.6 1 1
v 0.6 1 0.8
v 0.6 1 0.5
v 0.6 1 0.3
v 0.6 2.7 0.8
v 0.6 2.7 0.7
v 0.6 2.8 0.8
v 0.6 2.8 0.7
v 0.7 0 -0.2
v 0.7 0 -0.3
v 0.7 0.2 -0.2
v 0.7 0.2 -0.3
v 0.7 2.8 0.8
v 0.7 2.8 0.7
v 0.7 2.9 0.8
v 0.7 2.9 0.7
v 0.8 0 -0.1
v 0.8 0 -0.2
v 0.8 0.2 -0.1
v 0.8 0.2 -0.2
v 0.8 0.3 0.8
v 0.8 0.3 0.5
v 0.8 0.4 0.8
v 0.8 0.4 0.5
v 0.8 1 1.2
v 0.8 1 0.8
v 0.8 1 0.5
v 0.8 1 0.1
v 0.8 1.1 1.3
v 0.8 1.1 1.2
v 0.8 1.1 0.1
v 0.8 1.1 0
v 0.8 2.5 1.3
v 0.8 2.5 1.2
v 0.8 2.5 0.7
v 0.8 2.5 0.4
v 0.8 2.5 0.1
v 0.8 2.5 0
v 0.8 2.6 1.2
v 0.8 2.6 0.7
v 0.8 2.6 0.4
v 0.8 2.6 0.1
v 0.9 0 0
v 0.9 0 -0.1
v 0.9 0.2 0
v 0.9 0.2 -0.1
v 0.9 1.1 1.2
v 0.9 1.1 0.1
v 0.9 2.2 0.8
v 0.9 2.2 0.4
v 0.9 2.5 1.2
v 0.9 2.5 0.8
v 0.9 2.5 0.4
v 0.9 2.5 0.1
v 0.9 2.9 0.8
v 0.9 2.9 0.4
v 0.9 3 0.8
v 0.9 3 0.4
v 1 0 0.1
v 1 0 0
v 1 0.2 0.1
v 1 0.2 0
v 1 2.2 0.8
v 1 2.2 0.4
v 1 2.9 0.8
v 1 2.9 0.4
v 1.1 0 0.9
v 1.1 0 0.1
v 1.1 0.2 0.9
v 1.1 0.2 0.1
v 1.3 0 1.3
v 1.3 0 0.9
v 1.3 0.2 1.3
v 1.3 0.2 0.9
v -0.4 1.3 1.5
v -0.4 1.5 1.5
v -0.1 1.3 1.5
v -0.1 1.4 1.5
v -0.1 1.5 1.5
v -0.1 1.6 1.5
v 0 1.5 1.5
v 0 1.6 1.5
v 0.1 1.5 1.5
v 0.1 1.6 1.5
v 0.2 1.3 1.5
v 0.2 1.4 1.5
v 0.2 1.5 1.5
v 0.2 1.6 1.5
v 0.5 1.3 1.5
v 0.5 1.5 1.5
v -0.4 0 1.4
v -0.4 0.3 1.4
v -0.1 0 1.4
v -0.1 0.3 1.4
v -0.1 1.2 1.4
v -0.1 1.3 1.4
v -0.1 1.4 1.4
v 0.2 0 1.4
v 0.2 0.3 1.4
v 0.2 1.2 1.4
v 0.2 1.3 1.4
v 0.2 1.4 1.4
v 0.5 0 1.4
v 0.5 0.3 1.4
v -0.7 1.1 1.3
v -0.7 2.5 1.3
v -0.6 1.8 1.3
v -0.6 2.1 1.3
v -0.5 1.7 1.3
v -0.5 1.8 1.3
v -0.5 2.1 1.3
v -0.5 2.2 1.3
v -0.4 1.3 1.3
v -0.4 1.5 1.3
v -0.2 1.7 1.3
v -0.2 1.8 1.3
v -0.2 2.1 1.3
v -0.2 2.2 1.3
v -0.1 1.2 1.3
v -0.1 1.3 1.3
v -0.1 1.5 1.3
v -0.1 1.6 1.3
v -0.1 1.8 1.3
v -0.1 2.1 1.3
v 0.2 1.2 1.3
v 0.2 1.3 1.3
v 0.2 1.5 1.3
v 0.2 1.6 1.3
v 0.2 1.8 1.3
v 0.2 2.1 1.3
v 0.3 1.7 1.3
v 0.3 1.8 1.3
v 0.3 2.1 1.3
v 0.3 2.2 1.3
v 0.5 1.3 1.3
v 0.5 1.5 1.3
v 0.6 1.7 1.3
v 0.6 1.8 1.3
v 0.6 2.1 1.3
v 0.6 2.2 1.3
v 0.7 1.8 1.3
v 0.7 2.1 1.3
v 0.8 1.1 1.3
v 0.8 2.5 1.3
v 1.1 0 1.3
v 1.1 0.2 1.3
v 1.3 0 1.3
v 1.3 0.2 1.3
v -0.8 1.1 1.2
v -0.8 2.5 1.2
v -0.7 1 1.2
v -0.7 1.1 1.2
v -0.7 2.5 1.2
v -0.7 2.6 1.2
v -0.6 1.8 1.2
v -0.6 2.1 1.2
v -0.5 1.7 1.2
v -0.5 1.8 1.2
v -0.5 2 1.2
v -0.5 2.1 1.2
v -0.5 2.2 1.2
v -0.4 2 1.2
v -0.4 2.1 1.2
v -0.2 1.7 1.2
v -0.2 1.8 1.2
v -0.2 2.1 1.2
v -0.2 2.2 1.2
v -0.1 1.8 1.2
v -0.1 2.1 1.2
v 0.2 1.8 1.2
v 0.2 2.1 1.2
v 0.3 1.7 1.2
v 0.3 1.8 1.2
v 0.3 2 1.2
v 0.3 2.1 1.2
v 0.3 2.2 1.2
v 0.4 2 1.2
v 0.4 2.1 1.2
v 0.6 1.7 1.2
v 0.6 1.8 1.2
v 0.6 2.1 1.2
v 0.6 2.2 1.2
v 0.7 1.8 1.2
v 0.7 2.1 1.2
v 0.8 1 1.2
v 0.8 1.1 1.2
v 0.8 2.5 1.2
v 0.8 2.6 1.2
v 0.9 1.1 1.2
v 0.9 2.5 1.2
v 0.9 0 1.1
v 0.9 0.2 1.1
v 1.1 0 1.1
v 1.1 0.2 1.1
v -0.5 0 1
v -0.5 1 1
v -0.4 0 1
v -0.4 0.3 1
v -0.3 0.3 1
v -0.3 0.9 1
v -0.1 0 1
v -0.1 0.3 1
v 0.2 0 1
v 0.2 0.3 1
v 0.4 0.3 1
v 0.4 0.9 1
v 0.5 0 1
v 0.5 0.3 1
v 0.6 0 1
v 0.6 1 1
v -0.9 2.2 0.8
v -0.9 2.9 0.8
v -0.8 2.2 0.8
v -0.8 2.5 0.8
v -0.8 2.9 0.8
v -0.8 3 0.8
v -0.7 0.3 0.8
v -0.7 0.4 0.8
v -0.7 1 0.8
v -0.6 2.8 0.8
v -0.6 2.9 0.8
v -0.5 0.3 0.8
v -0.5 0.4 0.8
v -0.5 1 0.8
v -0.5 2.7 0.8
v -0.5 2.8 0.8
v -0.5 2.9 0.8
v -0.5 3 0.8
v -0.4 2.6 0.8
v -0.4 2.7 0.8
v -0.4 2.8 0.8
v -0.4 2.9 0.8
v -0.3 2.6 0.8
v -0.3 2.8 0.8
v 0.4 2.6 0.8
v 0.4 2.8 0.8
v 0.5 2.6 0.8
v 0.5 2.7 0.8
v 0.5 2.8 0.8
v 0.5 2.9 0.8
v 0.6 0.3 0.8
v 0.6 0.4 0.8
v 0.6 1 0.8
v 0.6 2.7 0.8
v 0.6 2.8 0.8
v 0.6 2.9 0.8
v 0.6 3 0.8
v 0.7 2.8 0.8
v 0.7 2.9 0.8
v 0.8 0.3 0.8
v 0.8 0.4 0.8
v 0.8 1 0.8
v 0.9 2.2 0.8
v 0.9 2.5 0.8
v 0.9 2.9 0.8
v 0.9 3 0.8
v 1 2.2 0.8
v 1 2.9 0.8
v -0.8 2.5 0.7
v -0.8 2.9 0.7
v -0.7 2.5 0.7
v -0.7 2.6 0.7
v -0.6 2.8 0.7
v -0.6 2.9 0.7
v -0.5 2.7 0.7
v -0.5 2.8 0.7
v -0.4 2.6 0.7
v -0.4 2.7 0.7
v 0.5 2.6 0.7
v 0.5 2.7 0.7
v 0.6 2.7 0.7
v 0.6 2.8 0.7
v 0.7 2.8 0.7
v 0.7 2.9 0.7
v 0.8 2.5 0.7
v 0.8 2.6 0.7
v 0.9 2.5 0.7
v 0.9 2.9 0.7
v 0.8 0 0.4
v 0.8 0.2 0.4
v 0.9 0 0.4
v 0.9 0.2 0.4
v 0.1 0 0.1
v 0.1 0.2 0.1
v 0.2 0 0.1
v 0.2 0.2 0.1
v 0.6 0 0.1
v 0.6 0.2 0.1
v 0.8 0 0.1
v 0.8 0.2 0.1
v 0.2 0 0
v 0.2 0.2 0
v 0.3 0 0
v 0.3 0.2 0
v 0.5 0 0
v 0.5 0.2 0
v 0.6 0 0
v 0.6 0.2 0
v 0.3 0 -0.1
v 0.3 0.2 -0.1
v 0.5 0 -0.1
v 0.5 0.2 -0.1
v 1.1 0 0.9
v 1.1 0.2 0.9
v 1.3 0 0.9
v 1.3 0.2 0.9
v -0.7 0.3 0.5
v -0.7 0.4 0.5
v -0.7 1 0.5
v -0.5 0.3 0.5
v -0.5 0.4 0.5
v -0.5 1 0.5
v 0.6 0.3 0.5
v 0.6 0.4 0.5
v 0.6 1 0.5
v 0.8 0.3 0.5
v 0.8 0.4 0.5
v 0.8 1 0.5
v -0.9 2.2 0.4
v -0.9 2.9 0.4
v -0.8 2.2 0.4
v -0.8 2.5 0.4
v -0.8 2.9 0.4
v -0.8 3 0.4
v -0.7 2.5 0.4
v -0.7 2.6 0.4
v -0.5 2.9 0.4
v -0.5 3 0.4
v -0.4 2.8 0.4
v -0.4 2.9 0.4
v -0.3 2.6 0.4
v -0.3 2.8 0.4
v 0.4 2.6 0.4
v 0.4 2.8 0.4
v 0.5 2.8 0.4
v 0.5 2.9 0.4
v 0.6 2.9 0.4
v 0.6 3 0.4
v 0.8 2.5 0.4
v 0.8 2.6 0.4
v 0.9 2.2 0.4
v 0.9 2.5 0.4
v 0.9 2.9 0.4
v 0.9 3 0.4
v 1 2.2 0.4
v 1 2.9 0.4
v -0.5 0 0.3
v -0.5 1 0.3
v -0.1 0 0.3
v -0.1 0.2 0.3
v 0.1 0 0.3
v 0.1 0.2 0.3
v 0.6 0 0.3
v 0.6 1 0.3
v -0.8 1.1 0.1
v -0.8 2.5 0.1
v -0.7 1 0.1
v -0.7 1.1 0.1
v -0.7 2.5 0.1
v -0.7 2.6 0.1
v 0.8 1 0.1
v 0.8 1.1 0.1
v 0.8 2.5 0.1
v 0.8 2.6 0.1
v 0.9 1.1 0.1
v 0.9 2.5 0.1
v 1 0 0.1
v 1 0.2 0.1
v 1.1 0 0.1
v 1.1 0.2 0.1
v -0.7 1.1 0
v -0.7 2.5 0
v 0.8 1.1 0
v 0.8 2.5 0
v 0.9 0 0
v 0.9 0.2 0
v 1 0 0
v 1 0.2 0
v -0.1 0 -0.1
v -0.1 0.2 -0.1
v 0 0 -0.1
v 0 0.2 -0.1
v 0.8 0 -0.1
v 0.8 0.2 -0.1
v 0.9 0 -0.1
v 0.9 0.2 -0.1
v 0 0 -0.2
v 0 0.2 -0.2
v 0.1 0 -0.2
v 0.1 0.2 -0.2
v 0.7 0 -0.2
v 0.7 0.2 -0.2
v 0.8 0 -0.2
v 0.8 0.2 -0.2
v 0.1 0 -0.3
v 0.1 0.2 -0.3
v 0.7 0 -0.3
v 0.7 0.2 -0.3
v -0.4 0 1.4
v -0.1 0 1.4
v 0.2 0 1.4
v 0.5 0 1.4
v -0.4 0 1.3
v -0.1 0 1.3
v 0.2 0 1.3
v 0.5 0 1.3
v 1.1 0 1.3
v 1.3 0 1.3
v 0.9 0 1.1
v 1.1 0 1.1
v -0.5 0 1
v -0.4 0 1
v -0.1 0 1
v 0.2 0 1
v 0.5 0 1
v 0.6 0 1
v -0.1 0 0.9
v 0.2 0 0.9
v 1.1 0 0.9
v 1.3 0 0.9
v 0.8 0 0.4
v 0.9 0 0.4
v -0.5 0 0.3
v -0.1 0 0.3
v 0.1 0 0.3
v 0.6 0 0.3
v 0.1 0 0.1
v 0.2 0 0.1
v 0.6 0 0.1
v 0.8 0 0.1
v 1 0 0.1
v 1.1 0 0.1
v 0.2 0 0
v 0.3 0 0
v 0.5 0 0
v 0.6 0 0
v 0.9 0 0
v 1 0 0
v -0.1 0 -0.1
v 0 0 -0.1
v 0.3 0 -0.1
v 0.5 0 -0.1
v 0.8 0 -0.1
v 0.9 0 -0.1
v 0 0 -0.2
v 0.1 0 -0.2
v 0.7 0 -0.2
v 0.8 0 -0.2
v 0.1 0 -0.3
v 0.7 0 -0.3
v -0.7 0.3 0.8
v -0.5 0.3 0.8
v 0.6 0.3 0.8
v 0.8 0.3 0.8
v -0.7 0.3 0.5
v -0.5 0.3 0.5
v 0.6 0.3 0.5
v 0.8 0.3 0.5
v -0.7 1 1.2
v 0.8 1 1.2
v -0.5 1 1
v 0.6 1 1
v -0.7 1 0.8
v -0.5 1 0.8
v 0.6 1 0.8
v 0.8 1 0.8
v -0.7 1 0.5
v -0.5 1 0.5
v 0.6 1 0.5
v 0.8 1 0.5
v -0.5 1 0.3
v 0.6 1 0.3
v -0.7 1 0.1
v 0.8 1 0.1
v -0.7 1.1 1.3
v 0.8 1.1 1.3
v -0.8 1.1 1.2
v -0.7 1.1 1.2
v 0.8 1.1 1.2
v 0.9 1.1 1.2
v -0.8 1.1 0.1
v -0.7 1.1 0.1
v 0.8 1.1 0.1
v 0.9 1.1 0.1
v -0.7 1.1 0
v 0.8 1.1 0
v -0.1 1.2 1.4
v 0.2 1.2 1.4
v -0.1 1.2 1.3
v 0.2 1.2 1.3
v -0.4 1.3 1.5
v -0.1 1.3 1.5
v 0.2 1.3 1.5
v 0.5 1.3 1.5
v -0.1 1.3 1.4
v 0.2 1.3 1.4
v -0.4 1.3 1.3
v -0.1 1.3 1.3
v 0.2 1.3 1.3
v 0.5 1.3 1.3
v -0.1 1.4 1.5
v 0.2 1.4 1.5
v -0.1 1.4 1.4
v 0.2 1.4 1.4
v -0.6 2.1 1.3
v -0.5 2.1 1.3
v -0.2 2.1 1.3
v -0.1 2.1 1.3
v 0.2 2.1 1.3
v 0.3 2.1 1.3
v 0.6 2.1 1.3
v 0.7 2.1 1.3
v -0.6 2.1 1.2
v -0.5 2.1 1.2
v -0.2 2.1 1.2
v -0.1 2.1 1.2
v 0.2 2.1 1.2
v 0.3 2.1 1.2
v 0.6 2.1 1.2
v 0.7 2.1 1.2
v -0.5 2.2 1.3
v -0.2 2.2 1.3
v 0.3 2.2 1.3
v 0.6 2.2 1.3
v -0.5 2.2 1.2
v -0.2 2.2 1.2
v 0.3 2.2 1.2
v 0.6 2.2 1.2
v -0.9 2.2 0.8
v -0.8 2.2 0.8
v 0.9 2.2 0.8
v 1 2.2 0.8
v -0.9 2.2 0.4
v -0.8 2.2 0.4
v 0.9 2.2 0.4
v 1 2.2 0.4
v -0.5 2.7 0.8
v -0.4 2.7 0.8
v 0.5 2.7 0.8
v 0.6 2.7 0.8
v -0.5 2.7 0.7
v -0.4 2.7 0.7
v 0.5 2.7 0.7
v 0.6 2.7 0.7
v -0.6 2.8 0.8
v -0.5 2.8 0.8
v 0.6 2.8 0.8
v 0.7 2.8 0.8
v -0.6 2.8 0.7
v -0.5 2.8 0.7
v 0.6 2.8 0.7
v 0.7 2.8 0.7
v -0.8 2.9 0.8
v -0.6 2.9 0.8
v 0.7 2.9 0.8
v 0.9 2.9 0.8
v -0.8 2.9 0.7
v -0.6 2.9 0.7
v 0.7 2.9 0.7
v 0.9 2.9 0.7
v 1.1 0.2 1.3
v 1.3 0.2 1.3
v 0.9 0.2 1.1
v 1.1 0.2 1.1
v 1.1 0.2 0.9
v 1.3 0.2 0.9
v 0.8 0.2 0.4
v 0.9 0.2 0.4
v -0.1 0.2 0.3
v 0.1 0.2 0.3
v 0.1 0.2 0.1
v 0.2 0.2 0.1
v 0.6 0.2 0.1
v 0.8 0.2 0.1
v 1 0.2 0.1
v 1.1 0.2 0.1
v 0.2 0.2 0
v 0.3 0.2 0
v 0.5 0.2 0
v 0.6 0.2 0
v 0.9 0.2 0
v 1 0.2 0
v -0.1 0.2 -0.1
v 0 0.2 -0.1
v 0.3 0.2 -0.1
v 0.5 0.2 -0.1
v 0.8 0.2 -0.1
v 0.9 0.2 -0.1
v 0 0.2 -0.2
v 0.1 0.2 -0.2
v 0.7 0.2 -0.2
v 0.8 0.2 -0.2
v 0.1 0.2 -0.3
v 0.7 0.2 -0.3
v -0.4 0.3 1.4
v -0.1 0.3 1.4
v 0.2 0.3 1.4
v 0.5 0.3 1.4
v -0.4 0.3 1.3
v -0.1 0.3 1.3
v 0.2 0.3 1.3
v 0.5 0.3 1.3
v -0.4 0.3 1
v -0.3 0.3 1
v -0.1 0.3 1
v 0.2 0.3 1
v 0.4 0.3 1
v 0.5 0.3 1
v -0.4 1.5 1.5
v -0.1 1.5 1.5
v 0.2 1.5 1.5
v 0.5 1.5 1.5
v -0.4 1.5 1.3
v -0.1 1.5 1.3
v 0.2 1.5 1.3
v 0.5 1.5 1.3
v -0.1 1.6 1.5
v 0 1.6 1.5
v 0.1 1.6 1.5
v 0.2 1.6 1.5
v 0 1.6 1.4
v 0.1 1.6 1.4
v -0.1 1.6 1.3
v 0.2 1.6 1.3
v -0.5 1.7 1.3
v -0.2 1.7 1.3
v 0.3 1.7 1.3
v 0.6 1.7 1.3
v -0.5 1.7 1.2
v -0.2 1.7 1.2
v 0.3 1.7 1.2
v 0.6 1.7 1.2
v -0.6 1.8 1.3
v -0.5 1.8 1.3
v -0.2 1.8 1.3
v -0.1 1.8 1.3
v 0.2 1.8 1.3
v 0.3 1.8 1.3
v 0.6 1.8 1.3
v 0.7 1.8 1.3
v -0.6 1.8 1.2
v -0.5 1.8 1.2
v -0.2 1.8 1.2
v -0.1 1.8 1.2
v 0.2 1.8 1.2
v 0.3 1.8 1.2
v 0.6 1.8 1.2
v 0.7 1.8 1.2
v -0.7 2.5 1.3
v 0.8 2.5 1.3
v -0.8 2.5 1.2
v -0.7 2.5 1.2
v 0.8 2.5 1.2
v 0.9 2.5 1.2
v -0.8 2.5 0.8
v 0.9 2.5 0.8
v -0.8 2.5 0.7
v -0.7 2.5 0.7
v 0.8 2.5 0.7
v 0.9 2.5 0.7
v -0.8 2.5 0.4
v -0.7 2.5 0.4
v 0.8 2.5 0.4
v 0.9 2.5 0.4
v -0.8 2.5 0.1
v -0.7 2.5 0.1
v 0.8 2.5 0.1
v 0.9 2.5 0.1
v -0.7 2.5 0
v 0.8 2.5 0
v -0.7 2.6 1.2
v 0.8 2.6 1.2
v -0.4 2.6 0.8
v -0.3 2.6 0.8
v 0.4 2.6 0.8
v 0.5 2.6 0.8
v -0.7 2.6 0.7
v -0.4 2.6 0.7
v 0.5 2.6 0.7
v 0.8 2.6 0.7
v -0.7 2.6 0.4
v -0.3 2.6 0.4
v 0.4 2.6 0.4
v 0.8 2.6 0.4
v -0.7 2.6 0.1
v 0.8 2.6 0.1
v -0.4 2.8 0.8
v -0.3 2.8 0.8
v 0.4 2.8 0.8
v 0.5 2.8 0.8
v -0.4 2.8 0.4
v -0.3 2.8 0.4
v 0.4 2.8 0.4
v 0.5 2.8 0.4
v -0.9 2.9 0.8
v -0.8 2.9 0.8
v -0.5 2.9 0.8
v -0.4 2.9 0.8
v 0.5 2.9 0.8
v 0.6 2.9 0.8
v 0.9 2.9 0.8
v 1 2.9 0.8
v -0.9 2.9 0.4
v -0.8 2.9 0.4
v -0.5 2.9 0.4
v -0.4 2.9 0.4
v 0.5 2.9 0.4
v 0.6 2.9 0.4
v 0.9 2.9 0.4
v 1 2.9 0.4
v -0.8 3 0.8
v -0.5 3 0.8
v 0.6 3 0.8
v 0.9 3 0.8
v -0.8 3 0.4
v -0.5 3 0.4
v 0.6 3 0.4
v 0.9 3 0.4

# faces
f 3/3/1 2/3/1 1/3/1
f 4/3/1 2/3/1 3/3/1
f 7/3/1 6/3/1 5/3/1
f 8/3/1 6/3/1 7/3/1
f 9/3/1 7/3/1 5/3/1
f 10/3/1 7/3/1 9/3/1
f 11/3/1 6/3/1 8/3/1
f 12/3/1 6/3/1 11/3/1
f 15/3/1 14/3/1 13/3/1
f 16/3/1 14/3/1 15/3/1
f 19/5/1 18/5/1 17/5/1
f 20/5/1 18/5/1 19/5/1
f 22/3/1 20/3/1 19/3/1
f 23/3/1 20/3/1 22/3/1
f 26/3/1 23/3/1 22/3/1
f 26/3/1 24/3/1 23/3/1
f 26/3/1 22/3/1 21/3/1
f 27/3/1 24/3/1 26/3/1
f 29/3/1 26/3/1 25/3/1
f 30/3/1 26/3/1 29/3/1
f 33/3/1 28/3/1 27/3/1
f 34/3/1 28/3/1 33/3/1
f 35/3/1 31/3/1 30/3/1
f 36/3/1 31/3/1 35/3/1
f 37/3/1 33/3/1 32/3/1
f 38/3/1 33/3/1 37/3/1
f 41/3/1 40/3/1 39/3/1
f 42/3/1 40/3/1 41/3/1
f 45/3/1 44/3/1 43/3/1
f 46/3/1 44/3/1 45/3/1
f 47/3/1 45/3/1 43/3/1
f 48/3/1 44/3/1 46/3/1
f 49/3/1 47/3/1 43/3/1
f 50/3/1 47/3/1 49/3/1
f 51/3/1 44/3/1 48/3/1
f 52/3/1 44/3/1 51/3/1
f 55/3/1 54/3/1 53/3/1
f 56/3/1 54/3/1 55/3/1
f 60/5/1 58/5/1 57/5/1
f 61/3/1 59/3/1 58/3/1
f 61/5/1 58/5/1 60/5/1
f 62/3/1 59/3/1 61/3/1
f 65/5/1 64/5/1 63/5/1
f 66/5/1 64/5/1 65/5/1
f 69/3/1 68/3/1 67/3/1
f 70/3/1 68/3/1 69/3/1
f 73/3/1 72/3/1 71/3/1
f 74/3/1 72/3/1 73/3/1
f 77/3/1 76/3/1 75/3/1
f 78/3/1 76/3/1 77/3/1
f 81/3/1 80/3/1 79/3/1
f 82/3/1 80/3/1 81/3/1
f 85/5/1 84/5/1 83/5/1
f 86/5/1 84/5/1 85/5/1
f 89/5/1 88/5/1 87/5/1
f 90/5/1 88/5/1 89/5/1
f 93/3/1 92/3/1 91/3/1
f 94/3/1 92/3/1 93/3/1
f 97/3/1 96/3/1 95/3/1
f 98/3/1 96/3/1 97/3/1
f 101/3/1 100/3/1 99/3/1
f 102/3/1 100/3/1 101/3/1
f 106/5/1 104/5/1 103/5/1
f 107/3/1 105/3/1 104/3/1
f 107/5/1 104/5/1 106/5/1
f 108/3/1 105/3/1 107/3/1
f 111/5/1 110/5/1 109/5/1
f 112/5/1 110/5/1 111/5/1
f 115/3/1 114/3/1 113/3/1
f 116/3/1 114/3/1 115/3/1
f 119/3/1 118/3/1 117/3/1
f 120/3/1 118/3/1 119/3/1
f 123/3/1 122/3/1 121/3/1
f 124/3/1 122/3/1 123/3/1
f 127/3/1 126/3/1 125/3/1
f 128/3/1 126/3/1 127/3/1
f 131/3/1 130/3/1 129/3/1
f 132/3/1 130/3/1 131/3/1
f 135/3/1 134/3/1 133/3/1
f 136/3/1 134/3/1 135/3/1
f 139/3/1 138/3/1 137/3/1
f 140/3/1 138/3/1 139/3/1
f 143/3/1 142/3/1 141/3/1
f 144/3/1 142/3/1 143/3/1
f 147/3/1 146/3/1 145/3/1
f 148/3/1 146/3/1 147/3/1
f 151/3/1 150/3/1 149/3/1
f 152/3/1 150/3/1 151/3/1
f 155/3/1 154/3/1 153/3/1
f 156/3/1 154/3/1 155/3/1
f 159/3/1 158/3/1 157/3/1
f 160/3/1 158/3/1 159/3/1
f 161/3/2 162/3/2 163/3/2
f 163/3/2 162/3/2 164/3/2
f 165/3/2 166/3/2 167/3/2
f 167/3/2 166/3/2 168/3/2
f 169/3/2 170/3/2 171/3/2
f 171/3/2 170/3/2 172/3/2
f 173/3/2 174/3/2 175/3/2
f 175/3/2 174/3/2 176/3/2
f 177/3/2 178/3/2 179/3/2
f 179/3/2 178/3/2 180/3/2
f 181/3/2 182/3/2 183/3/2
f 183/3/2 182/3/2 184/3/2
f 185/3/2 186/3/2 187/3/2
f 187/3/2 186/3/2 188/3/2
f 189/5/2 190/5/2 192/5/2
f 190/3/2 191/3/2 193/3/2
f 192/5/2 190/5/2 193/5/2
f 193/3/2 191/3/2 194/3/2
f 195/5/2 196/5/2 197/5/2
f 197/5/2 196/5/2 198/5/2
f 199/3/2 200/3/2 201/3/2
f 201/3/2 200/3/2 202/3/2
f 203/3/2 204/3/2 205/3/2
f 205/3/2 204/3/2 206/3/2
f 207/5/2 208/5/2 209/5/2
f 209/5/2 208/5/2 210/5/2
f 211/5/2 212/5/2 213/5/2
f 213/5/2 212/5/2 214/5/2
f 215/3/2 216/3/2 217/3/2
f 217/3/2 216/3/2 218/3/2
f 219/3/2 220/3/2 221/3/2
f 221/3/2 220/3/2 222/3/2
f 223/3/2 224/3/2 225/3/2
f 225/3/2 224/3/2 226/3/2
f 227/3/2 228/3/2 229/3/2
f 229/3/2 228/3/2 230/3/2
f 231/5/2 232/5/2 234/5/2
f 232/3/2 233/3/2 235/3/2
f 234/5/2 232/5/2 235/5/2
f 235/3/2 233/3/2 236/3/2
f 237/5/2 238/5/2 239/5/2
f 239/5/2 238/5/2 240/5/2
f 241/3/2 242/3/2 243/3/2
f 243/3/2 242/3/2 244/3/2
f 245/3/2 246/3/2 247/3/2
f 247/3/2 246/3/2 248/3/2
f 245/3/2 247/3/2 249/3/2
f 248/3/2 246/3/2 250/3/2
f 245/3/2 249/3/2 251/3/2
f 251/3/2 249/3/2 252/3/2
f 250/3/2 246/3/2 253/3/2
f 253/3/2 246/3/2 254/3/2
f 255/3/2 256/3/2 257/3/2
f 257/3/2 256/3/2 258/3/2
f 259/3/2 260/3/2 261/3/2
f 261/3/2 260/3/2 262/3/2
f 263/3/2 264/3/2 265/3/2
f 265/3/2 264/3/2 266/3/2
f 267/3/2 268/3/2 269/3/2
f 269/3/2 268/3/2 270/3/2
f 271/5/2 272/5/2 273/5/2
f 273/5/2 272/5/2 274/5/2
f 273/3/2 274/3/2 276/3/2
f 276/3/2 274/3/2 277/3/2
f 276/3/2 277/3/2 280/3/2
f 277/3/2 278/3/2 280/3/2
f 275/3/2 276/3/2 280/3/2
f 280/3/2 278/3/2 281/3/2
f 279/3/2 280/3/2 283/3/2
f 283/3/2 280/3/2 284/3/2
f 281/3/2 282/3/2 287/3/2
f 287/3/2 282/3/2 288/3/2
f 284/3/2 285/3/2 289/3/2
f 289/3/2 285/3/2 290/3/2
f 286/3/2 287/3/2 291/3/2
f 291/3/2 287/3/2 292/3/2
f 293/3/2 294/3/2 295/3/2
f 295/3/2 294/3/2 296/3/2
f 297/3/2 298/3/2 299/3/2
f 299/3/2 298/3/2 300/3/2
f 297/3/2 299/3/2 301/3/2
f 301/3/2 299/3/2 302/3/2
f 300/3/2 298/3/2 303/3/2
f 303/3/2 298/3/2 304/3/2
f 305/3/2 306/3/2 307/3/2
f 307/3/2 306/3/2 308/3/2
f 309/3/2 310/3/2 311/3/2
f 311/3/2 310/3/2 312/3/2
f 313/3/2 314/3/2 315/3/2
f 315/3/2 314/3/2 316/3/2
f 317/3/2 318/3/2 319/3/2
f 319/3/2 318/3/2 320/3/2
f 321/3/2 322/3/2 323/3/2
f 323/3/2 322/3/2 324/3/2
f 327/5/3 326/5/3 325/5/3
f 328/5/3 326/5/3 327/5/3
f 329/5/3 326/5/3 328/5/3
f 331/5/3 330/5/3 329/5/3
f 331/5/3 329/5/3 328/5/3
f 332/5/3 330/5/3 331/5/3
f 333/5/3 331/5/3 328/5/3
f 333/1/3 332/1/3 331/1/3
f 334/1/3 332/1/3 333/1/3
f 336/5/3 333/5/3 328/5/3
f 336/5/3 334/5/3 333/5/3
f 337/5/3 334/5/3 336/5/3
f 338/5/3 334/5/3 337/5/3
f 339/5/3 336/5/3 335/5/3
f 339/5/3 337/5/3 336/5/3
f 340/5/3 337/5/3 339/5/3
f 343/5/3 342/5/3 341/5/3
f 344/5/3 342/5/3 343/5/3
f 350/5/3 347/5/3 346/5/3
f 350/5/3 346/5/3 345/5/3
f 351/5/3 347/5/3 350/5/3
f 352/5/3 347/5/3 351/5/3
f 353/5/3 349/5/3 348/5/3
f 354/5/3 349/5/3 353/5/3
f 357/3/3 356/3/3 355/3/3
f 358/3/3 356/3/3 357/3/3
f 359/3/3 357/3/3 355/3/3
f 360/3/3 357/3/3 359/3/3
f 361/3/3 356/3/3 358/3/3
f 362/3/3 356/3/3 361/3/3
f 363/3/3 359/3/3 355/3/3
f 364/3/3 359/3/3 363/3/3
f 365/3/3 359/3/3 364/3/3
f 368/3/3 356/3/3 362/3/3
f 369/3/3 363/3/3 355/3/3
f 370/3/3 363/3/3 369/3/3
f 371/3/3 366/3/3 365/3/3
f 371/3/3 365/3/3 364/3/3
f 372/3/3 366/3/3 371/3/3
f 373/3/3 366/3/3 372/3/3
f 374/3/3 368/3/3 367/3/3
f 375/3/3 369/3/3 355/3/3
f 378/3/3 374/3/3 373/3/3
f 378/3/3 373/3/3 372/3/3
f 379/3/3 374/3/3 378/3/3
f 380/3/3 368/3/3 374/3/3
f 380/3/3 374/3/3 379/3/3
f 381/3/3 379/3/3 378/3/3
f 381/3/3 378/3/3 377/3/3
f 382/3/3 379/3/3 381/3/3
f 383/3/3 368/3/3 380/3/3
f 384/3/3 356/3/3 368/3/3
f 384/3/3 368/3/3 383/3/3
f 385/3/3 376/3/3 375/3/3
f 386/3/3 381/3/3 377/3/3
f 387/3/3 381/3/3 386/3/3
f 387/3/3 386/3/3 385/3/3
f 390/3/3 356/3/3 384/3/3
f 391/3/3 388/3/3 387/3/3
f 392/3/3 390/3/3 389/3/3
f 393/3/3 391/3/3 387/3/3
f 393/3/3 392/3/3 391/3/3
f 393/3/3 375/3/3 355/3/3
f 393/3/3 385/3/3 375/3/3
f 393/3/3 387/3/3 385/3/3
f 394/3/3 390/3/3 392/3/3
f 394/3/3 392/3/3 393/3/3
f 394/3/3 356/3/3 390/3/3
f 397/3/3 396/3/3 395/3/3
f 398/3/3 396/3/3 397/3/3
f 402/3/3 400/3/3 399/3/3
f 403/3/3 400/3/3 402/3/3
f 408/4/3 406/4/3 405/4/3
f 409/4/3 406/4/3 408/4/3
f 410/4/3 406/4/3 409/4/3
f 412/7/3 409/7/3 408/7/3
f 412/5/3 410/5/3 409/5/3
f 413/4/3 411/4/3 410/4/3
f 413/5/3 410/5/3 412/5/3
f 414/4/3 408/4/3 407/4/3
f 415/7/3 412/7/3 408/7/3
f 415/4/3 408/4/3 414/4/3
f 415/7/3 413/7/3 412/7/3
f 416/4/3 411/4/3 413/4/3
f 416/7/3 413/7/3 415/7/3
f 417/4/3 411/4/3 416/4/3
f 418/4/3 416/4/3 415/4/3
f 419/4/3 416/4/3 418/4/3
f 423/4/3 421/4/3 420/4/3
f 424/4/3 421/4/3 423/4/3
f 425/4/3 421/4/3 424/4/3
f 427/5/3 425/5/3 424/5/3
f 427/7/3 424/7/3 423/7/3
f 428/4/3 426/4/3 425/4/3
f 428/5/3 425/5/3 427/5/3
f 429/4/3 423/4/3 422/4/3
f 430/7/3 427/7/3 423/7/3
f 430/4/3 423/4/3 429/4/3
f 430/7/3 428/7/3 427/7/3
f 431/4/3 426/4/3 428/4/3
f 431/7/3 428/7/3 430/7/3
f 432/4/3 426/4/3 431/4/3
f 433/4/3 431/4/3 430/4/3
f 434/4/3 431/4/3 433/4/3
f 435/3/3 402/3/3 401/3/3
f 436/3/3 402/3/3 435/3/3
f 437/3/3 404/3/3 403/3/3
f 438/3/3 404/3/3 437/3/3
f 439/3/3 437/3/3 436/3/3
f 440/3/3 437/3/3 439/3/3
f 443/3/3 442/3/3 441/3/3
f 444/3/3 442/3/3 443/3/3
f 447/3/3 446/3/3 445/3/3
f 448/3/3 446/3/3 447/3/3
f 449/3/3 446/3/3 448/3/3
f 450/3/3 446/3/3 449/3/3
f 452/5/3 450/5/3 449/5/3
f 453/5/3 452/5/3 451/5/3
f 454/5/3 450/5/3 452/5/3
f 454/5/3 452/5/3 453/5/3
f 455/5/3 450/5/3 454/5/3
f 456/3/3 446/3/3 450/3/3
f 456/5/3 450/5/3 455/5/3
f 458/3/3 456/3/3 455/3/3
f 459/3/3 458/3/3 457/3/3
f 460/3/3 446/3/3 456/3/3
f 460/3/3 458/3/3 459/3/3
f 460/3/3 456/3/3 458/3/3
f 463/3/3 462/3/3 461/3/3
f 464/3/3 462/3/3 463/3/3
f 465/3/3 462/3/3 464/3/3
f 471/3/3 466/3/3 465/3/3
f 472/5/3 468/5/3 467/5/3
f 473/3/3 469/3/3 468/3/3
f 473/5/3 468/5/3 472/5/3
f 474/3/3 469/3/3 473/3/3
f 476/3/3 471/3/3 470/3/3
f 477/3/3 466/3/3 471/3/3
f 477/3/3 471/3/3 476/3/3
f 478/3/3 466/3/3 477/3/3
f 480/3/3 476/3/3 475/3/3
f 480/3/3 477/3/3 476/3/3
f 481/3/3 477/3/3 480/3/3
f 482/3/3 477/3/3 481/3/3
f 483/3/3 480/3/3 479/3/3
f 483/3/3 481/3/3 480/3/3
f 484/3/3 481/3/3 483/3/3
f 487/3/3 486/3/3 485/3/3
f 488/3/3 486/3/3 487/3/3
f 489/3/3 486/3/3 488/3/3
f 494/3/3 489/3/3 488/3/3
f 494/3/3 490/3/3 489/3/3
f 495/3/3 490/3/3 494/3/3
f 496/3/3 490/3/3 495/3/3
f 498/3/3 496/3/3 495/3/3
f 498/3/3 497/3/3 496/3/3
f 499/3/3 497/3/3 498/3/3
f 500/5/3 492/5/3 491/5/3
f 501/3/3 493/3/3 492/3/3
f 501/5/3 492/5/3 500/5/3
f 502/3/3 493/3/3 501/3/3
f 505/3/3 497/3/3 499/3/3
f 506/3/3 497/3/3 505/3/3
f 507/3/3 504/3/3 503/3/3
f 507/3/3 505/3/3 504/3/3
f 508/3/3 505/3/3 507/3/3
f 511/2/3 510/2/3 509/2/3
f 512/2/3 510/2/3 511/2/3
f 513/2/3 510/2/3 512/2/3
f 514/2/3 510/2/3 513/2/3
f 515/2/3 513/2/3 512/2/3
f 516/2/3 513/2/3 515/2/3
f 517/2/3 515/2/3 512/2/3
f 518/2/3 515/2/3 517/2/3
f 521/2/3 520/2/3 519/2/3
f 523/2/3 522/2/3 521/2/3
f 526/2/3 523/2/3 521/2/3
f 526/2/3 524/2/3 523/2/3
f 526/2/3 521/2/3 519/2/3
f 527/2/3 526/2/3 525/2/3
f 528/2/3 524/2/3 526/2/3
f 528/2/3 526/2/3 527/2/3
f 531/3/3 530/3/3 529/3/3
f 532/3/3 530/3/3 531/3/3
f 535/3/3 534/3/3 533/3/3
f 536/3/3 534/3/3 535/3/3
f 539/3/3 538/3/3 537/3/3
f 540/3/3 538/3/3 539/3/3
f 543/3/3 542/3/3 541/3/3
f 544/3/3 542/3/3 543/3/3
f 547/3/3 546/3/3 545/3/3
f 548/3/3 546/3/3 547/3/3
f 551/3/3 550/3/3 549/3/3
f 552/3/3 550/3/3 551/3/3
f 553/3/4 554/3/4 555/3/4
f 555/3/4 554/3/4 556/3/4
f 557/5/4 558/5/4 560/5/4
f 558/3/4 559/3/4 561/3/4
f 560/5/4 558/5/4 561/5/4
f 561/3/4 559/3/4 562/3/4
f 563/5/4 564/5/4 566/5/4
f 564/3/4 565/3/4 567/3/4
f 566/5/4 564/5/4 567/5/4
f 567/3/4 565/3/4 568/3/4
f 569/3/4 570/3/4 571/3/4
f 571/3/4 570/3/4 572/3/4
f 572/3/4 570/3/4 573/3/4
f 573/3/4 574/3/4 575/3/4
f 572/3/4 573/3/4 575/3/4
f 575/3/4 574/3/4 576/3/4
f 576/3/4 574/3/4 577/3/4
f 577/3/4 574/3/4 578/3/4
f 576/3/4 577/3/4 579/3/4
f 579/3/4 577/3/4 580/3/4
f 576/3/4 579/3/4 581/3/4
f 581/3/4 579/3/4 582/3/4
f 583/3/4 584/3/4 585/3/4
f 585/3/4 586/3/4 587/3/4
f 585/3/4 587/3/4 590/3/4
f 587/3/4 588/3/4 590/3/4
f 583/3/4 585/3/4 590/3/4
f 589/3/4 590/3/4 592/3/4
f 590/3/4 588/3/4 593/3/4
f 592/3/4 590/3/4 593/3/4
f 593/3/4 588/3/4 594/3/4
f 591/3/4 592/3/4 595/3/4
f 592/3/4 593/3/4 595/3/4
f 595/3/4 593/3/4 596/3/4
f 597/3/4 598/3/4 599/3/4
f 599/3/4 598/3/4 600/3/4
f 600/3/4 598/3/4 602/3/4
f 601/3/4 602/3/4 603/3/4
f 602/3/4 598/3/4 604/3/4
f 603/3/4 602/3/4 604/3/4
f 605/3/4 606/3/4 608/3/4
f 608/3/4 606/3/4 609/3/4
f 607/3/4 608/3/4 611/3/4
f 611/3/4 608/3/4 612/3/4
f 609/3/4 610/3/4 613/3/4
f 613/3/4 610/3/4 614/3/4
f 612/3/4 613/3/4 615/3/4
f 615/3/4 613/3/4 616/3/4
f 617/3/4 618/3/4 619/3/4
f 619/3/4 618/3/4 620/3/4
f 621/3/4 622/3/4 623/3/4
f 623/3/4 622/3/4 624/3/4
f 625/3/4 626/3/4 627/3/4
f 627/3/4 626/3/4 628/3/4
f 629/3/4 630/3/4 631/3/4
f 631/3/4 630/3/4 632/3/4
f 633/3/4 634/3/4 635/3/4
f 635/3/4 634/3/4 636/3/4
f 637/3/4 638/3/4 639/3/4
f 639/3/4 638/3/4 640/3/4
f 641/3/4 642/3/4 643/3/4
f 643/3/4 642/3/4 644/3/4
f 645/3/4 646/3/4 647/3/4
f 647/3/4 646/3/4 648/3/4
f 653/5/5 650/5/5 649/5/5
f 654/5/5 650/5/5 653/5/5
f 655/5/5 652/5/5 651/5/5
f 656/5/5 652/5/5 655/5/5
f 660/3/5 658/3/5 657/3/5
f 662/3/5 654/3/5 653/3/5
f 663/3/5 654/3/5 662/3/5
f 664/3/5 656/3/5 655/3/5
f 665/3/5 656/3/5 664/3/5
f 667/3/5 663/3/5 662/3/5
f 667/3/5 662/3/5 661/3/5
f 667/5/5 664/5/5 663/5/5
f 668/3/5 666/3/5 665/3/5
f 668/5/5 664/5/5 667/5/5
f 668/3/5 665/3/5 664/3/5
f 669/3/5 660/3/5 659/3/5
f 669/3/5 658/3/5 660/3/5
f 670/3/5 658/3/5 669/3/5
f 672/3/5 669/3/5 659/3/5
f 673/3/5 667/3/5 661/3/5
f 673/3/5 668/3/5 667/3/5
f 674/3/5 668/3/5 673/3/5
f 675/3/5 668/3/5 674/3/5
f 676/3/5 666/3/5 668/3/5
f 676/3/5 668/3/5 675/3/5
f 677/3/5 675/3/5 674/3/5
f 680/3/5 672/3/5 671/3/5
f 681/3/5 669/3/5 672/3/5
f 681/3/5 672/3/5 680/3/5
f 682/3/5 669/3/5 681/3/5
f 683/3/5 678/3/5 677/3/5
f 686/3/5 680/3/5 679/3/5
f 686/3/5 681/3/5 680/3/5
f 687/3/5 681/3/5 686/3/5
f 688/3/5 681/3/5 687/3/5
f 689/3/5 677/3/5 674/3/5
f 689/3/5 684/3/5 683/3/5
f 689/3/5 683/3/5 677/3/5
f 690/3/5 684/3/5 689/3/5
f 691/3/5 684/3/5 690/3/5
f 692/3/5 687/3/5 686/3/5
f 692/3/5 686/3/5 685/3/5
f 693/3/5 687/3/5 692/3/5
f 694/3/5 687/3/5 693/3/5
f 695/3/5 691/3/5 690/3/5
f 695/3/5 693/3/5 692/3/5
f 695/3/5 692/3/5 691/3/5
f 696/3/5 693/3/5 695/3/5
f 697/3/5 693/3/5 696/3/5
f 698/3/5 693/3/5 697/3/5
f 699/3/5 697/3/5 696/3/5
f 700/3/5 697/3/5 699/3/5
f 705/5/5 702/5/5 701/5/5
f 706/5/5 702/5/5 705/5/5
f 707/5/5 704/5/5 703/5/5
f 708/5/5 704/5/5 707/5/5
f 711/3/5 710/3/5 709/3/5
f 712/3/5 710/3/5 711/3/5
f 713/3/5 711/3/5 709/3/5
f 714/3/5 711/3/5 713/3/5
f 715/3/5 710/3/5 712/3/5
f 716/3/5 710/3/5 715/3/5
f 721/3/5 718/3/5 717/3/5
f 722/3/5 720/3/5 719/3/5
f 723/3/5 721/3/5 717/3/5
f 723/3/5 722/3/5 721/3/5
f 724/3/5 720/3/5 722/3/5
f 724/3/5 722/3/5 723/3/5
f 728/3/5 726/3/5 725/3/5
f 729/3/5 726/3/5 728/3/5
f 731/3/5 728/3/5 727/3/5
f 732/3/5 728/3/5 731/3/5
f 733/3/5 730/3/5 729/3/5
f 734/3/5 730/3/5 733/3/5
f 735/3/5 733/3/5 732/3/5
f 736/3/5 733/3/5 735/3/5
f 739/5/5 738/5/5 737/5/5
f 740/5/5 738/5/5 739/5/5
f 745/5/5 742/5/5 741/5/5
f 746/5/5 744/5/5 743/5/5
f 747/5/5 745/5/5 741/5/5
f 748/5/5 745/5/5 747/5/5
f 749/5/5 744/5/5 746/5/5
f 750/5/5 744/5/5 749/5/5
f 753/5/5 752/5/5 751/5/5
f 754/5/5 752/5/5 753/5/5
f 763/3/5 756/3/5 755/3/5
f 764/3/5 756/3/5 763/3/5
f 765/3/5 758/3/5 757/3/5
f 766/3/5 758/3/5 765/3/5
f 767/3/5 760/3/5 759/3/5
f 768/3/5 760/3/5 767/3/5
f 769/3/5 762/3/5 761/3/5
f 770/3/5 762/3/5 769/3/5
f 775/3/5 772/3/5 771/3/5
f 776/3/5 772/3/5 775/3/5
f 777/3/5 774/3/5 773/3/5
f 778/3/5 774/3/5 777/3/5
f 783/3/5 780/3/5 779/3/5
f 784/3/5 780/3/5 783/3/5
f 785/3/5 782/3/5 781/3/5
f 786/3/5 782/3/5 785/3/5
f 791/3/5 788/3/5 787/3/5
f 792/3/5 788/3/5 791/3/5
f 793/3/5 790/3/5 789/3/5
f 794/3/5 790/3/5 793/3/5
f 799/3/5 796/3/5 795/3/5
f 800/3/5 796/3/5 799/3/5
f 801/3/5 798/3/5 797/3/5
f 802/3/5 798/3/5 801/3/5
f 807/3/5 804/3/5 803/3/5
f 808/3/5 804/3/5 807/3/5
f 809/3/5 806/3/5 805/3/5
f 810/3/5 806/3/5 809/3/5
f 811/3/6 812/3/6 814/3/6
f 814/3/6 812/3/6 815/3/6
f 813/3/6 814/3/6 815/3/6
f 815/3/6 812/3/6 816/3/6
f 813/3/6 815/3/6 818/3/6
f 819/3/6 820/3/6 821/3/6
f 817/3/6 818/3/6 824/3/6
f 818/3/6 815/3/6 825/3/6
f 824/3/6 818/3/6 825/3/6
f 825/3/6 815/3/6 826/3/6
f 821/3/6 822/3/6 827/3/6
f 823/3/6 824/3/6 830/3/6
f 824/3/6 825/3/6 830/3/6
f 830/3/6 825/3/6 831/3/6
f 831/3/6 825/3/6 832/3/6
f 827/3/6 828/3/6 833/3/6
f 819/3/6 821/3/6 833/3/6
f 821/3/6 827/3/6 833/3/6
f 833/3/6 828/3/6 834/3/6
f 834/3/6 828/3/6 835/3/6
f 830/3/6 831/3/6 836/3/6
f 829/3/6 830/3/6 836/3/6
f 836/3/6 831/3/6 837/3/6
f 837/3/6 831/3/6 838/3/6
f 834/3/6 835/3/6 839/3/6
f 836/3/6 837/3/6 839/3/6
f 835/3/6 836/3/6 839/3/6
f 839/3/6 837/3/6 840/3/6
f 840/3/6 837/3/6 841/3/6
f 841/3/6 837/3/6 842/3/6
f 840/3/6 841/3/6 843/3/6
f 843/3/6 841/3/6 844/3/6
f 845/5/6 846/5/6 849/5/6
f 849/5/6 846/5/6 850/5/6
f 847/5/6 848/5/6 851/5/6
f 851/5/6 848/5/6 852/5/6
f 849/3/6 850/3/6 853/3/6
f 853/3/6 850/3/6 854/3/6
f 854/3/6 850/3/6 855/3/6
f 851/3/6 852/3/6 856/3/6
f 856/3/6 852/3/6 857/3/6
f 857/3/6 852/3/6 858/3/6
f 859/5/6 860/5/6 863/5/6
f 863/5/6 860/5/6 864/5/6
f 861/5/6 862/5/6 865/5/6
f 865/5/6 862/5/6 866/5/6
f 867/5/6 868/5/6 871/5/6
f 868/1/6 869/1/6 871/1/6
f 869/5/6 870/5/6 872/5/6
f 871/1/6 869/1/6 872/1/6
f 867/5/6 871/5/6 873/5/6
f 871/5/6 872/5/6 873/5/6
f 872/5/6 870/5/6 874/5/6
f 873/5/6 872/5/6 874/5/6
f 875/3/6 876/3/6 879/3/6
f 879/3/6 876/3/6 880/3/6
f 877/3/6 878/3/6 881/3/6
f 881/3/6 878/3/6 882/3/6
f 883/3/6 884/3/6 891/3/6
f 891/3/6 884/3/6 892/3/6
f 885/3/6 886/3/6 893/3/6
f 893/3/6 886/3/6 894/3/6
f 887/3/6 888/3/6 895/3/6
f 895/3/6 888/3/6 896/3/6
f 889/3/6 890/3/6 897/3/6
f 897/3/6 890/3/6 898/3/6
f 899/3/6 900/3/6 902/3/6
f 902/3/6 900/3/6 903/3/6
f 901/3/6 902/3/6 905/3/6
f 903/3/6 904/3/6 906/3/6
f 905/3/6 902/3/6 907/3/6
f 907/3/6 902/3/6 908/3/6
f 903/3/6 906/3/6 909/3/6
f 909/3/6 906/3/6 910/3/6
f 911/3/6 912/3/6 915/3/6
f 915/3/6 912/3/6 916/3/6
f 913/3/6 914/3/6 917/3/6
f 917/3/6 914/3/6 918/3/6
f 916/3/6 917/3/6 919/3/6
f 919/3/6 917/3/6 920/3/6
f 921/3/6 922/3/6 923/3/6
f 923/3/6 922/3/6 924/3/6
f 924/3/6 922/3/6 925/3/6
f 925/3/6 922/3/6 926/3/6
f 921/3/6 923/3/6 927/3/6
f 927/3/6 923/3/6 928/3/6
f 926/3/6 922/3/6 929/3/6
f 929/3/6 922/3/6 930/3/6
f 924/3/6 925/3/6 932/3/6
f 932/3/6 925/3/6 933/3/6
f 931/3/6 932/3/6 935/3/6
f 933/3/6 934/3/6 935/3/6
f 932/3/6 933/3/6 935/3/6
f 935/3/6 934/3/6 936/3/6
f 937/3/6 938/3/6 941/3/6
f 941/3/6 938/3/6 942/3/6
f 939/3/6 940/3/6 943/3/6
f 943/3/6 940/3/6 944/3/6
f 945/3/6 946/3/6 953/3/6
f 953/3/6 946/3/6 954/3/6
f 947/3/6 948/3/6 955/3/6
f 955/3/6 948/3/6 956/3/6
f 949/3/6 950/3/6 957/3/6
f 957/3/6 950/3/6 958/3/6
f 951/3/6 952/3/6 959/3/6
f 959/3/6 952/3/6 960/3/6
f 961/3/6 962/3/6 965/3/6
f 965/3/6 962/3/6 966/3/6
f 963/3/6 964/3/6 967/3/6
f 967/3/6 964/3/6 968/3/6
