# MagicaVoxel @ Ephtracy

# group
o 

# material
mtllib couch.mtl
usemtl palette

# normals
vn -1 0 0
vn 1 0 0
vn 0 0 1
vn 0 0 -1
vn 0 -1 0
vn 0 1 0

# texcoords
vt 0.216797 0.5
vt 0.236328 0.5
vt 0.255859 0.5
vt 0.306641 0.5
vt 0.369141 0.5
vt 0.994141 0.5

# verts
v -10 0 5
v -10 0 -5
v -10 3 1
v -10 3 -3
v -10 7 1
v -10 7 -3
v -10 10 5
v -10 10 -5
v -10 10.1 5
v -10 10.1 -5
v -7.8 0 -8.7
v -7.8 0 -8.8
v -7.8 0.1 -8.7
v -7.8 0.1 -8.8
v -6 0.1 1
v -6 0.1 -5
v -6 0.3 1
v -6 0.3 -5
v -3 0.3 1
v -3 0.3 0
v -3 0.3 -3
v -3 0.3 -4
v -3 1 1
v -3 1 0
v -3 1 -3
v -3 1 -4
v -3 3.5 1
v -3 3.5 -4
v 2.7 1.4 -0.1
v 2.7 1.4 -0.7
v 2.7 1.5 -0.7
v 2.7 1.5 -0.8
v 2.7 1.6 -0.7
v 2.7 1.6 -0.8
v 2.7 1.7 -0.6
v 2.7 1.7 -0.7
v 2.7 1.8 -0.1
v 2.7 1.8 -0.6
v 2.8 1.4 -0.7
v 2.8 1.4 -1.6
v 2.8 1.5 -0.7
v 2.8 1.5 -0.8
v 2.8 1.6 -0.7
v 2.8 1.6 -0.8
v 2.8 1.7 -0.6
v 2.8 1.7 -0.7
v 2.8 1.8 -0.2
v 2.8 1.8 -0.6
v 2.8 2.8 -0.2
v 2.8 2.8 -1.6
v 2.9 2.8 -1.3
v 2.9 2.8 -1.5
v 2.9 3.1 -1.3
v 2.9 3.1 -1.5
v 3 3.1 -1.4
v 3 3.1 -1.5
v 3 3.2 -1.4
v 3 3.2 -1.5
v 3.6 2.8 -1.3
v 3.6 2.8 -1.5
v 3.6 3.1 -1.3
v 3.6 3.1 -1.5
v 3.7 3.1 -1.4
v 3.7 3.1 -1.5
v 3.7 3.2 -1.4
v 3.7 3.2 -1.5
v 4 0.3 1
v 4 0.3 0
v 4 0.3 -3
v 4 0.3 -4
v 4 1 1
v 4 1 0
v 4 1 -3
v 4 1 -4
v 4 1.4 0
v 4 1.4 -0.2
v 4 1.4 -1.6
v 4 1.4 -4
v 4 2.8 -0.2
v 4 2.8 -1.6
v 4 3.5 0
v 4 3.5 -4
v 8.6 0.1 4.9
v 8.6 0.1 -5
v 8.6 3 1
v 8.6 3 -3
v 8.6 6.9 1
v 8.6 6.9 -3
v 8.6 10 4.9
v 8.6 10 -4.9
v 8.6 10 -5
v -9.9 10 -4.9
v -9.9 10 -5
v -9.9 10.1 -4.9
v -9.9 10.1 -5
v -8.4 0.1 4.9
v -8.4 0.1 -5
v -8.4 3 1
v -8.4 3 -3
v -8.4 7 1
v -8.4 7 -3
v -8.4 10 4.9
v -8.4 10 -4.9
v -8.4 10 -5
v -7.7 0 -8.7
v -7.7 0 -8.8
v -7.7 0.1 -8.7
v -7.7 0.1 -8.8
v -2 0.3 1
v -2 0.3 0
v -2 0.3 -3
v -2 0.3 -4
v -2 1 1
v -2 1 0
v -2 1 -3
v -2 1 -4
v -2 1.4 0
v -2 1.4 -4
v -2 3.5 0
v -2 3.5 -4
v 3.1 3.1 -1.4
v 3.1 3.1 -1.5
v 3.1 3.2 -1.4
v 3.1 3.2 -1.5
v 3.2 2.8 -1.3
v 3.2 2.8 -1.5
v 3.2 3.1 -1.3
v 3.2 3.1 -1.5
v 3.4 1.4 -0.1
v 3.4 1.4 -0.2
v 3.4 1.8 -0.1
v 3.4 1.8 -0.2
v 3.8 3.1 -1.4
v 3.8 3.1 -1.5
v 3.8 3.2 -1.4
v 3.8 3.2 -1.5
v 3.9 2.8 -1.3
v 3.9 2.8 -1.5
v 3.9 3.1 -1.3
v 3.9 3.1 -1.5
v 5 0.3 1
v 5 0.3 0
v 5 0.3 -3
v 5 0.3 -4
v 5 1 1
v 5 1 0
v 5 1 -3
v 5 1 -4
v 5 3.5 1
v 5 3.5 -4
v 8 0.1 1
v 8 0.1 -5
v 8 0.3 1
v 8 0.3 -5
v 10 0 5
v 10 0 -5
v 10 3 1
v 10 3 -3
v 10 6.9 1
v 10 6.9 -3
v 10 10 5
v 10 10 -4.9
v 10 10 -5
v 10 10.1 5
v 10 10.1 -4.9
v -10 0 5
v -10 10 5
v -10 10.1 5
v 10 0 5
v 10 10 5
v 10 10.1 5
v -6 0.1 1
v -6 0.3 1
v -3 0.1 1
v -3 0.3 1
v -3 1 1
v -3 3.5 1
v -2 0.1 1
v -2 0.3 1
v -2 1 1
v 4 0.1 1
v 4 0.3 1
v 4 1 1
v 5 0.1 1
v 5 0.3 1
v 5 1 1
v 5 3.5 1
v 8 0.1 1
v 8 0.3 1
v 2.7 1.4 -0.1
v 2.7 1.8 -0.1
v 3.4 1.4 -0.1
v 3.4 1.8 -0.1
v 2.8 1.8 -0.2
v 2.8 2.8 -0.2
v 3.4 1.4 -0.2
v 3.4 1.8 -0.2
v 4 1.4 -0.2
v 4 2.8 -0.2
v 2.9 2.8 -1.3
v 2.9 3.1 -1.3
v 3.2 2.8 -1.3
v 3.2 3.1 -1.3
v 3.6 2.8 -1.3
v 3.6 3.1 -1.3
v 3.9 2.8 -1.3
v 3.9 3.1 -1.3
v 3 3.1 -1.4
v 3 3.2 -1.4
v 3.1 3.1 -1.4
v 3.1 3.2 -1.4
v 3.7 3.1 -1.4
v 3.7 3.2 -1.4
v 3.8 3.1 -1.4
v 3.8 3.2 -1.4
v -10 3 -3
v -10 7 -3
v -9.9 3 -3
v -9.9 7 -3
v -8.4 3 -3
v -8.4 7 -3
v -3 0.3 -3
v -3 1 -3
v -2 0.3 -3
v -2 1 -3
v 4 0.3 -3
v 4 1 -3
v 5 0.3 -3
v 5 1 -3
v 8.6 3 -3
v 8.6 6.9 -3
v 9.9 3 -3
v 9.9 6.9 -3
v 10 3 -3
v 10 6.9 -3
v -7.8 0 -8.7
v -7.8 0.1 -8.7
v -7.7 0 -8.7
v -7.7 0.1 -8.7
v -8.4 0.1 4.9
v -8.4 10 4.9
v 8.6 0.1 4.9
v 8.6 10 4.9
v -10 3 1
v -10 7 1
v -9.9 3 1
v -9.9 7 1
v -8.4 3 1
v -8.4 7 1
v 8.6 3 1
v 8.6 6.9 1
v 9.9 3 1
v 9.9 6.9 1
v 10 3 1
v 10 6.9 1
v -3 0.3 0
v -3 1 0
v -2 0.3 0
v -2 1 0
v -2 1.4 0
v -2 3.5 0
v 4 0.3 0
v 4 1 0
v 4 1.4 0
v 4 3.5 0
v 5 0.3 0
v 5 1 0
v 2.7 1.7 -0.6
v 2.7 1.8 -0.6
v 2.8 1.7 -0.6
v 2.8 1.8 -0.6
v 2.7 1.4 -0.7
v 2.7 1.5 -0.7
v 2.7 1.6 -0.7
v 2.7 1.7 -0.7
v 2.8 1.4 -0.7
v 2.8 1.5 -0.7
v 2.8 1.6 -0.7
v 2.8 1.7 -0.7
v 2.7 1.5 -0.8
v 2.7 1.6 -0.8
v 2.8 1.5 -0.8
v 2.8 1.6 -0.8
v 2.9 2.8 -1.5
v 2.9 3.1 -1.5
v 3 2.8 -1.5
v 3 3 -1.5
v 3 3.1 -1.5
v 3 3.2 -1.5
v 3.1 2.8 -1.5
v 3.1 3 -1.5
v 3.1 3.1 -1.5
v 3.1 3.2 -1.5
v 3.2 2.8 -1.5
v 3.2 3.1 -1.5
v 3.6 2.8 -1.5
v 3.6 3.1 -1.5
v 3.7 2.8 -1.5
v 3.7 3 -1.5
v 3.7 3.1 -1.5
v 3.7 3.2 -1.5
v 3.8 2.8 -1.5
v 3.8 3 -1.5
v 3.8 3.1 -1.5
v 3.8 3.2 -1.5
v 3.9 2.8 -1.5
v 3.9 3.1 -1.5
v 2.8 1.4 -1.6
v 2.8 2.8 -1.6
v 2.9 1.4 -1.6
v 2.9 1.7 -1.6
v 3 2.3 -1.6
v 3 2.5 -1.6
v 3.1 1.4 -1.6
v 3.1 1.7 -1.6
v 3.2 2.3 -1.6
v 3.2 2.5 -1.6
v 3.4 2 -1.6
v 3.4 2.2 -1.6
v 3.5 2 -1.6
v 3.5 2.2 -1.6
v 3.6 2.3 -1.6
v 3.6 2.5 -1.6
v 3.7 1.4 -1.6
v 3.7 1.7 -1.6
v 3.8 2.3 -1.6
v 3.8 2.5 -1.6
v 3.9 1.4 -1.6
v 3.9 1.7 -1.6
v 4 1.4 -1.6
v 4 2.8 -1.6
v -3 0.3 -4
v -3 1 -4
v -3 3.5 -4
v -2 0.3 -4
v -2 1 -4
v -2 1.4 -4
v -2 3.5 -4
v 4 0.3 -4
v 4 1 -4
v 4 1.4 -4
v 4 3.5 -4
v 5 0.3 -4
v 5 1 -4
v 5 3.5 -4
v -9.9 10 -4.9
v -9.9 10.1 -4.9
v -8.4 10 -4.9
v 8.6 10 -4.9
v 9.9 10 -4.9
v 10 10 -4.9
v 10 10.1 -4.9
v -10 0 -5
v -10 10 -5
v -10 10.1 -5
v -9.9 0.1 -5
v -9.9 10 -5
v -9.9 10.1 -5
v -8.4 0.1 -5
v -8.4 10 -5
v -6 0.1 -5
v -6 0.3 -5
v 8 0.1 -5
v 8 0.3 -5
v 8.6 0.1 -5
v 8.6 10 -5
v 9.9 0.1 -5
v 9.9 10 -5
v 10 0 -5
v 10 10 -5
v -7.8 0 -8.8
v -7.8 0.1 -8.8
v -7.7 0 -8.8
v -7.7 0.1 -8.8
v -10 0 5
v 10 0 5
v -10 0 -5
v 10 0 -5
v -7.8 0 -8.7
v -7.7 0 -8.7
v -7.8 0 -8.8
v -7.7 0 -8.8
v -2 1 1
v 4 1 1
v -3 1 0
v -2 1 0
v 4 1 0
v 5 1 0
v -3 1 -3
v -2 1 -3
v 4 1 -3
v 5 1 -3
v -2 1 -4
v 4 1 -4
v 2.7 1.5 -0.7
v 2.8 1.5 -0.7
v 2.7 1.5 -0.8
v 2.8 1.5 -0.8
v 8.6 6.9 1
v 9.9 6.9 1
v 10 6.9 1
v 8.6 6.9 -3
v 9.9 6.9 -3
v 10 6.9 -3
v -10 7 1
v -9.9 7 1
v -8.4 7 1
v -10 7 -3
v -9.9 7 -3
v -8.4 7 -3
v -8.4 10 4.9
v 8.6 10 4.9
v -8.4 10 -4.9
v 8.6 10 -4.9
v -8.4 0.1 4.9
v 8.6 0.1 4.9
v -6 0.1 1
v -3 0.1 1
v -2 0.1 1
v 4 0.1 1
v 5 0.1 1
v 8 0.1 1
v -8.4 0.1 -5
v -6 0.1 -5
v 8 0.1 -5
v 8.6 0.1 -5
v -7.8 0.1 -8.7
v -7.7 0.1 -8.7
v -7.8 0.1 -8.8
v -7.7 0.1 -8.8
v -6 0.3 1
v -3 0.3 1
v -2 0.3 1
v 4 0.3 1
v 5 0.3 1
v 8 0.3 1
v -3 0.3 0
v -2 0.3 0
v 4 0.3 0
v 5 0.3 0
v -3 0.3 -3
v -2 0.3 -3
v 4 0.3 -3
v 5 0.3 -3
v -3 0.3 -4
v -2 0.3 -4
v 4 0.3 -4
v 5 0.3 -4
v -6 0.3 -5
v 8 0.3 -5
v -2 1.4 0
v 4 1.4 0
v 2.7 1.4 -0.1
v 3.4 1.4 -0.1
v 3.4 1.4 -0.2
v 4 1.4 -0.2
v 2.7 1.4 -0.7
v 2.8 1.4 -0.7
v 2.8 1.4 -1.6
v 2.9 1.4 -1.6
v 3.1 1.4 -1.6
v 3.7 1.4 -1.6
v 3.9 1.4 -1.6
v 4 1.4 -1.6
v -2 1.4 -4
v 4 1.4 -4
v 2.7 1.6 -0.7
v 2.8 1.6 -0.7
v 2.7 1.6 -0.8
v 2.8 1.6 -0.8
v 2.7 1.7 -0.6
v 2.8 1.7 -0.6
v 2.7 1.7 -0.7
v 2.8 1.7 -0.7
v 2.7 1.8 -0.1
v 3.4 1.8 -0.1
v 2.8 1.8 -0.2
v 3.4 1.8 -0.2
v 2.7 1.8 -0.6
v 2.8 1.8 -0.6
v 2.8 2.8 -0.2
v 4 2.8 -0.2
v 2.9 2.8 -1.3
v 3.2 2.8 -1.3
v 3.6 2.8 -1.3
v 3.9 2.8 -1.3
v 2.9 2.8 -1.5
v 3 2.8 -1.5
v 3.1 2.8 -1.5
v 3.2 2.8 -1.5
v 3.6 2.8 -1.5
v 3.7 2.8 -1.5
v 3.8 2.8 -1.5
v 3.9 2.8 -1.5
v 2.8 2.8 -1.6
v 4 2.8 -1.6
v -10 3 1
v -9.9 3 1
v -8.4 3 1
v 8.6 3 1
v 9.9 3 1
v 10 3 1
v -10 3 -3
v -9.9 3 -3
v -8.4 3 -3
v 8.6 3 -3
v 9.9 3 -3
v 10 3 -3
v 2.9 3.1 -1.3
v 3.2 3.1 -1.3
v 3.6 3.1 -1.3
v 3.9 3.1 -1.3
v 3 3.1 -1.4
v 3.1 3.1 -1.4
v 3.7 3.1 -1.4
v 3.8 3.1 -1.4
v 2.9 3.1 -1.5
v 3 3.1 -1.5
v 3.1 3.1 -1.5
v 3.2 3.1 -1.5
v 3.6 3.1 -1.5
v 3.7 3.1 -1.5
v 3.8 3.1 -1.5
v 3.9 3.1 -1.5
v 3 3.2 -1.4
v 3.1 3.2 -1.4
v 3.7 3.2 -1.4
v 3.8 3.2 -1.4
v 3 3.2 -1.5
v 3.1 3.2 -1.5
v 3.7 3.2 -1.5
v 3.8 3.2 -1.5
v -3 3.5 1
v 5 3.5 1
v -2 3.5 0
v 4 3.5 0
v -3 3.5 -4
v -2 3.5 -4
v 4 3.5 -4
v 5 3.5 -4
v -9.9 10 -4.9
v -8.4 10 -4.9
v 8.6 10 -4.9
v 9.9 10 -4.9
v 10 10 -4.9
v -9.9 10 -5
v -8.4 10 -5
v 8.6 10 -5
v 9.9 10 -5
v 10 10 -5
v -10 10.1 5
v 10 10.1 5
v -9.9 10.1 -4.9
v 10 10.1 -4.9
v -10 10.1 -5
v -9.9 10.1 -5

# faces
f 3/5/1 2/5/1 1/5/1
f 4/5/1 2/5/1 3/5/1
f 5/5/1 3/5/1 1/5/1
f 6/5/1 2/5/1 4/5/1
f 7/5/1 5/5/1 1/5/1
f 7/5/1 6/5/1 5/5/1
f 8/5/1 2/5/1 6/5/1
f 8/5/1 6/5/1 7/5/1
f 9/4/1 8/4/1 7/4/1
f 10/4/1 8/4/1 9/4/1
f 13/4/1 12/4/1 11/4/1
f 14/4/1 12/4/1 13/4/1
f 17/4/1 16/4/1 15/4/1
f 18/4/1 16/4/1 17/4/1
f 23/5/1 20/5/1 19/5/1
f 24/5/1 20/5/1 23/5/1
f 25/5/1 22/5/1 21/5/1
f 26/5/1 22/5/1 25/5/1
f 27/2/1 24/2/1 23/2/1
f 27/2/1 25/2/1 24/2/1
f 27/2/1 26/2/1 25/2/1
f 28/2/1 26/2/1 27/2/1
f 31/3/1 30/3/1 29/3/1
f 33/3/1 31/3/1 29/3/1
f 33/3/1 32/3/1 31/3/1
f 34/3/1 32/3/1 33/3/1
f 35/3/1 33/3/1 29/3/1
f 36/3/1 33/3/1 35/3/1
f 37/3/1 35/3/1 29/3/1
f 38/3/1 35/3/1 37/3/1
f 41/1/1 40/1/1 39/1/1
f 42/1/1 40/1/1 41/1/1
f 44/1/1 40/1/1 42/1/1
f 46/1/1 44/1/1 43/1/1
f 48/1/1 46/1/1 45/1/1
f 49/1/1 48/1/1 47/1/1
f 50/1/1 40/1/1 44/1/1
f 50/1/1 48/1/1 49/1/1
f 50/1/1 44/1/1 46/1/1
f 50/1/1 46/1/1 48/1/1
f 53/1/1 52/1/1 51/1/1
f 54/1/1 52/1/1 53/1/1
f 57/1/1 56/1/1 55/1/1
f 58/1/1 56/1/1 57/1/1
f 61/1/1 60/1/1 59/1/1
f 62/1/1 60/1/1 61/1/1
f 65/1/1 64/1/1 63/1/1
f 66/1/1 64/1/1 65/1/1
f 71/5/1 68/5/1 67/5/1
f 72/5/1 68/5/1 71/5/1
f 73/5/1 70/5/1 69/5/1
f 74/5/1 70/5/1 73/5/1
f 79/2/1 76/2/1 75/2/1
f 80/2/1 78/2/1 77/2/1
f 81/2/1 79/2/1 75/2/1
f 81/2/1 80/2/1 79/2/1
f 82/2/1 78/2/1 80/2/1
f 82/2/1 80/2/1 81/2/1
f 85/4/1 84/4/1 83/4/1
f 86/4/1 84/4/1 85/4/1
f 87/4/1 85/4/1 83/4/1
f 88/4/1 84/4/1 86/4/1
f 89/4/1 87/4/1 83/4/1
f 89/4/1 88/4/1 87/4/1
f 90/4/1 84/4/1 88/4/1
f 90/4/1 88/4/1 89/4/1
f 91/4/1 84/4/1 90/4/1
f 92/4/2 93/4/2 94/4/2
f 94/4/2 93/4/2 95/4/2
f 96/4/2 97/4/2 98/4/2
f 98/4/2 97/4/2 99/4/2
f 96/4/2 98/4/2 100/4/2
f 99/4/2 97/4/2 101/4/2
f 96/4/2 100/4/2 102/4/2
f 100/4/2 101/4/2 102/4/2
f 101/4/2 97/4/2 103/4/2
f 102/4/2 101/4/2 103/4/2
f 103/4/2 97/4/2 104/4/2
f 105/4/2 106/4/2 107/4/2
f 107/4/2 106/4/2 108/4/2
f 109/5/2 110/5/2 113/5/2
f 113/5/2 110/5/2 114/5/2
f 111/5/2 112/5/2 115/5/2
f 115/5/2 112/5/2 116/5/2
f 117/2/2 118/2/2 119/2/2
f 119/2/2 118/2/2 120/2/2
f 121/1/2 122/1/2 123/1/2
f 123/1/2 122/1/2 124/1/2
f 125/1/2 126/1/2 127/1/2
f 127/1/2 126/1/2 128/1/2
f 129/3/2 130/3/2 131/3/2
f 131/3/2 130/3/2 132/3/2
f 133/1/2 134/1/2 135/1/2
f 135/1/2 134/1/2 136/1/2
f 137/1/2 138/1/2 139/1/2
f 139/1/2 138/1/2 140/1/2
f 141/5/2 142/5/2 145/5/2
f 145/5/2 142/5/2 146/5/2
f 143/5/2 144/5/2 147/5/2
f 147/5/2 144/5/2 148/5/2
f 145/2/2 146/2/2 149/2/2
f 146/2/2 147/2/2 149/2/2
f 147/2/2 148/2/2 149/2/2
f 149/2/2 148/2/2 150/2/2
f 151/4/2 152/4/2 153/4/2
f 153/4/2 152/4/2 154/4/2
f 155/5/2 156/5/2 157/5/2
f 157/5/2 156/5/2 158/5/2
f 155/5/2 157/5/2 159/5/2
f 158/5/2 156/5/2 160/5/2
f 155/5/2 159/5/2 161/5/2
f 159/5/2 160/5/2 161/5/2
f 160/5/2 156/5/2 162/5/2
f 161/5/2 160/5/2 162/5/2
f 162/5/2 156/5/2 163/5/2
f 161/4/2 162/4/2 164/4/2
f 164/4/2 162/4/2 165/4/2
f 169/5/3 167/5/3 166/5/3
f 170/4/3 168/4/3 167/4/3
f 170/5/3 167/5/3 169/5/3
f 171/4/3 168/4/3 170/4/3
f 174/4/3 173/4/3 172/4/3
f 175/4/3 173/4/3 174/4/3
f 178/5/3 175/5/3 174/5/3
f 178/5/3 176/5/3 175/5/3
f 179/5/3 176/5/3 178/5/3
f 180/2/3 177/2/3 176/2/3
f 180/5/3 176/5/3 179/5/3
f 181/4/3 179/4/3 178/4/3
f 182/4/3 179/4/3 181/4/3
f 183/2/3 177/2/3 180/2/3
f 184/5/3 182/5/3 181/5/3
f 184/5/3 183/5/3 182/5/3
f 185/5/3 183/5/3 184/5/3
f 186/2/3 177/2/3 183/2/3
f 186/5/3 183/5/3 185/5/3
f 187/2/3 177/2/3 186/2/3
f 188/4/3 185/4/3 184/4/3
f 189/4/3 185/4/3 188/4/3
f 192/3/3 191/3/3 190/3/3
f 193/3/3 191/3/3 192/3/3
f 197/1/3 195/1/3 194/1/3
f 198/1/3 197/1/3 196/1/3
f 199/1/3 195/1/3 197/1/3
f 199/1/3 197/1/3 198/1/3
f 202/1/3 201/1/3 200/1/3
f 203/1/3 201/1/3 202/1/3
f 206/1/3 205/1/3 204/1/3
f 207/1/3 205/1/3 206/1/3
f 210/1/3 209/1/3 208/1/3
f 211/1/3 209/1/3 210/1/3
f 214/1/3 213/1/3 212/1/3
f 215/1/3 213/1/3 214/1/3
f 218/5/3 217/5/3 216/5/3
f 219/5/3 217/5/3 218/5/3
f 220/4/3 219/4/3 218/4/3
f 221/4/3 219/4/3 220/4/3
f 224/5/3 223/5/3 222/5/3
f 225/5/3 223/5/3 224/5/3
f 228/5/3 227/5/3 226/5/3
f 229/5/3 227/5/3 228/5/3
f 232/4/3 231/4/3 230/4/3
f 233/4/3 231/4/3 232/4/3
f 234/5/3 233/5/3 232/5/3
f 235/5/3 233/5/3 234/5/3
f 238/4/3 237/4/3 236/4/3
f 239/4/3 237/4/3 238/4/3
f 240/5/4 241/5/4 242/5/4
f 242/5/4 241/5/4 243/5/4
f 244/5/4 245/5/4 246/5/4
f 246/5/4 245/5/4 247/5/4
f 246/4/4 247/4/4 248/4/4
f 248/4/4 247/4/4 249/4/4
f 250/4/4 251/4/4 252/4/4
f 252/4/4 251/4/4 253/4/4
f 252/5/4 253/5/4 254/5/4
f 254/5/4 253/5/4 255/5/4
f 256/5/4 257/5/4 258/5/4
f 258/5/4 257/5/4 259/5/4
f 260/2/4 261/2/4 264/2/4
f 264/2/4 261/2/4 265/2/4
f 262/5/4 263/5/4 266/5/4
f 266/5/4 263/5/4 267/5/4
f 268/3/4 269/3/4 270/3/4
f 270/3/4 269/3/4 271/3/4
f 272/3/4 273/3/4 276/3/4
f 276/3/4 273/3/4 277/3/4
f 274/3/4 275/3/4 278/3/4
f 278/3/4 275/3/4 279/3/4
f 280/3/4 281/3/4 282/3/4
f 282/3/4 281/3/4 283/3/4
f 284/1/4 285/1/4 286/1/4
f 286/1/4 285/1/4 287/1/4
f 287/1/4 285/1/4 288/1/4
f 286/3/4 287/3/4 290/3/4
f 288/1/4 289/1/4 291/1/4
f 290/3/4 287/3/4 291/3/4
f 287/1/4 288/1/4 291/1/4
f 291/1/4 289/1/4 292/1/4
f 292/1/4 289/1/4 293/1/4
f 290/1/4 291/1/4 294/1/4
f 291/1/4 292/1/4 294/1/4
f 294/1/4 292/1/4 295/1/4
f 296/1/4 297/1/4 298/1/4
f 298/1/4 297/1/4 299/1/4
f 299/1/4 297/1/4 300/1/4
f 298/3/4 299/3/4 302/3/4
f 299/1/4 300/1/4 303/1/4
f 302/3/4 299/3/4 303/3/4
f 300/1/4 301/1/4 303/1/4
f 303/1/4 301/1/4 304/1/4
f 304/1/4 301/1/4 305/1/4
f 302/1/4 303/1/4 306/1/4
f 303/1/4 304/1/4 306/1/4
f 306/1/4 304/1/4 307/1/4
f 308/1/4 309/1/4 310/1/4
f 310/1/4 309/1/4 311/1/4
f 311/1/4 309/1/4 312/1/4
f 312/1/4 309/1/4 313/1/4
f 310/3/4 311/3/4 314/3/4
f 311/1/4 312/1/4 315/1/4
f 314/3/4 311/3/4 315/3/4
f 312/6/4 313/6/4 316/6/4
f 315/1/4 312/1/4 316/1/4
f 314/1/4 315/1/4 316/1/4
f 313/1/4 309/1/4 317/1/4
f 316/6/4 313/6/4 317/6/4
f 314/1/4 316/1/4 318/1/4
f 316/1/4 317/1/4 318/1/4
f 318/1/4 317/1/4 319/1/4
f 314/1/4 318/1/4 320/1/4
f 318/6/4 319/6/4 320/6/4
f 319/1/4 317/1/4 321/1/4
f 320/6/4 319/6/4 321/6/4
f 320/1/4 321/1/4 322/1/4
f 321/1/4 317/1/4 322/1/4
f 317/1/4 309/1/4 323/1/4
f 322/1/4 317/1/4 323/1/4
f 320/1/4 322/1/4 324/1/4
f 314/1/4 320/1/4 324/1/4
f 324/1/4 322/1/4 325/1/4
f 322/6/4 323/6/4 326/6/4
f 325/1/4 322/1/4 326/1/4
f 323/1/4 309/1/4 327/1/4
f 326/6/4 323/6/4 327/6/4
f 324/3/4 325/3/4 328/3/4
f 325/1/4 326/1/4 329/1/4
f 328/3/4 325/3/4 329/3/4
f 326/1/4 327/1/4 329/1/4
f 328/1/4 329/1/4 330/1/4
f 327/1/4 309/1/4 331/1/4
f 330/1/4 329/1/4 331/1/4
f 329/1/4 327/1/4 331/1/4
f 332/5/4 333/5/4 335/5/4
f 333/2/4 334/2/4 336/2/4
f 335/5/4 333/5/4 336/5/4
f 336/2/4 334/2/4 337/2/4
f 337/2/4 334/2/4 338/2/4
f 336/2/4 337/2/4 340/2/4
f 340/2/4 337/2/4 341/2/4
f 339/5/4 340/5/4 343/5/4
f 341/2/4 342/2/4 344/2/4
f 343/5/4 340/5/4 344/5/4
f 340/2/4 341/2/4 344/2/4
f 344/2/4 342/2/4 345/2/4
f 346/4/4 347/4/4 348/4/4
f 348/4/4 347/4/4 349/4/4
f 349/4/4 347/4/4 350/4/4
f 350/4/4 347/4/4 351/4/4
f 351/4/4 347/4/4 352/4/4
f 353/5/4 354/5/4 356/5/4
f 354/4/4 355/4/4 357/4/4
f 356/5/4 354/5/4 357/5/4
f 357/4/4 355/4/4 358/4/4
f 353/5/4 356/5/4 359/5/4
f 356/4/4 357/4/4 359/4/4
f 359/4/4 357/4/4 360/4/4
f 353/5/4 359/5/4 361/5/4
f 353/5/4 361/5/4 363/5/4
f 361/4/4 362/4/4 363/4/4
f 363/4/4 362/4/4 364/4/4
f 353/5/4 363/5/4 365/5/4
f 353/5/4 365/5/4 367/5/4
f 365/4/4 366/4/4 367/4/4
f 367/4/4 366/4/4 368/4/4
f 353/5/4 367/5/4 369/5/4
f 367/5/4 368/5/4 369/5/4
f 369/5/4 368/5/4 370/5/4
f 371/4/4 372/4/4 373/4/4
f 373/4/4 372/4/4 374/4/4
f 377/5/5 376/5/5 375/5/5
f 378/5/5 376/5/5 377/5/5
f 381/4/5 380/4/5 379/4/5
f 382/4/5 380/4/5 381/4/5
f 386/2/5 384/2/5 383/2/5
f 387/2/5 384/2/5 386/2/5
f 389/2/5 386/2/5 385/2/5
f 389/2/5 388/2/5 387/2/5
f 389/2/5 387/2/5 386/2/5
f 390/2/5 388/2/5 389/2/5
f 391/2/5 388/2/5 390/2/5
f 392/2/5 388/2/5 391/2/5
f 393/2/5 391/2/5 390/2/5
f 394/2/5 391/2/5 393/2/5
f 397/3/5 396/3/5 395/3/5
f 398/3/5 396/3/5 397/3/5
f 402/4/5 400/4/5 399/4/5
f 403/5/5 401/5/5 400/5/5
f 403/4/5 400/4/5 402/4/5
f 404/5/5 401/5/5 403/5/5
f 408/5/5 406/5/5 405/5/5
f 409/4/5 407/4/5 406/4/5
f 409/5/5 406/5/5 408/5/5
f 410/4/5 407/4/5 409/4/5
f 413/4/5 412/4/5 411/4/5
f 414/4/5 412/4/5 413/4/5
f 415/5/6 416/5/6 417/5/6
f 417/5/6 416/5/6 418/5/6
f 418/5/6 416/5/6 419/5/6
f 419/5/6 416/5/6 420/5/6
f 420/5/6 416/5/6 421/5/6
f 421/5/6 416/5/6 422/5/6
f 415/5/6 417/5/6 423/5/6
f 423/5/6 417/5/6 424/5/6
f 422/5/6 416/5/6 425/5/6
f 425/5/6 416/5/6 426/5/6
f 427/4/6 428/4/6 429/4/6
f 429/4/6 428/4/6 430/4/6
f 431/4/6 432/4/6 437/4/6
f 433/4/6 434/4/6 438/4/6
f 438/4/6 434/4/6 439/4/6
f 435/4/6 436/4/6 440/4/6
f 438/4/6 439/4/6 441/4/6
f 439/4/6 440/4/6 441/4/6
f 431/4/6 437/4/6 441/4/6
f 437/4/6 438/4/6 441/4/6
f 441/4/6 440/4/6 442/4/6
f 442/4/6 440/4/6 443/4/6
f 440/4/6 436/4/6 444/4/6
f 443/4/6 440/4/6 444/4/6
f 431/4/6 441/4/6 445/4/6
f 442/4/6 443/4/6 446/4/6
f 446/4/6 443/4/6 447/4/6
f 444/4/6 436/4/6 448/4/6
f 431/4/6 445/4/6 449/4/6
f 447/4/6 448/4/6 449/4/6
f 446/4/6 447/4/6 449/4/6
f 445/4/6 446/4/6 449/4/6
f 448/4/6 436/4/6 450/4/6
f 449/4/6 448/4/6 450/4/6
f 451/2/6 452/2/6 453/2/6
f 453/2/6 452/2/6 454/2/6
f 454/2/6 452/2/6 455/2/6
f 455/2/6 452/2/6 456/2/6
f 451/2/6 453/2/6 457/2/6
f 457/2/6 458/2/6 459/2/6
f 451/2/6 457/2/6 465/2/6
f 463/2/6 464/2/6 465/2/6
f 462/2/6 463/2/6 465/2/6
f 461/2/6 462/2/6 465/2/6
f 460/2/6 461/2/6 465/2/6
f 459/2/6 460/2/6 465/2/6
f 457/2/6 459/2/6 465/2/6
f 465/2/6 464/2/6 466/2/6
f 467/3/6 468/3/6 469/3/6
f 469/3/6 468/3/6 470/3/6
f 471/3/6 472/3/6 473/3/6
f 473/3/6 472/3/6 474/3/6
f 475/3/6 476/3/6 477/3/6
f 477/3/6 476/3/6 478/3/6
f 475/3/6 477/3/6 479/3/6
f 479/3/6 477/3/6 480/3/6
f 481/1/6 482/1/6 483/1/6
f 483/1/6 482/1/6 484/1/6
f 484/1/6 482/1/6 485/1/6
f 485/1/6 482/1/6 486/1/6
f 481/1/6 483/1/6 487/1/6
f 484/1/6 485/1/6 490/1/6
f 490/1/6 485/1/6 491/1/6
f 486/1/6 482/1/6 494/1/6
f 492/1/6 493/1/6 495/1/6
f 493/1/6 494/1/6 495/1/6
f 488/1/6 489/1/6 495/1/6
f 481/1/6 487/1/6 495/1/6
f 491/1/6 492/1/6 495/1/6
f 490/1/6 491/1/6 495/1/6
f 489/1/6 490/1/6 495/1/6
f 487/1/6 488/1/6 495/1/6
f 494/1/6 482/1/6 496/1/6
f 495/1/6 494/1/6 496/1/6
f 497/5/6 498/5/6 503/5/6
f 498/4/6 499/4/6 504/4/6
f 503/5/6 498/5/6 504/5/6
f 504/4/6 499/4/6 505/4/6
f 500/4/6 501/4/6 506/4/6
f 501/5/6 502/5/6 507/5/6
f 506/4/6 501/4/6 507/4/6
f 507/5/6 502/5/6 508/5/6
f 509/1/6 510/1/6 513/1/6
f 513/1/6 510/1/6 514/1/6
f 511/1/6 512/1/6 515/1/6
f 515/1/6 512/1/6 516/1/6
f 509/1/6 513/1/6 517/1/6
f 517/1/6 513/1/6 518/1/6
f 514/1/6 510/1/6 519/1/6
f 519/1/6 510/1/6 520/1/6
f 511/1/6 515/1/6 521/1/6
f 521/1/6 515/1/6 522/1/6
f 516/1/6 512/1/6 523/1/6
f 523/1/6 512/1/6 524/1/6
f 525/1/6 526/1/6 529/1/6
f 529/1/6 526/1/6 530/1/6
f 527/1/6 528/1/6 531/1/6
f 531/1/6 528/1/6 532/1/6
f 533/2/6 534/2/6 535/2/6
f 535/2/6 534/2/6 536/2/6
f 533/2/6 535/2/6 537/2/6
f 537/2/6 535/2/6 538/2/6
f 536/2/6 534/2/6 539/2/6
f 539/2/6 534/2/6 540/2/6
f 541/4/6 542/4/6 546/4/6
f 546/4/6 542/4/6 547/4/6
f 543/4/6 544/4/6 548/4/6
f 544/5/6 545/5/6 549/5/6
f 548/4/6 544/4/6 549/4/6
f 549/5/6 545/5/6 550/5/6
f 551/4/6 552/4/6 553/4/6
f 553/4/6 552/4/6 554/4/6
f 551/4/6 553/4/6 555/4/6
f 555/4/6 553/4/6 556/4/6
