# MagicaVoxel @ Ephtracy

# group
o 

# material
mtllib flowers.mtl
usemtl palette

# normals
vn -1 0 0
vn 1 0 0
vn 0 0 1
vn 0 0 -1
vn 0 -1 0
vn 0 1 0

# texcoords
vt 0.267578 0.5
vt 0.306641 0.5
vt 0.318359 0.5
vt 0.416016 0.5
vt 0.568359 0.5
vt 0.595703 0.5
vt 0.916016 0.5

# verts
v -3 0 2
v -3 0 -0.9
v -3 0.2 1.8
v -3 0.2 1.4
v -3 0.2 1.2
v -3 0.2 0.8
v -3 0.2 0.6
v -3 0.2 0.2
v -3 0.2 -2.38419e-07
v -3 0.2 -0.4
v -3 0.2 -0.6
v -3 0.2 -0.9
v -3 0.8 1.8
v -3 0.8 1.4
v -3 0.8 1.2
v -3 0.8 0.8
v -3 0.8 0.6
v -3 0.8 0.2
v -3 0.8 -2.38419e-07
v -3 0.8 -0.4
v -3 0.8 -0.6
v -3 0.8 -0.9
v -3 1 1.8
v -3 1 1.4
v -3 1 1.2
v -3 1 0.8
v -3 1 0.6
v -3 1 0.2
v -3 1 -2.38419e-07
v -3 1 -0.4
v -3 1 -0.6
v -3 1 -0.9
v -3 1.2 2
v -3 1.2 1.8
v -3 1.2 1.4
v -3 1.2 1.2
v -3 1.2 0.8
v -3 1.2 0.6
v -3 1.2 0.2
v -3 1.2 -2.38419e-07
v -3 1.2 -0.4
v -3 1.2 -0.6
v -2.8 1 -0.8
v -2.8 1 -0.9
v -2.8 1.2 -0.8
v -2.8 1.2 -0.9
v -2.5 1 2
v -2.5 1 1.9
v -2.5 1.2 2
v -2.5 1.2 1.9
v -2.2 1 -0.8
v -2.2 1 -0.9
v -2.2 1.2 -0.8
v -2.2 1.2 -0.9
v -2.1 2.2 0.8
v -2.1 2.2 0.7
v -2.1 2.3 0.8
v -2.1 2.3 0.7
v -2 0.9 0.8
v -2 0.9 0.7
v -2 2.2 1
v -2 2.2 0.8
v -2 2.2 0.7
v -2 2.2 0.5
v -2 2.3 1
v -2 2.3 0.8
v -2 2.3 0.7
v -2 2.3 0.5
v -1.9 1 2
v -1.9 1 1.9
v -1.9 1.2 2
v -1.9 1.2 1.9
v -1.6 1 -0.8
v -1.6 1 -0.9
v -1.6 1.2 -0.8
v -1.6 1.2 -0.9
v -1.3 0.2 -0.8
v -1.3 0.2 -0.9
v -1.3 0.3 -0.8
v -1.3 0.3 -0.9
v -1.3 1 2
v -1.3 1 1.9
v -1.3 1.2 2
v -1.3 1.2 1.9
v -1.1 0.2 -0.8
v -1.1 0.2 -0.9
v -1.1 0.3 -0.8
v -1.1 0.3 -0.9
v -1 1 -0.8
v -1 1 -0.9
v -1 1.2 -0.8
v -1 1.2 -0.9
v -0.7 1 2
v -0.7 1 1.9
v -0.7 1.2 2
v -0.7 1.2 1.9
v -0.5 0.2 -0.8
v -0.5 0.2 -0.9
v -0.5 0.3 -0.8
v -0.5 0.3 -0.9
v -0.4 1 -0.8
v -0.4 1 -0.9
v -0.4 1.2 -0.8
v -0.4 1.2 -0.9
v -0.0999999 1 2
v -0.0999999 1 1.9
v -0.0999999 1.2 2
v -0.0999999 1.2 1.9
v 0.1 0.2 -0.8
v 0.1 0.2 -0.9
v 0.1 0.3 -0.8
v 0.1 0.3 -0.9
v 0.2 1 -0.8
v 0.2 1 -0.9
v 0.2 1.2 -0.8
v 0.2 1.2 -0.9
v 0.5 1 2
v 0.5 1 1.9
v 0.5 1.2 2
v 0.5 1.2 1.9
v 0.7 0.2 -0.8
v 0.7 0.2 -0.9
v 0.7 0.3 -0.8
v 0.7 0.3 -0.9
v 0.8 1 -0.8
v 0.8 1 -0.9
v 0.8 1.2 -0.8
v 0.8 1.2 -0.9
v 1.1 1 2
v 1.1 1 1.9
v 1.1 1.2 2
v 1.1 1.2 1.9
v 1.3 0.2 -0.8
v 1.3 0.2 -0.9
v 1.3 0.3 -0.8
v 1.3 0.3 -0.9
v 1.4 1 -0.8
v 1.4 1 -0.9
v 1.4 1.2 -0.8
v 1.4 1.2 -0.9
v 1.7 1 2
v 1.7 1 1.9
v 1.7 1.2 2
v 1.7 1.2 1.9
v 1.9 0.2 -0.8
v 1.9 0.2 -0.9
v 1.9 0.3 -0.8
v 1.9 0.3 -0.9
v 2 1 -0.8
v 2 1 -0.9
v 2 1.2 -0.8
v 2 1.2 -0.9
v 2.2 0.2 2
v 2.2 0.2 1.9
v 2.2 0.3 2
v 2.2 0.3 1.9
v 2.3 1 2
v 2.3 1 1.9
v 2.3 1.2 2
v 2.3 1.2 1.9
v 2.5 0.2 -0.8
v 2.5 0.2 -0.9
v 2.5 0.3 -0.8
v 2.5 0.3 -0.9
v 2.6 1 -0.8
v 2.6 1 -0.9
v 2.6 1.2 -0.8
v 2.6 1.2 -0.9
v 2.8 0.2 2
v 2.8 0.2 1.9
v 2.8 0.3 2
v 2.8 0.3 1.9
v 2.9 0.9 1.9
v 2.9 0.9 -0.8
v 2.9 1 2
v 2.9 1 1.9
v 2.9 1 1.8
v 2.9 1 1.4
v 2.9 1 1.2
v 2.9 1 0.8
v 2.9 1 0.6
v 2.9 1 0.2
v 2.9 1 -2.38419e-07
v 2.9 1 -0.4
v 2.9 1 -0.6
v 2.9 1 -0.8
v 2.9 1.2 2
v 2.9 1.2 1.8
v 2.9 1.2 1.4
v 2.9 1.2 1.2
v 2.9 1.2 0.8
v 2.9 1.2 0.6
v 2.9 1.2 0.2
v 2.9 1.2 -2.38419e-07
v 2.9 1.2 -0.4
v 2.9 1.2 -0.6
v -2.9 0.9 1.9
v -2.9 0.9 -0.8
v -2.9 1 2
v -2.9 1 1.9
v -2.9 1 1.8
v -2.9 1 1.4
v -2.9 1 1.2
v -2.9 1 0.8
v -2.9 1 0.6
v -2.9 1 0.2
v -2.9 1 -2.38419e-07
v -2.9 1 -0.4
v -2.9 1 -0.6
v -2.9 1 -0.8
v -2.9 1.2 2
v -2.9 1.2 1.8
v -2.9 1.2 1.4
v -2.9 1.2 1.2
v -2.9 1.2 0.8
v -2.9 1.2 0.6
v -2.9 1.2 0.2
v -2.9 1.2 -2.38419e-07
v -2.9 1.2 -0.4
v -2.9 1.2 -0.6
v -2.6 1 -0.8
v -2.6 1 -0.9
v -2.6 1.2 -0.8
v -2.6 1.2 -0.9
v -2.3 1 2
v -2.3 1 1.9
v -2.3 1.2 2
v -2.3 1.2 1.9
v -2 1 -0.8
v -2 1 -0.9
v -2 1.2 -0.8
v -2 1.2 -0.9
v -1.9 0.9 0.8
v -1.9 0.9 0.7
v -1.9 1.7 0.8
v -1.9 1.7 0.7
v -1.9 1.9 0.8
v -1.9 1.9 0.7
v -1.9 2.2 1
v -1.9 2.2 0.8
v -1.9 2.2 0.7
v -1.9 2.2 0.5
v -1.9 2.3 1
v -1.9 2.3 0.8
v -1.9 2.3 0.7
v -1.9 2.3 0.5
v -1.7 1 2
v -1.7 1 1.9
v -1.7 1.2 2
v -1.7 1.2 1.9
v -1.7 1.7 0.8
v -1.7 1.7 0.7
v -1.7 1.9 0.8
v -1.7 1.9 0.7
v -1.7 2.2 0.8
v -1.7 2.2 0.7
v -1.7 2.3 0.8
v -1.7 2.3 0.7
v -1.4 0.2 -0.8
v -1.4 0.2 -0.9
v -1.4 0.3 -0.8
v -1.4 0.3 -0.9
v -1.4 1 -0.8
v -1.4 1 -0.9
v -1.4 1.2 -0.8
v -1.4 1.2 -0.9
v -1.2 0.2 -0.8
v -1.2 0.2 -0.9
v -1.2 0.3 -0.8
v -1.2 0.3 -0.9
v -1.1 1 2
v -1.1 1 1.9
v -1.1 1.2 2
v -1.1 1.2 1.9
v -0.8 1 -0.8
v -0.8 1 -0.9
v -0.8 1.2 -0.8
v -0.8 1.2 -0.9
v -0.7 0.2 -0.8
v -0.7 0.2 -0.9
v -0.7 0.3 -0.8
v -0.7 0.3 -0.9
v -0.5 1 2
v -0.5 1 1.9
v -0.5 1.2 2
v -0.5 1.2 1.9
v -0.2 1 -0.8
v -0.2 1 -0.9
v -0.2 1.2 -0.8
v -0.2 1.2 -0.9
v -0.0999999 0.2 -0.8
v -0.0999999 0.2 -0.9
v -0.0999999 0.3 -0.8
v -0.0999999 0.3 -0.9
v 0.1 1 2
v 0.1 1 1.9
v 0.1 1.2 2
v 0.1 1.2 1.9
v 0.4 1 -0.8
v 0.4 1 -0.9
v 0.4 1.2 -0.8
v 0.4 1.2 -0.9
v 0.5 0.2 -0.8
v 0.5 0.2 -0.9
v 0.5 0.3 -0.8
v 0.5 0.3 -0.9
v 0.7 1 2
v 0.7 1 1.9
v 0.7 1.2 2
v 0.7 1.2 1.9
v 1 1 -0.8
v 1 1 -0.9
v 1 1.2 -0.8
v 1 1.2 -0.9
v 1.1 0.2 -0.8
v 1.1 0.2 -0.9
v 1.1 0.3 -0.8
v 1.1 0.3 -0.9
v 1.3 1 2
v 1.3 1 1.9
v 1.3 1.2 2
v 1.3 1.2 1.9
v 1.6 1 -0.8
v 1.6 1 -0.9
v 1.6 1.2 -0.8
v 1.6 1.2 -0.9
v 1.7 0.2 -0.8
v 1.7 0.2 -0.9
v 1.7 0.3 -0.8
v 1.7 0.3 -0.9
v 1.9 1 2
v 1.9 1 1.9
v 1.9 1.2 2
v 1.9 1.2 1.9
v 2 0.2 2
v 2 0.2 1.9
v 2 0.3 2
v 2 0.3 1.9
v 2.2 1 -0.8
v 2.2 1 -0.9
v 2.2 1.2 -0.8
v 2.2 1.2 -0.9
v 2.3 0.2 -0.8
v 2.3 0.2 -0.9
v 2.3 0.3 -0.8
v 2.3 0.3 -0.9
v 2.5 1 2
v 2.5 1 1.9
v 2.5 1.2 2
v 2.5 1.2 1.9
v 2.6 0.2 2
v 2.6 0.2 1.9
v 2.6 0.3 2
v 2.6 0.3 1.9
v 2.8 1 -0.8
v 2.8 1 -0.9
v 2.8 1.2 -0.8
v 2.8 1.2 -0.9
v 2.9 0.2 1.7
v 2.9 0.2 1.5
v 2.9 0.2 1.1
v 2.9 0.2 0.9
v 2.9 0.2 0.5
v 2.9 0.2 0.3
v 2.9 0.2 -0.1
v 2.9 0.2 -0.3
v 2.9 0.2 -0.7
v 2.9 0.2 -0.8
v 2.9 0.2 -0.9
v 2.9 0.3 1.7
v 2.9 0.3 1.5
v 2.9 0.3 1.1
v 2.9 0.3 0.9
v 2.9 0.3 0.5
v 2.9 0.3 0.3
v 2.9 0.3 -0.1
v 2.9 0.3 -0.3
v 2.9 0.3 -0.7
v 2.9 0.3 -0.8
v 2.9 0.3 -0.9
v 3 0 2
v 3 0 -0.9
v 3 0.2 1.8
v 3 0.2 1.7
v 3 0.2 1.5
v 3 0.2 1.4
v 3 0.2 1.2
v 3 0.2 1.1
v 3 0.2 0.9
v 3 0.2 0.8
v 3 0.2 0.6
v 3 0.2 0.5
v 3 0.2 0.3
v 3 0.2 0.2
v 3 0.2 -2.38419e-07
v 3 0.2 -0.1
v 3 0.2 -0.3
v 3 0.2 -0.4
v 3 0.2 -0.6
v 3 0.2 -0.7
v 3 0.2 -0.9
v 3 0.3 1.7
v 3 0.3 1.5
v 3 0.3 1.1
v 3 0.3 0.9
v 3 0.3 0.5
v 3 0.3 0.3
v 3 0.3 -0.1
v 3 0.3 -0.3
v 3 0.3 -0.7
v 3 0.3 -0.9
v 3 0.8 1.8
v 3 0.8 1.4
v 3 0.8 1.2
v 3 0.8 0.8
v 3 0.8 0.6
v 3 0.8 0.2
v 3 0.8 -2.38419e-07
v 3 0.8 -0.4
v 3 0.8 -0.6
v 3 0.8 -0.9
v 3 1 1.8
v 3 1 1.4
v 3 1 1.2
v 3 1 0.8
v 3 1 0.6
v 3 1 0.2
v 3 1 -2.38419e-07
v 3 1 -0.4
v 3 1 -0.6
v 3 1 -0.9
v 3 1.2 2
v 3 1.2 1.8
v 3 1.2 1.4
v 3 1.2 1.2
v 3 1.2 0.8
v 3 1.2 0.6
v 3 1.2 0.2
v 3 1.2 -2.38419e-07
v 3 1.2 -0.4
v 3 1.2 -0.6
v -3 0 2
v -3 1.2 2
v -2.9 0.2 2
v -2.9 0.8 2
v -2.9 1 2
v -2.9 1.2 2
v -2.5 0.2 2
v -2.5 0.8 2
v -2.5 1 2
v -2.5 1.2 2
v -2.3 0.2 2
v -2.3 0.8 2
v -2.3 1 2
v -2.3 1.2 2
v -1.9 0.2 2
v -1.9 0.8 2
v -1.9 1 2
v -1.9 1.2 2
v -1.7 0.2 2
v -1.7 0.8 2
v -1.7 1 2
v -1.7 1.2 2
v -1.3 0.2 2
v -1.3 0.8 2
v -1.3 1 2
v -1.3 1.2 2
v -1.1 0.2 2
v -1.1 0.8 2
v -1.1 1 2
v -1.1 1.2 2
v -0.7 0.2 2
v -0.7 0.8 2
v -0.7 1 2
v -0.7 1.2 2
v -0.5 0.2 2
v -0.5 0.8 2
v -0.5 1 2
v -0.5 1.2 2
v -0.0999999 0.2 2
v -0.0999999 0.8 2
v -0.0999999 1 2
v -0.0999999 1.2 2
v 0.1 0.2 2
v 0.1 0.8 2
v 0.1 1 2
v 0.1 1.2 2
v 0.5 0.2 2
v 0.5 0.8 2
v 0.5 1 2
v 0.5 1.2 2
v 0.7 0.2 2
v 0.7 0.8 2
v 0.7 1 2
v 0.7 1.2 2
v 1.1 0.2 2
v 1.1 0.8 2
v 1.1 1 2
v 1.1 1.2 2
v 1.3 0.2 2
v 1.3 0.8 2
v 1.3 1 2
v 1.3 1.2 2
v 1.7 0.2 2
v 1.7 0.8 2
v 1.7 1 2
v 1.7 1.2 2
v 1.9 0.2 2
v 1.9 0.8 2
v 1.9 1 2
v 1.9 1.2 2
v 2 0.2 2
v 2 0.3 2
v 2.2 0.2 2
v 2.2 0.3 2
v 2.3 0.2 2
v 2.3 0.8 2
v 2.3 1 2
v 2.3 1.2 2
v 2.5 0.2 2
v 2.5 0.8 2
v 2.5 1 2
v 2.5 1.2 2
v 2.6 0.2 2
v 2.6 0.3 2
v 2.8 0.2 2
v 2.8 0.3 2
v 2.9 0.2 2
v 2.9 0.8 2
v 2.9 1 2
v 2.9 1.2 2
v 3 0 2
v 3 1.2 2
v 2 0.2 1.9
v 2 0.3 1.9
v 2.2 0.2 1.9
v 2.2 0.3 1.9
v 2.6 0.2 1.9
v 2.6 0.3 1.9
v 2.8 0.2 1.9
v 2.8 0.3 1.9
v 2.9 0.2 1.5
v 2.9 0.3 1.5
v 3 0.2 1.5
v 3 0.3 1.5
v -3 1 1.4
v -3 1.2 1.4
v -2.9 1 1.4
v -2.9 1.2 1.4
v 2.9 1 1.4
v 2.9 1.2 1.4
v 3 1 1.4
v 3 1.2 1.4
v -2 2.2 1
v -2 2.3 1
v -1.9 2.2 1
v -1.9 2.3 1
v 2.9 0.2 0.9
v 2.9 0.3 0.9
v 3 0.2 0.9
v 3 0.3 0.9
v -3 1 0.8
v -3 1.2 0.8
v -2.9 1 0.8
v -2.9 1.2 0.8
v -2.1 2.2 0.8
v -2.1 2.3 0.8
v -2 0.9 0.8
v -2 2.2 0.8
v -2 2.3 0.8
v -1.9 0.9 0.8
v -1.9 1.7 0.8
v -1.9 1.9 0.8
v -1.9 2.2 0.8
v -1.9 2.3 0.8
v -1.7 1.7 0.8
v -1.7 1.9 0.8
v -1.7 2.2 0.8
v -1.7 2.3 0.8
v 2.9 1 0.8
v 2.9 1.2 0.8
v 3 1 0.8
v 3 1.2 0.8
v 2.9 0.2 0.3
v 2.9 0.3 0.3
v 3 0.2 0.3
v 3 0.3 0.3
v -3 1 0.2
v -3 1.2 0.2
v -2.9 1 0.2
v -2.9 1.2 0.2
v 2.9 1 0.2
v 2.9 1.2 0.2
v 3 1 0.2
v 3 1.2 0.2
v 2.9 0.2 -0.3
v 2.9 0.3 -0.3
v 3 0.2 -0.3
v 3 0.3 -0.3
v -3 1 -0.4
v -3 1.2 -0.4
v -2.9 1 -0.4
v -2.9 1.2 -0.4
v 2.9 1 -0.4
v 2.9 1.2 -0.4
v 3 1 -0.4
v 3 1.2 -0.4
v -2.9 0.9 -0.8
v -2.9 1 -0.8
v -2.8 1 -0.8
v -2.8 1.2 -0.8
v -2.6 1 -0.8
v -2.6 1.2 -0.8
v -2.2 1 -0.8
v -2.2 1.2 -0.8
v -2 1 -0.8
v -2 1.2 -0.8
v -1.6 1 -0.8
v -1.6 1.2 -0.8
v -1.4 1 -0.8
v -1.4 1.2 -0.8
v -1 1 -0.8
v -1 1.2 -0.8
v -0.8 1 -0.8
v -0.8 1.2 -0.8
v -0.4 1 -0.8
v -0.4 1.2 -0.8
v -0.2 1 -0.8
v -0.2 1.2 -0.8
v 0.2 1 -0.8
v 0.2 1.2 -0.8
v 0.4 1 -0.8
v 0.4 1.2 -0.8
v 0.8 1 -0.8
v 0.8 1.2 -0.8
v 1 1 -0.8
v 1 1.2 -0.8
v 1.4 1 -0.8
v 1.4 1.2 -0.8
v 1.6 1 -0.8
v 1.6 1.2 -0.8
v 2 1 -0.8
v 2 1.2 -0.8
v 2.2 1 -0.8
v 2.2 1.2 -0.8
v 2.6 1 -0.8
v 2.6 1.2 -0.8
v 2.8 1 -0.8
v 2.8 1.2 -0.8
v 2.9 0.9 -0.8
v 2.9 1 -0.8
v -2.9 0.9 1.9
v -2.9 1 1.9
v -2.5 1 1.9
v -2.5 1.2 1.9
v -2.3 1 1.9
v -2.3 1.2 1.9
v -1.9 1 1.9
v -1.9 1.2 1.9
v -1.7 1 1.9
v -1.7 1.2 1.9
v -1.3 1 1.9
v -1.3 1.2 1.9
v -1.1 1 1.9
v -1.1 1.2 1.9
v -0.7 1 1.9
v -0.7 1.2 1.9
v -0.5 1 1.9
v -0.5 1.2 1.9
v -0.0999999 1 1.9
v -0.0999999 1.2 1.9
v 0.1 1 1.9
v 0.1 1.2 1.9
v 0.5 1 1.9
v 0.5 1.2 1.9
v 0.7 1 1.9
v 0.7 1.2 1.9
v 1.1 1 1.9
v 1.1 1.2 1.9
v 1.3 1 1.9
v 1.3 1.2 1.9
v 1.7 1 1.9
v 1.7 1.2 1.9
v 1.9 1 1.9
v 1.9 1.2 1.9
v 2.3 1 1.9
v 2.3 1.2 1.9
v 2.5 1 1.9
v 2.5 1.2 1.9
v 2.9 0.9 1.9
v 2.9 1 1.9
v -3 1 1.8
v -3 1.2 1.8
v -2.9 1 1.8
v -2.9 1.2 1.8
v 2.9 1 1.8
v 2.9 1.2 1.8
v 3 1 1.8
v 3 1.2 1.8
v 2.9 0.2 1.7
v 2.9 0.3 1.7
v 3 0.2 1.7
v 3 0.3 1.7
v -3 1 1.2
v -3 1.2 1.2
v -2.9 1 1.2
v -2.9 1.2 1.2
v 2.9 1 1.2
v 2.9 1.2 1.2
v 3 1 1.2
v 3 1.2 1.2
v 2.9 0.2 1.1
v 2.9 0.3 1.1
v 3 0.2 1.1
v 3 0.3 1.1
v -2.1 2.2 0.7
v -2.1 2.3 0.7
v -2 0.9 0.7
v -2 2.2 0.7
v -2 2.3 0.7
v -1.9 0.9 0.7
v -1.9 1.7 0.7
v -1.9 1.9 0.7
v -1.9 2.2 0.7
v -1.9 2.3 0.7
v -1.7 1.7 0.7
v -1.7 1.9 0.7
v -1.7 2.2 0.7
v -1.7 2.3 0.7
v -3 1 0.6
v -3 1.2 0.6
v -2.9 1 0.6
v -2.9 1.2 0.6
v 2.9 1 0.6
v 2.9 1.2 0.6
v 3 1 0.6
v 3 1.2 0.6
v -2 2.2 0.5
v -2 2.3 0.5
v -1.9 2.2 0.5
v -1.9 2.3 0.5
v 2.9 0.2 0.5
v 2.9 0.3 0.5
v 3 0.2 0.5
v 3 0.3 0.5
v -3 1 -2.38419e-07
v -3 1.2 -2.38419e-07
v -2.9 1 -2.38419e-07
v -2.9 1.2 -2.38419e-07
v 2.9 1 -2.38419e-07
v 2.9 1.2 -2.38419e-07
v 3 1 -2.38419e-07
v 3 1.2 -2.38419e-07
v 2.9 0.2 -0.1
v 2.9 0.3 -0.1
v 3 0.2 -0.1
v 3 0.3 -0.1
v -3 1 -0.6
v -3 1.2 -0.6
v -2.9 1 -0.6
v -2.9 1.2 -0.6
v 2.9 1 -0.6
v 2.9 1.2 -0.6
v 3 1 -0.6
v 3 1.2 -0.6
v 2.9 0.2 -0.7
v 2.9 0.3 -0.7
v 3 0.2 -0.7
v 3 0.3 -0.7
v -1.4 0.2 -0.8
v -1.4 0.3 -0.8
v -1.3 0.2 -0.8
v -1.3 0.3 -0.8
v -1.2 0.2 -0.8
v -1.2 0.3 -0.8
v -1.1 0.2 -0.8
v -1.1 0.3 -0.8
v -0.7 0.2 -0.8
v -0.7 0.3 -0.8
v -0.5 0.2 -0.8
v -0.5 0.3 -0.8
v -0.0999999 0.2 -0.8
v -0.0999999 0.3 -0.8
v 0.1 0.2 -0.8
v 0.1 0.3 -0.8
v 0.5 0.2 -0.8
v 0.5 0.3 -0.8
v 0.7 0.2 -0.8
v 0.7 0.3 -0.8
v 1.1 0.2 -0.8
v 1.1 0.3 -0.8
v 1.3 0.2 -0.8
v 1.3 0.3 -0.8
v 1.7 0.2 -0.8
v 1.7 0.3 -0.8
v 1.9 0.2 -0.8
v 1.9 0.3 -0.8
v 2.3 0.2 -0.8
v 2.3 0.3 -0.8
v 2.5 0.2 -0.8
v 2.5 0.3 -0.8
v -3 0 -0.9
v -3 0.2 -0.9
v -3 0.8 -0.9
v -3 1 -0.9
v -2.8 0.2 -0.9
v -2.8 0.8 -0.9
v -2.8 1 -0.9
v -2.8 1.2 -0.9
v -2.6 0.2 -0.9
v -2.6 0.8 -0.9
v -2.6 1 -0.9
v -2.6 1.2 -0.9
v -2.2 0.2 -0.9
v -2.2 0.8 -0.9
v -2.2 1 -0.9
v -2.2 1.2 -0.9
v -2 0.2 -0.9
v -2 0.8 -0.9
v -2 1 -0.9
v -2 1.2 -0.9
v -1.6 0.2 -0.9
v -1.6 0.8 -0.9
v -1.6 1 -0.9
v -1.6 1.2 -0.9
v -1.4 0.2 -0.9
v -1.4 0.3 -0.9
v -1.4 0.8 -0.9
v -1.4 1 -0.9
v -1.4 1.2 -0.9
v -1.3 0.2 -0.9
v -1.3 0.3 -0.9
v -1.2 0.2 -0.9
v -1.2 0.3 -0.9
v -1.1 0.2 -0.9
v -1.1 0.3 -0.9
v -1 0.2 -0.9
v -1 0.8 -0.9
v -1 1 -0.9
v -1 1.2 -0.9
v -0.8 0.2 -0.9
v -0.8 0.8 -0.9
v -0.8 1 -0.9
v -0.8 1.2 -0.9
v -0.7 0.2 -0.9
v -0.7 0.3 -0.9
v -0.5 0.2 -0.9
v -0.5 0.3 -0.9
v -0.4 0.2 -0.9
v -0.4 0.8 -0.9
v -0.4 1 -0.9
v -0.4 1.2 -0.9
v -0.2 0.2 -0.9
v -0.2 0.8 -0.9
v -0.2 1 -0.9
v -0.2 1.2 -0.9
v -0.0999999 0.2 -0.9
v -0.0999999 0.3 -0.9
v 0.1 0.2 -0.9
v 0.1 0.3 -0.9
v 0.2 0.2 -0.9
v 0.2 0.8 -0.9
v 0.2 1 -0.9
v 0.2 1.2 -0.9
v 0.4 0.2 -0.9
v 0.4 0.8 -0.9
v 0.4 1 -0.9
v 0.4 1.2 -0.9
v 0.5 0.2 -0.9
v 0.5 0.3 -0.9
v 0.7 0.2 -0.9
v 0.7 0.3 -0.9
v 0.8 0.2 -0.9
v 0.8 0.8 -0.9
v 0.8 1 -0.9
v 0.8 1.2 -0.9
v 1 0.2 -0.9
v 1 0.8 -0.9
v 1 1 -0.9
v 1 1.2 -0.9
v 1.1 0.2 -0.9
v 1.1 0.3 -0.9
v 1.3 0.2 -0.9
v 1.3 0.3 -0.9
v 1.4 0.2 -0.9
v 1.4 0.8 -0.9
v 1.4 1 -0.9
v 1.4 1.2 -0.9
v 1.6 0.2 -0.9
v 1.6 0.8 -0.9
v 1.6 1 -0.9
v 1.6 1.2 -0.9
v 1.7 0.2 -0.9
v 1.7 0.3 -0.9
v 1.9 0.2 -0.9
v 1.9 0.3 -0.9
v 2 0.2 -0.9
v 2 0.8 -0.9
v 2 1 -0.9
v 2 1.2 -0.9
v 2.2 0.2 -0.9
v 2.2 0.8 -0.9
v 2.2 1 -0.9
v 2.2 1.2 -0.9
v 2.3 0.2 -0.9
v 2.3 0.3 -0.9
v 2.5 0.2 -0.9
v 2.5 0.3 -0.9
v 2.6 0.2 -0.9
v 2.6 0.8 -0.9
v 2.6 1 -0.9
v 2.6 1.2 -0.9
v 2.8 0.2 -0.9
v 2.8 0.8 -0.9
v 2.8 1 -0.9
v 2.8 1.2 -0.9
v 2.9 0.2 -0.9
v 2.9 0.3 -0.9
v 3 0 -0.9
v 3 0.2 -0.9
v 3 0.3 -0.9
v 3 0.8 -0.9
v 3 1 -0.9
v -3 0 2
v 3 0 2
v -3 0 -0.9
v 3 0 -0.9
v 2 0.3 2
v 2.2 0.3 2
v 2.6 0.3 2
v 2.8 0.3 2
v 2 0.3 1.9
v 2.2 0.3 1.9
v 2.6 0.3 1.9
v 2.8 0.3 1.9
v 2.9 0.3 1.7
v 3 0.3 1.7
v 2.9 0.3 1.5
v 3 0.3 1.5
v 2.9 0.3 1.1
v 3 0.3 1.1
v 2.9 0.3 0.9
v 3 0.3 0.9
v 2.9 0.3 0.5
v 3 0.3 0.5
v 2.9 0.3 0.3
v 3 0.3 0.3
v 2.9 0.3 -0.1
v 3 0.3 -0.1
v 2.9 0.3 -0.3
v 3 0.3 -0.3
v 2.9 0.3 -0.7
v 3 0.3 -0.7
v -1.4 0.3 -0.8
v -1.3 0.3 -0.8
v -1.2 0.3 -0.8
v -1.1 0.3 -0.8
v -0.7 0.3 -0.8
v -0.5 0.3 -0.8
v -0.0999999 0.3 -0.8
v 0.1 0.3 -0.8
v 0.5 0.3 -0.8
v 0.7 0.3 -0.8
v 1.1 0.3 -0.8
v 1.3 0.3 -0.8
v 1.7 0.3 -0.8
v 1.9 0.3 -0.8
v 2.3 0.3 -0.8
v 2.5 0.3 -0.8
v 2.9 0.3 -0.8
v -1.4 0.3 -0.9
v -1.3 0.3 -0.9
v -1.2 0.3 -0.9
v -1.1 0.3 -0.9
v -0.7 0.3 -0.9
v -0.5 0.3 -0.9
v -0.0999999 0.3 -0.9
v 0.1 0.3 -0.9
v 0.5 0.3 -0.9
v 0.7 0.3 -0.9
v 1.1 0.3 -0.9
v 1.3 0.3 -0.9
v 1.7 0.3 -0.9
v 1.9 0.3 -0.9
v 2.3 0.3 -0.9
v 2.5 0.3 -0.9
v 2.9 0.3 -0.9
v 3 0.3 -0.9
v -1.9 1.7 0.8
v -1.7 1.7 0.8
v -1.9 1.7 0.7
v -1.7 1.7 0.7
v -2 2.2 1
v -1.9 2.2 1
v -2.1 2.2 0.8
v -2 2.2 0.8
v -1.9 2.2 0.8
v -1.7 2.2 0.8
v -2.1 2.2 0.7
v -2 2.2 0.7
v -1.9 2.2 0.7
v -1.7 2.2 0.7
v -2 2.2 0.5
v -1.9 2.2 0.5
v 2 0.2 2
v 2.2 0.2 2
v 2.6 0.2 2
v 2.8 0.2 2
v 2 0.2 1.9
v 2.2 0.2 1.9
v 2.6 0.2 1.9
v 2.8 0.2 1.9
v 2.9 0.2 1.7
v 3 0.2 1.7
v 2.9 0.2 1.5
v 3 0.2 1.5
v 2.9 0.2 1.1
v 3 0.2 1.1
v 2.9 0.2 0.9
v 3 0.2 0.9
v 2.9 0.2 0.5
v 3 0.2 0.5
v 2.9 0.2 0.3
v 3 0.2 0.3
v 2.9 0.2 -0.1
v 3 0.2 -0.1
v 2.9 0.2 -0.3
v 3 0.2 -0.3
v 2.9 0.2 -0.7
v 3 0.2 -0.7
v -1.4 0.2 -0.8
v -1.3 0.2 -0.8
v -1.2 0.2 -0.8
v -1.1 0.2 -0.8
v -0.7 0.2 -0.8
v -0.5 0.2 -0.8
v -0.0999999 0.2 -0.8
v 0.1 0.2 -0.8
v 0.5 0.2 -0.8
v 0.7 0.2 -0.8
v 1.1 0.2 -0.8
v 1.3 0.2 -0.8
v 1.7 0.2 -0.8
v 1.9 0.2 -0.8
v 2.3 0.2 -0.8
v 2.5 0.2 -0.8
v 2.9 0.2 -0.8
v -1.4 0.2 -0.9
v -1.3 0.2 -0.9
v -1.2 0.2 -0.9
v -1.1 0.2 -0.9
v -0.7 0.2 -0.9
v -0.5 0.2 -0.9
v -0.0999999 0.2 -0.9
v 0.1 0.2 -0.9
v 0.5 0.2 -0.9
v 0.7 0.2 -0.9
v 1.1 0.2 -0.9
v 1.3 0.2 -0.9
v 1.7 0.2 -0.9
v 1.9 0.2 -0.9
v 2.3 0.2 -0.9
v 2.5 0.2 -0.9
v 2.9 0.2 -0.9
v 3 0.2 -0.9
v -2.9 0.9 1.9
v 2.9 0.9 1.9
v -2 0.9 0.8
v -1.9 0.9 0.8
v -2 0.9 0.7
v -1.9 0.9 0.7
v -2.9 0.9 -0.8
v 2.9 0.9 -0.8
v -2.9 1 2
v -2.5 1 2
v -2.3 1 2
v -1.9 1 2
v -1.7 1 2
v -1.3 1 2
v -1.1 1 2
v -0.7 1 2
v -0.5 1 2
v -0.0999999 1 2
v 0.1 1 2
v 0.5 1 2
v 0.7 1 2
v 1.1 1 2
v 1.3 1 2
v 1.7 1 2
v 1.9 1 2
v 2.3 1 2
v 2.5 1 2
v 2.9 1 2
v -2.9 1 1.9
v -2.5 1 1.9
v -2.3 1 1.9
v -1.9 1 1.9
v -1.7 1 1.9
v -1.3 1 1.9
v -1.1 1 1.9
v -0.7 1 1.9
v -0.5 1 1.9
v -0.0999999 1 1.9
v 0.1 1 1.9
v 0.5 1 1.9
v 0.7 1 1.9
v 1.1 1 1.9
v 1.3 1 1.9
v 1.7 1 1.9
v 1.9 1 1.9
v 2.3 1 1.9
v 2.5 1 1.9
v 2.9 1 1.9
v -3 1 1.8
v -2.9 1 1.8
v 2.9 1 1.8
v 3 1 1.8
v -3 1 1.4
v -2.9 1 1.4
v 2.9 1 1.4
v 3 1 1.4
v -3 1 1.2
v -2.9 1 1.2
v 2.9 1 1.2
v 3 1 1.2
v -3 1 0.8
v -2.9 1 0.8
v 2.9 1 0.8
v 3 1 0.8
v -3 1 0.6
v -2.9 1 0.6
v 2.9 1 0.6
v 3 1 0.6
v -3 1 0.2
v -2.9 1 0.2
v 2.9 1 0.2
v 3 1 0.2
v -3 1 -2.38419e-07
v -2.9 1 -2.38419e-07
v 2.9 1 -2.38419e-07
v 3 1 -2.38419e-07
v -3 1 -0.4
v -2.9 1 -0.4
v 2.9 1 -0.4
v 3 1 -0.4
v -3 1 -0.6
v -2.9 1 -0.6
v 2.9 1 -0.6
v 3 1 -0.6
v -2.9 1 -0.8
v -2.8 1 -0.8
v -2.6 1 -0.8
v -2.2 1 -0.8
v -2 1 -0.8
v -1.6 1 -0.8
v -1.4 1 -0.8
v -1 1 -0.8
v -0.8 1 -0.8
v -0.4 1 -0.8
v -0.2 1 -0.8
v 0.2 1 -0.8
v 0.4 1 -0.8
v 0.8 1 -0.8
v 1 1 -0.8
v 1.4 1 -0.8
v 1.6 1 -0.8
v 2 1 -0.8
v 2.2 1 -0.8
v 2.6 1 -0.8
v 2.8 1 -0.8
v 2.9 1 -0.8
v -3 1 -0.9
v -2.8 1 -0.9
v -2.6 1 -0.9
v -2.2 1 -0.9
v -2 1 -0.9
v -1.6 1 -0.9
v -1.4 1 -0.9
v -1 1 -0.9
v -0.8 1 -0.9
v -0.4 1 -0.9
v -0.2 1 -0.9
v 0.2 1 -0.9
v 0.4 1 -0.9
v 0.8 1 -0.9
v 1 1 -0.9
v 1.4 1 -0.9
v 1.6 1 -0.9
v 2 1 -0.9
v 2.2 1 -0.9
v 2.6 1 -0.9
v 2.8 1 -0.9
v 3 1 -0.9
v -3 1.2 2
v -2.9 1.2 2
v -2.5 1.2 2
v -2.3 1.2 2
v -1.9 1.2 2
v -1.7 1.2 2
v -1.3 1.2 2
v -1.1 1.2 2
v -0.7 1.2 2
v -0.5 1.2 2
v -0.0999999 1.2 2
v 0.1 1.2 2
v 0.5 1.2 2
v 0.7 1.2 2
v 1.1 1.2 2
v 1.3 1.2 2
v 1.7 1.2 2
v 1.9 1.2 2
v 2.3 1.2 2
v 2.5 1.2 2
v 2.9 1.2 2
v 3 1.2 2
v -2.5 1.2 1.9
v -2.3 1.2 1.9
v -1.9 1.2 1.9
v -1.7 1.2 1.9
v -1.3 1.2 1.9
v -1.1 1.2 1.9
v -0.7 1.2 1.9
v -0.5 1.2 1.9
v -0.0999999 1.2 1.9
v 0.1 1.2 1.9
v 0.5 1.2 1.9
v 0.7 1.2 1.9
v 1.1 1.2 1.9
v 1.3 1.2 1.9
v 1.7 1.2 1.9
v 1.9 1.2 1.9
v 2.3 1.2 1.9
v 2.5 1.2 1.9
v -3 1.2 1.8
v -2.9 1.2 1.8
v 2.9 1.2 1.8
v 3 1.2 1.8
v -3 1.2 1.4
v -2.9 1.2 1.4
v 2.9 1.2 1.4
v 3 1.2 1.4
v -3 1.2 1.2
v -2.9 1.2 1.2
v 2.9 1.2 1.2
v 3 1.2 1.2
v -3 1.2 0.8
v -2.9 1.2 0.8
v 2.9 1.2 0.8
v 3 1.2 0.8
v -3 1.2 0.6
v -2.9 1.2 0.6
v 2.9 1.2 0.6
v 3 1.2 0.6
v -3 1.2 0.2
v -2.9 1.2 0.2
v 2.9 1.2 0.2
v 3 1.2 0.2
v -3 1.2 -2.38419e-07
v -2.9 1.2 -2.38419e-07
v 2.9 1.2 -2.38419e-07
v 3 1.2 -2.38419e-07
v -3 1.2 -0.4
v -2.9 1.2 -0.4
v 2.9 1.2 -0.4
v 3 1.2 -0.4
v -3 1.2 -0.6
v -2.9 1.2 -0.6
v 2.9 1.2 -0.6
v 3 1.2 -0.6
v -2.8 1.2 -0.8
v -2.6 1.2 -0.8
v -2.2 1.2 -0.8
v -2 1.2 -0.8
v -1.6 1.2 -0.8
v -1.4 1.2 -0.8
v -1 1.2 -0.8
v -0.8 1.2 -0.8
v -0.4 1.2 -0.8
v -0.2 1.2 -0.8
v 0.2 1.2 -0.8
v 0.4 1.2 -0.8
v 0.8 1.2 -0.8
v 1 1.2 -0.8
v 1.4 1.2 -0.8
v 1.6 1.2 -0.8
v 2 1.2 -0.8
v 2.2 1.2 -0.8
v 2.6 1.2 -0.8
v 2.8 1.2 -0.8
v -2.8 1.2 -0.9
v -2.6 1.2 -0.9
v -2.2 1.2 -0.9
v -2 1.2 -0.9
v -1.6 1.2 -0.9
v -1.4 1.2 -0.9
v -1 1.2 -0.9
v -0.8 1.2 -0.9
v -0.4 1.2 -0.9
v -0.2 1.2 -0.9
v 0.2 1.2 -0.9
v 0.4 1.2 -0.9
v 0.8 1.2 -0.9
v 1 1.2 -0.9
v 1.4 1.2 -0.9
v 1.6 1.2 -0.9
v 2 1.2 -0.9
v 2.2 1.2 -0.9
v 2.6 1.2 -0.9
v 2.8 1.2 -0.9
v -1.9 1.9 0.8
v -1.7 1.9 0.8
v -1.9 1.9 0.7
v -1.7 1.9 0.7
v -2 2.3 1
v -1.9 2.3 1
v -2.1 2.3 0.8
v -2 2.3 0.8
v -1.9 2.3 0.8
v -1.7 2.3 0.8
v -2.1 2.3 0.7
v -2 2.3 0.7
v -1.9 2.3 0.7
v -1.7 2.3 0.7
v -2 2.3 0.5
v -1.9 2.3 0.5

# faces
f 3/2/1 2/2/1 1/2/1
f 4/2/1 2/2/1 3/2/1
f 5/2/1 2/2/1 4/2/1
f 6/2/1 2/2/1 5/2/1
f 7/2/1 2/2/1 6/2/1
f 8/2/1 2/2/1 7/2/1
f 9/2/1 2/2/1 8/2/1
f 10/2/1 2/2/1 9/2/1
f 11/2/1 2/2/1 10/2/1
f 12/2/1 2/2/1 11/2/1
f 13/2/1 3/2/1 1/2/1
f 13/5/1 4/5/1 3/5/1
f 14/2/1 5/2/1 4/2/1
f 14/5/1 4/5/1 13/5/1
f 15/5/1 6/5/1 5/5/1
f 15/2/1 5/2/1 14/2/1
f 16/2/1 7/2/1 6/2/1
f 16/5/1 6/5/1 15/5/1
f 17/5/1 8/5/1 7/5/1
f 17/2/1 7/2/1 16/2/1
f 18/2/1 9/2/1 8/2/1
f 18/5/1 8/5/1 17/5/1
f 19/5/1 10/5/1 9/5/1
f 19/2/1 9/2/1 18/2/1
f 20/2/1 11/2/1 10/2/1
f 20/5/1 10/5/1 19/5/1
f 21/5/1 12/5/1 11/5/1
f 21/2/1 11/2/1 20/2/1
f 22/5/1 12/5/1 21/5/1
f 23/2/1 20/2/1 19/2/1
f 23/2/1 13/2/1 1/2/1
f 23/2/1 22/2/1 21/2/1
f 23/2/1 21/2/1 20/2/1
f 23/2/1 19/2/1 18/2/1
f 23/2/1 18/2/1 17/2/1
f 23/2/1 17/2/1 16/2/1
f 23/2/1 16/2/1 15/2/1
f 23/2/1 15/2/1 14/2/1
f 23/2/1 14/2/1 13/2/1
f 24/2/1 22/2/1 23/2/1
f 25/2/1 22/2/1 24/2/1
f 26/2/1 22/2/1 25/2/1
f 27/2/1 22/2/1 26/2/1
f 28/2/1 22/2/1 27/2/1
f 29/2/1 22/2/1 28/2/1
f 30/2/1 22/2/1 29/2/1
f 31/2/1 22/2/1 30/2/1
f 32/2/1 22/2/1 31/2/1
f 33/2/1 23/2/1 1/2/1
f 34/2/1 23/2/1 33/2/1
f 35/2/1 25/2/1 24/2/1
f 36/2/1 25/2/1 35/2/1
f 37/2/1 27/2/1 26/2/1
f 38/2/1 27/2/1 37/2/1
f 39/2/1 29/2/1 28/2/1
f 40/2/1 29/2/1 39/2/1
f 41/2/1 31/2/1 30/2/1
f 42/2/1 31/2/1 41/2/1
f 45/2/1 44/2/1 43/2/1
f 46/2/1 44/2/1 45/2/1
f 49/2/1 48/2/1 47/2/1
f 50/2/1 48/2/1 49/2/1
f 53/2/1 52/2/1 51/2/1
f 54/2/1 52/2/1 53/2/1
f 57/7/1 56/7/1 55/7/1
f 58/7/1 56/7/1 57/7/1
f 62/5/1 60/5/1 59/5/1
f 63/5/1 60/5/1 62/5/1
f 65/7/1 62/7/1 61/7/1
f 66/7/1 62/7/1 65/7/1
f 67/7/1 64/7/1 63/7/1
f 68/7/1 64/7/1 67/7/1
f 71/2/1 70/2/1 69/2/1
f 72/2/1 70/2/1 71/2/1
f 75/2/1 74/2/1 73/2/1
f 76/2/1 74/2/1 75/2/1
f 79/5/1 78/5/1 77/5/1
f 80/5/1 78/5/1 79/5/1
f 83/2/1 82/2/1 81/2/1
f 84/2/1 82/2/1 83/2/1
f 87/5/1 86/5/1 85/5/1
f 88/5/1 86/5/1 87/5/1
f 91/2/1 90/2/1 89/2/1
f 92/2/1 90/2/1 91/2/1
f 95/2/1 94/2/1 93/2/1
f 96/2/1 94/2/1 95/2/1
f 99/5/1 98/5/1 97/5/1
f 100/5/1 98/5/1 99/5/1
f 103/2/1 102/2/1 101/2/1
f 104/2/1 102/2/1 103/2/1
f 107/2/1 106/2/1 105/2/1
f 108/2/1 106/2/1 107/2/1
f 111/5/1 110/5/1 109/5/1
f 112/5/1 110/5/1 111/5/1
f 115/2/1 114/2/1 113/2/1
f 116/2/1 114/2/1 115/2/1
f 119/2/1 118/2/1 117/2/1
f 120/2/1 118/2/1 119/2/1
f 123/5/1 122/5/1 121/5/1
f 124/5/1 122/5/1 123/5/1
f 127/2/1 126/2/1 125/2/1
f 128/2/1 126/2/1 127/2/1
f 131/2/1 130/2/1 129/2/1
f 132/2/1 130/2/1 131/2/1
f 135/5/1 134/5/1 133/5/1
f 136/5/1 134/5/1 135/5/1
f 139/2/1 138/2/1 137/2/1
f 140/2/1 138/2/1 139/2/1
f 143/2/1 142/2/1 141/2/1
f 144/2/1 142/2/1 143/2/1
f 147/5/1 146/5/1 145/5/1
f 148/5/1 146/5/1 147/5/1
f 151/2/1 150/2/1 149/2/1
f 152/2/1 150/2/1 151/2/1
f 155/5/1 154/5/1 153/5/1
f 156/5/1 154/5/1 155/5/1
f 159/2/1 158/2/1 157/2/1
f 160/2/1 158/2/1 159/2/1
f 163/5/1 162/5/1 161/5/1
f 164/5/1 162/5/1 163/5/1
f 167/2/1 166/2/1 165/2/1
f 168/2/1 166/2/1 167/2/1
f 171/5/1 170/5/1 169/5/1
f 172/5/1 170/5/1 171/5/1
f 176/2/1 174/2/1 173/2/1
f 177/2/1 174/2/1 176/2/1
f 178/2/1 174/2/1 177/2/1
f 179/2/1 174/2/1 178/2/1
f 180/2/1 174/2/1 179/2/1
f 181/2/1 174/2/1 180/2/1
f 182/2/1 174/2/1 181/2/1
f 183/2/1 174/2/1 182/2/1
f 184/2/1 174/2/1 183/2/1
f 185/2/1 174/2/1 184/2/1
f 186/2/1 174/2/1 185/2/1
f 187/2/1 176/2/1 175/2/1
f 187/2/1 177/2/1 176/2/1
f 188/2/1 177/2/1 187/2/1
f 189/2/1 179/2/1 178/2/1
f 190/2/1 179/2/1 189/2/1
f 191/2/1 181/2/1 180/2/1
f 192/2/1 181/2/1 191/2/1
f 193/2/1 183/2/1 182/2/1
f 194/2/1 183/2/1 193/2/1
f 195/2/1 185/2/1 184/2/1
f 196/2/1 185/2/1 195/2/1
f 197/2/2 198/2/2 200/2/2
f 200/2/2 198/2/2 201/2/2
f 201/2/2 198/2/2 202/2/2
f 202/2/2 198/2/2 203/2/2
f 203/2/2 198/2/2 204/2/2
f 204/2/2 198/2/2 205/2/2
f 205/2/2 198/2/2 206/2/2
f 206/2/2 198/2/2 207/2/2
f 207/2/2 198/2/2 208/2/2
f 208/2/2 198/2/2 209/2/2
f 209/2/2 198/2/2 210/2/2
f 199/2/2 200/2/2 211/2/2
f 200/2/2 201/2/2 211/2/2
f 211/2/2 201/2/2 212/2/2
f 202/2/2 203/2/2 213/2/2
f 213/2/2 203/2/2 214/2/2
f 204/2/2 205/2/2 215/2/2
f 215/2/2 205/2/2 216/2/2
f 206/2/2 207/2/2 217/2/2
f 217/2/2 207/2/2 218/2/2
f 208/2/2 209/2/2 219/2/2
f 219/2/2 209/2/2 220/2/2
f 221/2/2 222/2/2 223/2/2
f 223/2/2 222/2/2 224/2/2
f 225/2/2 226/2/2 227/2/2
f 227/2/2 226/2/2 228/2/2
f 229/2/2 230/2/2 231/2/2
f 231/2/2 230/2/2 232/2/2
f 233/5/2 234/5/2 235/5/2
f 235/5/2 234/5/2 236/5/2
f 237/5/2 238/5/2 240/5/2
f 240/5/2 238/5/2 241/5/2
f 239/7/2 240/7/2 243/7/2
f 243/7/2 240/7/2 244/7/2
f 241/7/2 242/7/2 245/7/2
f 245/7/2 242/7/2 246/7/2
f 247/2/2 248/2/2 249/2/2
f 249/2/2 248/2/2 250/2/2
f 251/5/2 252/5/2 253/5/2
f 253/5/2 252/5/2 254/5/2
f 255/7/2 256/7/2 257/7/2
f 257/7/2 256/7/2 258/7/2
f 259/2/2 260/2/2 261/2/2
f 261/2/2 260/2/2 262/2/2
f 263/2/2 264/2/2 265/2/2
f 265/2/2 264/2/2 266/2/2
f 267/5/2 268/5/2 269/5/2
f 269/5/2 268/5/2 270/5/2
f 271/2/2 272/2/2 273/2/2
f 273/2/2 272/2/2 274/2/2
f 275/2/2 276/2/2 277/2/2
f 277/2/2 276/2/2 278/2/2
f 279/5/2 280/5/2 281/5/2
f 281/5/2 280/5/2 282/5/2
f 283/2/2 284/2/2 285/2/2
f 285/2/2 284/2/2 286/2/2
f 287/2/2 288/2/2 289/2/2
f 289/2/2 288/2/2 290/2/2
f 291/5/2 292/5/2 293/5/2
f 293/5/2 292/5/2 294/5/2
f 295/2/2 296/2/2 297/2/2
f 297/2/2 296/2/2 298/2/2
f 299/2/2 300/2/2 301/2/2
f 301/2/2 300/2/2 302/2/2
f 303/5/2 304/5/2 305/5/2
f 305/5/2 304/5/2 306/5/2
f 307/2/2 308/2/2 309/2/2
f 309/2/2 308/2/2 310/2/2
f 311/2/2 312/2/2 313/2/2
f 313/2/2 312/2/2 314/2/2
f 315/5/2 316/5/2 317/5/2
f 317/5/2 316/5/2 318/5/2
f 319/2/2 320/2/2 321/2/2
f 321/2/2 320/2/2 322/2/2
f 323/2/2 324/2/2 325/2/2
f 325/2/2 324/2/2 326/2/2
f 327/5/2 328/5/2 329/5/2
f 329/5/2 328/5/2 330/5/2
f 331/2/2 332/2/2 333/2/2
f 333/2/2 332/2/2 334/2/2
f 335/5/2 336/5/2 337/5/2
f 337/5/2 336/5/2 338/5/2
f 339/2/2 340/2/2 341/2/2
f 341/2/2 340/2/2 342/2/2
f 343/5/2 344/5/2 345/5/2
f 345/5/2 344/5/2 346/5/2
f 347/2/2 348/2/2 349/2/2
f 349/2/2 348/2/2 350/2/2
f 351/5/2 352/5/2 353/5/2
f 353/5/2 352/5/2 354/5/2
f 355/2/2 356/2/2 357/2/2
f 357/2/2 356/2/2 358/2/2
f 359/6/2 360/6/2 370/6/2
f 370/6/2 360/6/2 371/6/2
f 361/6/2 362/6/2 372/6/2
f 372/6/2 362/6/2 373/6/2
f 363/6/2 364/6/2 374/6/2
f 374/6/2 364/6/2 375/6/2
f 365/6/2 366/6/2 376/6/2
f 376/6/2 366/6/2 377/6/2
f 367/6/2 368/6/2 378/6/2
f 368/5/2 369/5/2 379/5/2
f 378/6/2 368/6/2 379/6/2
f 379/5/2 369/5/2 380/5/2
f 381/2/2 382/2/2 383/2/2
f 383/2/2 382/2/2 384/2/2
f 384/2/2 382/2/2 385/2/2
f 385/2/2 382/2/2 386/2/2
f 386/2/2 382/2/2 387/2/2
f 387/2/2 382/2/2 388/2/2
f 388/2/2 382/2/2 389/2/2
f 389/2/2 382/2/2 390/2/2
f 390/2/2 382/2/2 391/2/2
f 391/2/2 382/2/2 392/2/2
f 392/2/2 382/2/2 393/2/2
f 393/2/2 382/2/2 394/2/2
f 394/2/2 382/2/2 395/2/2
f 395/2/2 382/2/2 396/2/2
f 396/2/2 382/2/2 397/2/2
f 397/2/2 382/2/2 398/2/2
f 398/2/2 382/2/2 399/2/2
f 399/2/2 382/2/2 400/2/2
f 400/2/2 382/2/2 401/2/2
f 383/5/2 384/5/2 402/5/2
f 385/5/2 386/5/2 403/5/2
f 387/5/2 388/5/2 404/5/2
f 389/5/2 390/5/2 405/5/2
f 391/5/2 392/5/2 406/5/2
f 393/5/2 394/5/2 407/5/2
f 395/5/2 396/5/2 408/5/2
f 397/5/2 398/5/2 409/5/2
f 399/5/2 400/5/2 410/5/2
f 381/2/2 383/2/2 412/2/2
f 383/5/2 402/5/2 412/5/2
f 402/5/2 403/5/2 412/5/2
f 386/2/2 387/2/2 413/2/2
f 412/5/2 403/5/2 413/5/2
f 403/5/2 386/5/2 413/5/2
f 387/5/2 404/5/2 414/5/2
f 413/2/2 387/2/2 414/2/2
f 404/5/2 405/5/2 414/5/2
f 390/2/2 391/2/2 415/2/2
f 414/5/2 405/5/2 415/5/2
f 405/5/2 390/5/2 415/5/2
f 391/5/2 406/5/2 416/5/2
f 415/2/2 391/2/2 416/2/2
f 406/5/2 407/5/2 416/5/2
f 407/5/2 394/5/2 417/5/2
f 416/5/2 407/5/2 417/5/2
f 394/2/2 395/2/2 417/2/2
f 408/5/2 409/5/2 418/5/2
f 417/2/2 395/2/2 418/2/2
f 395/5/2 408/5/2 418/5/2
f 409/5/2 398/5/2 419/5/2
f 418/5/2 409/5/2 419/5/2
f 398/2/2 399/2/2 419/2/2
f 410/5/2 411/5/2 420/5/2
f 419/2/2 399/2/2 420/2/2
f 399/5/2 410/5/2 420/5/2
f 420/5/2 411/5/2 421/5/2
f 418/2/2 419/2/2 422/2/2
f 416/2/2 417/2/2 422/2/2
f 420/2/2 421/2/2 422/2/2
f 419/2/2 420/2/2 422/2/2
f 381/2/2 412/2/2 422/2/2
f 414/2/2 415/2/2 422/2/2
f 417/2/2 418/2/2 422/2/2
f 415/2/2 416/2/2 422/2/2
f 413/2/2 414/2/2 422/2/2
f 412/2/2 413/2/2 422/2/2
f 422/2/2 421/2/2 423/2/2
f 423/2/2 421/2/2 424/2/2
f 424/2/2 421/2/2 425/2/2
f 425/2/2 421/2/2 426/2/2
f 426/2/2 421/2/2 427/2/2
f 427/2/2 421/2/2 428/2/2
f 428/2/2 421/2/2 429/2/2
f 429/2/2 421/2/2 430/2/2
f 430/2/2 421/2/2 431/2/2
f 381/2/2 422/2/2 432/2/2
f 432/2/2 422/2/2 433/2/2
f 423/2/2 424/2/2 434/2/2
f 434/2/2 424/2/2 435/2/2
f 425/2/2 426/2/2 436/2/2
f 436/2/2 426/2/2 437/2/2
f 427/2/2 428/2/2 438/2/2
f 438/2/2 428/2/2 439/2/2
f 429/2/2 430/2/2 440/2/2
f 440/2/2 430/2/2 441/2/2
f 444/2/3 443/2/3 442/2/3
f 445/2/3 443/2/3 444/2/3
f 446/2/3 443/2/3 445/2/3
f 447/2/3 443/2/3 446/2/3
f 448/2/3 444/2/3 442/2/3
f 448/5/3 445/5/3 444/5/3
f 449/2/3 446/2/3 445/2/3
f 449/5/3 445/5/3 448/5/3
f 450/2/3 446/2/3 449/2/3
f 452/2/3 448/2/3 442/2/3
f 452/2/3 451/2/3 450/2/3
f 452/2/3 450/2/3 449/2/3
f 452/2/3 449/2/3 448/2/3
f 453/2/3 451/2/3 452/2/3
f 454/2/3 451/2/3 453/2/3
f 455/2/3 451/2/3 454/2/3
f 456/2/3 452/2/3 442/2/3
f 456/5/3 453/5/3 452/5/3
f 457/2/3 454/2/3 453/2/3
f 457/5/3 453/5/3 456/5/3
f 458/2/3 454/2/3 457/2/3
f 460/2/3 456/2/3 442/2/3
f 460/2/3 459/2/3 458/2/3
f 460/2/3 458/2/3 457/2/3
f 460/2/3 457/2/3 456/2/3
f 461/2/3 459/2/3 460/2/3
f 462/2/3 459/2/3 461/2/3
f 463/2/3 459/2/3 462/2/3
f 464/2/3 460/2/3 442/2/3
f 464/5/3 461/5/3 460/5/3
f 465/2/3 462/2/3 461/2/3
f 465/5/3 461/5/3 464/5/3
f 466/2/3 462/2/3 465/2/3
f 468/2/3 464/2/3 442/2/3
f 468/2/3 467/2/3 466/2/3
f 468/2/3 466/2/3 465/2/3
f 468/2/3 465/2/3 464/2/3
f 469/2/3 467/2/3 468/2/3
f 470/2/3 467/2/3 469/2/3
f 471/2/3 467/2/3 470/2/3
f 472/2/3 468/2/3 442/2/3
f 472/5/3 469/5/3 468/5/3
f 473/2/3 470/2/3 469/2/3
f 473/5/3 469/5/3 472/5/3
f 474/2/3 470/2/3 473/2/3
f 476/2/3 472/2/3 442/2/3
f 476/2/3 475/2/3 474/2/3
f 476/2/3 474/2/3 473/2/3
f 476/2/3 473/2/3 472/2/3
f 477/2/3 475/2/3 476/2/3
f 478/2/3 475/2/3 477/2/3
f 479/2/3 475/2/3 478/2/3
f 480/2/3 476/2/3 442/2/3
f 480/5/3 477/5/3 476/5/3
f 481/2/3 478/2/3 477/2/3
f 481/5/3 477/5/3 480/5/3
f 482/2/3 478/2/3 481/2/3
f 484/2/3 480/2/3 442/2/3
f 484/2/3 483/2/3 482/2/3
f 484/2/3 482/2/3 481/2/3
f 484/2/3 481/2/3 480/2/3
f 485/2/3 483/2/3 484/2/3
f 486/2/3 483/2/3 485/2/3
f 487/2/3 483/2/3 486/2/3
f 488/2/3 484/2/3 442/2/3
f 488/5/3 485/5/3 484/5/3
f 489/2/3 486/2/3 485/2/3
f 489/5/3 485/5/3 488/5/3
f 490/2/3 486/2/3 489/2/3
f 492/2/3 488/2/3 442/2/3
f 492/2/3 491/2/3 490/2/3
f 492/2/3 490/2/3 489/2/3
f 492/2/3 489/2/3 488/2/3
f 493/2/3 491/2/3 492/2/3
f 494/2/3 491/2/3 493/2/3
f 495/2/3 491/2/3 494/2/3
f 496/2/3 492/2/3 442/2/3
f 496/5/3 493/5/3 492/5/3
f 497/2/3 494/2/3 493/2/3
f 497/5/3 493/5/3 496/5/3
f 498/2/3 494/2/3 497/2/3
f 500/2/3 496/2/3 442/2/3
f 500/2/3 499/2/3 498/2/3
f 500/2/3 498/2/3 497/2/3
f 500/2/3 497/2/3 496/2/3
f 501/2/3 499/2/3 500/2/3
f 502/2/3 499/2/3 501/2/3
f 503/2/3 499/2/3 502/2/3
f 504/2/3 500/2/3 442/2/3
f 504/5/3 501/5/3 500/5/3
f 505/2/3 502/2/3 501/2/3
f 505/5/3 501/5/3 504/5/3
f 506/2/3 502/2/3 505/2/3
f 508/2/3 504/2/3 442/2/3
f 508/2/3 507/2/3 506/2/3
f 508/2/3 506/2/3 505/2/3
f 508/2/3 505/2/3 504/2/3
f 509/2/3 507/2/3 508/2/3
f 510/2/3 507/2/3 509/2/3
f 511/2/3 507/2/3 510/2/3
f 512/2/3 508/2/3 442/2/3
f 512/5/3 509/5/3 508/5/3
f 513/5/3 509/5/3 512/5/3
f 514/2/3 512/2/3 442/2/3
f 515/5/3 509/5/3 513/5/3
f 516/2/3 514/2/3 442/2/3
f 516/5/3 515/5/3 514/5/3
f 517/2/3 510/2/3 509/2/3
f 517/5/3 515/5/3 516/5/3
f 517/5/3 509/5/3 515/5/3
f 518/2/3 510/2/3 517/2/3
f 520/2/3 516/2/3 442/2/3
f 520/2/3 519/2/3 518/2/3
f 520/2/3 518/2/3 517/2/3
f 520/2/3 517/2/3 516/2/3
f 521/2/3 519/2/3 520/2/3
f 522/2/3 519/2/3 521/2/3
f 523/2/3 519/2/3 522/2/3
f 524/2/3 520/2/3 442/2/3
f 524/5/3 521/5/3 520/5/3
f 525/5/3 521/5/3 524/5/3
f 526/2/3 524/2/3 442/2/3
f 527/5/3 521/5/3 525/5/3
f 528/2/3 526/2/3 442/2/3
f 528/5/3 527/5/3 526/5/3
f 529/2/3 522/2/3 521/2/3
f 529/5/3 527/5/3 528/5/3
f 529/5/3 521/5/3 527/5/3
f 530/2/3 522/2/3 529/2/3
f 532/2/3 528/2/3 442/2/3
f 532/2/3 531/2/3 530/2/3
f 532/2/3 530/2/3 529/2/3
f 532/2/3 529/2/3 528/2/3
f 533/2/3 531/2/3 532/2/3
f 536/6/3 535/6/3 534/6/3
f 537/6/3 535/6/3 536/6/3
f 540/6/3 539/6/3 538/6/3
f 541/6/3 539/6/3 540/6/3
f 544/5/3 543/5/3 542/5/3
f 545/5/3 543/5/3 544/5/3
f 548/2/3 547/2/3 546/2/3
f 549/2/3 547/2/3 548/2/3
f 552/2/3 551/2/3 550/2/3
f 553/2/3 551/2/3 552/2/3
f 556/7/3 555/7/3 554/7/3
f 557/7/3 555/7/3 556/7/3
f 560/5/3 559/5/3 558/5/3
f 561/5/3 559/5/3 560/5/3
f 564/2/3 563/2/3 562/2/3
f 565/2/3 563/2/3 564/2/3
f 569/7/3 567/7/3 566/7/3
f 570/7/3 567/7/3 569/7/3
f 571/5/3 569/5/3 568/5/3
f 572/5/3 569/5/3 571/5/3
f 573/5/3 569/5/3 572/5/3
f 574/5/3 569/5/3 573/5/3
f 576/5/3 573/5/3 572/5/3
f 577/5/3 573/5/3 576/5/3
f 578/7/3 575/7/3 574/7/3
f 579/7/3 575/7/3 578/7/3
f 582/2/3 581/2/3 580/2/3
f 583/2/3 581/2/3 582/2/3
f 586/5/3 585/5/3 584/5/3
f 587/5/3 585/5/3 586/5/3
f 590/2/3 589/2/3 588/2/3
f 591/2/3 589/2/3 590/2/3
f 594/2/3 593/2/3 592/2/3
f 595/2/3 593/2/3 594/2/3
f 598/5/3 597/5/3 596/5/3
f 599/5/3 597/5/3 598/5/3
f 602/2/3 601/2/3 600/2/3
f 603/2/3 601/2/3 602/2/3
f 606/2/3 605/2/3 604/2/3
f 607/2/3 605/2/3 606/2/3
f 610/2/3 609/2/3 608/2/3
f 612/2/3 610/2/3 608/2/3
f 612/2/3 611/2/3 610/2/3
f 613/2/3 611/2/3 612/2/3
f 614/2/3 612/2/3 608/2/3
f 616/2/3 614/2/3 608/2/3
f 616/2/3 615/2/3 614/2/3
f 617/2/3 615/2/3 616/2/3
f 618/2/3 616/2/3 608/2/3
f 620/2/3 618/2/3 608/2/3
f 620/2/3 619/2/3 618/2/3
f 621/2/3 619/2/3 620/2/3
f 622/2/3 620/2/3 608/2/3
f 624/2/3 622/2/3 608/2/3
f 624/2/3 623/2/3 622/2/3
f 625/2/3 623/2/3 624/2/3
f 626/2/3 624/2/3 608/2/3
f 628/2/3 626/2/3 608/2/3
f 628/2/3 627/2/3 626/2/3
f 629/2/3 627/2/3 628/2/3
f 630/2/3 628/2/3 608/2/3
f 632/2/3 630/2/3 608/2/3
f 632/2/3 631/2/3 630/2/3
f 633/2/3 631/2/3 632/2/3
f 634/2/3 632/2/3 608/2/3
f 636/2/3 634/2/3 608/2/3
f 636/2/3 635/2/3 634/2/3
f 637/2/3 635/2/3 636/2/3
f 638/2/3 636/2/3 608/2/3
f 640/2/3 638/2/3 608/2/3
f 640/2/3 639/2/3 638/2/3
f 641/2/3 639/2/3 640/2/3
f 642/2/3 640/2/3 608/2/3
f 644/2/3 642/2/3 608/2/3
f 644/2/3 643/2/3 642/2/3
f 645/2/3 643/2/3 644/2/3
f 646/2/3 644/2/3 608/2/3
f 648/2/3 646/2/3 608/2/3
f 648/2/3 647/2/3 646/2/3
f 649/2/3 647/2/3 648/2/3
f 650/2/3 648/2/3 608/2/3
f 651/2/3 648/2/3 650/2/3
f 652/2/4 653/2/4 654/2/4
f 652/2/4 654/2/4 656/2/4
f 654/2/4 655/2/4 656/2/4
f 656/2/4 655/2/4 657/2/4
f 652/2/4 656/2/4 658/2/4
f 652/2/4 658/2/4 660/2/4
f 658/2/4 659/2/4 660/2/4
f 660/2/4 659/2/4 661/2/4
f 652/2/4 660/2/4 662/2/4
f 652/2/4 662/2/4 664/2/4
f 662/2/4 663/2/4 664/2/4
f 664/2/4 663/2/4 665/2/4
f 652/2/4 664/2/4 666/2/4
f 652/2/4 666/2/4 668/2/4
f 666/2/4 667/2/4 668/2/4
f 668/2/4 667/2/4 669/2/4
f 652/2/4 668/2/4 670/2/4
f 652/2/4 670/2/4 672/2/4
f 670/2/4 671/2/4 672/2/4
f 672/2/4 671/2/4 673/2/4
f 652/2/4 672/2/4 674/2/4
f 652/2/4 674/2/4 676/2/4
f 674/2/4 675/2/4 676/2/4
f 676/2/4 675/2/4 677/2/4
f 652/2/4 676/2/4 678/2/4
f 652/2/4 678/2/4 680/2/4
f 678/2/4 679/2/4 680/2/4
f 680/2/4 679/2/4 681/2/4
f 652/2/4 680/2/4 682/2/4
f 652/2/4 682/2/4 684/2/4
f 682/2/4 683/2/4 684/2/4
f 684/2/4 683/2/4 685/2/4
f 652/2/4 684/2/4 686/2/4
f 652/2/4 686/2/4 688/2/4
f 686/2/4 687/2/4 688/2/4
f 688/2/4 687/2/4 689/2/4
f 652/2/4 688/2/4 690/2/4
f 690/2/4 688/2/4 691/2/4
f 692/2/4 693/2/4 694/2/4
f 694/2/4 693/2/4 695/2/4
f 696/2/4 697/2/4 698/2/4
f 698/2/4 697/2/4 699/2/4
f 700/5/4 701/5/4 702/5/4
f 702/5/4 701/5/4 703/5/4
f 704/2/4 705/2/4 706/2/4
f 706/2/4 705/2/4 707/2/4
f 708/2/4 709/2/4 710/2/4
f 710/2/4 709/2/4 711/2/4
f 712/5/4 713/5/4 714/5/4
f 714/5/4 713/5/4 715/5/4
f 716/7/4 717/7/4 719/7/4
f 719/7/4 717/7/4 720/7/4
f 718/5/4 719/5/4 721/5/4
f 721/5/4 719/5/4 722/5/4
f 722/5/4 719/5/4 723/5/4
f 723/5/4 719/5/4 724/5/4
f 722/5/4 723/5/4 726/5/4
f 726/5/4 723/5/4 727/5/4
f 724/7/4 725/7/4 728/7/4
f 728/7/4 725/7/4 729/7/4
f 730/2/4 731/2/4 732/2/4
f 732/2/4 731/2/4 733/2/4
f 734/2/4 735/2/4 736/2/4
f 736/2/4 735/2/4 737/2/4
f 738/7/4 739/7/4 740/7/4
f 740/7/4 739/7/4 741/7/4
f 742/5/4 743/5/4 744/5/4
f 744/5/4 743/5/4 745/5/4
f 746/2/4 747/2/4 748/2/4
f 748/2/4 747/2/4 749/2/4
f 750/2/4 751/2/4 752/2/4
f 752/2/4 751/2/4 753/2/4
f 754/5/4 755/5/4 756/5/4
f 756/5/4 755/5/4 757/5/4
f 758/2/4 759/2/4 760/2/4
f 760/2/4 759/2/4 761/2/4
f 762/2/4 763/2/4 764/2/4
f 764/2/4 763/2/4 765/2/4
f 766/5/4 767/5/4 768/5/4
f 768/5/4 767/5/4 769/5/4
f 770/6/4 771/6/4 772/6/4
f 772/6/4 771/6/4 773/6/4
f 774/6/4 775/6/4 776/6/4
f 776/6/4 775/6/4 777/6/4
f 778/6/4 779/6/4 780/6/4
f 780/6/4 779/6/4 781/6/4
f 782/6/4 783/6/4 784/6/4
f 784/6/4 783/6/4 785/6/4
f 786/6/4 787/6/4 788/6/4
f 788/6/4 787/6/4 789/6/4
f 790/6/4 791/6/4 792/6/4
f 792/6/4 791/6/4 793/6/4
f 794/6/4 795/6/4 796/6/4
f 796/6/4 795/6/4 797/6/4
f 798/6/4 799/6/4 800/6/4
f 800/6/4 799/6/4 801/6/4
f 802/2/4 803/2/4 806/2/4
f 803/5/4 804/5/4 806/5/4
f 804/2/4 805/2/4 807/2/4
f 806/5/4 804/5/4 807/5/4
f 807/2/4 805/2/4 808/2/4
f 802/2/4 806/2/4 810/2/4
f 808/2/4 809/2/4 810/2/4
f 807/2/4 808/2/4 810/2/4
f 806/2/4 807/2/4 810/2/4
f 810/2/4 809/2/4 811/2/4
f 811/2/4 809/2/4 812/2/4
f 812/2/4 809/2/4 813/2/4
f 802/2/4 810/2/4 814/2/4
f 810/5/4 811/5/4 814/5/4
f 811/2/4 812/2/4 815/2/4
f 814/5/4 811/5/4 815/5/4
f 815/2/4 812/2/4 816/2/4
f 802/2/4 814/2/4 818/2/4
f 816/2/4 817/2/4 818/2/4
f 815/2/4 816/2/4 818/2/4
f 814/2/4 815/2/4 818/2/4
f 818/2/4 817/2/4 819/2/4
f 819/2/4 817/2/4 820/2/4
f 820/2/4 817/2/4 821/2/4
f 802/2/4 818/2/4 822/2/4
f 818/5/4 819/5/4 822/5/4
f 819/2/4 820/2/4 823/2/4
f 822/5/4 819/5/4 823/5/4
f 823/2/4 820/2/4 824/2/4
f 802/2/4 822/2/4 826/2/4
f 824/2/4 825/2/4 826/2/4
f 823/2/4 824/2/4 826/2/4
f 822/2/4 823/2/4 826/2/4
f 826/2/4 825/2/4 827/2/4
f 827/2/4 825/2/4 828/2/4
f 828/2/4 825/2/4 829/2/4
f 829/2/4 825/2/4 830/2/4
f 802/2/4 826/2/4 831/2/4
f 827/5/4 828/5/4 832/5/4
f 802/2/4 831/2/4 833/2/4
f 831/5/4 832/5/4 833/5/4
f 832/5/4 828/5/4 834/5/4
f 833/5/4 832/5/4 834/5/4
f 802/2/4 833/2/4 835/2/4
f 834/5/4 828/5/4 836/5/4
f 802/2/4 835/2/4 837/2/4
f 835/5/4 836/5/4 837/5/4
f 828/2/4 829/2/4 838/2/4
f 837/5/4 836/5/4 838/5/4
f 836/5/4 828/5/4 838/5/4
f 838/2/4 829/2/4 839/2/4
f 802/2/4 837/2/4 841/2/4
f 839/2/4 840/2/4 841/2/4
f 838/2/4 839/2/4 841/2/4
f 837/2/4 838/2/4 841/2/4
f 841/2/4 840/2/4 842/2/4
f 842/2/4 840/2/4 843/2/4
f 843/2/4 840/2/4 844/2/4
f 802/2/4 841/2/4 845/2/4
f 841/5/4 842/5/4 845/5/4
f 845/5/4 842/5/4 846/5/4
f 802/2/4 845/2/4 847/2/4
f 846/5/4 842/5/4 848/5/4
f 802/2/4 847/2/4 849/2/4
f 847/5/4 848/5/4 849/5/4
f 842/2/4 843/2/4 850/2/4
f 849/5/4 848/5/4 850/5/4
f 848/5/4 842/5/4 850/5/4
f 850/2/4 843/2/4 851/2/4
f 802/2/4 849/2/4 853/2/4
f 851/2/4 852/2/4 853/2/4
f 850/2/4 851/2/4 853/2/4
f 849/2/4 850/2/4 853/2/4
f 853/2/4 852/2/4 854/2/4
f 854/2/4 852/2/4 855/2/4
f 855/2/4 852/2/4 856/2/4
f 802/2/4 853/2/4 857/2/4
f 853/5/4 854/5/4 857/5/4
f 857/5/4 854/5/4 858/5/4
f 802/2/4 857/2/4 859/2/4
f 858/5/4 854/5/4 860/5/4
f 802/2/4 859/2/4 861/2/4
f 859/5/4 860/5/4 861/5/4
f 854/2/4 855/2/4 862/2/4
f 861/5/4 860/5/4 862/5/4
f 860/5/4 854/5/4 862/5/4
f 862/2/4 855/2/4 863/2/4
f 802/2/4 861/2/4 865/2/4
f 863/2/4 864/2/4 865/2/4
f 862/2/4 863/2/4 865/2/4
f 861/2/4 862/2/4 865/2/4
f 865/2/4 864/2/4 866/2/4
f 866/2/4 864/2/4 867/2/4
f 867/2/4 864/2/4 868/2/4
f 802/2/4 865/2/4 869/2/4
f 865/5/4 866/5/4 869/5/4
f 869/5/4 866/5/4 870/5/4
f 802/2/4 869/2/4 871/2/4
f 870/5/4 866/5/4 872/5/4
f 802/2/4 871/2/4 873/2/4
f 871/5/4 872/5/4 873/5/4
f 866/2/4 867/2/4 874/2/4
f 873/5/4 872/5/4 874/5/4
f 872/5/4 866/5/4 874/5/4
f 874/2/4 867/2/4 875/2/4
f 802/2/4 873/2/4 877/2/4
f 875/2/4 876/2/4 877/2/4
f 874/2/4 875/2/4 877/2/4
f 873/2/4 874/2/4 877/2/4
f 877/2/4 876/2/4 878/2/4
f 878/2/4 876/2/4 879/2/4
f 879/2/4 876/2/4 880/2/4
f 802/2/4 877/2/4 881/2/4
f 877/5/4 878/5/4 881/5/4
f 881/5/4 878/5/4 882/5/4
f 802/2/4 881/2/4 883/2/4
f 882/5/4 878/5/4 884/5/4
f 802/2/4 883/2/4 885/2/4
f 883/5/4 884/5/4 885/5/4
f 878/2/4 879/2/4 886/2/4
f 885/5/4 884/5/4 886/5/4
f 884/5/4 878/5/4 886/5/4
f 886/2/4 879/2/4 887/2/4
f 802/2/4 885/2/4 889/2/4
f 887/2/4 888/2/4 889/2/4
f 886/2/4 887/2/4 889/2/4
f 885/2/4 886/2/4 889/2/4
f 889/2/4 888/2/4 890/2/4
f 890/2/4 888/2/4 891/2/4
f 891/2/4 888/2/4 892/2/4
f 802/2/4 889/2/4 893/2/4
f 889/5/4 890/5/4 893/5/4
f 893/5/4 890/5/4 894/5/4
f 802/2/4 893/2/4 895/2/4
f 894/5/4 890/5/4 896/5/4
f 802/2/4 895/2/4 897/2/4
f 895/5/4 896/5/4 897/5/4
f 890/2/4 891/2/4 898/2/4
f 897/5/4 896/5/4 898/5/4
f 896/5/4 890/5/4 898/5/4
f 898/2/4 891/2/4 899/2/4
f 802/2/4 897/2/4 901/2/4
f 899/2/4 900/2/4 901/2/4
f 898/2/4 899/2/4 901/2/4
f 897/2/4 898/2/4 901/2/4
f 901/2/4 900/2/4 902/2/4
f 902/2/4 900/2/4 903/2/4
f 903/2/4 900/2/4 904/2/4
f 802/2/4 901/2/4 905/2/4
f 901/5/4 902/5/4 905/5/4
f 905/5/4 902/5/4 906/5/4
f 802/2/4 905/2/4 907/2/4
f 906/5/4 902/5/4 908/5/4
f 802/2/4 907/2/4 909/2/4
f 907/5/4 908/5/4 909/5/4
f 902/2/4 903/2/4 910/2/4
f 909/5/4 908/5/4 910/5/4
f 908/5/4 902/5/4 910/5/4
f 910/2/4 903/2/4 911/2/4
f 802/2/4 909/2/4 913/2/4
f 911/2/4 912/2/4 913/2/4
f 910/2/4 911/2/4 913/2/4
f 909/2/4 910/2/4 913/2/4
f 913/2/4 912/2/4 914/2/4
f 914/2/4 912/2/4 915/2/4
f 915/2/4 912/2/4 916/2/4
f 802/2/4 913/2/4 917/2/4
f 913/5/4 914/5/4 917/5/4
f 917/5/4 914/5/4 918/5/4
f 802/2/4 917/2/4 919/2/4
f 919/2/4 917/2/4 920/2/4
f 918/5/4 914/5/4 921/5/4
f 914/2/4 915/2/4 922/2/4
f 921/5/4 914/5/4 922/5/4
f 922/2/4 915/2/4 923/2/4
f 926/2/5 925/2/5 924/2/5
f 927/2/5 925/2/5 926/2/5
f 932/5/5 929/5/5 928/5/5
f 933/5/5 929/5/5 932/5/5
f 934/5/5 931/5/5 930/5/5
f 935/5/5 931/5/5 934/5/5
f 938/5/5 937/5/5 936/5/5
f 939/5/5 937/5/5 938/5/5
f 942/5/5 941/5/5 940/5/5
f 943/5/5 941/5/5 942/5/5
f 946/5/5 945/5/5 944/5/5
f 947/5/5 945/5/5 946/5/5
f 950/5/5 949/5/5 948/5/5
f 951/5/5 949/5/5 950/5/5
f 970/5/5 953/5/5 952/5/5
f 971/5/5 955/5/5 954/5/5
f 972/5/5 955/5/5 971/5/5
f 973/5/5 957/5/5 956/5/5
f 974/5/5 957/5/5 973/5/5
f 975/5/5 959/5/5 958/5/5
f 976/5/5 959/5/5 975/5/5
f 977/5/5 961/5/5 960/5/5
f 978/5/5 961/5/5 977/5/5
f 979/5/5 963/5/5 962/5/5
f 980/5/5 963/5/5 979/5/5
f 981/5/5 965/5/5 964/5/5
f 982/5/5 965/5/5 981/5/5
f 983/5/5 967/5/5 966/5/5
f 984/5/5 967/5/5 983/5/5
f 985/5/5 969/5/5 968/5/5
f 986/5/5 969/5/5 985/5/5
f 987/5/5 953/5/5 970/5/5
f 988/5/5 953/5/5 987/5/5
f 991/5/5 990/5/5 989/5/5
f 992/5/5 990/5/5 991/5/5
f 996/7/5 994/7/5 993/7/5
f 997/7/5 994/7/5 996/7/5
f 999/7/5 996/7/5 995/7/5
f 1000/7/5 996/7/5 999/7/5
f 1001/7/5 998/7/5 997/7/5
f 1002/7/5 998/7/5 1001/7/5
f 1003/7/5 1001/7/5 1000/7/5
f 1004/7/5 1001/7/5 1003/7/5
f 1005/2/6 1006/2/6 1009/2/6
f 1009/2/6 1006/2/6 1010/2/6
f 1007/2/6 1008/2/6 1011/2/6
f 1011/2/6 1008/2/6 1012/2/6
f 1013/2/6 1014/2/6 1015/2/6
f 1015/2/6 1014/2/6 1016/2/6
f 1017/2/6 1018/2/6 1019/2/6
f 1019/2/6 1018/2/6 1020/2/6
f 1021/2/6 1022/2/6 1023/2/6
f 1023/2/6 1022/2/6 1024/2/6
f 1025/2/6 1026/2/6 1027/2/6
f 1027/2/6 1026/2/6 1028/2/6
f 1029/2/6 1030/2/6 1047/2/6
f 1031/2/6 1032/2/6 1048/2/6
f 1048/2/6 1032/2/6 1049/2/6
f 1033/2/6 1034/2/6 1050/2/6
f 1050/2/6 1034/2/6 1051/2/6
f 1035/2/6 1036/2/6 1052/2/6
f 1052/2/6 1036/2/6 1053/2/6
f 1037/2/6 1038/2/6 1054/2/6
f 1054/2/6 1038/2/6 1055/2/6
f 1039/2/6 1040/2/6 1056/2/6
f 1056/2/6 1040/2/6 1057/2/6
f 1041/2/6 1042/2/6 1058/2/6
f 1058/2/6 1042/2/6 1059/2/6
f 1043/2/6 1044/2/6 1060/2/6
f 1060/2/6 1044/2/6 1061/2/6
f 1045/2/6 1046/2/6 1062/2/6
f 1062/2/6 1046/2/6 1063/2/6
f 1047/2/6 1030/2/6 1064/2/6
f 1064/2/6 1030/2/6 1065/2/6
f 1066/5/6 1067/5/6 1068/5/6
f 1068/5/6 1067/5/6 1069/5/6
f 1066/5/6 1068/5/6 1070/5/6
f 1069/5/6 1067/5/6 1071/5/6
f 1066/5/6 1070/5/6 1072/5/6
f 1070/5/6 1071/5/6 1072/5/6
f 1071/5/6 1067/5/6 1073/5/6
f 1072/5/6 1071/5/6 1073/5/6
f 1074/2/6 1075/2/6 1094/2/6
f 1094/2/6 1075/2/6 1095/2/6
f 1076/2/6 1077/2/6 1096/2/6
f 1096/2/6 1077/2/6 1097/2/6
f 1078/2/6 1079/2/6 1098/2/6
f 1098/2/6 1079/2/6 1099/2/6
f 1080/2/6 1081/2/6 1100/2/6
f 1100/2/6 1081/2/6 1101/2/6
f 1082/2/6 1083/2/6 1102/2/6
f 1102/2/6 1083/2/6 1103/2/6
f 1084/2/6 1085/2/6 1104/2/6
f 1104/2/6 1085/2/6 1105/2/6
f 1086/2/6 1087/2/6 1106/2/6
f 1106/2/6 1087/2/6 1107/2/6
f 1088/2/6 1089/2/6 1108/2/6
f 1108/2/6 1089/2/6 1109/2/6
f 1090/2/6 1091/2/6 1110/2/6
f 1110/2/6 1091/2/6 1111/2/6
f 1092/2/6 1093/2/6 1112/2/6
f 1112/2/6 1093/2/6 1113/2/6
f 1114/2/6 1115/2/6 1118/2/6
f 1118/2/6 1115/2/6 1119/2/6
f 1116/2/6 1117/2/6 1120/2/6
f 1120/2/6 1117/2/6 1121/2/6
f 1122/2/6 1123/2/6 1126/2/6
f 1126/2/6 1123/2/6 1127/2/6
f 1124/2/6 1125/2/6 1128/2/6
f 1128/2/6 1125/2/6 1129/2/6
f 1130/2/6 1131/2/6 1134/2/6
f 1134/2/6 1131/2/6 1135/2/6
f 1132/2/6 1133/2/6 1136/2/6
f 1136/2/6 1133/2/6 1137/2/6
f 1138/2/6 1139/2/6 1142/2/6
f 1142/2/6 1139/2/6 1143/2/6
f 1140/2/6 1141/2/6 1144/2/6
f 1144/2/6 1141/2/6 1145/2/6
f 1146/2/6 1147/2/6 1150/2/6
f 1148/2/6 1149/2/6 1171/2/6
f 1146/2/6 1150/2/6 1172/2/6
f 1150/2/6 1151/2/6 1172/2/6
f 1172/2/6 1151/2/6 1173/2/6
f 1152/2/6 1153/2/6 1174/2/6
f 1174/2/6 1153/2/6 1175/2/6
f 1154/2/6 1155/2/6 1176/2/6
f 1176/2/6 1155/2/6 1177/2/6
f 1156/2/6 1157/2/6 1178/2/6
f 1178/2/6 1157/2/6 1179/2/6
f 1158/2/6 1159/2/6 1180/2/6
f 1180/2/6 1159/2/6 1181/2/6
f 1160/2/6 1161/2/6 1182/2/6
f 1182/2/6 1161/2/6 1183/2/6
f 1162/2/6 1163/2/6 1184/2/6
f 1184/2/6 1163/2/6 1185/2/6
f 1164/2/6 1165/2/6 1186/2/6
f 1186/2/6 1165/2/6 1187/2/6
f 1166/2/6 1167/2/6 1188/2/6
f 1188/2/6 1167/2/6 1189/2/6
f 1168/2/6 1169/2/6 1190/2/6
f 1190/2/6 1169/2/6 1191/2/6
f 1170/2/6 1171/2/6 1192/2/6
f 1171/2/6 1149/2/6 1193/2/6
f 1192/2/6 1171/2/6 1193/2/6
f 1196/2/6 1197/2/6 1216/2/6
f 1216/2/6 1197/2/6 1217/2/6
f 1198/2/6 1199/2/6 1218/2/6
f 1218/2/6 1199/2/6 1219/2/6
f 1200/2/6 1201/2/6 1220/2/6
f 1220/2/6 1201/2/6 1221/2/6
f 1202/2/6 1203/2/6 1222/2/6
f 1222/2/6 1203/2/6 1223/2/6
f 1204/2/6 1205/2/6 1224/2/6
f 1224/2/6 1205/2/6 1225/2/6
f 1206/2/6 1207/2/6 1226/2/6
f 1226/2/6 1207/2/6 1227/2/6
f 1208/2/6 1209/2/6 1228/2/6
f 1228/2/6 1209/2/6 1229/2/6
f 1210/2/6 1211/2/6 1230/2/6
f 1230/2/6 1211/2/6 1231/2/6
f 1212/2/6 1213/2/6 1232/2/6
f 1232/2/6 1213/2/6 1233/2/6
f 1194/2/6 1195/2/6 1234/2/6
f 1234/2/6 1195/2/6 1235/2/6
f 1214/2/6 1215/2/6 1236/2/6
f 1236/2/6 1215/2/6 1237/2/6
f 1238/2/6 1239/2/6 1242/2/6
f 1242/2/6 1239/2/6 1243/2/6
f 1240/2/6 1241/2/6 1244/2/6
f 1244/2/6 1241/2/6 1245/2/6
f 1246/2/6 1247/2/6 1250/2/6
f 1250/2/6 1247/2/6 1251/2/6
f 1248/2/6 1249/2/6 1252/2/6
f 1252/2/6 1249/2/6 1253/2/6
f 1254/2/6 1255/2/6 1258/2/6
f 1258/2/6 1255/2/6 1259/2/6
f 1256/2/6 1257/2/6 1260/2/6
f 1260/2/6 1257/2/6 1261/2/6
f 1262/2/6 1263/2/6 1266/2/6
f 1266/2/6 1263/2/6 1267/2/6
f 1264/2/6 1265/2/6 1268/2/6
f 1268/2/6 1265/2/6 1269/2/6
f 1270/2/6 1271/2/6 1290/2/6
f 1290/2/6 1271/2/6 1291/2/6
f 1272/2/6 1273/2/6 1292/2/6
f 1292/2/6 1273/2/6 1293/2/6
f 1274/2/6 1275/2/6 1294/2/6
f 1294/2/6 1275/2/6 1295/2/6
f 1276/2/6 1277/2/6 1296/2/6
f 1296/2/6 1277/2/6 1297/2/6
f 1278/2/6 1279/2/6 1298/2/6
f 1298/2/6 1279/2/6 1299/2/6
f 1280/2/6 1281/2/6 1300/2/6
f 1300/2/6 1281/2/6 1301/2/6
f 1282/2/6 1283/2/6 1302/2/6
f 1302/2/6 1283/2/6 1303/2/6
f 1284/2/6 1285/2/6 1304/2/6
f 1304/2/6 1285/2/6 1305/2/6
f 1286/2/6 1287/2/6 1306/2/6
f 1306/2/6 1287/2/6 1307/2/6
f 1288/2/6 1289/2/6 1308/2/6
f 1308/2/6 1289/2/6 1309/2/6
f 1310/5/6 1311/5/6 1312/5/6
f 1312/5/6 1311/5/6 1313/5/6
f 1314/7/6 1315/7/6 1317/7/6
f 1317/7/6 1315/7/6 1318/7/6
f 1316/7/6 1317/7/6 1320/7/6
f 1317/4/6 1318/4/6 1321/4/6
f 1320/7/6 1317/7/6 1321/7/6
f 1318/7/6 1319/7/6 1322/7/6
f 1321/4/6 1318/4/6 1322/4/6
f 1322/7/6 1319/7/6 1323/7/6
f 1321/7/6 1322/7/6 1324/7/6
f 1324/7/6 1322/7/6 1325/7/6
