# MagicaVoxel @ Ephtracy

# group
o 

# material
mtllib home.mtl
usemtl palette

# normals
vn -1 0 0
vn 1 0 0
vn 0 0 1
vn 0 0 -1
vn 0 -1 0
vn 0 1 0

# texcoords
vt 0.0136719 0.5
vt 0.0175781 0.5
vt 0.0214844 0.5
vt 0.0332031 0.5
vt 0.0683594 0.5
vt 0.115234 0.5
vt 0.279297 0.5
vt 0.302734 0.5
vt 0.306641 0.5
vt 0.330078 0.5
vt 0.341797 0.5
vt 0.349609 0.5
vt 0.365234 0.5
vt 0.369141 0.5
vt 0.373047 0.5
vt 0.400391 0.5
vt 0.470703 0.5
vt 0.537109 0.5
vt 0.576172 0.5
vt 0.611328 0.5
vt 0.701172 0.5
vt 0.748047 0.5
vt 0.802734 0.5
vt 0.853516 0.5
vt 0.962891 0.5

# verts
v -0.7 0 0.7
v -0.7 0 -0.8
v -0.7 0 -1.1
v -0.7 1.5 0.7
v -0.7 1.5 0.6
v -0.7 1.5 -0.7
v -0.7 1.5 -0.8
v -0.7 1.5 -1.1
v -0.7 1.6 0.6
v -0.7 1.6 0.5
v -0.7 1.6 -0.6
v -0.7 1.6 -0.7
v -0.7 1.7 0.5
v -0.7 1.7 -0.6
v -0.6 1.5 0.7
v -0.6 1.5 0.6
v -0.6 1.5 -0.7
v -0.6 1.5 -0.8
v -0.6 1.6 0.7
v -0.6 1.6 0.6
v -0.6 1.6 0.5
v -0.6 1.6 -0.6
v -0.6 1.6 -0.7
v -0.6 1.6 -0.8
v -0.6 1.7 0.5
v -0.6 1.7 -0.6
v -0.6 1.8 0.6
v -0.6 1.8 0.5
v -0.6 1.8 -0.6
v -0.6 1.8 -0.7
v -0.6 1.9 0.5
v -0.6 1.9 -0.6
v -0.5 0.1 0.5
v -0.5 0.1 0.3
v -0.5 0.2 0.5
v -0.5 0.2 0.3
v -0.5 1.6 0.7
v -0.5 1.6 0.6
v -0.5 1.6 -0.7
v -0.5 1.6 -0.8
v -0.5 1.7 0.7
v -0.5 1.7 0.6
v -0.5 1.7 -0.7
v -0.5 1.7 -0.8
v -0.5 1.8 0.6
v -0.5 1.8 0.5
v -0.5 1.8 -0.6
v -0.5 1.8 -0.7
v -0.5 1.9 0.6
v -0.5 1.9 0.5
v -0.5 1.9 -0.6
v -0.5 1.9 -0.7
v -0.5 2 0.5
v -0.5 2 0.4
v -0.5 2 -0.5
v -0.5 2 -0.6
v -0.5 2.1 0.4
v -0.5 2.1 -0.5
v -0.4 2 0.5
v -0.4 2 0.4
v -0.4 2 -0.5
v -0.4 2 -0.6
v -0.4 2.1 0.5
v -0.4 2.1 0.4
v -0.4 2.1 -0.5
v -0.4 2.1 -0.6
v -0.4 2.2 0.4
v -0.4 2.2 0.3
v -0.4 2.2 -0.4
v -0.4 2.2 -0.5
v -0.4 2.3 0.3
v -0.4 2.3 -0.4
v -0.3 2.2 0.4
v -0.3 2.2 0.3
v -0.3 2.2 -0.4
v -0.3 2.2 -0.5
v -0.3 2.3 0.4
v -0.3 2.3 0.3
v -0.3 2.3 0.2
v -0.3 2.3 -0.3
v -0.3 2.3 -0.4
v -0.3 2.3 -0.5
v -0.3 2.4 0.2
v -0.3 2.4 -0.3
v -0.2 0.1 0.1
v -0.2 0.1 0
v -0.2 0.1 -0.1
v -0.2 0.1 -0.2
v -0.2 0.2 0.5
v -0.2 0.2 0.2
v -0.2 0.2 0.1
v -0.2 0.2 0
v -0.2 0.2 -0.1
v -0.2 0.2 -0.2
v -0.2 0.3 0.5
v -0.2 0.3 0.2
v -0.2 2.3 0.3
v -0.2 2.3 0.2
v -0.2 2.3 -0.3
v -0.2 2.3 -0.4
v -0.2 2.4 0.3
v -0.2 2.4 0.2
v -0.2 2.4 0.1
v -0.2 2.4 -0.2
v -0.2 2.4 -0.3
v -0.2 2.4 -0.4
v -0.2 2.5 0.1
v -0.2 2.5 -0.2
v -0.1 1.3 -0.1
v -0.1 1.3 -0.5
v -0.1 1.4 -0.1
v -0.1 1.4 -0.5
v -0.1 2.4 0.2
v -0.1 2.4 0.1
v -0.1 2.4 -0.2
v -0.1 2.4 -0.3
v -0.1 2.5 0.2
v -0.1 2.5 0.1
v -0.1 2.5 0
v -0.1 2.5 -0.1
v -0.1 2.5 -0.2
v -0.1 2.5 -0.3
v -0.1 2.6 0
v -0.1 2.6 -0.1
v 0 0.4 -0.7
v 0 0.4 -0.8
v 0 0.4 -1.1
v 0 0.9 -0.7
v 0 0.9 -0.8
v 0 0.9 -1.1
v 0 1.2 -0.2
v 0 1.2 -0.4
v 0 1.3 -0.2
v 0 1.3 -0.4
v 0 2.5 0.1
v 0 2.5 0
v 0 2.5 -0.1
v 0 2.5 -0.2
v 0 2.6 0.1
v 0 2.6 0
v 0 2.6 -0.1
v 0 2.6 -0.2
v 0 2.7 0
v 0 2.7 -0.1
v 0.2 0.1 0.6
v 0.2 0.1 0.4
v 0.2 0.1 -0.2
v 0.2 0.2 0.6
v 0.2 0.2 0.4
v 0.2 0.2 -0.2
v 0.3 0.2 0.6
v 0.3 0.2 0.4
v 0.3 0.3 0.6
v 0.3 0.3 0.4
v 0.6 0 -0.9
v 0.6 0 -1.1
v 0.6 0.1 -0.3
v 0.6 0.1 -0.4
v 0.6 0.1 -0.7
v 0.6 0.1 -0.8
v 0.6 0.1 -0.9
v 0.6 0.2 -0.5
v 0.6 0.2 -0.6
v 0.6 0.3 -0.4
v 0.6 0.3 -0.5
v 0.6 0.3 -0.6
v 0.6 0.3 -0.7
v 0.6 0.4 -0.4
v 0.6 0.4 -0.5
v 0.6 0.4 -0.6
v 0.6 0.4 -0.7
v 0.6 0.6 -0.4
v 0.6 0.6 -0.5
v 0.6 0.6 -0.6
v 0.6 0.6 -0.7
v 0.6 0.7 -0.4
v 0.6 0.7 -0.5
v 0.6 0.7 -0.6
v 0.6 0.7 -0.7
v 0.6 0.8 -0.7
v 0.6 0.8 -0.8
v 0.6 0.8 -1.1
v 0.6 0.9 -0.4
v 0.6 0.9 -0.5
v 0.6 0.9 -0.6
v 0.6 0.9 -0.7
v 0.6 1 -0.4
v 0.6 1 -0.5
v 0.6 1 -0.6
v 0.6 1 -0.7
v 0.6 1.2 -0.4
v 0.6 1.2 -0.5
v 0.6 1.2 -0.6
v 0.6 1.2 -0.7
v 0.6 1.3 -0.3
v 0.6 1.3 -0.7
v 0.7 0.1 -0.2
v 0.7 0.1 -0.3
v 0.7 0.2 0.6
v 0.7 0.2 0.4
v 0.7 0.2 -0.2
v 0.7 1.3 -0.3
v 0.7 1.3 -0.7
v 0.7 1.4 0.6
v 0.7 1.4 -0.7
v -0.6 0.1 0.5
v -0.6 0.1 0.3
v -0.6 0.1 0.2
v -0.6 0.1 0.1
v -0.6 0.1 0
v -0.6 0.1 -0.1
v -0.6 0.1 -0.2
v -0.6 0.1 -0.7
v -0.6 0.2 0.5
v -0.6 0.2 0.3
v -0.6 0.2 0
v -0.6 0.2 -0.1
v -0.6 0.3 0.6
v -0.6 0.3 0.2
v -0.6 0.3 0.1
v -0.6 0.3 -0.2
v -0.6 0.7 0.2
v -0.6 0.7 -0.3
v -0.6 1.1 0.2
v -0.6 1.1 -0.3
v -0.6 1.4 0.6
v -0.6 1.4 -0.7
v -0.5 0.1 0.1
v -0.5 0.1 0
v -0.5 0.1 -0.1
v -0.5 0.1 -0.2
v -0.5 0.2 0.5
v -0.5 0.2 0.2
v -0.5 0.2 0.1
v -0.5 0.2 0
v -0.5 0.2 -0.1
v -0.5 0.2 -0.2
v -0.5 0.3 0.5
v -0.5 0.3 0.2
v -0.5 0.4 -0.7
v -0.5 0.4 -0.8
v -0.5 0.4 -1.1
v -0.5 0.7 0.2
v -0.5 0.7 -0.3
v -0.5 0.8 0.1
v -0.5 0.8 0
v -0.5 0.8 -0.1
v -0.5 0.8 -0.2
v -0.5 0.9 0.1
v -0.5 0.9 0
v -0.5 0.9 -0.1
v -0.5 0.9 -0.2
v -0.5 0.9 -0.7
v -0.5 0.9 -0.8
v -0.5 0.9 -1.1
v -0.5 1 0.1
v -0.5 1 0
v -0.5 1 -0.1
v -0.5 1 -0.2
v -0.5 1.1 0.2
v -0.5 1.1 -0.3
v -0.2 0.1 0.5
v -0.2 0.1 0.3
v -0.2 0.2 0.5
v -0.2 0.2 0.3
v -0.1 0.1 0.6
v -0.1 0.1 0.5
v -0.1 0.1 0.3
v -0.1 0.1 0.2
v -0.1 0.1 0.1
v -0.1 0.1 0
v -0.1 0.1 -0.1
v -0.1 0.1 -0.2
v -0.1 0.2 0.5
v -0.1 0.2 0.3
v -0.1 0.2 0
v -0.1 0.2 -0.1
v -0.1 0.3 0.6
v -0.1 0.3 0.2
v -0.1 0.3 0.1
v -0.1 0.3 -0.2
v 0.1 2.5 0.1
v 0.1 2.5 0
v 0.1 2.5 -0.1
v 0.1 2.5 -0.2
v 0.1 2.6 0.1
v 0.1 2.6 0
v 0.1 2.6 -0.1
v 0.1 2.6 -0.2
v 0.1 2.7 0
v 0.1 2.7 -0.1
v 0.2 0 -0.9
v 0.2 0 -1.1
v 0.2 0.1 -0.8
v 0.2 0.1 -0.9
v 0.2 0.3 -0.8
v 0.2 0.4 -0.8
v 0.2 0.8 -0.8
v 0.2 0.8 -1.1
v 0.2 1.2 -0.2
v 0.2 1.2 -0.4
v 0.2 1.3 -0.2
v 0.2 1.3 -0.4
v 0.2 2.4 0.2
v 0.2 2.4 0.1
v 0.2 2.4 -0.2
v 0.2 2.4 -0.3
v 0.2 2.5 0.2
v 0.2 2.5 0.1
v 0.2 2.5 0
v 0.2 2.5 -0.1
v 0.2 2.5 -0.2
v 0.2 2.5 -0.3
v 0.2 2.6 0
v 0.2 2.6 -0.1
v 0.3 1.3 -0.1
v 0.3 1.3 -0.5
v 0.3 1.4 -0.1
v 0.3 1.4 -0.5
v 0.3 2.3 0.3
v 0.3 2.3 0.2
v 0.3 2.3 -0.3
v 0.3 2.3 -0.4
v 0.3 2.4 0.3
v 0.3 2.4 0.2
v 0.3 2.4 0.1
v 0.3 2.4 -0.2
v 0.3 2.4 -0.3
v 0.3 2.4 -0.4
v 0.3 2.5 0.1
v 0.3 2.5 -0.2
v 0.4 2.2 0.4
v 0.4 2.2 0.3
v 0.4 2.2 -0.4
v 0.4 2.2 -0.5
v 0.4 2.3 0.4
v 0.4 2.3 0.3
v 0.4 2.3 0.2
v 0.4 2.3 -0.3
v 0.4 2.3 -0.4
v 0.4 2.3 -0.5
v 0.4 2.4 0.2
v 0.4 2.4 -0.3
v 0.5 2 0.5
v 0.5 2 0.4
v 0.5 2 -0.5
v 0.5 2 -0.6
v 0.5 2.1 0.5
v 0.5 2.1 0.4
v 0.5 2.1 -0.5
v 0.5 2.1 -0.6
v 0.5 2.2 0.4
v 0.5 2.2 0.3
v 0.5 2.2 -0.4
v 0.5 2.2 -0.5
v 0.5 2.3 0.3
v 0.5 2.3 -0.4
v 0.6 0.2 0.6
v 0.6 0.2 0.4
v 0.6 0.3 0.6
v 0.6 0.3 0.4
v 0.6 1.6 0.7
v 0.6 1.6 0.6
v 0.6 1.6 -0.7
v 0.6 1.6 -0.8
v 0.6 1.7 0.7
v 0.6 1.7 0.6
v 0.6 1.7 -0.7
v 0.6 1.7 -0.8
v 0.6 1.8 0.6
v 0.6 1.8 0.5
v 0.6 1.8 -0.6
v 0.6 1.8 -0.7
v 0.6 1.9 0.6
v 0.6 1.9 0.5
v 0.6 1.9 -0.6
v 0.6 1.9 -0.7
v 0.6 2 0.5
v 0.6 2 0.4
v 0.6 2 -0.5
v 0.6 2 -0.6
v 0.6 2.1 0.4
v 0.6 2.1 -0.5
v 0.7 1.5 0.7
v 0.7 1.5 0.6
v 0.7 1.5 -0.7
v 0.7 1.5 -0.8
v 0.7 1.6 0.7
v 0.7 1.6 0.6
v 0.7 1.6 0.5
v 0.7 1.6 -0.6
v 0.7 1.6 -0.7
v 0.7 1.6 -0.8
v 0.7 1.7 0.5
v 0.7 1.7 -0.6
v 0.7 1.8 0.6
v 0.7 1.8 0.5
v 0.7 1.8 -0.6
v 0.7 1.8 -0.7
v 0.7 1.9 0.5
v 0.7 1.9 -0.6
v 0.8 0 0.7
v 0.8 0 -0.8
v 0.8 0 -1.1
v 0.8 1.5 0.7
v 0.8 1.5 0.6
v 0.8 1.5 -0.7
v 0.8 1.5 -0.8
v 0.8 1.5 -1.1
v 0.8 1.6 0.6
v 0.8 1.6 0.5
v 0.8 1.6 -0.6
v 0.8 1.6 -0.7
v 0.8 1.7 0.5
v 0.8 1.7 -0.6
v -0.7 0 0.7
v -0.7 1.5 0.7
v -0.6 1.5 0.7
v -0.6 1.6 0.7
v -0.5 1.6 0.7
v -0.5 1.7 0.7
v 0.6 1.6 0.7
v 0.6 1.7 0.7
v 0.7 1.5 0.7
v 0.7 1.6 0.7
v 0.8 0 0.7
v 0.8 1.5 0.7
v -0.7 1.5 0.6
v -0.7 1.6 0.6
v -0.6 1.5 0.6
v -0.6 1.6 0.6
v -0.6 1.8 0.6
v -0.5 1.6 0.6
v -0.5 1.7 0.6
v -0.5 1.8 0.6
v -0.5 1.9 0.6
v 0.6 1.6 0.6
v 0.6 1.7 0.6
v 0.6 1.8 0.6
v 0.6 1.9 0.6
v 0.7 1.5 0.6
v 0.7 1.6 0.6
v 0.7 1.8 0.6
v 0.8 1.5 0.6
v 0.8 1.6 0.6
v -0.7 1.6 0.5
v -0.7 1.7 0.5
v -0.6 1.6 0.5
v -0.6 1.7 0.5
v -0.6 1.8 0.5
v -0.6 1.9 0.5
v -0.5 1.8 0.5
v -0.5 1.9 0.5
v -0.5 2 0.5
v -0.4 2 0.5
v -0.4 2.1 0.5
v 0.5 2 0.5
v 0.5 2.1 0.5
v 0.6 1.8 0.5
v 0.6 1.9 0.5
v 0.6 2 0.5
v 0.7 1.6 0.5
v 0.7 1.7 0.5
v 0.7 1.8 0.5
v 0.7 1.9 0.5
v 0.8 1.6 0.5
v 0.8 1.7 0.5
v -0.5 2 0.4
v -0.5 2.1 0.4
v -0.4 2 0.4
v -0.4 2.1 0.4
v -0.4 2.2 0.4
v -0.3 2.2 0.4
v -0.3 2.3 0.4
v 0.4 2.2 0.4
v 0.4 2.3 0.4
v 0.5 2 0.4
v 0.5 2.1 0.4
v 0.5 2.2 0.4
v 0.6 2 0.4
v 0.6 2.1 0.4
v -0.6 0.1 0.3
v -0.6 0.2 0.3
v -0.5 0.1 0.3
v -0.5 0.2 0.3
v -0.4 2.2 0.3
v -0.4 2.3 0.3
v -0.3 2.2 0.3
v -0.3 2.3 0.3
v -0.2 0.1 0.3
v -0.2 0.2 0.3
v -0.2 2.3 0.3
v -0.2 2.4 0.3
v -0.1 0.1 0.3
v -0.1 0.2 0.3
v 0.3 2.3 0.3
v 0.3 2.4 0.3
v 0.4 2.2 0.3
v 0.4 2.3 0.3
v 0.5 2.2 0.3
v 0.5 2.3 0.3
v -0.6 0.7 0.2
v -0.6 1.1 0.2
v -0.5 0.7 0.2
v -0.5 1.1 0.2
v -0.3 2.3 0.2
v -0.3 2.4 0.2
v -0.2 2.3 0.2
v -0.2 2.4 0.2
v -0.1 2.4 0.2
v -0.1 2.5 0.2
v 0.2 2.4 0.2
v 0.2 2.5 0.2
v 0.3 2.3 0.2
v 0.3 2.4 0.2
v 0.4 2.3 0.2
v 0.4 2.4 0.2
v -0.6 0.1 0.1
v -0.6 0.3 0.1
v -0.5 0.1 0.1
v -0.5 0.2 0.1
v -0.2 0.1 0.1
v -0.2 0.2 0.1
v -0.2 2.4 0.1
v -0.2 2.5 0.1
v -0.1 0.1 0.1
v -0.1 0.3 0.1
v -0.1 2.4 0.1
v -0.1 2.5 0.1
v 0 2.5 0.1
v 0 2.6 0.1
v 0.1 2.5 0.1
v 0.1 2.6 0.1
v 0.2 2.4 0.1
v 0.2 2.5 0.1
v 0.3 2.4 0.1
v 0.3 2.5 0.1
v -0.1 2.5 0
v -0.1 2.6 0
v 0 2.5 0
v 0 2.6 0
v 0 2.7 0
v 0.1 2.5 0
v 0.1 2.6 0
v 0.1 2.7 0
v 0.2 2.5 0
v 0.2 2.6 0
v -0.6 0.1 -0.1
v -0.6 0.2 -0.1
v -0.5 0.1 -0.1
v -0.5 0.2 -0.1
v -0.2 0.1 -0.1
v -0.2 0.2 -0.1
v -0.1 0.1 -0.1
v -0.1 0.2 -0.1
v -0.1 1.3 -0.1
v -0.1 1.4 -0.1
v 0.3 1.3 -0.1
v 0.3 1.4 -0.1
v 0 1.2 -0.2
v 0 1.3 -0.2
v 0.2 1.2 -0.2
v 0.2 1.3 -0.2
v 0.6 0.1 -0.3
v 0.6 1.3 -0.3
v 0.7 0.1 -0.3
v 0.7 1.3 -0.3
v -0.6 0.1 -0.7
v -0.6 1.4 -0.7
v -0.5 0.4 -0.7
v -0.5 0.9 -0.7
v 0 0.4 -0.7
v 0 0.9 -0.7
v 0.2 0.1 -0.7
v 0.2 0.3 -0.7
v 0.2 0.4 -0.7
v 0.2 0.8 -0.7
v 0.3 0.3 -0.7
v 0.3 0.4 -0.7
v 0.6 0.1 -0.7
v 0.6 0.3 -0.7
v 0.6 0.4 -0.7
v 0.6 0.6 -0.7
v 0.6 0.7 -0.7
v 0.6 0.8 -0.7
v 0.6 0.9 -0.7
v 0.6 1 -0.7
v 0.6 1.2 -0.7
v 0.6 1.3 -0.7
v 0.7 1.3 -0.7
v 0.7 1.4 -0.7
v -0.6 0.3 0.6
v -0.6 1.4 0.6
v -0.5 0.3 0.6
v -0.2 0.3 0.6
v -0.1 0.1 0.6
v -0.1 0.3 0.6
v 0.2 0.1 0.6
v 0.2 0.2 0.6
v 0.3 0.2 0.6
v 0.3 0.3 0.6
v 0.6 0.2 0.6
v 0.6 0.3 0.6
v 0.7 0.2 0.6
v 0.7 1.4 0.6
v -0.6 0.1 0.5
v -0.6 0.2 0.5
v -0.5 0.1 0.5
v -0.5 0.2 0.5
v -0.5 0.3 0.5
v -0.2 0.1 0.5
v -0.2 0.2 0.5
v -0.2 0.3 0.5
v -0.1 0.1 0.5
v -0.1 0.2 0.5
v 0.3 0.2 0.4
v 0.3 0.3 0.4
v 0.6 0.2 0.4
v 0.6 0.3 0.4
v -0.6 0.1 0.2
v -0.6 0.3 0.2
v -0.5 0.1 0.2
v -0.5 0.2 0.2
v -0.5 0.3 0.2
v -0.2 0.1 0.2
v -0.2 0.2 0.2
v -0.2 0.3 0.2
v -0.1 0.1 0.2
v -0.1 0.3 0.2
v -0.6 0.1 0
v -0.6 0.2 0
v -0.5 0.1 0
v -0.5 0.2 0
v -0.2 0.1 0
v -0.2 0.2 0
v -0.1 0.1 0
v -0.1 0.2 0
v -0.1 2.5 -0.1
v -0.1 2.6 -0.1
v 0 2.5 -0.1
v 0 2.6 -0.1
v 0 2.7 -0.1
v 0.1 2.5 -0.1
v 0.1 2.6 -0.1
v 0.1 2.7 -0.1
v 0.2 2.5 -0.1
v 0.2 2.6 -0.1
v -0.6 0.1 -0.2
v -0.6 0.3 -0.2
v -0.5 0.1 -0.2
v -0.5 0.2 -0.2
v -0.2 0.1 -0.2
v -0.2 0.2 -0.2
v -0.2 2.4 -0.2
v -0.2 2.5 -0.2
v -0.1 0.1 -0.2
v -0.1 0.3 -0.2
v -0.1 2.4 -0.2
v -0.1 2.5 -0.2
v 0 2.5 -0.2
v 0 2.6 -0.2
v 0.1 2.5 -0.2
v 0.1 2.6 -0.2
v 0.2 0.1 -0.2
v 0.2 0.2 -0.2
v 0.2 2.4 -0.2
v 0.2 2.5 -0.2
v 0.3 2.4 -0.2
v 0.3 2.5 -0.2
v 0.7 0.1 -0.2
v 0.7 0.2 -0.2
v -0.6 0.7 -0.3
v -0.6 1.1 -0.3
v -0.5 0.7 -0.3
v -0.5 1.1 -0.3
v -0.3 2.3 -0.3
v -0.3 2.4 -0.3
v -0.2 2.3 -0.3
v -0.2 2.4 -0.3
v -0.1 2.4 -0.3
v -0.1 2.5 -0.3
v 0.2 2.4 -0.3
v 0.2 2.5 -0.3
v 0.3 2.3 -0.3
v 0.3 2.4 -0.3
v 0.4 2.3 -0.3
v 0.4 2.4 -0.3
v -0.4 2.2 -0.4
v -0.4 2.3 -0.4
v -0.3 2.2 -0.4
v -0.3 2.3 -0.4
v -0.2 2.3 -0.4
v -0.2 2.4 -0.4
v 0 1.2 -0.4
v 0 1.3 -0.4
v 0.2 1.2 -0.4
v 0.2 1.3 -0.4
v 0.3 2.3 -0.4
v 0.3 2.4 -0.4
v 0.4 2.2 -0.4
v 0.4 2.3 -0.4
v 0.5 2.2 -0.4
v 0.5 2.3 -0.4
v -0.5 2 -0.5
v -0.5 2.1 -0.5
v -0.4 2 -0.5
v -0.4 2.1 -0.5
v -0.4 2.2 -0.5
v -0.3 2.2 -0.5
v -0.3 2.3 -0.5
v -0.1 1.3 -0.5
v -0.1 1.4 -0.5
v 0.3 1.3 -0.5
v 0.3 1.4 -0.5
v 0.4 2.2 -0.5
v 0.4 2.3 -0.5
v 0.5 2 -0.5
v 0.5 2.1 -0.5
v 0.5 2.2 -0.5
v 0.6 2 -0.5
v 0.6 2.1 -0.5
v -0.7 1.6 -0.6
v -0.7 1.7 -0.6
v -0.6 1.6 -0.6
v -0.6 1.7 -0.6
v -0.6 1.8 -0.6
v -0.6 1.9 -0.6
v -0.5 1.8 -0.6
v -0.5 1.9 -0.6
v -0.5 2 -0.6
v -0.4 2 -0.6
v -0.4 2.1 -0.6
v 0.5 2 -0.6
v 0.5 2.1 -0.6
v 0.6 1.8 -0.6
v 0.6 1.9 -0.6
v 0.6 2 -0.6
v 0.7 1.6 -0.6
v 0.7 1.7 -0.6
v 0.7 1.8 -0.6
v 0.7 1.9 -0.6
v 0.8 1.6 -0.6
v 0.8 1.7 -0.6
v -0.7 1.5 -0.7
v -0.7 1.6 -0.7
v -0.6 1.5 -0.7
v -0.6 1.6 -0.7
v -0.6 1.8 -0.7
v -0.5 1.6 -0.7
v -0.5 1.7 -0.7
v -0.5 1.8 -0.7
v -0.5 1.9 -0.7
v 0.6 1.6 -0.7
v 0.6 1.7 -0.7
v 0.6 1.8 -0.7
v 0.6 1.9 -0.7
v 0.7 1.5 -0.7
v 0.7 1.6 -0.7
v 0.7 1.8 -0.7
v 0.8 1.5 -0.7
v 0.8 1.6 -0.7
v -0.6 1.5 -0.8
v -0.6 1.6 -0.8
v -0.5 1.6 -0.8
v -0.5 1.7 -0.8
v 0.2 0.1 -0.8
v 0.2 0.3 -0.8
v 0.2 0.4 -0.8
v 0.2 0.8 -0.8
v 0.3 0.3 -0.8
v 0.3 0.4 -0.8
v 0.6 0.1 -0.8
v 0.6 0.8 -0.8
v 0.6 1.6 -0.8
v 0.6 1.7 -0.8
v 0.7 1.5 -0.8
v 0.7 1.6 -0.8
v 0.2 0 -0.9
v 0.2 0.1 -0.9
v 0.6 0 -0.9
v 0.6 0.1 -0.9
v -0.7 0 -1.1
v -0.7 1.5 -1.1
v -0.5 0.4 -1.1
v -0.5 0.9 -1.1
v 0 0.4 -1.1
v 0 0.9 -1.1
v 0.2 0 -1.1
v 0.2 0.8 -1.1
v 0.6 0 -1.1
v 0.6 0.8 -1.1
v 0.8 0 -1.1
v 0.8 1.5 -1.1
v -0.7 0 0.7
v 0.8 0 0.7
v -0.6 0 0.6
v 0.7 0 0.6
v 0.2 0 -0.4
v 0.6 0 -0.4
v 0.2 0 -0.7
v 0.6 0 -0.7
v -0.7 0 -0.8
v -0.6 0 -0.8
v 0.7 0 -0.8
v 0.8 0 -0.8
v 0.2 0 -0.9
v 0.6 0 -0.9
v -0.7 0 -1.1
v 0.2 0 -1.1
v 0.6 0 -1.1
v 0.8 0 -1.1
v -0.6 0.2 0.5
v -0.5 0.2 0.5
v -0.2 0.2 0.5
v -0.1 0.2 0.5
v -0.6 0.2 0.3
v -0.5 0.2 0.3
v -0.2 0.2 0.3
v -0.1 0.2 0.3
v -0.5 0.2 0.1
v -0.2 0.2 0.1
v -0.6 0.2 0
v -0.5 0.2 0
v -0.2 0.2 0
v -0.1 0.2 0
v -0.6 0.2 -0.1
v -0.5 0.2 -0.1
v -0.2 0.2 -0.1
v -0.1 0.2 -0.1
v -0.5 0.2 -0.2
v -0.2 0.2 -0.2
v -0.6 0.7 0.2
v -0.5 0.7 0.2
v -0.6 0.7 -0.3
v -0.5 0.7 -0.3
v 0.2 0.8 -0.8
v 0.6 0.8 -0.8
v 0.2 0.8 -1.1
v 0.6 0.8 -1.1
v -0.5 0.9 -0.7
v 0 0.9 -0.7
v -0.5 0.9 -0.8
v 0 0.9 -0.8
v -0.5 0.9 -1.1
v 0 0.9 -1.1
v 0 1.2 -0.2
v 0.2 1.2 -0.2
v 0 1.2 -0.4
v 0.2 1.2 -0.4
v -0.1 1.3 -0.1
v 0.3 1.3 -0.1
v 0 1.3 -0.2
v 0.2 1.3 -0.2
v 0 1.3 -0.4
v 0.2 1.3 -0.4
v -0.1 1.3 -0.5
v 0.3 1.3 -0.5
v -0.6 1.4 0.6
v 0.7 1.4 0.6
v -0.1 1.4 -0.1
v 0.3 1.4 -0.1
v -0.1 1.4 -0.5
v 0.3 1.4 -0.5
v -0.6 1.4 -0.7
v 0.7 1.4 -0.7
v -0.1 0.1 0.6
v 0.2 0.1 0.6
v -0.6 0.1 0.5
v -0.5 0.1 0.5
v -0.2 0.1 0.5
v -0.1 0.1 0.5
v 0.2 0.1 0.4
v -0.6 0.1 0.3
v -0.5 0.1 0.3
v -0.2 0.1 0.3
v -0.1 0.1 0.3
v -0.6 0.1 0.2
v -0.5 0.1 0.2
v -0.2 0.1 0.2
v -0.1 0.1 0.2
v -0.6 0.1 0.1
v -0.5 0.1 0.1
v -0.2 0.1 0.1
v -0.1 0.1 0.1
v -0.6 0.1 0
v -0.5 0.1 0
v -0.2 0.1 0
v -0.1 0.1 0
v -0.6 0.1 -0.1
v -0.5 0.1 -0.1
v -0.2 0.1 -0.1
v -0.1 0.1 -0.1
v -0.6 0.1 -0.2
v -0.5 0.1 -0.2
v -0.2 0.1 -0.2
v -0.1 0.1 -0.2
v 0.2 0.1 -0.2
v 0.7 0.1 -0.2
v 0.6 0.1 -0.3
v 0.7 0.1 -0.3
v 0.2 0.1 -0.4
v 0.6 0.1 -0.4
v -0.6 0.1 -0.7
v 0.2 0.1 -0.7
v 0.6 0.1 -0.7
v 0.2 0.1 -0.8
v 0.6 0.1 -0.8
v 0.2 0.1 -0.9
v 0.6 0.1 -0.9
v 0.2 0.2 0.6
v 0.3 0.2 0.6
v 0.6 0.2 0.6
v 0.7 0.2 0.6
v -0.5 0.2 0.5
v -0.2 0.2 0.5
v 0.2 0.2 0.4
v 0.3 0.2 0.4
v 0.6 0.2 0.4
v 0.7 0.2 0.4
v -0.5 0.2 0.2
v -0.2 0.2 0.2
v 0.2 0.2 -0.2
v 0.7 0.2 -0.2
v -0.6 0.3 0.6
v -0.5 0.3 0.6
v -0.2 0.3 0.6
v -0.1 0.3 0.6
v 0.3 0.3 0.6
v 0.6 0.3 0.6
v -0.5 0.3 0.5
v -0.2 0.3 0.5
v 0.3 0.3 0.4
v 0.6 0.3 0.4
v -0.6 0.3 0.2
v -0.5 0.3 0.2
v -0.2 0.3 0.2
v -0.1 0.3 0.2
v -0.6 0.3 0.1
v -0.1 0.3 0.1
v -0.6 0.3 -0.2
v -0.1 0.3 -0.2
v -0.5 0.4 -0.7
v 0 0.4 -0.7
v -0.5 0.4 -0.8
v 0 0.4 -0.8
v -0.5 0.4 -1.1
v 0 0.4 -1.1
v -0.6 1.1 0.2
v -0.5 1.1 0.2
v -0.6 1.1 -0.3
v -0.5 1.1 -0.3
v 0.6 1.3 -0.3
v 0.7 1.3 -0.3
v 0.6 1.3 -0.7
v 0.7 1.3 -0.7
v -0.7 1.5 0.7
v -0.6 1.5 0.7
v 0.7 1.5 0.7
v 0.8 1.5 0.7
v -0.7 1.5 0.6
v -0.6 1.5 0.6
v 0.7 1.5 0.6
v 0.8 1.5 0.6
v -0.7 1.5 -0.7
v -0.6 1.5 -0.7
v 0.7 1.5 -0.7
v 0.8 1.5 -0.7
v -0.7 1.5 -0.8
v -0.6 1.5 -0.8
v 0.7 1.5 -0.8
v 0.8 1.5 -0.8
v -0.7 1.5 -1.1
v 0.8 1.5 -1.1
v -0.6 1.6 0.7
v -0.5 1.6 0.7
v 0.6 1.6 0.7
v 0.7 1.6 0.7
v -0.7 1.6 0.6
v -0.6 1.6 0.6
v -0.5 1.6 0.6
v 0.6 1.6 0.6
v 0.7 1.6 0.6
v 0.8 1.6 0.6
v -0.7 1.6 0.5
v -0.6 1.6 0.5
v 0.7 1.6 0.5
v 0.8 1.6 0.5
v -0.7 1.6 -0.6
v -0.6 1.6 -0.6
v 0.7 1.6 -0.6
v 0.8 1.6 -0.6
v -0.7 1.6 -0.7
v -0.6 1.6 -0.7
v -0.5 1.6 -0.7
v 0.6 1.6 -0.7
v 0.7 1.6 -0.7
v 0.8 1.6 -0.7
v -0.6 1.6 -0.8
v -0.5 1.6 -0.8
v 0.6 1.6 -0.8
v 0.7 1.6 -0.8
v -0.5 1.7 0.7
v 0.6 1.7 0.7
v -0.5 1.7 0.6
v 0.6 1.7 0.6
v -0.7 1.7 0.5
v -0.6 1.7 0.5
v 0.7 1.7 0.5
v 0.8 1.7 0.5
v -0.7 1.7 -0.6
v -0.6 1.7 -0.6
v 0.7 1.7 -0.6
v 0.8 1.7 -0.6
v -0.5 1.7 -0.7
v 0.6 1.7 -0.7
v -0.5 1.7 -0.8
v 0.6 1.7 -0.8
v -0.6 1.8 0.6
v -0.5 1.8 0.6
v 0.6 1.8 0.6
v 0.7 1.8 0.6
v -0.6 1.8 0.5
v -0.5 1.8 0.5
v 0.6 1.8 0.5
v 0.7 1.8 0.5
v -0.6 1.8 -0.6
v -0.5 1.8 -0.6
v 0.6 1.8 -0.6
v 0.7 1.8 -0.6
v -0.6 1.8 -0.7
v -0.5 1.8 -0.7
v 0.6 1.8 -0.7
v 0.7 1.8 -0.7
v -0.5 1.9 0.6
v 0.6 1.9 0.6
v -0.6 1.9 0.5
v -0.5 1.9 0.5
v 0.6 1.9 0.5
v 0.7 1.9 0.5
v -0.6 1.9 -0.6
v -0.5 1.9 -0.6
v 0.6 1.9 -0.6
v 0.7 1.9 -0.6
v -0.5 1.9 -0.7
v 0.6 1.9 -0.7
v -0.5 2 0.5
v -0.4 2 0.5
v 0.5 2 0.5
v 0.6 2 0.5
v -0.5 2 0.4
v -0.4 2 0.4
v 0.5 2 0.4
v 0.6 2 0.4
v -0.5 2 -0.5
v -0.4 2 -0.5
v 0.5 2 -0.5
v 0.6 2 -0.5
v -0.5 2 -0.6
v -0.4 2 -0.6
v 0.5 2 -0.6
v 0.6 2 -0.6
v -0.4 2.1 0.5
v 0.5 2.1 0.5
v -0.5 2.1 0.4
v -0.4 2.1 0.4
v 0.5 2.1 0.4
v 0.6 2.1 0.4
v -0.5 2.1 -0.5
v -0.4 2.1 -0.5
v 0.5 2.1 -0.5
v 0.6 2.1 -0.5
v -0.4 2.1 -0.6
v 0.5 2.1 -0.6
v -0.4 2.2 0.4
v -0.3 2.2 0.4
v 0.4 2.2 0.4
v 0.5 2.2 0.4
v -0.4 2.2 0.3
v -0.3 2.2 0.3
v 0.4 2.2 0.3
v 0.5 2.2 0.3
v -0.4 2.2 -0.4
v -0.3 2.2 -0.4
v 0.4 2.2 -0.4
v 0.5 2.2 -0.4
v -0.4 2.2 -0.5
v -0.3 2.2 -0.5
v 0.4 2.2 -0.5
v 0.5 2.2 -0.5
v -0.3 2.3 0.4
v 0.4 2.3 0.4
v -0.4 2.3 0.3
v -0.3 2.3 0.3
v -0.2 2.3 0.3
v 0.3 2.3 0.3
v 0.4 2.3 0.3
v 0.5 2.3 0.3
v -0.3 2.3 0.2
v -0.2 2.3 0.2
v 0.3 2.3 0.2
v 0.4 2.3 0.2
v -0.3 2.3 -0.3
v -0.2 2.3 -0.3
v 0.3 2.3 -0.3
v 0.4 2.3 -0.3
v -0.4 2.3 -0.4
v -0.3 2.3 -0.4
v -0.2 2.3 -0.4
v 0.3 2.3 -0.4
v 0.4 2.3 -0.4
v 0.5 2.3 -0.4
v -0.3 2.3 -0.5
v 0.4 2.3 -0.5
v -0.2 2.4 0.3
v 0.3 2.4 0.3
v -0.3 2.4 0.2
v -0.2 2.4 0.2
v -0.1 2.4 0.2
v 0.2 2.4 0.2
v 0.3 2.4 0.2
v 0.4 2.4 0.2
v -0.2 2.4 0.1
v -0.1 2.4 0.1
v 0.2 2.4 0.1
v 0.3 2.4 0.1
v -0.2 2.4 -0.2
v -0.1 2.4 -0.2
v 0.2 2.4 -0.2
v 0.3 2.4 -0.2
v -0.3 2.4 -0.3
v -0.2 2.4 -0.3
v -0.1 2.4 -0.3
v 0.2 2.4 -0.3
v 0.3 2.4 -0.3
v 0.4 2.4 -0.3
v -0.2 2.4 -0.4
v 0.3 2.4 -0.4
v -0.1 2.5 0.2
v 0.2 2.5 0.2
v -0.2 2.5 0.1
v -0.1 2.5 0.1
v 0 2.5 0.1
v 0.1 2.5 0.1
v 0.2 2.5 0.1
v 0.3 2.5 0.1
v -0.1 2.5 0
v 0 2.5 0
v 0.1 2.5 0
v 0.2 2.5 0
v -0.1 2.5 -0.1
v 0 2.5 -0.1
v 0.1 2.5 -0.1
v 0.2 2.5 -0.1
v -0.2 2.5 -0.2
v -0.1 2.5 -0.2
v 0 2.5 -0.2
v 0.1 2.5 -0.2
v 0.2 2.5 -0.2
v 0.3 2.5 -0.2
v -0.1 2.5 -0.3
v 0.2 2.5 -0.3
v 0 2.6 0.1
v 0.1 2.6 0.1
v -0.1 2.6 0
v 0 2.6 0
v 0.1 2.6 0
v 0.2 2.6 0
v -0.1 2.6 -0.1
v 0 2.6 -0.1
v 0.1 2.6 -0.1
v 0.2 2.6 -0.1
v 0 2.6 -0.2
v 0.1 2.6 -0.2
v 0 2.7 0
v 0.1 2.7 0
v 0 2.7 -0.1
v 0.1 2.7 -0.1

# faces
f 4/9/1 2/9/1 1/9/1
f 5/9/1 2/9/1 4/9/1
f 6/9/1 2/9/1 5/9/1
f 7/18/1 3/18/1 2/18/1
f 7/9/1 2/9/1 6/9/1
f 8/18/1 3/18/1 7/18/1
f 9/24/1 6/24/1 5/24/1
f 10/24/1 6/24/1 9/24/1
f 11/24/1 6/24/1 10/24/1
f 12/24/1 6/24/1 11/24/1
f 13/24/1 11/24/1 10/24/1
f 14/24/1 11/24/1 13/24/1
f 19/24/1 16/24/1 15/24/1
f 20/24/1 16/24/1 19/24/1
f 23/24/1 18/24/1 17/24/1
f 24/24/1 18/24/1 23/24/1
f 25/24/1 21/24/1 20/24/1
f 26/24/1 23/24/1 22/24/1
f 27/24/1 25/24/1 20/24/1
f 27/24/1 26/24/1 25/24/1
f 28/24/1 26/24/1 27/24/1
f 29/24/1 23/24/1 26/24/1
f 29/24/1 26/24/1 28/24/1
f 30/24/1 23/24/1 29/24/1
f 31/24/1 29/24/1 28/24/1
f 32/24/1 29/24/1 31/24/1
f 35/4/1 34/4/1 33/4/1
f 36/4/1 34/4/1 35/4/1
f 41/24/1 38/24/1 37/24/1
f 42/24/1 38/24/1 41/24/1
f 43/24/1 40/24/1 39/24/1
f 44/24/1 40/24/1 43/24/1
f 49/24/1 46/24/1 45/24/1
f 50/24/1 46/24/1 49/24/1
f 51/24/1 48/24/1 47/24/1
f 52/24/1 48/24/1 51/24/1
f 53/24/1 51/24/1 50/24/1
f 54/24/1 51/24/1 53/24/1
f 55/24/1 51/24/1 54/24/1
f 56/24/1 51/24/1 55/24/1
f 57/24/1 55/24/1 54/24/1
f 58/24/1 55/24/1 57/24/1
f 63/24/1 60/24/1 59/24/1
f 64/24/1 60/24/1 63/24/1
f 65/24/1 62/24/1 61/24/1
f 66/24/1 62/24/1 65/24/1
f 67/24/1 65/24/1 64/24/1
f 68/24/1 65/24/1 67/24/1
f 69/24/1 65/24/1 68/24/1
f 70/24/1 65/24/1 69/24/1
f 71/24/1 69/24/1 68/24/1
f 72/24/1 69/24/1 71/24/1
f 77/24/1 74/24/1 73/24/1
f 78/24/1 74/24/1 77/24/1
f 81/24/1 76/24/1 75/24/1
f 82/24/1 76/24/1 81/24/1
f 83/24/1 80/24/1 79/24/1
f 84/24/1 80/24/1 83/24/1
f 91/18/1 86/18/1 85/18/1
f 92/18/1 86/18/1 91/18/1
f 93/18/1 88/18/1 87/18/1
f 94/18/1 88/18/1 93/18/1
f 95/18/1 90/18/1 89/18/1
f 96/18/1 90/18/1 95/18/1
f 101/24/1 98/24/1 97/24/1
f 102/24/1 98/24/1 101/24/1
f 105/24/1 100/24/1 99/24/1
f 106/24/1 100/24/1 105/24/1
f 107/24/1 104/24/1 103/24/1
f 108/24/1 104/24/1 107/24/1
f 111/1/1 110/1/1 109/1/1
f 112/1/1 110/1/1 111/1/1
f 117/24/1 114/24/1 113/24/1
f 118/24/1 114/24/1 117/24/1
f 121/24/1 116/24/1 115/24/1
f 122/24/1 116/24/1 121/24/1
f 123/24/1 120/24/1 119/24/1
f 124/24/1 120/24/1 123/24/1
f 128/9/1 126/9/1 125/9/1
f 129/18/1 127/18/1 126/18/1
f 129/9/1 126/9/1 128/9/1
f 130/18/1 127/18/1 129/18/1
f 133/1/1 132/1/1 131/1/1
f 134/1/1 132/1/1 133/1/1
f 139/24/1 136/24/1 135/24/1
f 140/24/1 136/24/1 139/24/1
f 141/24/1 138/24/1 137/24/1
f 142/24/1 138/24/1 141/24/1
f 143/24/1 141/24/1 140/24/1
f 144/24/1 141/24/1 143/24/1
f 148/15/1 146/15/1 145/15/1
f 149/12/1 147/12/1 146/12/1
f 149/15/1 146/15/1 148/15/1
f 150/12/1 147/12/1 149/12/1
f 153/1/1 152/1/1 151/1/1
f 154/1/1 152/1/1 153/1/1
f 161/18/1 156/18/1 155/18/1
f 162/14/1 159/14/1 158/14/1
f 163/14/1 159/14/1 162/14/1
f 164/18/1 158/18/1 157/18/1
f 164/14/1 162/14/1 158/14/1
f 165/21/1 163/21/1 162/21/1
f 165/14/1 162/14/1 164/14/1
f 166/14/1 159/14/1 163/14/1
f 166/21/1 163/21/1 165/21/1
f 167/14/1 159/14/1 166/14/1
f 168/18/1 165/18/1 164/18/1
f 168/18/1 164/18/1 157/18/1
f 168/18/1 167/18/1 166/18/1
f 168/18/1 166/18/1 165/18/1
f 169/18/1 167/18/1 168/18/1
f 170/18/1 167/18/1 169/18/1
f 171/18/1 167/18/1 170/18/1
f 172/18/1 168/18/1 157/18/1
f 172/17/1 169/17/1 168/17/1
f 173/23/1 170/23/1 169/23/1
f 173/17/1 169/17/1 172/17/1
f 174/10/1 171/10/1 170/10/1
f 174/23/1 170/23/1 173/23/1
f 175/10/1 171/10/1 174/10/1
f 176/18/1 173/18/1 172/18/1
f 176/18/1 172/18/1 157/18/1
f 176/18/1 175/18/1 174/18/1
f 176/18/1 174/18/1 173/18/1
f 177/18/1 175/18/1 176/18/1
f 178/18/1 175/18/1 177/18/1
f 179/18/1 175/18/1 178/18/1
f 180/2/1 179/2/1 178/2/1
f 181/18/1 161/18/1 160/18/1
f 182/18/1 156/18/1 161/18/1
f 182/18/1 161/18/1 181/18/1
f 183/11/1 177/11/1 176/11/1
f 183/18/1 176/18/1 157/18/1
f 184/19/1 178/19/1 177/19/1
f 184/11/1 177/11/1 183/11/1
f 185/2/1 180/2/1 178/2/1
f 185/19/1 178/19/1 184/19/1
f 186/2/1 180/2/1 185/2/1
f 187/18/1 184/18/1 183/18/1
f 187/18/1 183/18/1 157/18/1
f 187/18/1 186/18/1 185/18/1
f 187/18/1 185/18/1 184/18/1
f 188/18/1 186/18/1 187/18/1
f 189/18/1 186/18/1 188/18/1
f 190/18/1 186/18/1 189/18/1
f 191/18/1 187/18/1 157/18/1
f 191/19/1 188/19/1 187/19/1
f 192/11/1 189/11/1 188/11/1
f 192/19/1 188/19/1 191/19/1
f 193/7/1 190/7/1 189/7/1
f 193/11/1 189/11/1 192/11/1
f 194/7/1 190/7/1 193/7/1
f 195/18/1 192/18/1 191/18/1
f 195/18/1 191/18/1 157/18/1
f 195/18/1 194/18/1 193/18/1
f 195/18/1 193/18/1 192/18/1
f 196/18/1 194/18/1 195/18/1
f 201/9/1 198/9/1 197/9/1
f 202/9/1 200/9/1 199/9/1
f 202/9/1 201/9/1 200/9/1
f 202/9/1 198/9/1 201/9/1
f 204/9/1 202/9/1 199/9/1
f 204/9/1 203/9/1 202/9/1
f 205/9/1 203/9/1 204/9/1
f 206/9/2 207/9/2 214/9/2
f 214/9/2 207/9/2 215/9/2
f 210/9/2 211/9/2 216/9/2
f 216/9/2 211/9/2 217/9/2
f 208/9/2 209/9/2 219/9/2
f 219/9/2 209/9/2 220/9/2
f 212/9/2 213/9/2 221/9/2
f 219/9/2 220/9/2 222/9/2
f 220/9/2 221/9/2 222/9/2
f 218/9/2 219/9/2 222/9/2
f 221/9/2 213/9/2 223/9/2
f 222/9/2 221/9/2 223/9/2
f 218/9/2 222/9/2 224/9/2
f 223/9/2 213/9/2 225/9/2
f 218/9/2 224/9/2 226/9/2
f 224/9/2 225/9/2 226/9/2
f 225/9/2 213/9/2 227/9/2
f 226/9/2 225/9/2 227/9/2
f 228/18/2 229/18/2 234/18/2
f 234/18/2 229/18/2 235/18/2
f 230/18/2 231/18/2 236/18/2
f 236/18/2 231/18/2 237/18/2
f 232/18/2 233/18/2 238/18/2
f 238/18/2 233/18/2 239/18/2
f 243/14/2 244/14/2 245/14/2
f 245/14/2 244/14/2 246/14/2
f 246/14/2 244/14/2 247/14/2
f 247/14/2 244/14/2 248/14/2
f 243/14/2 245/14/2 249/14/2
f 245/8/2 246/8/2 249/8/2
f 246/22/2 247/22/2 250/22/2
f 249/8/2 246/8/2 250/8/2
f 247/6/2 248/6/2 251/6/2
f 250/22/2 247/22/2 251/22/2
f 248/14/2 244/14/2 252/14/2
f 251/6/2 248/6/2 252/6/2
f 240/9/2 241/9/2 253/9/2
f 241/18/2 242/18/2 254/18/2
f 253/9/2 241/9/2 254/9/2
f 254/18/2 242/18/2 255/18/2
f 249/20/2 250/20/2 256/20/2
f 243/14/2 249/14/2 256/14/2
f 250/16/2 251/16/2 257/16/2
f 256/20/2 250/20/2 257/20/2
f 251/13/2 252/13/2 258/13/2
f 257/16/2 251/16/2 258/16/2
f 252/14/2 244/14/2 259/14/2
f 258/13/2 252/13/2 259/13/2
f 257/14/2 258/14/2 260/14/2
f 243/14/2 256/14/2 260/14/2
f 258/14/2 259/14/2 260/14/2
f 256/14/2 257/14/2 260/14/2
f 259/14/2 244/14/2 261/14/2
f 260/14/2 259/14/2 261/14/2
f 262/4/2 263/4/2 264/4/2
f 264/4/2 263/4/2 265/4/2
f 266/18/2 267/18/2 274/18/2
f 268/18/2 269/18/2 275/18/2
f 270/18/2 271/18/2 276/18/2
f 272/18/2 273/18/2 277/18/2
f 266/18/2 274/18/2 278/18/2
f 274/18/2 275/18/2 278/18/2
f 275/18/2 269/18/2 279/18/2
f 278/18/2 275/18/2 279/18/2
f 270/18/2 276/18/2 280/18/2
f 276/18/2 277/18/2 280/18/2
f 277/18/2 273/18/2 281/18/2
f 280/18/2 277/18/2 281/18/2
f 282/24/2 283/24/2 286/24/2
f 286/24/2 283/24/2 287/24/2
f 284/24/2 285/24/2 288/24/2
f 288/24/2 285/24/2 289/24/2
f 287/24/2 288/24/2 290/24/2
f 290/24/2 288/24/2 291/24/2
f 292/18/2 293/18/2 295/18/2
f 294/18/2 295/18/2 296/18/2
f 296/18/2 295/18/2 297/18/2
f 297/18/2 295/18/2 298/18/2
f 295/18/2 293/18/2 299/18/2
f 298/18/2 295/18/2 299/18/2
f 300/1/2 301/1/2 302/1/2
f 302/1/2 301/1/2 303/1/2
f 304/24/2 305/24/2 308/24/2
f 308/24/2 305/24/2 309/24/2
f 306/24/2 307/24/2 312/24/2
f 312/24/2 307/24/2 313/24/2
f 310/24/2 311/24/2 314/24/2
f 314/24/2 311/24/2 315/24/2
f 316/1/2 317/1/2 318/1/2
f 318/1/2 317/1/2 319/1/2
f 320/24/2 321/24/2 324/24/2
f 324/24/2 321/24/2 325/24/2
f 322/24/2 323/24/2 328/24/2
f 328/24/2 323/24/2 329/24/2
f 326/24/2 327/24/2 330/24/2
f 330/24/2 327/24/2 331/24/2
f 332/24/2 333/24/2 336/24/2
f 336/24/2 333/24/2 337/24/2
f 334/24/2 335/24/2 340/24/2
f 340/24/2 335/24/2 341/24/2
f 338/24/2 339/24/2 342/24/2
f 342/24/2 339/24/2 343/24/2
f 344/24/2 345/24/2 348/24/2
f 348/24/2 345/24/2 349/24/2
f 346/24/2 347/24/2 350/24/2
f 350/24/2 347/24/2 351/24/2
f 349/24/2 350/24/2 352/24/2
f 352/24/2 350/24/2 353/24/2
f 353/24/2 350/24/2 354/24/2
f 354/24/2 350/24/2 355/24/2
f 353/24/2 354/24/2 356/24/2
f 356/24/2 354/24/2 357/24/2
f 358/1/2 359/1/2 360/1/2
f 360/1/2 359/1/2 361/1/2
f 362/24/2 363/24/2 366/24/2
f 366/24/2 363/24/2 367/24/2
f 364/24/2 365/24/2 368/24/2
f 368/24/2 365/24/2 369/24/2
f 370/24/2 371/24/2 374/24/2
f 374/24/2 371/24/2 375/24/2
f 372/24/2 373/24/2 376/24/2
f 376/24/2 373/24/2 377/24/2
f 375/24/2 376/24/2 378/24/2
f 378/24/2 376/24/2 379/24/2
f 379/24/2 376/24/2 380/24/2
f 380/24/2 376/24/2 381/24/2
f 379/24/2 380/24/2 382/24/2
f 382/24/2 380/24/2 383/24/2
f 384/24/2 385/24/2 388/24/2
f 388/24/2 385/24/2 389/24/2
f 386/24/2 387/24/2 392/24/2
f 392/24/2 387/24/2 393/24/2
f 389/24/2 390/24/2 394/24/2
f 391/24/2 392/24/2 395/24/2
f 389/24/2 394/24/2 396/24/2
f 394/24/2 395/24/2 396/24/2
f 396/24/2 395/24/2 397/24/2
f 395/24/2 392/24/2 398/24/2
f 397/24/2 395/24/2 398/24/2
f 398/24/2 392/24/2 399/24/2
f 397/24/2 398/24/2 400/24/2
f 400/24/2 398/24/2 401/24/2
f 402/9/2 403/9/2 405/9/2
f 405/9/2 403/9/2 406/9/2
f 406/9/2 403/9/2 407/9/2
f 403/18/2 404/18/2 408/18/2
f 407/9/2 403/9/2 408/9/2
f 408/18/2 404/18/2 409/18/2
f 406/24/2 407/24/2 410/24/2
f 410/24/2 407/24/2 411/24/2
f 411/24/2 407/24/2 412/24/2
f 412/24/2 407/24/2 413/24/2
f 411/24/2 412/24/2 414/24/2
f 414/24/2 412/24/2 415/24/2
f 418/9/3 417/9/3 416/9/3
f 420/24/3 419/24/3 418/24/3
f 422/24/3 420/24/3 418/24/3
f 422/24/3 421/24/3 420/24/3
f 423/24/3 421/24/3 422/24/3
f 424/9/3 418/9/3 416/9/3
f 424/24/3 422/24/3 418/24/3
f 425/24/3 422/24/3 424/24/3
f 426/9/3 424/9/3 416/9/3
f 427/9/3 424/9/3 426/9/3
f 430/24/3 429/24/3 428/24/3
f 431/24/3 429/24/3 430/24/3
f 433/24/3 432/24/3 431/24/3
f 434/24/3 432/24/3 433/24/3
f 435/24/3 432/24/3 434/24/3
f 438/24/3 436/24/3 435/24/3
f 438/24/3 435/24/3 434/24/3
f 439/24/3 436/24/3 438/24/3
f 440/24/3 436/24/3 439/24/3
f 442/24/3 438/24/3 437/24/3
f 442/24/3 439/24/3 438/24/3
f 443/24/3 439/24/3 442/24/3
f 444/24/3 442/24/3 441/24/3
f 445/24/3 442/24/3 444/24/3
f 448/24/3 447/24/3 446/24/3
f 449/24/3 447/24/3 448/24/3
f 452/24/3 451/24/3 450/24/3
f 453/24/3 451/24/3 452/24/3
f 455/24/3 454/24/3 453/24/3
f 457/24/3 455/24/3 453/24/3
f 457/24/3 456/24/3 455/24/3
f 458/24/3 456/24/3 457/24/3
f 460/24/3 457/24/3 453/24/3
f 461/24/3 457/24/3 460/24/3
f 464/24/3 460/24/3 459/24/3
f 465/24/3 460/24/3 464/24/3
f 466/24/3 463/24/3 462/24/3
f 467/24/3 463/24/3 466/24/3
f 470/24/3 469/24/3 468/24/3
f 471/24/3 469/24/3 470/24/3
f 473/24/3 472/24/3 471/24/3
f 475/24/3 473/24/3 471/24/3
f 475/24/3 474/24/3 473/24/3
f 476/24/3 474/24/3 475/24/3
f 478/24/3 475/24/3 471/24/3
f 479/24/3 475/24/3 478/24/3
f 480/24/3 478/24/3 477/24/3
f 481/24/3 478/24/3 480/24/3
f 484/18/3 483/18/3 482/18/3
f 485/18/3 483/18/3 484/18/3
f 488/24/3 487/24/3 486/24/3
f 489/24/3 487/24/3 488/24/3
f 494/18/3 491/18/3 490/18/3
f 495/18/3 491/18/3 494/18/3
f 496/24/3 493/24/3 492/24/3
f 497/24/3 493/24/3 496/24/3
f 500/24/3 499/24/3 498/24/3
f 501/24/3 499/24/3 500/24/3
f 504/14/3 503/14/3 502/14/3
f 505/14/3 503/14/3 504/14/3
f 508/24/3 507/24/3 506/24/3
f 509/24/3 507/24/3 508/24/3
f 512/24/3 511/24/3 510/24/3
f 513/24/3 511/24/3 512/24/3
f 516/24/3 515/24/3 514/24/3
f 517/24/3 515/24/3 516/24/3
f 520/18/3 519/18/3 518/18/3
f 521/18/3 519/18/3 520/18/3
f 523/18/3 519/18/3 521/18/3
f 526/18/3 523/18/3 522/18/3
f 527/18/3 519/18/3 523/18/3
f 527/18/3 523/18/3 526/18/3
f 528/24/3 525/24/3 524/24/3
f 529/24/3 525/24/3 528/24/3
f 532/24/3 531/24/3 530/24/3
f 533/24/3 531/24/3 532/24/3
f 536/24/3 535/24/3 534/24/3
f 537/24/3 535/24/3 536/24/3
f 540/24/3 539/24/3 538/24/3
f 541/24/3 539/24/3 540/24/3
f 544/24/3 542/24/3 541/24/3
f 545/24/3 542/24/3 544/24/3
f 546/24/3 544/24/3 543/24/3
f 547/24/3 544/24/3 546/24/3
f 550/18/3 549/18/3 548/18/3
f 551/18/3 549/18/3 550/18/3
f 554/18/3 553/18/3 552/18/3
f 555/18/3 553/18/3 554/18/3
f 558/1/3 557/1/3 556/1/3
f 559/1/3 557/1/3 558/1/3
f 562/1/3 561/1/3 560/1/3
f 563/1/3 561/1/3 562/1/3
f 566/18/3 565/18/3 564/18/3
f 567/18/3 565/18/3 566/18/3
f 570/9/3 569/9/3 568/9/3
f 571/9/3 569/9/3 570/9/3
f 572/9/3 570/9/3 568/9/3
f 573/9/3 569/9/3 571/9/3
f 574/9/3 572/9/3 568/9/3
f 574/9/3 573/9/3 572/9/3
f 575/9/3 573/9/3 574/9/3
f 576/9/3 573/9/3 575/9/3
f 577/9/3 573/9/3 576/9/3
f 578/18/3 575/18/3 574/18/3
f 578/3/3 576/3/3 575/3/3
f 579/18/3 577/18/3 576/18/3
f 579/3/3 576/3/3 578/3/3
f 580/18/3 578/18/3 574/18/3
f 580/18/3 579/18/3 578/18/3
f 581/18/3 579/18/3 580/18/3
f 582/18/3 577/18/3 579/18/3
f 582/18/3 579/18/3 581/18/3
f 583/18/3 577/18/3 582/18/3
f 584/18/3 577/18/3 583/18/3
f 585/9/3 573/9/3 577/9/3
f 585/18/3 577/18/3 584/18/3
f 586/9/3 569/9/3 573/9/3
f 586/9/3 573/9/3 585/9/3
f 587/9/3 569/9/3 586/9/3
f 588/9/3 569/9/3 587/9/3
f 589/9/3 569/9/3 588/9/3
f 590/9/3 569/9/3 589/9/3
f 591/9/3 569/9/3 590/9/3
f 592/9/4 593/9/4 594/9/4
f 594/9/4 593/9/4 595/9/4
f 595/9/4 593/9/4 597/9/4
f 596/9/4 597/9/4 598/9/4
f 598/9/4 597/9/4 599/9/4
f 599/9/4 597/9/4 600/9/4
f 597/9/4 593/9/4 601/9/4
f 600/9/4 597/9/4 601/9/4
f 601/9/4 593/9/4 603/9/4
f 602/9/4 603/9/4 604/9/4
f 603/9/4 593/9/4 605/9/4
f 604/9/4 603/9/4 605/9/4
f 606/18/4 607/18/4 608/18/4
f 608/18/4 607/18/4 609/18/4
f 609/4/4 610/4/4 612/4/4
f 612/4/4 610/4/4 613/4/4
f 611/18/4 612/18/4 614/18/4
f 614/18/4 612/18/4 615/18/4
f 616/1/4 617/1/4 618/1/4
f 618/1/4 617/1/4 619/1/4
f 620/18/4 621/18/4 622/18/4
f 622/18/4 621/18/4 623/18/4
f 623/18/4 621/18/4 624/18/4
f 622/4/4 623/4/4 625/4/4
f 625/4/4 623/4/4 626/4/4
f 625/18/4 626/18/4 628/18/4
f 626/18/4 627/18/4 628/18/4
f 628/18/4 627/18/4 629/18/4
f 630/18/4 631/18/4 632/18/4
f 632/18/4 631/18/4 633/18/4
f 634/18/4 635/18/4 636/18/4
f 636/18/4 635/18/4 637/18/4
f 638/24/4 639/24/4 640/24/4
f 640/24/4 639/24/4 641/24/4
f 641/24/4 642/24/4 644/24/4
f 644/24/4 642/24/4 645/24/4
f 643/24/4 644/24/4 646/24/4
f 646/24/4 644/24/4 647/24/4
f 648/18/4 649/18/4 650/18/4
f 650/18/4 649/18/4 651/18/4
f 651/18/4 649/18/4 653/18/4
f 652/18/4 653/18/4 656/18/4
f 653/18/4 649/18/4 657/18/4
f 656/18/4 653/18/4 657/18/4
f 654/24/4 655/24/4 658/24/4
f 658/24/4 655/24/4 659/24/4
f 660/24/4 661/24/4 662/24/4
f 662/24/4 661/24/4 663/24/4
f 666/24/4 667/24/4 668/24/4
f 668/24/4 667/24/4 669/24/4
f 664/12/4 665/12/4 670/12/4
f 670/12/4 665/12/4 671/12/4
f 672/14/4 673/14/4 674/14/4
f 674/14/4 673/14/4 675/14/4
f 676/24/4 677/24/4 678/24/4
f 678/24/4 677/24/4 679/24/4
f 680/24/4 681/24/4 682/24/4
f 682/24/4 681/24/4 683/24/4
f 684/24/4 685/24/4 686/24/4
f 686/24/4 685/24/4 687/24/4
f 688/24/4 689/24/4 690/24/4
f 690/24/4 689/24/4 691/24/4
f 694/1/4 695/1/4 696/1/4
f 696/1/4 695/1/4 697/1/4
f 692/24/4 693/24/4 698/24/4
f 698/24/4 693/24/4 699/24/4
f 700/24/4 701/24/4 702/24/4
f 702/24/4 701/24/4 703/24/4
f 704/24/4 705/24/4 706/24/4
f 706/24/4 705/24/4 707/24/4
f 707/24/4 708/24/4 709/24/4
f 711/1/4 712/1/4 713/1/4
f 713/1/4 712/1/4 714/1/4
f 707/24/4 709/24/4 715/24/4
f 709/24/4 710/24/4 715/24/4
f 715/24/4 710/24/4 716/24/4
f 707/24/4 715/24/4 718/24/4
f 718/24/4 715/24/4 719/24/4
f 717/24/4 718/24/4 720/24/4
f 720/24/4 718/24/4 721/24/4
f 722/24/4 723/24/4 724/24/4
f 724/24/4 723/24/4 725/24/4
f 726/24/4 727/24/4 728/24/4
f 728/24/4 727/24/4 729/24/4
f 729/24/4 730/24/4 731/24/4
f 729/24/4 731/24/4 733/24/4
f 731/24/4 732/24/4 733/24/4
f 733/24/4 732/24/4 734/24/4
f 729/24/4 733/24/4 736/24/4
f 736/24/4 733/24/4 737/24/4
f 735/24/4 736/24/4 740/24/4
f 740/24/4 736/24/4 741/24/4
f 738/24/4 739/24/4 742/24/4
f 742/24/4 739/24/4 743/24/4
f 744/24/4 745/24/4 746/24/4
f 746/24/4 745/24/4 747/24/4
f 747/24/4 748/24/4 749/24/4
f 749/24/4 748/24/4 750/24/4
f 750/24/4 748/24/4 751/24/4
f 751/24/4 752/24/4 754/24/4
f 750/24/4 751/24/4 754/24/4
f 754/24/4 752/24/4 755/24/4
f 755/24/4 752/24/4 756/24/4
f 753/24/4 754/24/4 758/24/4
f 754/24/4 755/24/4 758/24/4
f 758/24/4 755/24/4 759/24/4
f 757/24/4 758/24/4 760/24/4
f 760/24/4 758/24/4 761/24/4
f 762/24/4 763/24/4 764/24/4
f 766/18/4 767/18/4 770/18/4
f 767/3/4 768/3/4 770/3/4
f 768/18/4 769/18/4 771/18/4
f 770/3/4 768/3/4 771/3/4
f 766/18/4 770/18/4 772/18/4
f 770/18/4 771/18/4 772/18/4
f 771/18/4 769/18/4 773/18/4
f 772/18/4 771/18/4 773/18/4
f 762/24/4 764/24/4 774/24/4
f 764/24/4 765/24/4 774/24/4
f 774/24/4 765/24/4 775/24/4
f 762/24/4 774/24/4 776/24/4
f 776/24/4 774/24/4 777/24/4
f 778/18/4 779/18/4 780/18/4
f 780/18/4 779/18/4 781/18/4
f 782/18/4 783/18/4 784/18/4
f 784/18/4 783/18/4 785/18/4
f 782/18/4 784/18/4 786/18/4
f 785/18/4 783/18/4 787/18/4
f 782/18/4 786/18/4 788/18/4
f 786/18/4 787/18/4 788/18/4
f 788/18/4 787/18/4 789/18/4
f 789/18/4 787/18/4 791/18/4
f 790/18/4 791/18/4 792/18/4
f 787/18/4 783/18/4 793/18/4
f 792/18/4 791/18/4 793/18/4
f 791/18/4 787/18/4 793/18/4
f 796/9/5 795/9/5 794/9/5
f 797/9/5 795/9/5 796/9/5
f 798/4/5 797/4/5 796/4/5
f 799/4/5 797/4/5 798/4/5
f 800/4/5 798/4/5 796/4/5
f 800/5/5 799/5/5 798/5/5
f 801/4/5 797/4/5 799/4/5
f 801/5/5 799/5/5 800/5/5
f 802/9/5 796/9/5 794/9/5
f 803/4/5 800/4/5 796/4/5
f 803/9/5 796/9/5 802/9/5
f 803/4/5 801/4/5 800/4/5
f 804/4/5 797/4/5 801/4/5
f 804/4/5 801/4/5 803/4/5
f 804/9/5 795/9/5 797/9/5
f 805/9/5 795/9/5 804/9/5
f 806/18/5 803/18/5 802/18/5
f 806/18/5 804/18/5 803/18/5
f 806/18/5 805/18/5 804/18/5
f 807/18/5 805/18/5 806/18/5
f 808/18/5 806/18/5 802/18/5
f 809/18/5 806/18/5 808/18/5
f 810/18/5 805/18/5 807/18/5
f 811/18/5 805/18/5 810/18/5
f 816/18/5 813/18/5 812/18/5
f 817/18/5 813/18/5 816/18/5
f 818/18/5 815/18/5 814/18/5
f 819/18/5 815/18/5 818/18/5
f 823/18/5 821/18/5 820/18/5
f 824/18/5 821/18/5 823/18/5
f 826/18/5 823/18/5 822/18/5
f 826/18/5 825/18/5 824/18/5
f 826/18/5 824/18/5 823/18/5
f 827/18/5 825/18/5 826/18/5
f 828/18/5 825/18/5 827/18/5
f 829/18/5 825/18/5 828/18/5
f 830/18/5 828/18/5 827/18/5
f 831/18/5 828/18/5 830/18/5
f 834/14/5 833/14/5 832/14/5
f 835/14/5 833/14/5 834/14/5
f 838/18/5 837/18/5 836/18/5
f 839/18/5 837/18/5 838/18/5
f 842/9/5 841/9/5 840/9/5
f 843/9/5 841/9/5 842/9/5
f 844/18/5 843/18/5 842/18/5
f 845/18/5 843/18/5 844/18/5
f 848/1/5 847/1/5 846/1/5
f 849/1/5 847/1/5 848/1/5
f 852/1/5 851/1/5 850/1/5
f 853/1/5 851/1/5 852/1/5
f 854/1/5 852/1/5 850/1/5
f 855/1/5 851/1/5 853/1/5
f 856/1/5 854/1/5 850/1/5
f 856/1/5 855/1/5 854/1/5
f 857/1/5 851/1/5 855/1/5
f 857/1/5 855/1/5 856/1/5
f 860/9/5 859/9/5 858/9/5
f 861/9/5 859/9/5 860/9/5
f 862/9/5 860/9/5 858/9/5
f 863/9/5 859/9/5 861/9/5
f 864/9/5 862/9/5 858/9/5
f 864/9/5 863/9/5 862/9/5
f 865/9/5 859/9/5 863/9/5
f 865/9/5 863/9/5 864/9/5
f 866/4/6 867/4/6 871/4/6
f 871/4/6 867/4/6 872/4/6
f 870/4/6 871/4/6 872/4/6
f 868/4/6 869/4/6 873/4/6
f 873/4/6 869/4/6 874/4/6
f 870/4/6 872/4/6 875/4/6
f 875/4/6 872/4/6 876/4/6
f 876/4/6 872/4/6 880/4/6
f 878/4/6 879/4/6 881/4/6
f 879/4/6 880/4/6 881/4/6
f 877/4/6 878/4/6 881/4/6
f 881/4/6 880/4/6 882/4/6
f 882/4/6 880/4/6 883/4/6
f 880/4/6 872/4/6 884/4/6
f 883/4/6 880/4/6 884/4/6
f 882/4/6 883/4/6 886/4/6
f 886/4/6 883/4/6 887/4/6
f 884/4/6 872/4/6 888/4/6
f 886/4/6 887/4/6 889/4/6
f 887/4/6 888/4/6 889/4/6
f 885/4/6 886/4/6 889/4/6
f 889/4/6 888/4/6 890/4/6
f 890/4/6 888/4/6 891/4/6
f 888/4/6 872/4/6 892/4/6
f 891/4/6 888/4/6 892/4/6
f 890/4/6 891/4/6 894/4/6
f 894/4/6 891/4/6 895/4/6
f 892/4/6 872/4/6 896/4/6
f 896/4/6 872/4/6 897/4/6
f 896/4/6 897/4/6 899/4/6
f 897/4/6 898/4/6 899/4/6
f 895/4/6 896/4/6 899/4/6
f 894/4/6 895/4/6 899/4/6
f 893/4/6 894/4/6 899/4/6
f 899/4/6 898/4/6 900/4/6
f 893/4/6 899/4/6 901/4/6
f 901/4/6 899/4/6 902/4/6
f 893/4/6 901/4/6 903/4/6
f 901/5/6 902/5/6 904/5/6
f 903/4/6 901/4/6 904/4/6
f 904/5/6 902/5/6 905/5/6
f 906/18/6 907/18/6 908/18/6
f 908/18/6 907/18/6 909/18/6
f 910/15/6 911/15/6 916/15/6
f 916/15/6 911/15/6 917/15/6
f 912/15/6 913/15/6 918/15/6
f 918/15/6 913/15/6 919/15/6
f 914/4/6 915/4/6 920/4/6
f 920/4/6 915/4/6 921/4/6
f 916/12/6 917/12/6 922/12/6
f 917/12/6 918/12/6 922/12/6
f 918/12/6 919/12/6 922/12/6
f 922/12/6 919/12/6 923/12/6
f 924/18/6 925/18/6 930/18/6
f 925/4/6 926/4/6 930/4/6
f 926/18/6 927/18/6 931/18/6
f 930/4/6 926/4/6 931/4/6
f 928/1/6 929/1/6 932/1/6
f 932/1/6 929/1/6 933/1/6
f 924/18/6 930/18/6 934/18/6
f 934/18/6 930/18/6 935/18/6
f 931/18/6 927/18/6 936/18/6
f 936/18/6 927/18/6 937/18/6
f 938/18/6 939/18/6 940/18/6
f 940/18/6 939/18/6 941/18/6
f 942/9/6 943/9/6 944/9/6
f 944/9/6 943/9/6 945/9/6
f 944/18/6 945/18/6 946/18/6
f 946/18/6 945/18/6 947/18/6
f 948/14/6 949/14/6 950/14/6
f 950/14/6 949/14/6 951/14/6
f 952/18/6 953/18/6 954/18/6
f 954/18/6 953/18/6 955/18/6
f 956/9/6 957/9/6 960/9/6
f 960/9/6 957/9/6 961/9/6
f 958/9/6 959/9/6 962/9/6
f 962/9/6 959/9/6 963/9/6
f 964/9/6 965/9/6 968/9/6
f 968/9/6 965/9/6 969/9/6
f 966/9/6 967/9/6 970/9/6
f 970/9/6 967/9/6 971/9/6
f 968/18/6 969/18/6 972/18/6
f 969/18/6 970/18/6 972/18/6
f 970/18/6 971/18/6 972/18/6
f 972/18/6 971/18/6 973/18/6
f 974/24/6 975/24/6 979/24/6
f 979/24/6 975/24/6 980/24/6
f 976/24/6 977/24/6 981/24/6
f 981/24/6 977/24/6 982/24/6
f 978/24/6 979/24/6 984/24/6
f 984/24/6 979/24/6 985/24/6
f 982/24/6 983/24/6 986/24/6
f 986/24/6 983/24/6 987/24/6
f 988/24/6 989/24/6 992/24/6
f 992/24/6 989/24/6 993/24/6
f 990/24/6 991/24/6 996/24/6
f 996/24/6 991/24/6 997/24/6
f 993/24/6 994/24/6 998/24/6
f 998/24/6 994/24/6 999/24/6
f 995/24/6 996/24/6 1000/24/6
f 1000/24/6 996/24/6 1001/24/6
f 1002/24/6 1003/24/6 1004/24/6
f 1004/24/6 1003/24/6 1005/24/6
f 1006/24/6 1007/24/6 1010/24/6
f 1010/24/6 1007/24/6 1011/24/6
f 1008/24/6 1009/24/6 1012/24/6
f 1012/24/6 1009/24/6 1013/24/6
f 1014/24/6 1015/24/6 1016/24/6
f 1016/24/6 1015/24/6 1017/24/6
f 1018/24/6 1019/24/6 1022/24/6
f 1022/24/6 1019/24/6 1023/24/6
f 1020/24/6 1021/24/6 1024/24/6
f 1024/24/6 1021/24/6 1025/24/6
f 1026/24/6 1027/24/6 1030/24/6
f 1030/24/6 1027/24/6 1031/24/6
f 1028/24/6 1029/24/6 1032/24/6
f 1032/24/6 1029/24/6 1033/24/6
f 1034/24/6 1035/24/6 1037/24/6
f 1037/24/6 1035/24/6 1038/24/6
f 1036/24/6 1037/24/6 1040/24/6
f 1040/24/6 1037/24/6 1041/24/6
f 1038/24/6 1039/24/6 1042/24/6
f 1042/24/6 1039/24/6 1043/24/6
f 1041/24/6 1042/24/6 1044/24/6
f 1044/24/6 1042/24/6 1045/24/6
f 1046/24/6 1047/24/6 1050/24/6
f 1050/24/6 1047/24/6 1051/24/6
f 1048/24/6 1049/24/6 1052/24/6
f 1052/24/6 1049/24/6 1053/24/6
f 1054/24/6 1055/24/6 1058/24/6
f 1058/24/6 1055/24/6 1059/24/6
f 1056/24/6 1057/24/6 1060/24/6
f 1060/24/6 1057/24/6 1061/24/6
f 1062/24/6 1063/24/6 1065/24/6
f 1065/24/6 1063/24/6 1066/24/6
f 1064/24/6 1065/24/6 1068/24/6
f 1068/24/6 1065/24/6 1069/24/6
f 1066/24/6 1067/24/6 1070/24/6
f 1070/24/6 1067/24/6 1071/24/6
f 1069/24/6 1070/24/6 1072/24/6
f 1072/24/6 1070/24/6 1073/24/6
f 1074/24/6 1075/24/6 1078/24/6
f 1078/24/6 1075/24/6 1079/24/6
f 1076/24/6 1077/24/6 1080/24/6
f 1080/24/6 1077/24/6 1081/24/6
f 1082/24/6 1083/24/6 1086/24/6
f 1086/24/6 1083/24/6 1087/24/6
f 1084/24/6 1085/24/6 1088/24/6
f 1088/24/6 1085/24/6 1089/24/6
f 1090/24/6 1091/24/6 1093/24/6
f 1093/24/6 1091/24/6 1094/24/6
f 1094/24/6 1091/24/6 1095/24/6
f 1095/24/6 1091/24/6 1096/24/6
f 1092/24/6 1093/24/6 1098/24/6
f 1093/24/6 1094/24/6 1098/24/6
f 1098/24/6 1094/24/6 1099/24/6
f 1096/24/6 1097/24/6 1100/24/6
f 1095/24/6 1096/24/6 1100/24/6
f 1100/24/6 1097/24/6 1101/24/6
f 1092/24/6 1098/24/6 1102/24/6
f 1101/24/6 1097/24/6 1105/24/6
f 1102/24/6 1103/24/6 1106/24/6
f 1092/24/6 1102/24/6 1106/24/6
f 1106/24/6 1103/24/6 1107/24/6
f 1107/24/6 1103/24/6 1108/24/6
f 1104/24/6 1105/24/6 1109/24/6
f 1105/24/6 1097/24/6 1110/24/6
f 1109/24/6 1105/24/6 1110/24/6
f 1110/24/6 1097/24/6 1111/24/6
f 1107/24/6 1108/24/6 1112/24/6
f 1108/24/6 1109/24/6 1112/24/6
f 1109/24/6 1110/24/6 1112/24/6
f 1112/24/6 1110/24/6 1113/24/6
f 1114/24/6 1115/24/6 1117/24/6
f 1117/24/6 1115/24/6 1118/24/6
f 1118/24/6 1115/24/6 1119/24/6
f 1119/24/6 1115/24/6 1120/24/6
f 1116/24/6 1117/24/6 1122/24/6
f 1117/24/6 1118/24/6 1122/24/6
f 1122/24/6 1118/24/6 1123/24/6
f 1120/24/6 1121/24/6 1124/24/6
f 1119/24/6 1120/24/6 1124/24/6
f 1124/24/6 1121/24/6 1125/24/6
f 1116/24/6 1122/24/6 1126/24/6
f 1125/24/6 1121/24/6 1129/24/6
f 1126/24/6 1127/24/6 1130/24/6
f 1116/24/6 1126/24/6 1130/24/6
f 1130/24/6 1127/24/6 1131/24/6
f 1131/24/6 1127/24/6 1132/24/6
f 1128/24/6 1129/24/6 1133/24/6
f 1129/24/6 1121/24/6 1134/24/6
f 1133/24/6 1129/24/6 1134/24/6
f 1134/24/6 1121/24/6 1135/24/6
f 1131/24/6 1132/24/6 1136/24/6
f 1132/24/6 1133/24/6 1136/24/6
f 1133/24/6 1134/24/6 1136/24/6
f 1136/24/6 1134/24/6 1137/24/6
f 1138/24/6 1139/24/6 1141/24/6
f 1141/24/6 1139/24/6 1142/24/6
f 1142/24/6 1139/24/6 1143/24/6
f 1143/24/6 1139/24/6 1144/24/6
f 1140/24/6 1141/24/6 1146/24/6
f 1141/24/6 1142/24/6 1146/24/6
f 1146/24/6 1142/24/6 1147/24/6
f 1144/24/6 1145/24/6 1148/24/6
f 1143/24/6 1144/24/6 1148/24/6
f 1148/24/6 1145/24/6 1149/24/6
f 1140/24/6 1146/24/6 1150/24/6
f 1149/24/6 1145/24/6 1153/24/6
f 1150/24/6 1151/24/6 1154/24/6
f 1140/24/6 1150/24/6 1154/24/6
f 1154/24/6 1151/24/6 1155/24/6
f 1155/24/6 1151/24/6 1156/24/6
f 1152/24/6 1153/24/6 1157/24/6
f 1153/24/6 1145/24/6 1158/24/6
f 1157/24/6 1153/24/6 1158/24/6
f 1158/24/6 1145/24/6 1159/24/6
f 1155/24/6 1156/24/6 1160/24/6
f 1156/24/6 1157/24/6 1160/24/6
f 1157/24/6 1158/24/6 1160/24/6
f 1160/24/6 1158/24/6 1161/24/6
f 1162/24/6 1163/24/6 1165/24/6
f 1165/24/6 1163/24/6 1166/24/6
f 1164/24/6 1165/24/6 1168/24/6
f 1168/24/6 1165/24/6 1169/24/6
f 1166/24/6 1167/24/6 1170/24/6
f 1170/24/6 1167/24/6 1171/24/6
f 1169/24/6 1170/24/6 1172/24/6
f 1172/24/6 1170/24/6 1173/24/6
f 1174/24/6 1175/24/6 1176/24/6
f 1176/24/6 1175/24/6 1177/24/6
