# MagicaVoxel @ Ephtracy

# group
o 

# material
mtllib jug.mtl
usemtl palette

# normals
vn -1 0 0
vn 1 0 0
vn 0 0 1
vn 0 0 -1
vn 0 -1 0
vn 0 1 0

# texcoords
vt 0.634766 0.5
vt 0.681641 0.5
vt 0.958984 0.5

# verts
v -0.6 0.4 0.6
v -0.6 0.4 0.4
v -0.6 0.4 0.3
v -0.6 0.4 -5.96046e-08
v -0.6 0.4 -0.1
v -0.6 0.4 -0.4
v -0.6 0.4 -0.5
v -0.6 0.4 -0.6
v -0.6 0.5 0.5
v -0.6 0.5 0.4
v -0.6 0.5 0.3
v -0.6 0.5 0.2
v -0.6 0.5 0.0999999
v -0.6 0.5 -5.96046e-08
v -0.6 0.5 -0.1
v -0.6 0.5 -0.2
v -0.6 0.5 -0.3
v -0.6 0.5 -0.4
v -0.6 0.5 -0.5
v -0.6 0.5 -0.6
v -0.6 0.6 0.6
v -0.6 0.6 0.5
v -0.6 0.6 0.4
v -0.6 0.6 0.3
v -0.6 0.6 0.2
v -0.6 0.6 0.0999999
v -0.6 0.6 -5.96046e-08
v -0.6 0.6 -0.1
v -0.6 0.6 -0.2
v -0.6 0.6 -0.3
v -0.6 0.6 -0.4
v -0.6 0.6 -0.5
v -0.6 0.6 -0.6
v -0.6 0.7 0.6
v -0.6 0.7 0.5
v -0.6 0.7 0.2
v -0.6 0.7 0.0999999
v -0.6 0.7 -0.2
v -0.6 0.7 -0.3
v -0.6 0.7 -0.6
v -0.5 0.2 0.5
v -0.5 0.2 -0.5
v -0.5 0.3 0.5
v -0.5 0.3 -0.5
v -0.5 0.4 0.5
v -0.5 0.4 0.4
v -0.5 0.4 0.3
v -0.5 0.4 -5.96046e-08
v -0.5 0.4 -0.1
v -0.5 0.4 -0.4
v -0.5 0.4 -0.5
v -0.5 0.7 0.5
v -0.5 0.7 0.2
v -0.5 0.7 0.0999999
v -0.5 0.7 -0.2
v -0.5 0.7 -0.3
v -0.5 0.7 -0.5
v -0.5 0.9 0.5
v -0.5 0.9 -0.5
v -0.4 0 0.4
v -0.4 0 -0.4
v -0.4 0.1 0.4
v -0.4 0.1 -0.4
v -0.4 0.2 0.4
v -0.4 0.2 -0.4
v -0.4 0.9 0.4
v -0.4 0.9 -0.4
v -0.4 1.1 0.4
v -0.4 1.1 -0.4
v -0.3 1.1 0.3
v -0.3 1.1 -0.3
v -0.3 1.3 0.3
v -0.3 1.3 -0.3
v -0.3 1.9 0.3
v -0.3 1.9 -0.3
v -0.3 2.1 0.3
v -0.3 2.1 -0.3
v -0.2 1.3 0.2
v -0.2 1.3 -0.2
v -0.2 1.9 0.2
v -0.2 1.9 -0.2
v 0.2 1.3 0.2
v 0.2 1.3 -0.2
v 0.2 1.9 0.2
v 0.2 1.9 -0.2
v 0.3 1.1 0.3
v 0.3 1.1 -0.3
v 0.3 1.3 0.3
v 0.3 1.3 -0.3
v 0.3 1.9 0.3
v 0.3 1.9 -0.3
v 0.3 2.1 0.3
v 0.3 2.1 -0.3
v 0.4 0 0.4
v 0.4 0 -0.4
v 0.4 0.1 0.4
v 0.4 0.1 -0.4
v 0.4 0.2 0.4
v 0.4 0.2 -0.4
v 0.4 0.9 0.4
v 0.4 0.9 -0.4
v 0.4 1.1 0.4
v 0.4 1.1 -0.4
v 0.5 0.2 0.5
v 0.5 0.2 -0.5
v 0.5 0.3 0.5
v 0.5 0.3 -0.5
v 0.5 0.4 0.5
v 0.5 0.4 0.4
v 0.5 0.4 0.0999999
v 0.5 0.4 -5.96046e-08
v 0.5 0.4 -0.3
v 0.5 0.4 -0.4
v 0.5 0.4 -0.5
v 0.5 0.7 0.5
v 0.5 0.7 0.3
v 0.5 0.7 0.2
v 0.5 0.7 -0.1
v 0.5 0.7 -0.2
v 0.5 0.7 -0.5
v 0.5 0.9 0.5
v 0.5 0.9 -0.5
v 0.6 0.4 0.6
v 0.6 0.4 0.5
v 0.6 0.4 0.4
v 0.6 0.4 0.0999999
v 0.6 0.4 -5.96046e-08
v 0.6 0.4 -0.3
v 0.6 0.4 -0.4
v 0.6 0.4 -0.6
v 0.6 0.5 0.6
v 0.6 0.5 0.5
v 0.6 0.5 0.4
v 0.6 0.5 0.3
v 0.6 0.5 0.2
v 0.6 0.5 0.0999999
v 0.6 0.5 -5.96046e-08
v 0.6 0.5 -0.1
v 0.6 0.5 -0.2
v 0.6 0.5 -0.3
v 0.6 0.5 -0.4
v 0.6 0.5 -0.5
v 0.6 0.6 0.6
v 0.6 0.6 0.5
v 0.6 0.6 0.4
v 0.6 0.6 0.3
v 0.6 0.6 0.2
v 0.6 0.6 0.0999999
v 0.6 0.6 -5.96046e-08
v 0.6 0.6 -0.1
v 0.6 0.6 -0.2
v 0.6 0.6 -0.3
v 0.6 0.6 -0.4
v 0.6 0.6 -0.5
v 0.6 0.6 -0.6
v 0.6 0.7 0.6
v 0.6 0.7 0.3
v 0.6 0.7 0.2
v 0.6 0.7 -0.1
v 0.6 0.7 -0.2
v 0.6 0.7 -0.5
v 0.6 0.7 -0.6
v -0.6 0.4 0.6
v -0.6 0.6 0.6
v -0.6 0.7 0.6
v -0.5 0.5 0.6
v -0.5 0.6 0.6
v -0.5 0.7 0.6
v -0.4 0.4 0.6
v -0.4 0.5 0.6
v -0.4 0.6 0.6
v -0.3 0.4 0.6
v -0.3 0.5 0.6
v -0.3 0.6 0.6
v -0.2 0.5 0.6
v -0.2 0.6 0.6
v -0.2 0.7 0.6
v -0.0999999 0.5 0.6
v -0.0999999 0.6 0.6
v -0.0999999 0.7 0.6
v 5.96046e-08 0.4 0.6
v 5.96046e-08 0.5 0.6
v 5.96046e-08 0.6 0.6
v 0.1 0.4 0.6
v 0.1 0.5 0.6
v 0.1 0.6 0.6
v 0.2 0.5 0.6
v 0.2 0.6 0.6
v 0.2 0.7 0.6
v 0.3 0.5 0.6
v 0.3 0.6 0.6
v 0.3 0.7 0.6
v 0.4 0.4 0.6
v 0.4 0.5 0.6
v 0.4 0.6 0.6
v 0.5 0.4 0.6
v 0.5 0.5 0.6
v 0.5 0.6 0.6
v 0.6 0.4 0.6
v 0.6 0.5 0.6
v 0.6 0.6 0.6
v 0.6 0.7 0.6
v -0.5 0.2 0.5
v -0.5 0.3 0.5
v -0.5 0.4 0.5
v -0.5 0.7 0.5
v -0.5 0.9 0.5
v -0.4 0.4 0.5
v -0.3 0.4 0.5
v -0.2 0.7 0.5
v -0.0999999 0.7 0.5
v 5.96046e-08 0.4 0.5
v 0.1 0.4 0.5
v 0.2 0.7 0.5
v 0.3 0.7 0.5
v 0.4 0.4 0.5
v 0.5 0.2 0.5
v 0.5 0.3 0.5
v 0.5 0.4 0.5
v 0.5 0.7 0.5
v 0.5 0.9 0.5
v -0.4 0 0.4
v -0.4 0.1 0.4
v -0.4 0.2 0.4
v -0.4 0.9 0.4
v -0.4 1.1 0.4
v 0.4 0 0.4
v 0.4 0.1 0.4
v 0.4 0.2 0.4
v 0.4 0.9 0.4
v 0.4 1.1 0.4
v -0.3 1.1 0.3
v -0.3 1.3 0.3
v -0.3 1.9 0.3
v -0.3 2.1 0.3
v 0.3 1.1 0.3
v 0.3 1.3 0.3
v 0.3 1.9 0.3
v 0.3 2.1 0.3
v -0.2 1.3 0.2
v -0.2 1.9 0.2
v 0.2 1.3 0.2
v 0.2 1.9 0.2
v -0.2 1.3 -0.2
v -0.2 1.9 -0.2
v 0.2 1.3 -0.2
v 0.2 1.9 -0.2
v -0.3 1.1 -0.3
v -0.3 1.3 -0.3
v -0.3 1.9 -0.3
v -0.3 2.1 -0.3
v 0.3 1.1 -0.3
v 0.3 1.3 -0.3
v 0.3 1.9 -0.3
v 0.3 2.1 -0.3
v -0.4 0 -0.4
v -0.4 0.1 -0.4
v -0.4 0.2 -0.4
v -0.4 0.9 -0.4
v -0.4 1.1 -0.4
v 0.4 0 -0.4
v 0.4 0.1 -0.4
v 0.4 0.2 -0.4
v 0.4 0.9 -0.4
v 0.4 1.1 -0.4
v -0.5 0.2 -0.5
v -0.5 0.3 -0.5
v -0.5 0.4 -0.5
v -0.5 0.7 -0.5
v -0.5 0.9 -0.5
v -0.4 0.4 -0.5
v -0.3 0.7 -0.5
v -0.2 0.7 -0.5
v -0.0999999 0.4 -0.5
v 5.96046e-08 0.4 -0.5
v 0.1 0.7 -0.5
v 0.2 0.7 -0.5
v 0.3 0.4 -0.5
v 0.4 0.4 -0.5
v 0.5 0.2 -0.5
v 0.5 0.3 -0.5
v 0.5 0.4 -0.5
v 0.5 0.7 -0.5
v 0.5 0.9 -0.5
v -0.6 0.4 -0.6
v -0.6 0.5 -0.6
v -0.6 0.6 -0.6
v -0.6 0.7 -0.6
v -0.5 0.4 -0.6
v -0.5 0.5 -0.6
v -0.5 0.6 -0.6
v -0.4 0.4 -0.6
v -0.4 0.5 -0.6
v -0.4 0.6 -0.6
v -0.3 0.5 -0.6
v -0.3 0.6 -0.6
v -0.3 0.7 -0.6
v -0.2 0.5 -0.6
v -0.2 0.6 -0.6
v -0.2 0.7 -0.6
v -0.0999999 0.4 -0.6
v -0.0999999 0.5 -0.6
v -0.0999999 0.6 -0.6
v 5.96046e-08 0.4 -0.6
v 5.96046e-08 0.5 -0.6
v 5.96046e-08 0.6 -0.6
v 0.1 0.5 -0.6
v 0.1 0.6 -0.6
v 0.1 0.7 -0.6
v 0.2 0.5 -0.6
v 0.2 0.6 -0.6
v 0.2 0.7 -0.6
v 0.3 0.4 -0.6
v 0.3 0.5 -0.6
v 0.3 0.6 -0.6
v 0.4 0.4 -0.6
v 0.4 0.5 -0.6
v 0.4 0.6 -0.6
v 0.5 0.5 -0.6
v 0.5 0.6 -0.6
v 0.5 0.7 -0.6
v 0.6 0.4 -0.6
v 0.6 0.6 -0.6
v 0.6 0.7 -0.6
v -0.4 0 0.4
v 0.4 0 0.4
v -0.4 0 -0.4
v 0.4 0 -0.4
v -0.5 0.2 0.5
v 0.5 0.2 0.5
v -0.4 0.2 0.4
v 0.4 0.2 0.4
v -0.4 0.2 -0.4
v 0.4 0.2 -0.4
v -0.5 0.2 -0.5
v 0.5 0.2 -0.5
v -0.6 0.4 0.6
v -0.4 0.4 0.6
v -0.3 0.4 0.6
v 5.96046e-08 0.4 0.6
v 0.1 0.4 0.6
v 0.4 0.4 0.6
v 0.5 0.4 0.6
v 0.6 0.4 0.6
v -0.5 0.4 0.5
v -0.4 0.4 0.5
v -0.3 0.4 0.5
v 5.96046e-08 0.4 0.5
v 0.1 0.4 0.5
v 0.4 0.4 0.5
v 0.5 0.4 0.5
v 0.6 0.4 0.5
v -0.6 0.4 0.4
v -0.5 0.4 0.4
v 0.5 0.4 0.4
v 0.6 0.4 0.4
v -0.6 0.4 0.3
v -0.5 0.4 0.3
v 0.5 0.4 0.0999999
v 0.6 0.4 0.0999999
v -0.6 0.4 -5.96046e-08
v -0.5 0.4 -5.96046e-08
v 0.5 0.4 -5.96046e-08
v 0.6 0.4 -5.96046e-08
v -0.6 0.4 -0.1
v -0.5 0.4 -0.1
v 0.5 0.4 -0.3
v 0.6 0.4 -0.3
v -0.6 0.4 -0.4
v -0.5 0.4 -0.4
v 0.5 0.4 -0.4
v 0.6 0.4 -0.4
v -0.6 0.4 -0.5
v -0.5 0.4 -0.5
v -0.4 0.4 -0.5
v -0.0999999 0.4 -0.5
v 5.96046e-08 0.4 -0.5
v 0.3 0.4 -0.5
v 0.4 0.4 -0.5
v 0.5 0.4 -0.5
v -0.6 0.4 -0.6
v -0.5 0.4 -0.6
v -0.4 0.4 -0.6
v -0.0999999 0.4 -0.6
v 5.96046e-08 0.4 -0.6
v 0.3 0.4 -0.6
v 0.4 0.4 -0.6
v 0.6 0.4 -0.6
v -0.3 1.9 0.3
v 0.3 1.9 0.3
v -0.2 1.9 0.2
v 0.2 1.9 0.2
v -0.2 1.9 -0.2
v 0.2 1.9 -0.2
v -0.3 1.9 -0.3
v 0.3 1.9 -0.3
v -0.6 0.7 0.6
v -0.5 0.7 0.6
v -0.2 0.7 0.6
v -0.0999999 0.7 0.6
v 0.2 0.7 0.6
v 0.3 0.7 0.6
v 0.6 0.7 0.6
v -0.6 0.7 0.5
v -0.5 0.7 0.5
v -0.2 0.7 0.5
v -0.0999999 0.7 0.5
v 0.2 0.7 0.5
v 0.3 0.7 0.5
v 0.5 0.7 0.5
v 0.5 0.7 0.3
v 0.6 0.7 0.3
v -0.6 0.7 0.2
v -0.5 0.7 0.2
v 0.5 0.7 0.2
v 0.6 0.7 0.2
v -0.6 0.7 0.0999999
v -0.5 0.7 0.0999999
v 0.5 0.7 -0.1
v 0.6 0.7 -0.1
v -0.6 0.7 -0.2
v -0.5 0.7 -0.2
v 0.5 0.7 -0.2
v 0.6 0.7 -0.2
v -0.6 0.7 -0.3
v -0.5 0.7 -0.3
v -0.5 0.7 -0.5
v -0.3 0.7 -0.5
v -0.2 0.7 -0.5
v 0.1 0.7 -0.5
v 0.2 0.7 -0.5
v 0.5 0.7 -0.5
v 0.6 0.7 -0.5
v -0.6 0.7 -0.6
v -0.3 0.7 -0.6
v -0.2 0.7 -0.6
v 0.1 0.7 -0.6
v 0.2 0.7 -0.6
v 0.5 0.7 -0.6
v 0.6 0.7 -0.6
v -0.5 0.9 0.5
v 0.5 0.9 0.5
v -0.4 0.9 0.4
v 0.4 0.9 0.4
v -0.4 0.9 -0.4
v 0.4 0.9 -0.4
v -0.5 0.9 -0.5
v 0.5 0.9 -0.5
v -0.4 1.1 0.4
v 0.4 1.1 0.4
v -0.3 1.1 0.3
v 0.3 1.1 0.3
v -0.3 1.1 -0.3
v 0.3 1.1 -0.3
v -0.4 1.1 -0.4
v 0.4 1.1 -0.4
v -0.3 1.3 0.3
v 0.3 1.3 0.3
v -0.2 1.3 0.2
v 0.2 1.3 0.2
v -0.2 1.3 -0.2
v 0.2 1.3 -0.2
v -0.3 1.3 -0.3
v 0.3 1.3 -0.3
v -0.3 2.1 0.3
v 0.3 2.1 0.3
v -0.2 2.1 0.2
v 0.2 2.1 0.2
v -0.2 2.1 -0.2
v 0.2 2.1 -0.2
v -0.3 2.1 -0.3
v 0.3 2.1 -0.3

# faces
f 9/1/1 2/1/1 1/1/1
f 10/3/1 3/3/1 2/3/1
f 10/1/1 2/1/1 9/1/1
f 11/1/1 4/1/1 3/1/1
f 11/3/1 3/3/1 10/3/1
f 12/1/1 4/1/1 11/1/1
f 13/1/1 4/1/1 12/1/1
f 14/3/1 5/3/1 4/3/1
f 14/1/1 4/1/1 13/1/1
f 15/1/1 6/1/1 5/1/1
f 15/3/1 5/3/1 14/3/1
f 16/1/1 6/1/1 15/1/1
f 17/1/1 6/1/1 16/1/1
f 18/3/1 7/3/1 6/3/1
f 18/1/1 6/1/1 17/1/1
f 19/1/1 8/1/1 7/1/1
f 19/3/1 7/3/1 18/3/1
f 20/1/1 8/1/1 19/1/1
f 21/1/1 9/1/1 1/1/1
f 22/3/1 10/3/1 9/3/1
f 22/1/1 9/1/1 21/1/1
f 23/1/1 11/1/1 10/1/1
f 23/3/1 10/3/1 22/3/1
f 24/3/1 12/3/1 11/3/1
f 24/1/1 11/1/1 23/1/1
f 25/1/1 13/1/1 12/1/1
f 25/3/1 12/3/1 24/3/1
f 26/3/1 14/3/1 13/3/1
f 26/1/1 13/1/1 25/1/1
f 27/1/1 15/1/1 14/1/1
f 27/3/1 14/3/1 26/3/1
f 28/3/1 16/3/1 15/3/1
f 28/1/1 15/1/1 27/1/1
f 29/1/1 17/1/1 16/1/1
f 29/3/1 16/3/1 28/3/1
f 30/3/1 18/3/1 17/3/1
f 30/1/1 17/1/1 29/1/1
f 31/1/1 19/1/1 18/1/1
f 31/3/1 18/3/1 30/3/1
f 32/3/1 20/3/1 19/3/1
f 32/1/1 19/1/1 31/1/1
f 33/3/1 20/3/1 32/3/1
f 34/3/1 22/3/1 21/3/1
f 35/1/1 24/1/1 23/1/1
f 35/3/1 22/3/1 34/3/1
f 35/1/1 25/1/1 24/1/1
f 35/1/1 23/1/1 22/1/1
f 36/3/1 26/3/1 25/3/1
f 36/1/1 25/1/1 35/1/1
f 37/1/1 29/1/1 28/1/1
f 37/3/1 26/3/1 36/3/1
f 37/1/1 28/1/1 27/1/1
f 37/1/1 27/1/1 26/1/1
f 38/3/1 30/3/1 29/3/1
f 38/1/1 29/1/1 37/1/1
f 39/1/1 33/1/1 32/1/1
f 39/3/1 30/3/1 38/3/1
f 39/1/1 31/1/1 30/1/1
f 39/1/1 32/1/1 31/1/1
f 40/1/1 33/1/1 39/1/1
f 43/1/1 42/1/1 41/1/1
f 44/1/1 42/1/1 43/1/1
f 45/2/1 44/2/1 43/2/1
f 46/2/1 44/2/1 45/2/1
f 47/2/1 44/2/1 46/2/1
f 48/2/1 44/2/1 47/2/1
f 49/2/1 44/2/1 48/2/1
f 50/2/1 44/2/1 49/2/1
f 51/2/1 44/2/1 50/2/1
f 58/1/1 53/1/1 52/1/1
f 58/1/1 57/1/1 56/1/1
f 58/1/1 56/1/1 55/1/1
f 58/1/1 55/1/1 54/1/1
f 58/1/1 54/1/1 53/1/1
f 59/1/1 57/1/1 58/1/1
f 62/1/1 61/1/1 60/1/1
f 63/1/1 61/1/1 62/1/1
f 64/2/1 63/2/1 62/2/1
f 65/2/1 63/2/1 64/2/1
f 68/1/1 67/1/1 66/1/1
f 69/1/1 67/1/1 68/1/1
f 72/1/1 71/1/1 70/1/1
f 73/1/1 71/1/1 72/1/1
f 76/2/1 75/2/1 74/2/1
f 77/2/1 75/2/1 76/2/1
f 80/1/1 79/1/1 78/1/1
f 81/1/1 79/1/1 80/1/1
f 82/1/2 83/1/2 84/1/2
f 84/1/2 83/1/2 85/1/2
f 86/1/2 87/1/2 88/1/2
f 88/1/2 87/1/2 89/1/2
f 90/2/2 91/2/2 92/2/2
f 92/2/2 91/2/2 93/2/2
f 94/1/2 95/1/2 96/1/2
f 96/1/2 95/1/2 97/1/2
f 96/2/2 97/2/2 98/2/2
f 98/2/2 97/2/2 99/2/2
f 100/1/2 101/1/2 102/1/2
f 102/1/2 101/1/2 103/1/2
f 104/1/2 105/1/2 106/1/2
f 106/1/2 105/1/2 107/1/2
f 106/2/2 107/2/2 108/2/2
f 108/2/2 107/2/2 109/2/2
f 109/2/2 107/2/2 110/2/2
f 110/2/2 107/2/2 111/2/2
f 111/2/2 107/2/2 112/2/2
f 112/2/2 107/2/2 113/2/2
f 113/2/2 107/2/2 114/2/2
f 115/1/2 116/1/2 121/1/2
f 119/1/2 120/1/2 121/1/2
f 118/1/2 119/1/2 121/1/2
f 117/1/2 118/1/2 121/1/2
f 116/1/2 117/1/2 121/1/2
f 121/1/2 120/1/2 122/1/2
f 123/1/2 124/1/2 131/1/2
f 124/3/2 125/3/2 132/3/2
f 131/1/2 124/1/2 132/1/2
f 125/1/2 126/1/2 133/1/2
f 132/3/2 125/3/2 133/3/2
f 133/1/2 126/1/2 134/1/2
f 134/1/2 126/1/2 135/1/2
f 126/3/2 127/3/2 136/3/2
f 135/1/2 126/1/2 136/1/2
f 127/1/2 128/1/2 137/1/2
f 136/3/2 127/3/2 137/3/2
f 137/1/2 128/1/2 138/1/2
f 138/1/2 128/1/2 139/1/2
f 128/3/2 129/3/2 140/3/2
f 139/1/2 128/1/2 140/1/2
f 129/1/2 130/1/2 141/1/2
f 140/3/2 129/3/2 141/3/2
f 141/1/2 130/1/2 142/1/2
f 131/3/2 132/3/2 143/3/2
f 132/1/2 133/1/2 144/1/2
f 143/3/2 132/3/2 144/3/2
f 133/3/2 134/3/2 145/3/2
f 144/1/2 133/1/2 145/1/2
f 134/1/2 135/1/2 146/1/2
f 145/3/2 134/3/2 146/3/2
f 135/3/2 136/3/2 147/3/2
f 146/1/2 135/1/2 147/1/2
f 136/1/2 137/1/2 148/1/2
f 147/3/2 136/3/2 148/3/2
f 137/3/2 138/3/2 149/3/2
f 148/1/2 137/1/2 149/1/2
f 138/1/2 139/1/2 150/1/2
f 149/3/2 138/3/2 150/3/2
f 139/3/2 140/3/2 151/3/2
f 150/1/2 139/1/2 151/1/2
f 140/1/2 141/1/2 152/1/2
f 151/3/2 140/3/2 152/3/2
f 141/3/2 142/3/2 153/3/2
f 152/1/2 141/1/2 153/1/2
f 142/1/2 130/1/2 154/1/2
f 153/3/2 142/3/2 154/3/2
f 154/1/2 130/1/2 155/1/2
f 144/1/2 145/1/2 156/1/2
f 145/1/2 146/1/2 156/1/2
f 143/1/2 144/1/2 156/1/2
f 146/3/2 147/3/2 157/3/2
f 156/1/2 146/1/2 157/1/2
f 149/1/2 150/1/2 158/1/2
f 157/3/2 147/3/2 158/3/2
f 148/1/2 149/1/2 158/1/2
f 147/1/2 148/1/2 158/1/2
f 150/3/2 151/3/2 159/3/2
f 158/1/2 150/1/2 159/1/2
f 152/1/2 153/1/2 160/1/2
f 159/3/2 151/3/2 160/3/2
f 151/1/2 152/1/2 160/1/2
f 153/1/2 154/1/2 160/1/2
f 154/3/2 155/3/2 161/3/2
f 160/1/2 154/1/2 161/1/2
f 161/3/2 155/3/2 162/3/2
f 166/1/3 164/1/3 163/1/3
f 167/3/3 165/3/3 164/3/3
f 167/1/3 164/1/3 166/1/3
f 168/3/3 165/3/3 167/3/3
f 169/1/3 166/1/3 163/1/3
f 170/3/3 167/3/3 166/3/3
f 170/1/3 166/1/3 169/1/3
f 171/1/3 168/1/3 167/1/3
f 171/3/3 167/3/3 170/3/3
f 172/3/3 170/3/3 169/3/3
f 173/1/3 171/1/3 170/1/3
f 173/3/3 170/3/3 172/3/3
f 174/1/3 168/1/3 171/1/3
f 174/1/3 171/1/3 173/1/3
f 175/1/3 173/1/3 172/1/3
f 175/3/3 174/3/3 173/3/3
f 176/1/3 168/1/3 174/1/3
f 176/3/3 174/3/3 175/3/3
f 177/1/3 168/1/3 176/1/3
f 178/1/3 175/1/3 172/1/3
f 178/1/3 176/1/3 175/1/3
f 179/3/3 177/3/3 176/3/3
f 179/1/3 176/1/3 178/1/3
f 180/3/3 177/3/3 179/3/3
f 181/1/3 178/1/3 172/1/3
f 182/3/3 179/3/3 178/3/3
f 182/1/3 178/1/3 181/1/3
f 183/1/3 180/1/3 179/1/3
f 183/3/3 179/3/3 182/3/3
f 184/3/3 182/3/3 181/3/3
f 185/1/3 183/1/3 182/1/3
f 185/3/3 182/3/3 184/3/3
f 186/1/3 180/1/3 183/1/3
f 186/1/3 183/1/3 185/1/3
f 187/1/3 185/1/3 184/1/3
f 187/3/3 186/3/3 185/3/3
f 188/1/3 180/1/3 186/1/3
f 188/3/3 186/3/3 187/3/3
f 189/1/3 180/1/3 188/1/3
f 190/1/3 187/1/3 184/1/3
f 190/1/3 188/1/3 187/1/3
f 191/3/3 189/3/3 188/3/3
f 191/1/3 188/1/3 190/1/3
f 192/3/3 189/3/3 191/3/3
f 193/1/3 190/1/3 184/1/3
f 194/3/3 191/3/3 190/3/3
f 194/1/3 190/1/3 193/1/3
f 195/1/3 192/1/3 191/1/3
f 195/3/3 191/3/3 194/3/3
f 196/3/3 194/3/3 193/3/3
f 197/1/3 195/1/3 194/1/3
f 197/3/3 194/3/3 196/3/3
f 198/1/3 192/1/3 195/1/3
f 198/1/3 195/1/3 197/1/3
f 199/1/3 197/1/3 196/1/3
f 200/3/3 198/3/3 197/3/3
f 200/1/3 197/1/3 199/1/3
f 201/1/3 192/1/3 198/1/3
f 201/3/3 198/3/3 200/3/3
f 202/1/3 192/1/3 201/1/3
f 208/2/3 205/2/3 204/2/3
f 209/2/3 208/2/3 204/2/3
f 210/1/3 207/1/3 206/1/3
f 211/1/3 207/1/3 210/1/3
f 212/2/3 209/2/3 204/2/3
f 213/2/3 212/2/3 204/2/3
f 214/1/3 207/1/3 211/1/3
f 215/1/3 207/1/3 214/1/3
f 216/2/3 213/2/3 204/2/3
f 217/1/3 204/1/3 203/1/3
f 218/2/3 216/2/3 204/2/3
f 218/1/3 204/1/3 217/1/3
f 219/2/3 216/2/3 218/2/3
f 220/1/3 207/1/3 215/1/3
f 221/1/3 207/1/3 220/1/3
f 227/1/3 223/1/3 222/1/3
f 228/2/3 224/2/3 223/2/3
f 228/1/3 223/1/3 227/1/3
f 229/2/3 224/2/3 228/2/3
f 230/1/3 226/1/3 225/1/3
f 231/1/3 226/1/3 230/1/3
f 236/1/3 233/1/3 232/1/3
f 237/1/3 233/1/3 236/1/3
f 238/2/3 235/2/3 234/2/3
f 239/2/3 235/2/3 238/2/3
f 242/1/3 241/1/3 240/1/3
f 243/1/3 241/1/3 242/1/3
f 244/1/4 245/1/4 246/1/4
f 246/1/4 245/1/4 247/1/4
f 248/1/4 249/1/4 252/1/4
f 252/1/4 249/1/4 253/1/4
f 250/2/4 251/2/4 254/2/4
f 254/2/4 251/2/4 255/2/4
f 256/1/4 257/1/4 261/1/4
f 257/2/4 258/2/4 262/2/4
f 261/1/4 257/1/4 262/1/4
f 262/2/4 258/2/4 263/2/4
f 259/1/4 260/1/4 264/1/4
f 264/1/4 260/1/4 265/1/4
f 267/2/4 268/2/4 271/2/4
f 269/1/4 270/1/4 272/1/4
f 272/1/4 270/1/4 273/1/4
f 267/2/4 271/2/4 274/2/4
f 267/2/4 274/2/4 275/2/4
f 273/1/4 270/1/4 276/1/4
f 276/1/4 270/1/4 277/1/4
f 267/2/4 275/2/4 278/2/4
f 267/2/4 278/2/4 279/2/4
f 266/1/4 267/1/4 280/1/4
f 267/2/4 279/2/4 281/2/4
f 280/1/4 267/1/4 281/1/4
f 281/2/4 279/2/4 282/2/4
f 277/1/4 270/1/4 283/1/4
f 283/1/4 270/1/4 284/1/4
f 285/1/4 286/1/4 289/1/4
f 286/3/4 287/3/4 290/3/4
f 289/1/4 286/1/4 290/1/4
f 287/1/4 288/1/4 291/1/4
f 290/3/4 287/3/4 291/3/4
f 289/3/4 290/3/4 292/3/4
f 290/1/4 291/1/4 293/1/4
f 292/3/4 290/3/4 293/3/4
f 291/1/4 288/1/4 294/1/4
f 293/1/4 291/1/4 294/1/4
f 292/1/4 293/1/4 295/1/4
f 293/3/4 294/3/4 295/3/4
f 294/1/4 288/1/4 296/1/4
f 295/3/4 294/3/4 296/3/4
f 296/1/4 288/1/4 297/1/4
f 292/1/4 295/1/4 298/1/4
f 295/1/4 296/1/4 298/1/4
f 296/3/4 297/3/4 299/3/4
f 298/1/4 296/1/4 299/1/4
f 299/3/4 297/3/4 300/3/4
f 292/1/4 298/1/4 301/1/4
f 298/3/4 299/3/4 302/3/4
f 301/1/4 298/1/4 302/1/4
f 299/1/4 300/1/4 303/1/4
f 302/3/4 299/3/4 303/3/4
f 301/3/4 302/3/4 304/3/4
f 302/1/4 303/1/4 305/1/4
f 304/3/4 302/3/4 305/3/4
f 303/1/4 300/1/4 306/1/4
f 305/1/4 303/1/4 306/1/4
f 304/1/4 305/1/4 307/1/4
f 305/3/4 306/3/4 307/3/4
f 306/1/4 300/1/4 308/1/4
f 307/3/4 306/3/4 308/3/4
f 308/1/4 300/1/4 309/1/4
f 304/1/4 307/1/4 310/1/4
f 307/1/4 308/1/4 310/1/4
f 308/3/4 309/3/4 311/3/4
f 310/1/4 308/1/4 311/1/4
f 311/3/4 309/3/4 312/3/4
f 304/1/4 310/1/4 313/1/4
f 310/3/4 311/3/4 314/3/4
f 313/1/4 310/1/4 314/1/4
f 311/1/4 312/1/4 315/1/4
f 314/3/4 311/3/4 315/3/4
f 313/3/4 314/3/4 316/3/4
f 314/1/4 315/1/4 317/1/4
f 316/3/4 314/3/4 317/3/4
f 315/1/4 312/1/4 318/1/4
f 317/1/4 315/1/4 318/1/4
f 316/1/4 317/1/4 319/1/4
f 317/3/4 318/3/4 319/3/4
f 318/1/4 312/1/4 320/1/4
f 319/3/4 318/3/4 320/3/4
f 320/1/4 312/1/4 321/1/4
f 316/1/4 319/1/4 322/1/4
f 319/1/4 320/1/4 322/1/4
f 320/3/4 321/3/4 323/3/4
f 322/1/4 320/1/4 323/1/4
f 323/3/4 321/3/4 324/3/4
f 327/1/5 326/1/5 325/1/5
f 328/1/5 326/1/5 327/1/5
f 331/1/5 330/1/5 329/1/5
f 332/1/5 330/1/5 331/1/5
f 333/1/5 331/1/5 329/1/5
f 334/1/5 330/1/5 332/1/5
f 335/1/5 333/1/5 329/1/5
f 335/1/5 334/1/5 333/1/5
f 336/1/5 330/1/5 334/1/5
f 336/1/5 334/1/5 335/1/5
f 345/1/5 338/1/5 337/1/5
f 346/3/5 339/3/5 338/3/5
f 346/1/5 338/1/5 345/1/5
f 347/1/5 340/1/5 339/1/5
f 347/3/5 339/3/5 346/3/5
f 348/3/5 341/3/5 340/3/5
f 348/1/5 340/1/5 347/1/5
f 349/1/5 342/1/5 341/1/5
f 349/3/5 341/3/5 348/3/5
f 350/3/5 343/3/5 342/3/5
f 350/1/5 342/1/5 349/1/5
f 351/1/5 344/1/5 343/1/5
f 351/3/5 343/3/5 350/3/5
f 352/1/5 344/1/5 351/1/5
f 353/1/5 345/1/5 337/1/5
f 354/1/5 345/1/5 353/1/5
f 355/3/5 352/3/5 351/3/5
f 356/3/5 352/3/5 355/3/5
f 357/3/5 354/3/5 353/3/5
f 358/3/5 354/3/5 357/3/5
f 359/1/5 356/1/5 355/1/5
f 360/1/5 356/1/5 359/1/5
f 361/1/5 358/1/5 357/1/5
f 362/1/5 358/1/5 361/1/5
f 363/3/5 360/3/5 359/3/5
f 364/3/5 360/3/5 363/3/5
f 365/3/5 362/3/5 361/3/5
f 366/3/5 362/3/5 365/3/5
f 367/1/5 364/1/5 363/1/5
f 368/1/5 364/1/5 367/1/5
f 369/1/5 366/1/5 365/1/5
f 370/1/5 366/1/5 369/1/5
f 371/3/5 368/3/5 367/3/5
f 372/3/5 368/3/5 371/3/5
f 373/3/5 370/3/5 369/3/5
f 374/3/5 370/3/5 373/3/5
f 380/1/5 372/1/5 371/1/5
f 381/1/5 374/1/5 373/1/5
f 382/3/5 375/3/5 374/3/5
f 382/1/5 374/1/5 381/1/5
f 383/1/5 376/1/5 375/1/5
f 383/3/5 375/3/5 382/3/5
f 384/3/5 377/3/5 376/3/5
f 384/1/5 376/1/5 383/1/5
f 385/1/5 378/1/5 377/1/5
f 385/3/5 377/3/5 384/3/5
f 386/3/5 379/3/5 378/3/5
f 386/1/5 378/1/5 385/1/5
f 387/1/5 380/1/5 379/1/5
f 387/3/5 379/3/5 386/3/5
f 388/1/5 372/1/5 380/1/5
f 388/1/5 380/1/5 387/1/5
f 391/2/5 390/2/5 389/2/5
f 392/2/5 390/2/5 391/2/5
f 393/2/5 391/2/5 389/2/5
f 394/2/5 390/2/5 392/2/5
f 395/2/5 393/2/5 389/2/5
f 395/2/5 394/2/5 393/2/5
f 396/2/5 390/2/5 394/2/5
f 396/2/5 394/2/5 395/2/5
f 397/3/6 398/3/6 404/3/6
f 398/1/6 399/1/6 405/1/6
f 404/3/6 398/3/6 405/3/6
f 399/3/6 400/3/6 406/3/6
f 405/1/6 399/1/6 406/1/6
f 400/1/6 401/1/6 407/1/6
f 406/3/6 400/3/6 407/3/6
f 401/3/6 402/3/6 408/3/6
f 407/1/6 401/1/6 408/1/6
f 402/1/6 403/1/6 409/1/6
f 408/3/6 402/3/6 409/3/6
f 409/1/6 403/1/6 410/1/6
f 410/1/6 403/1/6 411/1/6
f 411/1/6 403/1/6 412/1/6
f 404/1/6 405/1/6 413/1/6
f 413/1/6 405/1/6 414/1/6
f 411/3/6 412/3/6 415/3/6
f 415/3/6 412/3/6 416/3/6
f 413/3/6 414/3/6 417/3/6
f 417/3/6 414/3/6 418/3/6
f 415/1/6 416/1/6 419/1/6
f 419/1/6 416/1/6 420/1/6
f 417/1/6 418/1/6 421/1/6
f 421/1/6 418/1/6 422/1/6
f 419/3/6 420/3/6 423/3/6
f 423/3/6 420/3/6 424/3/6
f 421/3/6 422/3/6 425/3/6
f 425/3/6 422/3/6 426/3/6
f 425/1/6 426/1/6 427/1/6
f 423/1/6 424/1/6 432/1/6
f 432/1/6 424/1/6 433/1/6
f 425/1/6 427/1/6 434/1/6
f 427/1/6 428/1/6 434/1/6
f 428/3/6 429/3/6 435/3/6
f 434/1/6 428/1/6 435/1/6
f 429/1/6 430/1/6 436/1/6
f 435/3/6 429/3/6 436/3/6
f 430/3/6 431/3/6 437/3/6
f 436/1/6 430/1/6 437/1/6
f 431/1/6 432/1/6 438/1/6
f 437/3/6 431/3/6 438/3/6
f 432/3/6 433/3/6 439/3/6
f 438/1/6 432/1/6 439/1/6
f 439/3/6 433/3/6 440/3/6
f 441/1/6 442/1/6 443/1/6
f 443/1/6 442/1/6 444/1/6
f 441/1/6 443/1/6 445/1/6
f 444/1/6 442/1/6 446/1/6
f 441/1/6 445/1/6 447/1/6
f 445/1/6 446/1/6 447/1/6
f 446/1/6 442/1/6 448/1/6
f 447/1/6 446/1/6 448/1/6
f 449/1/6 450/1/6 451/1/6
f 451/1/6 450/1/6 452/1/6
f 449/1/6 451/1/6 453/1/6
f 452/1/6 450/1/6 454/1/6
f 449/1/6 453/1/6 455/1/6
f 453/1/6 454/1/6 455/1/6
f 454/1/6 450/1/6 456/1/6
f 455/1/6 454/1/6 456/1/6
f 457/1/6 458/1/6 459/1/6
f 459/1/6 458/1/6 460/1/6
f 457/1/6 459/1/6 461/1/6
f 460/1/6 458/1/6 462/1/6
f 457/1/6 461/1/6 463/1/6
f 461/1/6 462/1/6 463/1/6
f 462/1/6 458/1/6 464/1/6
f 463/1/6 462/1/6 464/1/6
f 465/2/6 466/2/6 467/2/6
f 467/2/6 466/2/6 468/2/6
f 465/2/6 467/2/6 469/2/6
f 467/1/6 468/1/6 469/1/6
f 468/2/6 466/2/6 470/2/6
f 469/1/6 468/1/6 470/1/6
f 465/2/6 469/2/6 471/2/6
f 469/2/6 470/2/6 471/2/6
f 470/2/6 466/2/6 472/2/6
f 471/2/6 470/2/6 472/2/6
