# MagicaVoxel @ Ephtracy

# group
o 

# material
mtllib syndyk.mtl
usemtl palette

# normals
vn -1 0 0
vn 1 0 0
vn 0 0 1
vn 0 0 -1
vn 0 -1 0
vn 0 1 0

# texcoords
vt 0.365234 0.5
vt 0.482422 0.5

# verts
v -2.2 0 1
v -2.2 0 -6.4
v -2.2 0.3 1
v -2.2 0.3 -6.4
v -2.2 2.5 1
v -2.2 2.5 -6.4
v -2.2 2.8 1
v -2.2 2.8 -6.4
v -2.1 0.3 0.9
v -2.1 0.3 0.7
v -2.1 0.3 -6.1
v -2.1 0.3 -6.3
v -2.1 0.7 0.9
v -2.1 0.7 0.7
v -2.1 0.7 -6.1
v -2.1 0.7 -6.3
v -2.1 1.6 -2.4
v -2.1 1.6 -3
v -2.1 1.7 -2.3
v -2.1 1.7 -2.4
v -2.1 1.7 -3
v -2.1 1.7 -3.1
v -2.1 1.8 -2.2
v -2.1 1.8 -2.3
v -2.1 1.8 -3.1
v -2.1 1.8 -3.2
v -2.1 2 -2.1
v -2.1 2 -2.2
v -2.1 2 -2.6
v -2.1 2 -2.8
v -2.1 2 -3.2
v -2.1 2 -3.3
v -2.1 2.2 0.9
v -2.1 2.2 0.7
v -2.1 2.2 -6.1
v -2.1 2.2 -6.3
v -2.1 2.3 -2.6
v -2.1 2.3 -2.8
v -2.1 2.4 -2.1
v -2.1 2.4 -2.2
v -2.1 2.4 -3.2
v -2.1 2.4 -3.3
v -2.1 2.5 0.9
v -2.1 2.5 0.7
v -2.1 2.5 -2.2
v -2.1 2.5 -3.2
v -2.1 2.5 -6.1
v -2.1 2.5 -6.3
v -2 0.3 0.7
v -2 0.3 -6.1
v -2 0.7 0.8
v -2 0.7 0.7
v -2 0.7 -6.1
v -2 0.7 -6.2
v -2 1.6 -2.4
v -2 1.6 -3
v -2 1.7 -2.3
v -2 1.7 -2.4
v -2 1.7 -3
v -2 1.7 -3.1
v -2 1.8 -2.2
v -2 1.8 -2.3
v -2 1.8 -3.1
v -2 1.8 -3.2
v -2 2 -2.1
v -2 2 -2.2
v -2 2 -2.6
v -2 2 -2.8
v -2 2 -3.2
v -2 2 -3.3
v -2 2.2 0.8
v -2 2.2 0.7
v -2 2.2 -6.1
v -2 2.2 -6.2
v -2 2.3 -2.6
v -2 2.3 -2.8
v -2 2.4 -2.1
v -2 2.4 -2.2
v -2 2.4 -3.2
v -2 2.4 -3.3
v -2 2.5 0.7
v -2 2.5 -2.2
v -2 2.5 -3.2
v -2 2.5 -6.1
v -2 2.8 0.8
v -2 2.8 -6.2
v -2 3.4 0.8
v -2 3.4 -6.2
v -1.9 3.4 0.7
v -1.9 3.4 -6.1
v -1.9 3.7 0.7
v -1.9 3.7 -6.1
v -1.8 3.7 0.6
v -1.8 3.7 -6
v -1.8 4 0.6
v -1.8 4 -6
v -1.7 4 0.5
v -1.7 4 -5.9
v -1.7 4.2 0.5
v -1.7 4.2 -5.9
v 1.9 0.1 0.6
v 1.9 0.1 -6
v 1.9 2.5 0.6
v 1.9 2.5 -6
v 1.9 2.8 0.6
v 1.9 2.8 -6
v 1.9 3.6 0.6
v 1.9 3.6 -6
v 2 0.3 0.9
v 2 0.3 0.8
v 2 0.3 -6.2
v 2 0.3 -6.3
v 2 0.7 0.9
v 2 0.7 0.8
v 2 0.7 -6.2
v 2 0.7 -6.3
v 2 2.2 0.9
v 2 2.2 0.8
v 2 2.2 -6.2
v 2 2.2 -6.3
v 2 2.5 0.9
v 2 2.5 0.8
v 2 2.5 -6.2
v 2 2.5 -6.3
v -1.9 0.3 0.9
v -1.9 0.3 0.8
v -1.9 0.3 -6.2
v -1.9 0.3 -6.3
v -1.9 0.7 0.9
v -1.9 0.7 0.8
v -1.9 0.7 -6.2
v -1.9 0.7 -6.3
v -1.9 2.2 0.9
v -1.9 2.2 0.8
v -1.9 2.2 -6.2
v -1.9 2.2 -6.3
v -1.9 2.5 0.9
v -1.9 2.5 0.8
v -1.9 2.5 -6.2
v -1.9 2.5 -6.3
v -1.8 0.1 0.6
v -1.8 0.1 -6
v -1.8 2.5 0.6
v -1.8 2.5 -6
v -1.8 2.8 0.6
v -1.8 2.8 -6
v -1.8 3.6 0.6
v -1.8 3.6 -6
v 1.8 4 0.5
v 1.8 4 -5.9
v 1.8 4.2 0.5
v 1.8 4.2 -5.9
v 1.9 3.7 0.6
v 1.9 3.7 -6
v 1.9 4 0.6
v 1.9 4 -6
v 2 3.4 0.7
v 2 3.4 -6.1
v 2 3.7 0.7
v 2 3.7 -6.1
v 2.1 0.3 0.7
v 2.1 0.3 -6.1
v 2.1 0.7 0.8
v 2.1 0.7 0.7
v 2.1 0.7 -6.1
v 2.1 0.7 -6.2
v 2.1 2.2 0.8
v 2.1 2.2 0.7
v 2.1 2.2 -6.1
v 2.1 2.2 -6.2
v 2.1 2.5 0.7
v 2.1 2.5 -6.1
v 2.1 2.8 0.8
v 2.1 2.8 -6.2
v 2.1 3.4 0.8
v 2.1 3.4 -6.2
v 2.2 0.3 0.9
v 2.2 0.3 0.7
v 2.2 0.3 -6.1
v 2.2 0.3 -6.3
v 2.2 0.7 0.9
v 2.2 0.7 0.7
v 2.2 0.7 -6.1
v 2.2 0.7 -6.3
v 2.2 2.2 0.9
v 2.2 2.2 0.7
v 2.2 2.2 -6.1
v 2.2 2.2 -6.3
v 2.2 2.5 0.9
v 2.2 2.5 0.7
v 2.2 2.5 -6.1
v 2.2 2.5 -6.3
v 2.3 0 1
v 2.3 0 -6.4
v 2.3 0.3 1
v 2.3 0.3 -6.4
v 2.3 2.5 1
v 2.3 2.5 -6.4
v 2.3 2.8 1
v 2.3 2.8 -6.4
v -2.2 0 1
v -2.2 0.3 1
v -2.2 2.5 1
v -2.2 2.8 1
v 2.3 0 1
v 2.3 0.3 1
v 2.3 2.5 1
v 2.3 2.8 1
v -2.1 0.3 0.9
v -2.1 0.7 0.9
v -2.1 2.2 0.9
v -2.1 2.5 0.9
v -1.9 0.3 0.9
v -1.9 0.7 0.9
v -1.9 2.2 0.9
v -1.9 2.5 0.9
v 2 0.3 0.9
v 2 0.7 0.9
v 2 2.2 0.9
v 2 2.5 0.9
v 2.2 0.3 0.9
v 2.2 0.7 0.9
v 2.2 2.2 0.9
v 2.2 2.5 0.9
v -2 0.7 0.8
v -2 2.2 0.8
v -2 2.8 0.8
v -2 3.4 0.8
v -1.9 0.3 0.8
v -1.9 0.7 0.8
v -1.9 2.2 0.8
v -1.9 2.5 0.8
v 2 0.3 0.8
v 2 0.7 0.8
v 2 2.2 0.8
v 2 2.5 0.8
v 2.1 0.7 0.8
v 2.1 2.2 0.8
v 2.1 2.8 0.8
v 2.1 3.4 0.8
v -1.9 3.4 0.7
v -1.9 3.7 0.7
v 2 3.4 0.7
v 2 3.7 0.7
v -1.8 3.7 0.6
v -1.8 4 0.6
v 1.9 3.7 0.6
v 1.9 4 0.6
v -1.7 4 0.5
v -1.7 4.2 0.5
v 1.8 4 0.5
v 1.8 4.2 0.5
v -2.1 2 -2.1
v -2.1 2.4 -2.1
v -2 2 -2.1
v -2 2.4 -2.1
v -2.1 1.8 -2.2
v -2.1 2 -2.2
v -2.1 2.4 -2.2
v -2.1 2.5 -2.2
v -2 1.8 -2.2
v -2 2 -2.2
v -2 2.4 -2.2
v -2 2.5 -2.2
v -2.1 1.7 -2.3
v -2.1 1.8 -2.3
v -2 1.7 -2.3
v -2 1.8 -2.3
v -2.1 1.6 -2.4
v -2.1 1.7 -2.4
v -2 1.6 -2.4
v -2 1.7 -2.4
v -2.1 2 -2.8
v -2.1 2.3 -2.8
v -2 2 -2.8
v -2 2.3 -2.8
v -1.8 0.1 -6
v -1.8 2.5 -6
v -1.8 2.8 -6
v -1.8 3.6 -6
v 1.9 0.1 -6
v 1.9 2.5 -6
v 1.9 2.8 -6
v 1.9 3.6 -6
v -2.1 0.3 -6.1
v -2.1 0.7 -6.1
v -2.1 2.2 -6.1
v -2.1 2.5 -6.1
v -2 0.3 -6.1
v -2 0.7 -6.1
v -2 2.2 -6.1
v -2 2.5 -6.1
v 2.1 0.3 -6.1
v 2.1 0.7 -6.1
v 2.1 2.2 -6.1
v 2.1 2.5 -6.1
v 2.2 0.3 -6.1
v 2.2 0.7 -6.1
v 2.2 2.2 -6.1
v 2.2 2.5 -6.1
v -2.1 0.3 0.7
v -2.1 0.7 0.7
v -2.1 2.2 0.7
v -2.1 2.5 0.7
v -2 0.3 0.7
v -2 0.7 0.7
v -2 2.2 0.7
v -2 2.5 0.7
v 2.1 0.3 0.7
v 2.1 0.7 0.7
v 2.1 2.2 0.7
v 2.1 2.5 0.7
v 2.2 0.3 0.7
v 2.2 0.7 0.7
v 2.2 2.2 0.7
v 2.2 2.5 0.7
v -1.8 0.1 0.6
v -1.8 2.5 0.6
v -1.8 2.8 0.6
v -1.8 3.6 0.6
v 1.9 0.1 0.6
v 1.9 2.5 0.6
v 1.9 2.8 0.6
v 1.9 3.6 0.6
v -2.1 2 -2.6
v -2.1 2.3 -2.6
v -2 2 -2.6
v -2 2.3 -2.6
v -2.1 1.6 -3
v -2.1 1.7 -3
v -2 1.6 -3
v -2 1.7 -3
v -2.1 1.7 -3.1
v -2.1 1.8 -3.1
v -2 1.7 -3.1
v -2 1.8 -3.1
v -2.1 1.8 -3.2
v -2.1 2 -3.2
v -2.1 2.4 -3.2
v -2.1 2.5 -3.2
v -2 1.8 -3.2
v -2 2 -3.2
v -2 2.4 -3.2
v -2 2.5 -3.2
v -2.1 2 -3.3
v -2.1 2.4 -3.3
v -2 2 -3.3
v -2 2.4 -3.3
v -1.7 4 -5.9
v -1.7 4.2 -5.9
v 1.8 4 -5.9
v 1.8 4.2 -5.9
v -1.8 3.7 -6
v -1.8 4 -6
v 1.9 3.7 -6
v 1.9 4 -6
v -1.9 3.4 -6.1
v -1.9 3.7 -6.1
v 2 3.4 -6.1
v 2 3.7 -6.1
v -2 0.7 -6.2
v -2 2.2 -6.2
v -2 2.8 -6.2
v -2 3.4 -6.2
v -1.9 0.3 -6.2
v -1.9 0.7 -6.2
v -1.9 2.2 -6.2
v -1.9 2.5 -6.2
v 2 0.3 -6.2
v 2 0.7 -6.2
v 2 2.2 -6.2
v 2 2.5 -6.2
v 2.1 0.7 -6.2
v 2.1 2.2 -6.2
v 2.1 2.8 -6.2
v 2.1 3.4 -6.2
v -2.1 0.3 -6.3
v -2.1 0.7 -6.3
v -2.1 2.2 -6.3
v -2.1 2.5 -6.3
v -1.9 0.3 -6.3
v -1.9 0.7 -6.3
v -1.9 2.2 -6.3
v -1.9 2.5 -6.3
v 2 0.3 -6.3
v 2 0.7 -6.3
v 2 2.2 -6.3
v 2 2.5 -6.3
v 2.2 0.3 -6.3
v 2.2 0.7 -6.3
v 2.2 2.2 -6.3
v 2.2 2.5 -6.3
v -2.2 0 -6.4
v -2.2 0.3 -6.4
v -2.2 2.5 -6.4
v -2.2 2.8 -6.4
v 2.3 0 -6.4
v 2.3 0.3 -6.4
v 2.3 2.5 -6.4
v 2.3 2.8 -6.4
v -2.2 0 1
v 2.3 0 1
v -2 0 0.8
v 2.1 0 0.8
v -2 0 -6.2
v 2.1 0 -6.2
v -2.2 0 -6.4
v 2.3 0 -6.4
v -2.1 1.6 -2.4
v -2 1.6 -2.4
v -2.1 1.6 -3
v -2 1.6 -3
v -2.1 1.7 -2.3
v -2 1.7 -2.3
v -2.1 1.7 -2.4
v -2 1.7 -2.4
v -2.1 1.7 -3
v -2 1.7 -3
v -2.1 1.7 -3.1
v -2 1.7 -3.1
v -2.1 1.8 -2.2
v -2 1.8 -2.2
v -2.1 1.8 -2.3
v -2 1.8 -2.3
v -2.1 1.8 -3.1
v -2 1.8 -3.1
v -2.1 1.8 -3.2
v -2 1.8 -3.2
v -2.1 2 -2.1
v -2 2 -2.1
v -2.1 2 -2.2
v -2 2 -2.2
v -2.1 2 -3.2
v -2 2 -3.2
v -2.1 2 -3.3
v -2 2 -3.3
v -2.1 2.2 0.9
v -1.9 2.2 0.9
v 2 2.2 0.9
v 2.2 2.2 0.9
v -2 2.2 0.8
v -1.9 2.2 0.8
v 2 2.2 0.8
v 2.1 2.2 0.8
v -2.1 2.2 0.7
v -2 2.2 0.7
v 2.1 2.2 0.7
v 2.2 2.2 0.7
v -2.1 2.2 -6.1
v -2 2.2 -6.1
v 2.1 2.2 -6.1
v 2.2 2.2 -6.1
v -2 2.2 -6.2
v -1.9 2.2 -6.2
v 2 2.2 -6.2
v 2.1 2.2 -6.2
v -2.1 2.2 -6.3
v -1.9 2.2 -6.3
v 2 2.2 -6.3
v 2.2 2.2 -6.3
v -2.1 2.3 -2.6
v -2 2.3 -2.6
v -2.1 2.3 -2.8
v -2 2.3 -2.8
v -2.2 2.5 1
v 2.3 2.5 1
v -2.1 2.5 0.9
v -1.9 2.5 0.9
v 2 2.5 0.9
v 2.2 2.5 0.9
v -1.9 2.5 0.8
v 2 2.5 0.8
v -2.1 2.5 0.7
v -2 2.5 0.7
v 2.1 2.5 0.7
v 2.2 2.5 0.7
v -2.1 2.5 -2.2
v -2 2.5 -2.2
v -2.1 2.5 -3.2
v -2 2.5 -3.2
v -2.1 2.5 -6.1
v -2 2.5 -6.1
v 2.1 2.5 -6.1
v 2.2 2.5 -6.1
v -1.9 2.5 -6.2
v 2 2.5 -6.2
v -2.1 2.5 -6.3
v -1.9 2.5 -6.3
v 2 2.5 -6.3
v 2.2 2.5 -6.3
v -2.2 2.5 -6.4
v 2.3 2.5 -6.4
v -1.8 3.6 0.6
v 1.9 3.6 0.6
v -1.8 3.6 -6
v 1.9 3.6 -6
v -1.8 0.1 0.6
v 1.9 0.1 0.6
v -1.8 0.1 -6
v 1.9 0.1 -6
v -2.2 0.3 1
v 2.3 0.3 1
v -2.1 0.3 0.9
v -1.9 0.3 0.9
v 2 0.3 0.9
v 2.2 0.3 0.9
v -1.9 0.3 0.8
v 2 0.3 0.8
v -2.1 0.3 0.7
v -2 0.3 0.7
v 2.1 0.3 0.7
v 2.2 0.3 0.7
v -2.1 0.3 -6.1
v -2 0.3 -6.1
v 2.1 0.3 -6.1
v 2.2 0.3 -6.1
v -1.9 0.3 -6.2
v 2 0.3 -6.2
v -2.1 0.3 -6.3
v -1.9 0.3 -6.3
v 2 0.3 -6.3
v 2.2 0.3 -6.3
v -2.2 0.3 -6.4
v 2.3 0.3 -6.4
v -2.1 0.7 0.9
v -1.9 0.7 0.9
v 2 0.7 0.9
v 2.2 0.7 0.9
v -2 0.7 0.8
v -1.9 0.7 0.8
v 2 0.7 0.8
v 2.1 0.7 0.8
v -2.1 0.7 0.7
v -2 0.7 0.7
v 2.1 0.7 0.7
v 2.2 0.7 0.7
v -2.1 0.7 -6.1
v -2 0.7 -6.1
v 2.1 0.7 -6.1
v 2.2 0.7 -6.1
v -2 0.7 -6.2
v -1.9 0.7 -6.2
v 2 0.7 -6.2
v 2.1 0.7 -6.2
v -2.1 0.7 -6.3
v -1.9 0.7 -6.3
v 2 0.7 -6.3
v 2.2 0.7 -6.3
v -2.1 2 -2.6
v -2 2 -2.6
v -2.1 2 -2.8
v -2 2 -2.8
v -2.1 2.4 -2.1
v -2 2.4 -2.1
v -2.1 2.4 -2.2
v -2 2.4 -2.2
v -2.1 2.4 -3.2
v -2 2.4 -3.2
v -2.1 2.4 -3.3
v -2 2.4 -3.3
v -2.2 2.8 1
v 2.3 2.8 1
v -2 2.8 0.8
v 2.1 2.8 0.8
v -2 2.8 -6.2
v 2.1 2.8 -6.2
v -2.2 2.8 -6.4
v 2.3 2.8 -6.4
v -2 3.4 0.8
v 2.1 3.4 0.8
v -1.9 3.4 0.7
v 2 3.4 0.7
v -1.9 3.4 -6.1
v 2 3.4 -6.1
v -2 3.4 -6.2
v 2.1 3.4 -6.2
v -1.9 3.7 0.7
v 2 3.7 0.7
v -1.8 3.7 0.6
v 1.9 3.7 0.6
v -1.8 3.7 -6
v 1.9 3.7 -6
v -1.9 3.7 -6.1
v 2 3.7 -6.1
v -1.8 4 0.6
v 1.9 4 0.6
v -1.7 4 0.5
v 1.8 4 0.5
v -1.7 4 -5.9
v 1.8 4 -5.9
v -1.8 4 -6
v 1.9 4 -6
v -1.7 4.2 0.5
v 1.8 4.2 0.5
v -1.7 4.2 -5.9
v 1.8 4.2 -5.9

# faces
f 3/2/1 2/2/1 1/2/1
f 4/2/1 2/2/1 3/2/1
f 7/2/1 6/2/1 5/2/1
f 8/2/1 6/2/1 7/2/1
f 13/2/1 10/2/1 9/2/1
f 14/2/1 10/2/1 13/2/1
f 15/2/1 12/2/1 11/2/1
f 16/2/1 12/2/1 15/2/1
f 20/2/1 18/2/1 17/2/1
f 21/2/1 18/2/1 20/2/1
f 24/2/1 20/2/1 19/2/1
f 24/2/1 22/2/1 21/2/1
f 24/2/1 21/2/1 20/2/1
f 25/2/1 22/2/1 24/2/1
f 28/2/1 24/2/1 23/2/1
f 28/2/1 26/2/1 25/2/1
f 28/2/1 25/2/1 24/2/1
f 29/2/1 26/2/1 28/2/1
f 30/2/1 26/2/1 29/2/1
f 31/2/1 26/2/1 30/2/1
f 37/2/1 28/2/1 27/2/1
f 37/2/1 29/2/1 28/2/1
f 38/2/1 32/2/1 31/2/1
f 38/2/1 31/2/1 30/2/1
f 39/2/1 37/2/1 27/2/1
f 39/2/1 38/2/1 37/2/1
f 40/2/1 38/2/1 39/2/1
f 41/2/1 32/2/1 38/2/1
f 41/2/1 38/2/1 40/2/1
f 42/2/1 32/2/1 41/2/1
f 43/2/1 34/2/1 33/2/1
f 44/2/1 34/2/1 43/2/1
f 45/2/1 41/2/1 40/2/1
f 46/2/1 41/2/1 45/2/1
f 47/2/1 36/2/1 35/2/1
f 48/2/1 36/2/1 47/2/1
f 52/1/1 50/1/1 49/1/1
f 53/1/1 50/1/1 52/1/1
f 55/1/1 52/1/1 51/1/1
f 55/1/1 54/1/1 53/1/1
f 55/1/1 53/1/1 52/1/1
f 56/1/1 54/1/1 55/1/1
f 57/1/1 55/1/1 51/1/1
f 58/1/1 55/1/1 57/1/1
f 59/1/1 54/1/1 56/1/1
f 60/1/1 54/1/1 59/1/1
f 61/1/1 57/1/1 51/1/1
f 62/1/1 57/1/1 61/1/1
f 63/1/1 54/1/1 60/1/1
f 64/1/1 54/1/1 63/1/1
f 65/1/1 61/1/1 51/1/1
f 66/1/1 61/1/1 65/1/1
f 69/1/1 54/1/1 64/1/1
f 70/1/1 54/1/1 69/1/1
f 71/1/1 65/1/1 51/1/1
f 72/1/1 65/1/1 71/1/1
f 73/1/1 54/1/1 70/1/1
f 74/1/1 54/1/1 73/1/1
f 75/1/1 68/1/1 67/1/1
f 76/1/1 68/1/1 75/1/1
f 77/1/1 65/1/1 72/1/1
f 80/1/1 73/1/1 70/1/1
f 81/1/1 78/1/1 77/1/1
f 81/1/1 77/1/1 72/1/1
f 82/1/1 78/1/1 81/1/1
f 83/1/1 80/1/1 79/1/1
f 84/1/1 73/1/1 80/1/1
f 84/1/1 80/1/1 83/1/1
f 87/1/1 86/1/1 85/1/1
f 88/1/1 86/1/1 87/1/1
f 91/1/1 90/1/1 89/1/1
f 92/1/1 90/1/1 91/1/1
f 95/1/1 94/1/1 93/1/1
f 96/1/1 94/1/1 95/1/1
f 99/1/1 98/1/1 97/1/1
f 100/1/1 98/1/1 99/1/1
f 103/1/1 102/1/1 101/1/1
f 104/1/1 102/1/1 103/1/1
f 105/2/1 104/2/1 103/2/1
f 106/2/1 104/2/1 105/2/1
f 107/1/1 106/1/1 105/1/1
f 108/1/1 106/1/1 107/1/1
f 113/2/1 110/2/1 109/2/1
f 114/2/1 110/2/1 113/2/1
f 115/2/1 112/2/1 111/2/1
f 116/2/1 112/2/1 115/2/1
f 121/2/1 118/2/1 117/2/1
f 122/2/1 118/2/1 121/2/1
f 123/2/1 120/2/1 119/2/1
f 124/2/1 120/2/1 123/2/1
f 125/2/2 126/2/2 129/2/2
f 129/2/2 126/2/2 130/2/2
f 127/2/2 128/2/2 131/2/2
f 131/2/2 128/2/2 132/2/2
f 133/2/2 134/2/2 137/2/2
f 137/2/2 134/2/2 138/2/2
f 135/2/2 136/2/2 139/2/2
f 139/2/2 136/2/2 140/2/2
f 141/1/2 142/1/2 143/1/2
f 143/1/2 142/1/2 144/1/2
f 143/2/2 144/2/2 145/2/2
f 145/2/2 144/2/2 146/2/2
f 145/1/2 146/1/2 147/1/2
f 147/1/2 146/1/2 148/1/2
f 149/1/2 150/1/2 151/1/2
f 151/1/2 150/1/2 152/1/2
f 153/1/2 154/1/2 155/1/2
f 155/1/2 154/1/2 156/1/2
f 157/1/2 158/1/2 159/1/2
f 159/1/2 158/1/2 160/1/2
f 161/1/2 162/1/2 164/1/2
f 164/1/2 162/1/2 165/1/2
f 163/1/2 164/1/2 167/1/2
f 165/1/2 166/1/2 167/1/2
f 164/1/2 165/1/2 167/1/2
f 167/1/2 166/1/2 168/1/2
f 168/1/2 166/1/2 169/1/2
f 169/1/2 166/1/2 170/1/2
f 168/1/2 169/1/2 171/1/2
f 171/1/2 169/1/2 172/1/2
f 173/1/2 174/1/2 175/1/2
f 175/1/2 174/1/2 176/1/2
f 177/2/2 178/2/2 181/2/2
f 181/2/2 178/2/2 182/2/2
f 179/2/2 180/2/2 183/2/2
f 183/2/2 180/2/2 184/2/2
f 185/2/2 186/2/2 189/2/2
f 189/2/2 186/2/2 190/2/2
f 187/2/2 188/2/2 191/2/2
f 191/2/2 188/2/2 192/2/2
f 193/2/2 194/2/2 195/2/2
f 195/2/2 194/2/2 196/2/2
f 197/2/2 198/2/2 199/2/2
f 199/2/2 198/2/2 200/2/2
f 205/2/3 202/2/3 201/2/3
f 206/2/3 202/2/3 205/2/3
f 207/2/3 204/2/3 203/2/3
f 208/2/3 204/2/3 207/2/3
f 213/2/3 210/2/3 209/2/3
f 214/2/3 210/2/3 213/2/3
f 215/2/3 212/2/3 211/2/3
f 216/2/3 212/2/3 215/2/3
f 221/2/3 218/2/3 217/2/3
f 222/2/3 218/2/3 221/2/3
f 223/2/3 220/2/3 219/2/3
f 224/2/3 220/2/3 223/2/3
f 230/1/3 226/1/3 225/1/3
f 231/1/3 226/1/3 230/1/3
f 233/1/3 230/1/3 229/1/3
f 233/1/3 232/1/3 231/1/3
f 233/1/3 231/1/3 230/1/3
f 234/1/3 232/1/3 233/1/3
f 235/1/3 232/1/3 234/1/3
f 236/1/3 232/1/3 235/1/3
f 237/1/3 235/1/3 234/1/3
f 238/1/3 235/1/3 237/1/3
f 239/1/3 228/1/3 227/1/3
f 240/1/3 228/1/3 239/1/3
f 243/1/3 242/1/3 241/1/3
f 244/1/3 242/1/3 243/1/3
f 247/1/3 246/1/3 245/1/3
f 248/1/3 246/1/3 247/1/3
f 251/1/3 250/1/3 249/1/3
f 252/1/3 250/1/3 251/1/3
f 255/2/3 254/2/3 253/2/3
f 256/2/3 254/2/3 255/2/3
f 261/2/3 258/2/3 257/2/3
f 262/2/3 258/2/3 261/2/3
f 263/2/3 260/2/3 259/2/3
f 264/2/3 260/2/3 263/2/3
f 267/2/3 266/2/3 265/2/3
f 268/2/3 266/2/3 267/2/3
f 271/2/3 270/2/3 269/2/3
f 272/2/3 270/2/3 271/2/3
f 275/2/3 274/2/3 273/2/3
f 276/2/3 274/2/3 275/2/3
f 281/1/3 278/1/3 277/1/3
f 282/2/3 279/2/3 278/2/3
f 282/1/3 278/1/3 281/1/3
f 283/1/3 280/1/3 279/1/3
f 283/2/3 279/2/3 282/2/3
f 284/1/3 280/1/3 283/1/3
f 289/2/3 286/2/3 285/2/3
f 290/2/3 286/2/3 289/2/3
f 291/2/3 288/2/3 287/2/3
f 292/2/3 288/2/3 291/2/3
f 297/2/3 294/2/3 293/2/3
f 298/2/3 294/2/3 297/2/3
f 299/2/3 296/2/3 295/2/3
f 300/2/3 296/2/3 299/2/3
f 301/2/4 302/2/4 305/2/4
f 305/2/4 302/2/4 306/2/4
f 303/2/4 304/2/4 307/2/4
f 307/2/4 304/2/4 308/2/4
f 309/2/4 310/2/4 313/2/4
f 313/2/4 310/2/4 314/2/4
f 311/2/4 312/2/4 315/2/4
f 315/2/4 312/2/4 316/2/4
f 317/1/4 318/1/4 321/1/4
f 318/2/4 319/2/4 322/2/4
f 321/1/4 318/1/4 322/1/4
f 319/1/4 320/1/4 323/1/4
f 322/2/4 319/2/4 323/2/4
f 323/1/4 320/1/4 324/1/4
f 325/2/4 326/2/4 327/2/4
f 327/2/4 326/2/4 328/2/4
f 329/2/4 330/2/4 331/2/4
f 331/2/4 330/2/4 332/2/4
f 333/2/4 334/2/4 335/2/4
f 335/2/4 334/2/4 336/2/4
f 337/2/4 338/2/4 341/2/4
f 341/2/4 338/2/4 342/2/4
f 339/2/4 340/2/4 343/2/4
f 343/2/4 340/2/4 344/2/4
f 345/2/4 346/2/4 347/2/4
f 347/2/4 346/2/4 348/2/4
f 349/1/4 350/1/4 351/1/4
f 351/1/4 350/1/4 352/1/4
f 353/1/4 354/1/4 355/1/4
f 355/1/4 354/1/4 356/1/4
f 357/1/4 358/1/4 359/1/4
f 359/1/4 358/1/4 360/1/4
f 361/1/4 362/1/4 366/1/4
f 366/1/4 362/1/4 367/1/4
f 365/1/4 366/1/4 369/1/4
f 367/1/4 368/1/4 369/1/4
f 366/1/4 367/1/4 369/1/4
f 369/1/4 368/1/4 370/1/4
f 370/1/4 368/1/4 371/1/4
f 371/1/4 368/1/4 372/1/4
f 370/1/4 371/1/4 373/1/4
f 373/1/4 371/1/4 374/1/4
f 363/1/4 364/1/4 375/1/4
f 375/1/4 364/1/4 376/1/4
f 377/2/4 378/2/4 381/2/4
f 381/2/4 378/2/4 382/2/4
f 379/2/4 380/2/4 383/2/4
f 383/2/4 380/2/4 384/2/4
f 385/2/4 386/2/4 389/2/4
f 389/2/4 386/2/4 390/2/4
f 387/2/4 388/2/4 391/2/4
f 391/2/4 388/2/4 392/2/4
f 393/2/4 394/2/4 397/2/4
f 397/2/4 394/2/4 398/2/4
f 395/2/4 396/2/4 399/2/4
f 399/2/4 396/2/4 400/2/4
f 403/2/5 402/2/5 401/2/5
f 404/2/5 402/2/5 403/2/5
f 405/2/5 403/2/5 401/2/5
f 405/1/5 404/1/5 403/1/5
f 406/2/5 402/2/5 404/2/5
f 406/1/5 404/1/5 405/1/5
f 407/2/5 405/2/5 401/2/5
f 407/2/5 406/2/5 405/2/5
f 408/2/5 402/2/5 406/2/5
f 408/2/5 406/2/5 407/2/5
f 411/2/5 410/2/5 409/2/5
f 412/2/5 410/2/5 411/2/5
f 415/2/5 414/2/5 413/2/5
f 416/2/5 414/2/5 415/2/5
f 419/2/5 418/2/5 417/2/5
f 420/2/5 418/2/5 419/2/5
f 423/2/5 422/2/5 421/2/5
f 424/2/5 422/2/5 423/2/5
f 427/2/5 426/2/5 425/2/5
f 428/2/5 426/2/5 427/2/5
f 431/2/5 430/2/5 429/2/5
f 432/2/5 430/2/5 431/2/5
f 435/2/5 434/2/5 433/2/5
f 436/2/5 434/2/5 435/2/5
f 441/2/5 438/2/5 437/2/5
f 442/2/5 438/2/5 441/2/5
f 443/2/5 440/2/5 439/2/5
f 444/2/5 440/2/5 443/2/5
f 445/2/5 441/2/5 437/2/5
f 446/2/5 441/2/5 445/2/5
f 447/2/5 440/2/5 444/2/5
f 448/2/5 440/2/5 447/2/5
f 453/2/5 450/2/5 449/2/5
f 456/2/5 452/2/5 451/2/5
f 457/2/5 454/2/5 453/2/5
f 457/2/5 453/2/5 449/2/5
f 458/2/5 454/2/5 457/2/5
f 459/2/5 456/2/5 455/2/5
f 460/2/5 452/2/5 456/2/5
f 460/2/5 456/2/5 459/2/5
f 463/2/5 462/2/5 461/2/5
f 464/2/5 462/2/5 463/2/5
f 467/2/5 466/2/5 465/2/5
f 468/2/5 466/2/5 467/2/5
f 469/2/5 466/2/5 468/2/5
f 470/2/5 466/2/5 469/2/5
f 471/2/5 469/2/5 468/2/5
f 472/2/5 469/2/5 471/2/5
f 473/2/5 467/2/5 465/2/5
f 476/2/5 466/2/5 470/2/5
f 477/2/5 474/2/5 473/2/5
f 477/2/5 473/2/5 465/2/5
f 478/2/5 474/2/5 477/2/5
f 479/2/5 477/2/5 465/2/5
f 481/2/5 479/2/5 465/2/5
f 481/2/5 480/2/5 479/2/5
f 482/2/5 480/2/5 481/2/5
f 483/2/5 476/2/5 475/2/5
f 484/2/5 466/2/5 476/2/5
f 484/2/5 476/2/5 483/2/5
f 487/2/5 481/2/5 465/2/5
f 488/2/5 486/2/5 485/2/5
f 489/2/5 486/2/5 488/2/5
f 490/2/5 466/2/5 484/2/5
f 491/2/5 489/2/5 488/2/5
f 491/2/5 490/2/5 489/2/5
f 491/2/5 487/2/5 465/2/5
f 491/2/5 488/2/5 487/2/5
f 492/2/5 466/2/5 490/2/5
f 492/2/5 490/2/5 491/2/5
f 495/1/5 494/1/5 493/1/5
f 496/1/5 494/1/5 495/1/5
f 497/1/6 498/1/6 499/1/6
f 499/1/6 498/1/6 500/1/6
f 501/2/6 502/2/6 503/2/6
f 503/2/6 502/2/6 504/2/6
f 504/2/6 502/2/6 505/2/6
f 505/2/6 502/2/6 506/2/6
f 504/2/6 505/2/6 507/2/6
f 507/2/6 505/2/6 508/2/6
f 501/2/6 503/2/6 509/2/6
f 506/2/6 502/2/6 512/2/6
f 509/2/6 510/2/6 513/2/6
f 501/2/6 509/2/6 513/2/6
f 513/2/6 510/2/6 514/2/6
f 511/2/6 512/2/6 515/2/6
f 512/2/6 502/2/6 516/2/6
f 515/2/6 512/2/6 516/2/6
f 501/2/6 513/2/6 519/2/6
f 517/2/6 518/2/6 520/2/6
f 520/2/6 518/2/6 521/2/6
f 516/2/6 502/2/6 522/2/6
f 520/2/6 521/2/6 523/2/6
f 521/2/6 522/2/6 523/2/6
f 501/2/6 519/2/6 523/2/6
f 519/2/6 520/2/6 523/2/6
f 522/2/6 502/2/6 524/2/6
f 523/2/6 522/2/6 524/2/6
f 525/2/6 526/2/6 529/2/6
f 529/2/6 526/2/6 530/2/6
f 527/2/6 528/2/6 531/2/6
f 531/2/6 528/2/6 532/2/6
f 525/2/6 529/2/6 533/2/6
f 533/2/6 529/2/6 534/2/6
f 532/2/6 528/2/6 535/2/6
f 535/2/6 528/2/6 536/2/6
f 537/2/6 538/2/6 541/2/6
f 539/2/6 540/2/6 544/2/6
f 541/2/6 542/2/6 545/2/6
f 537/2/6 541/2/6 545/2/6
f 545/2/6 542/2/6 546/2/6
f 543/2/6 544/2/6 547/2/6
f 544/2/6 540/2/6 548/2/6
f 547/2/6 544/2/6 548/2/6
f 549/2/6 550/2/6 551/2/6
f 551/2/6 550/2/6 552/2/6
f 553/2/6 554/2/6 555/2/6
f 555/2/6 554/2/6 556/2/6
f 557/2/6 558/2/6 559/2/6
f 559/2/6 558/2/6 560/2/6
f 561/2/6 562/2/6 563/2/6
f 563/2/6 562/2/6 564/2/6
f 561/2/6 563/2/6 565/2/6
f 564/2/6 562/2/6 566/2/6
f 561/2/6 565/2/6 567/2/6
f 565/2/6 566/2/6 567/2/6
f 566/2/6 562/2/6 568/2/6
f 567/2/6 566/2/6 568/2/6
f 569/1/6 570/1/6 571/1/6
f 571/1/6 570/1/6 572/1/6
f 569/1/6 571/1/6 573/1/6
f 572/1/6 570/1/6 574/1/6
f 569/1/6 573/1/6 575/1/6
f 573/1/6 574/1/6 575/1/6
f 574/1/6 570/1/6 576/1/6
f 575/1/6 574/1/6 576/1/6
f 577/1/6 578/1/6 579/1/6
f 579/1/6 578/1/6 580/1/6
f 577/1/6 579/1/6 581/1/6
f 580/1/6 578/1/6 582/1/6
f 577/1/6 581/1/6 583/1/6
f 581/1/6 582/1/6 583/1/6
f 582/1/6 578/1/6 584/1/6
f 583/1/6 582/1/6 584/1/6
f 585/1/6 586/1/6 587/1/6
f 587/1/6 586/1/6 588/1/6
f 585/1/6 587/1/6 589/1/6
f 588/1/6 586/1/6 590/1/6
f 585/1/6 589/1/6 591/1/6
f 589/1/6 590/1/6 591/1/6
f 590/1/6 586/1/6 592/1/6
f 591/1/6 590/1/6 592/1/6
f 593/1/6 594/1/6 595/1/6
f 595/1/6 594/1/6 596/1/6
