# MagicaVoxel @ Ephtracy

# group
o 

# material
mtllib flowers.mtl
usemtl palette

# normals
vn -1 0 0
vn 1 0 0
vn 0 0 1
vn 0 0 -1
vn 0 -1 0
vn 0 1 0

# texcoords
vt 0.267578 0.5
vt 0.306641 0.5
vt 0.318359 0.5
vt 0.416016 0.5
vt 0.568359 0.5
vt 0.595703 0.5
vt 0.916016 0.5

# verts
v -3 0 2
v -3 0 -0.9
v -3 0.2 1.8
v -3 0.2 1.4
v -3 0.2 1.2
v -3 0.2 0.8
v -3 0.2 0.6
v -3 0.2 0.2
v -3 0.2 -2.38419e-07
v -3 0.2 -0.4
v -3 0.2 -0.6
v -3 0.2 -0.9
v -3 0.8 1.8
v -3 0.8 1.4
v -3 0.8 1.2
v -3 0.8 0.8
v -3 0.8 0.6
v -3 0.8 0.2
v -3 0.8 -2.38419e-07
v -3 0.8 -0.4
v -3 0.8 -0.6
v -3 0.8 -0.9
v -3 1 1.8
v -3 1 1.4
v -3 1 1.2
v -3 1 0.8
v -3 1 0.6
v -3 1 0.2
v -3 1 -2.38419e-07
v -3 1 -0.4
v -3 1 -0.6
v -3 1 -0.9
v -3 1.2 2
v -3 1.2 1.8
v -3 1.2 1.4
v -3 1.2 1.2
v -3 1.2 0.8
v -3 1.2 0.6
v -3 1.2 0.2
v -3 1.2 -2.38419e-07
v -3 1.2 -0.4
v -3 1.2 -0.6
v -2.8 1 -0.8
v -2.8 1 -0.9
v -2.8 1.2 -0.8
v -2.8 1.2 -0.9
v -2.5 1 2
v -2.5 1 1.9
v -2.5 1.2 2
v -2.5 1.2 1.9
v -2.2 1 -0.8
v -2.2 1 -0.9
v -2.2 1.2 -0.8
v -2.2 1.2 -0.9
v -2.1 2.2 0.8
v -2.1 2.2 0.7
v -2.1 2.3 0.8
v -2.1 2.3 0.7
v -2 0.9 0.8
v -2 0.9 0.7
v -2 2.2 1
v -2 2.2 0.8
v -2 2.2 0.7
v -2 2.2 0.5
v -2 2.3 1
v -2 2.3 0.8
v -2 2.3 0.7
v -2 2.3 0.5
v -1.9 1 2
v -1.9 1 1.9
v -1.9 1.2 2
v -1.9 1.2 1.9
v -1.6 1 -0.8
v -1.6 1 -0.9
v -1.6 1.2 -0.8
v -1.6 1.2 -0.9
v -1.3 1 2
v -1.3 1 1.9
v -1.3 1.2 2
v -1.3 1.2 1.9
v -1 1 -0.8
v -1 1 -0.9
v -1 1.2 -0.8
v -1 1.2 -0.9
v -0.8 0.9 0.8
v -0.8 0.9 0.7
v -0.8 1 0.8
v -0.8 1 0.7
v -0.7 1 2
v -0.7 1 1.9
v -0.7 1.2 2
v -0.7 1.2 1.9
v -0.4 1 -0.8
v -0.4 1 -0.9
v -0.4 1.2 -0.8
v -0.4 1.2 -0.9
v -0.0999999 1 2
v -0.0999999 1 1.9
v -0.0999999 1.2 2
v -0.0999999 1.2 1.9
v 0.2 1 -0.8
v 0.2 1 -0.9
v 0.2 1.2 -0.8
v 0.2 1.2 -0.9
v 0.5 1 2
v 0.5 1 1.9
v 0.5 1.2 2
v 0.5 1.2 1.9
v 0.8 1 -0.8
v 0.8 1 -0.9
v 0.8 1.2 -0.8
v 0.8 1.2 -0.9
v 1.1 1 2
v 1.1 1 1.9
v 1.1 1.2 2
v 1.1 1.2 1.9
v 1.4 1 -0.8
v 1.4 1 -0.9
v 1.4 1.2 -0.8
v 1.4 1.2 -0.9
v 1.7 1 2
v 1.7 1 1.9
v 1.7 1.2 2
v 1.7 1.2 1.9
v 2 1 -0.8
v 2 1 -0.9
v 2 1.2 -0.8
v 2 1.2 -0.9
v 2.3 1 2
v 2.3 1 1.9
v 2.3 1.2 2
v 2.3 1.2 1.9
v 2.6 1 -0.8
v 2.6 1 -0.9
v 2.6 1.2 -0.8
v 2.6 1.2 -0.9
v 2.9 0.9 1.9
v 2.9 0.9 -0.8
v 2.9 1 2
v 2.9 1 1.9
v 2.9 1 1.8
v 2.9 1 1.4
v 2.9 1 1.2
v 2.9 1 0.8
v 2.9 1 0.6
v 2.9 1 0.2
v 2.9 1 -2.38419e-07
v 2.9 1 -0.4
v 2.9 1 -0.6
v 2.9 1 -0.8
v 2.9 1.2 2
v 2.9 1.2 1.8
v 2.9 1.2 1.4
v 2.9 1.2 1.2
v 2.9 1.2 0.8
v 2.9 1.2 0.6
v 2.9 1.2 0.2
v 2.9 1.2 -2.38419e-07
v 2.9 1.2 -0.4
v 2.9 1.2 -0.6
v -2.9 0.9 1.9
v -2.9 0.9 -0.8
v -2.9 1 2
v -2.9 1 1.9
v -2.9 1 1.8
v -2.9 1 1.4
v -2.9 1 1.2
v -2.9 1 0.8
v -2.9 1 0.6
v -2.9 1 0.2
v -2.9 1 -2.38419e-07
v -2.9 1 -0.4
v -2.9 1 -0.6
v -2.9 1 -0.8
v -2.9 1.2 2
v -2.9 1.2 1.8
v -2.9 1.2 1.4
v -2.9 1.2 1.2
v -2.9 1.2 0.8
v -2.9 1.2 0.6
v -2.9 1.2 0.2
v -2.9 1.2 -2.38419e-07
v -2.9 1.2 -0.4
v -2.9 1.2 -0.6
v -2.6 1 -0.8
v -2.6 1 -0.9
v -2.6 1.2 -0.8
v -2.6 1.2 -0.9
v -2.3 1 2
v -2.3 1 1.9
v -2.3 1.2 2
v -2.3 1.2 1.9
v -2 1 -0.8
v -2 1 -0.9
v -2 1.2 -0.8
v -2 1.2 -0.9
v -1.9 0.9 0.8
v -1.9 0.9 0.7
v -1.9 1.7 0.8
v -1.9 1.7 0.7
v -1.9 1.9 0.8
v -1.9 1.9 0.7
v -1.9 2.2 1
v -1.9 2.2 0.8
v -1.9 2.2 0.7
v -1.9 2.2 0.5
v -1.9 2.3 1
v -1.9 2.3 0.8
v -1.9 2.3 0.7
v -1.9 2.3 0.5
v -1.7 1 2
v -1.7 1 1.9
v -1.7 1.2 2
v -1.7 1.2 1.9
v -1.7 1.7 0.8
v -1.7 1.7 0.7
v -1.7 1.9 0.8
v -1.7 1.9 0.7
v -1.7 2.2 0.8
v -1.7 2.2 0.7
v -1.7 2.3 0.8
v -1.7 2.3 0.7
v -1.4 1 -0.8
v -1.4 1 -0.9
v -1.4 1.2 -0.8
v -1.4 1.2 -0.9
v -1.1 1 2
v -1.1 1 1.9
v -1.1 1.2 2
v -1.1 1.2 1.9
v -0.8 1 -0.8
v -0.8 1 -0.9
v -0.8 1.2 -0.8
v -0.8 1.2 -0.9
v -0.7 0.9 0.8
v -0.7 0.9 0.7
v -0.7 1 0.8
v -0.7 1 0.7
v -0.5 1 2
v -0.5 1 1.9
v -0.5 1.2 2
v -0.5 1.2 1.9
v -0.2 1 -0.8
v -0.2 1 -0.9
v -0.2 1.2 -0.8
v -0.2 1.2 -0.9
v 0.1 1 2
v 0.1 1 1.9
v 0.1 1.2 2
v 0.1 1.2 1.9
v 0.4 1 -0.8
v 0.4 1 -0.9
v 0.4 1.2 -0.8
v 0.4 1.2 -0.9
v 0.7 1 2
v 0.7 1 1.9
v 0.7 1.2 2
v 0.7 1.2 1.9
v 1 1 -0.8
v 1 1 -0.9
v 1 1.2 -0.8
v 1 1.2 -0.9
v 1.3 1 2
v 1.3 1 1.9
v 1.3 1.2 2
v 1.3 1.2 1.9
v 1.6 1 -0.8
v 1.6 1 -0.9
v 1.6 1.2 -0.8
v 1.6 1.2 -0.9
v 1.9 1 2
v 1.9 1 1.9
v 1.9 1.2 2
v 1.9 1.2 1.9
v 2.2 1 -0.8
v 2.2 1 -0.9
v 2.2 1.2 -0.8
v 2.2 1.2 -0.9
v 2.5 1 2
v 2.5 1 1.9
v 2.5 1.2 2
v 2.5 1.2 1.9
v 2.8 1 -0.8
v 2.8 1 -0.9
v 2.8 1.2 -0.8
v 2.8 1.2 -0.9
v 3 0 2
v 3 0 -0.9
v 3 0.2 1.8
v 3 0.2 1.4
v 3 0.2 1.2
v 3 0.2 0.8
v 3 0.2 0.6
v 3 0.2 0.2
v 3 0.2 -2.38419e-07
v 3 0.2 -0.4
v 3 0.2 -0.6
v 3 0.2 -0.9
v 3 0.8 1.8
v 3 0.8 1.4
v 3 0.8 1.2
v 3 0.8 0.8
v 3 0.8 0.6
v 3 0.8 0.2
v 3 0.8 -2.38419e-07
v 3 0.8 -0.4
v 3 0.8 -0.6
v 3 0.8 -0.9
v 3 1 1.8
v 3 1 1.4
v 3 1 1.2
v 3 1 0.8
v 3 1 0.6
v 3 1 0.2
v 3 1 -2.38419e-07
v 3 1 -0.4
v 3 1 -0.6
v 3 1 -0.9
v 3 1.2 2
v 3 1.2 1.8
v 3 1.2 1.4
v 3 1.2 1.2
v 3 1.2 0.8
v 3 1.2 0.6
v 3 1.2 0.2
v 3 1.2 -2.38419e-07
v 3 1.2 -0.4
v 3 1.2 -0.6
v -3 0 2
v -3 1.2 2
v -2.9 0.2 2
v -2.9 0.8 2
v -2.9 1 2
v -2.9 1.2 2
v -2.5 0.2 2
v -2.5 0.8 2
v -2.5 1 2
v -2.5 1.2 2
v -2.3 0.2 2
v -2.3 0.8 2
v -2.3 1 2
v -2.3 1.2 2
v -1.9 0.2 2
v -1.9 0.8 2
v -1.9 1 2
v -1.9 1.2 2
v -1.7 0.2 2
v -1.7 0.8 2
v -1.7 1 2
v -1.7 1.2 2
v -1.3 0.2 2
v -1.3 0.8 2
v -1.3 1 2
v -1.3 1.2 2
v -1.1 0.2 2
v -1.1 0.8 2
v -1.1 1 2
v -1.1 1.2 2
v -0.7 0.2 2
v -0.7 0.8 2
v -0.7 1 2
v -0.7 1.2 2
v -0.5 0.2 2
v -0.5 0.8 2
v -0.5 1 2
v -0.5 1.2 2
v -0.0999999 0.2 2
v -0.0999999 0.8 2
v -0.0999999 1 2
v -0.0999999 1.2 2
v 0.1 0.2 2
v 0.1 0.8 2
v 0.1 1 2
v 0.1 1.2 2
v 0.5 0.2 2
v 0.5 0.8 2
v 0.5 1 2
v 0.5 1.2 2
v 0.7 0.2 2
v 0.7 0.8 2
v 0.7 1 2
v 0.7 1.2 2
v 1.1 0.2 2
v 1.1 0.8 2
v 1.1 1 2
v 1.1 1.2 2
v 1.3 0.2 2
v 1.3 0.8 2
v 1.3 1 2
v 1.3 1.2 2
v 1.7 0.2 2
v 1.7 0.8 2
v 1.7 1 2
v 1.7 1.2 2
v 1.9 0.2 2
v 1.9 0.8 2
v 1.9 1 2
v 1.9 1.2 2
v 2.3 0.2 2
v 2.3 0.8 2
v 2.3 1 2
v 2.3 1.2 2
v 2.5 0.2 2
v 2.5 0.8 2
v 2.5 1 2
v 2.5 1.2 2
v 2.9 0.2 2
v 2.9 0.8 2
v 2.9 1 2
v 2.9 1.2 2
v 3 0 2
v 3 1.2 2
v -3 1 1.4
v -3 1.2 1.4
v -2.9 1 1.4
v -2.9 1.2 1.4
v 2.9 1 1.4
v 2.9 1.2 1.4
v 3 1 1.4
v 3 1.2 1.4
v -2 2.2 1
v -2 2.3 1
v -1.9 2.2 1
v -1.9 2.3 1
v -3 1 0.8
v -3 1.2 0.8
v -2.9 1 0.8
v -2.9 1.2 0.8
v -2.1 2.2 0.8
v -2.1 2.3 0.8
v -2 0.9 0.8
v -2 2.2 0.8
v -2 2.3 0.8
v -1.9 0.9 0.8
v -1.9 1.7 0.8
v -1.9 1.9 0.8
v -1.9 2.2 0.8
v -1.9 2.3 0.8
v -1.7 1.7 0.8
v -1.7 1.9 0.8
v -1.7 2.2 0.8
v -1.7 2.3 0.8
v -0.8 0.9 0.8
v -0.8 1 0.8
v -0.7 0.9 0.8
v -0.7 1 0.8
v 2.9 1 0.8
v 2.9 1.2 0.8
v 3 1 0.8
v 3 1.2 0.8
v -3 1 0.2
v -3 1.2 0.2
v -2.9 1 0.2
v -2.9 1.2 0.2
v 2.9 1 0.2
v 2.9 1.2 0.2
v 3 1 0.2
v 3 1.2 0.2
v -3 1 -0.4
v -3 1.2 -0.4
v -2.9 1 -0.4
v -2.9 1.2 -0.4
v 2.9 1 -0.4
v 2.9 1.2 -0.4
v 3 1 -0.4
v 3 1.2 -0.4
v -2.9 0.9 -0.8
v -2.9 1 -0.8
v -2.8 1 -0.8
v -2.8 1.2 -0.8
v -2.6 1 -0.8
v -2.6 1.2 -0.8
v -2.2 1 -0.8
v -2.2 1.2 -0.8
v -2 1 -0.8
v -2 1.2 -0.8
v -1.6 1 -0.8
v -1.6 1.2 -0.8
v -1.4 1 -0.8
v -1.4 1.2 -0.8
v -1 1 -0.8
v -1 1.2 -0.8
v -0.8 1 -0.8
v -0.8 1.2 -0.8
v -0.4 1 -0.8
v -0.4 1.2 -0.8
v -0.2 1 -0.8
v -0.2 1.2 -0.8
v 0.2 1 -0.8
v 0.2 1.2 -0.8
v 0.4 1 -0.8
v 0.4 1.2 -0.8
v 0.8 1 -0.8
v 0.8 1.2 -0.8
v 1 1 -0.8
v 1 1.2 -0.8
v 1.4 1 -0.8
v 1.4 1.2 -0.8
v 1.6 1 -0.8
v 1.6 1.2 -0.8
v 2 1 -0.8
v 2 1.2 -0.8
v 2.2 1 -0.8
v 2.2 1.2 -0.8
v 2.6 1 -0.8
v 2.6 1.2 -0.8
v 2.8 1 -0.8
v 2.8 1.2 -0.8
v 2.9 0.9 -0.8
v 2.9 1 -0.8
v -2.9 0.9 1.9
v -2.9 1 1.9
v -2.5 1 1.9
v -2.5 1.2 1.9
v -2.3 1 1.9
v -2.3 1.2 1.9
v -1.9 1 1.9
v -1.9 1.2 1.9
v -1.7 1 1.9
v -1.7 1.2 1.9
v -1.3 1 1.9
v -1.3 1.2 1.9
v -1.1 1 1.9
v -1.1 1.2 1.9
v -0.7 1 1.9
v -0.7 1.2 1.9
v -0.5 1 1.9
v -0.5 1.2 1.9
v -0.0999999 1 1.9
v -0.0999999 1.2 1.9
v 0.1 1 1.9
v 0.1 1.2 1.9
v 0.5 1 1.9
v 0.5 1.2 1.9
v 0.7 1 1.9
v 0.7 1.2 1.9
v 1.1 1 1.9
v 1.1 1.2 1.9
v 1.3 1 1.9
v 1.3 1.2 1.9
v 1.7 1 1.9
v 1.7 1.2 1.9
v 1.9 1 1.9
v 1.9 1.2 1.9
v 2.3 1 1.9
v 2.3 1.2 1.9
v 2.5 1 1.9
v 2.5 1.2 1.9
v 2.9 0.9 1.9
v 2.9 1 1.9
v -3 1 1.8
v -3 1.2 1.8
v -2.9 1 1.8
v -2.9 1.2 1.8
v 2.9 1 1.8
v 2.9 1.2 1.8
v 3 1 1.8
v 3 1.2 1.8
v -3 1 1.2
v -3 1.2 1.2
v -2.9 1 1.2
v -2.9 1.2 1.2
v 2.9 1 1.2
v 2.9 1.2 1.2
v 3 1 1.2
v 3 1.2 1.2
v -2.1 2.2 0.7
v -2.1 2.3 0.7
v -2 0.9 0.7
v -2 2.2 0.7
v -2 2.3 0.7
v -1.9 0.9 0.7
v -1.9 1.7 0.7
v -1.9 1.9 0.7
v -1.9 2.2 0.7
v -1.9 2.3 0.7
v -1.7 1.7 0.7
v -1.7 1.9 0.7
v -1.7 2.2 0.7
v -1.7 2.3 0.7
v -0.8 0.9 0.7
v -0.8 1 0.7
v -0.7 0.9 0.7
v -0.7 1 0.7
v -3 1 0.6
v -3 1.2 0.6
v -2.9 1 0.6
v -2.9 1.2 0.6
v 2.9 1 0.6
v 2.9 1.2 0.6
v 3 1 0.6
v 3 1.2 0.6
v -2 2.2 0.5
v -2 2.3 0.5
v -1.9 2.2 0.5
v -1.9 2.3 0.5
v -3 1 -2.38419e-07
v -3 1.2 -2.38419e-07
v -2.9 1 -2.38419e-07
v -2.9 1.2 -2.38419e-07
v 2.9 1 -2.38419e-07
v 2.9 1.2 -2.38419e-07
v 3 1 -2.38419e-07
v 3 1.2 -2.38419e-07
v -3 1 -0.6
v -3 1.2 -0.6
v -2.9 1 -0.6
v -2.9 1.2 -0.6
v 2.9 1 -0.6
v 2.9 1.2 -0.6
v 3 1 -0.6
v 3 1.2 -0.6
v -3 0 -0.9
v -3 0.2 -0.9
v -3 0.8 -0.9
v -3 1 -0.9
v -2.8 0.2 -0.9
v -2.8 0.8 -0.9
v -2.8 1 -0.9
v -2.8 1.2 -0.9
v -2.6 0.2 -0.9
v -2.6 0.8 -0.9
v -2.6 1 -0.9
v -2.6 1.2 -0.9
v -2.2 0.2 -0.9
v -2.2 0.8 -0.9
v -2.2 1 -0.9
v -2.2 1.2 -0.9
v -2 0.2 -0.9
v -2 0.8 -0.9
v -2 1 -0.9
v -2 1.2 -0.9
v -1.6 0.2 -0.9
v -1.6 0.8 -0.9
v -1.6 1 -0.9
v -1.6 1.2 -0.9
v -1.4 0.2 -0.9
v -1.4 0.8 -0.9
v -1.4 1 -0.9
v -1.4 1.2 -0.9
v -1 0.2 -0.9
v -1 0.8 -0.9
v -1 1 -0.9
v -1 1.2 -0.9
v -0.8 0.2 -0.9
v -0.8 0.8 -0.9
v -0.8 1 -0.9
v -0.8 1.2 -0.9
v -0.4 0.2 -0.9
v -0.4 0.8 -0.9
v -0.4 1 -0.9
v -0.4 1.2 -0.9
v -0.2 0.2 -0.9
v -0.2 0.8 -0.9
v -0.2 1 -0.9
v -0.2 1.2 -0.9
v 0.2 0.2 -0.9
v 0.2 0.8 -0.9
v 0.2 1 -0.9
v 0.2 1.2 -0.9
v 0.4 0.2 -0.9
v 0.4 0.8 -0.9
v 0.4 1 -0.9
v 0.4 1.2 -0.9
v 0.8 0.2 -0.9
v 0.8 0.8 -0.9
v 0.8 1 -0.9
v 0.8 1.2 -0.9
v 1 0.2 -0.9
v 1 0.8 -0.9
v 1 1 -0.9
v 1 1.2 -0.9
v 1.4 0.2 -0.9
v 1.4 0.8 -0.9
v 1.4 1 -0.9
v 1.4 1.2 -0.9
v 1.6 0.2 -0.9
v 1.6 0.8 -0.9
v 1.6 1 -0.9
v 1.6 1.2 -0.9
v 2 0.2 -0.9
v 2 0.8 -0.9
v 2 1 -0.9
v 2 1.2 -0.9
v 2.2 0.2 -0.9
v 2.2 0.8 -0.9
v 2.2 1 -0.9
v 2.2 1.2 -0.9
v 2.6 0.2 -0.9
v 2.6 0.8 -0.9
v 2.6 1 -0.9
v 2.6 1.2 -0.9
v 2.8 0.2 -0.9
v 2.8 0.8 -0.9
v 2.8 1 -0.9
v 2.8 1.2 -0.9
v 3 0 -0.9
v 3 0.2 -0.9
v 3 0.8 -0.9
v 3 1 -0.9
v -3 0 2
v 3 0 2
v -3 0 -0.9
v 3 0 -0.9
v -1.9 1.7 0.8
v -1.7 1.7 0.8
v -1.9 1.7 0.7
v -1.7 1.7 0.7
v -2 2.2 1
v -1.9 2.2 1
v -2.1 2.2 0.8
v -2 2.2 0.8
v -1.9 2.2 0.8
v -1.7 2.2 0.8
v -2.1 2.2 0.7
v -2 2.2 0.7
v -1.9 2.2 0.7
v -1.7 2.2 0.7
v -2 2.2 0.5
v -1.9 2.2 0.5
v -2.9 0.9 1.9
v 2.9 0.9 1.9
v -2 0.9 0.8
v -1.9 0.9 0.8
v -0.8 0.9 0.8
v -0.7 0.9 0.8
v -2 0.9 0.7
v -1.9 0.9 0.7
v -0.8 0.9 0.7
v -0.7 0.9 0.7
v -2.9 0.9 -0.8
v 2.9 0.9 -0.8
v -2.9 1 2
v -2.5 1 2
v -2.3 1 2
v -1.9 1 2
v -1.7 1 2
v -1.3 1 2
v -1.1 1 2
v -0.7 1 2
v -0.5 1 2
v -0.0999999 1 2
v 0.1 1 2
v 0.5 1 2
v 0.7 1 2
v 1.1 1 2
v 1.3 1 2
v 1.7 1 2
v 1.9 1 2
v 2.3 1 2
v 2.5 1 2
v 2.9 1 2
v -2.9 1 1.9
v -2.5 1 1.9
v -2.3 1 1.9
v -1.9 1 1.9
v -1.7 1 1.9
v -1.3 1 1.9
v -1.1 1 1.9
v -0.7 1 1.9
v -0.5 1 1.9
v -0.0999999 1 1.9
v 0.1 1 1.9
v 0.5 1 1.9
v 0.7 1 1.9
v 1.1 1 1.9
v 1.3 1 1.9
v 1.7 1 1.9
v 1.9 1 1.9
v 2.3 1 1.9
v 2.5 1 1.9
v 2.9 1 1.9
v -3 1 1.8
v -2.9 1 1.8
v 2.9 1 1.8
v 3 1 1.8
v -3 1 1.4
v -2.9 1 1.4
v 2.9 1 1.4
v 3 1 1.4
v -3 1 1.2
v -2.9 1 1.2
v 2.9 1 1.2
v 3 1 1.2
v -3 1 0.8
v -2.9 1 0.8
v -0.8 1 0.8
v -0.7 1 0.8
v 2.9 1 0.8
v 3 1 0.8
v -0.8 1 0.7
v -0.7 1 0.7
v -3 1 0.6
v -2.9 1 0.6
v 2.9 1 0.6
v 3 1 0.6
v -3 1 0.2
v -2.9 1 0.2
v 2.9 1 0.2
v 3 1 0.2
v -3 1 -2.38419e-07
v -2.9 1 -2.38419e-07
v 2.9 1 -2.38419e-07
v 3 1 -2.38419e-07
v -3 1 -0.4
v -2.9 1 -0.4
v 2.9 1 -0.4
v 3 1 -0.4
v -3 1 -0.6
v -2.9 1 -0.6
v 2.9 1 -0.6
v 3 1 -0.6
v -2.9 1 -0.8
v -2.8 1 -0.8
v -2.6 1 -0.8
v -2.2 1 -0.8
v -2 1 -0.8
v -1.6 1 -0.8
v -1.4 1 -0.8
v -1 1 -0.8
v -0.8 1 -0.8
v -0.4 1 -0.8
v -0.2 1 -0.8
v 0.2 1 -0.8
v 0.4 1 -0.8
v 0.8 1 -0.8
v 1 1 -0.8
v 1.4 1 -0.8
v 1.6 1 -0.8
v 2 1 -0.8
v 2.2 1 -0.8
v 2.6 1 -0.8
v 2.8 1 -0.8
v 2.9 1 -0.8
v -3 1 -0.9
v -2.8 1 -0.9
v -2.6 1 -0.9
v -2.2 1 -0.9
v -2 1 -0.9
v -1.6 1 -0.9
v -1.4 1 -0.9
v -1 1 -0.9
v -0.8 1 -0.9
v -0.4 1 -0.9
v -0.2 1 -0.9
v 0.2 1 -0.9
v 0.4 1 -0.9
v 0.8 1 -0.9
v 1 1 -0.9
v 1.4 1 -0.9
v 1.6 1 -0.9
v 2 1 -0.9
v 2.2 1 -0.9
v 2.6 1 -0.9
v 2.8 1 -0.9
v 3 1 -0.9
v -3 1.2 2
v -2.9 1.2 2
v -2.5 1.2 2
v -2.3 1.2 2
v -1.9 1.2 2
v -1.7 1.2 2
v -1.3 1.2 2
v -1.1 1.2 2
v -0.7 1.2 2
v -0.5 1.2 2
v -0.0999999 1.2 2
v 0.1 1.2 2
v 0.5 1.2 2
v 0.7 1.2 2
v 1.1 1.2 2
v 1.3 1.2 2
v 1.7 1.2 2
v 1.9 1.2 2
v 2.3 1.2 2
v 2.5 1.2 2
v 2.9 1.2 2
v 3 1.2 2
v -2.5 1.2 1.9
v -2.3 1.2 1.9
v -1.9 1.2 1.9
v -1.7 1.2 1.9
v -1.3 1.2 1.9
v -1.1 1.2 1.9
v -0.7 1.2 1.9
v -0.5 1.2 1.9
v -0.0999999 1.2 1.9
v 0.1 1.2 1.9
v 0.5 1.2 1.9
v 0.7 1.2 1.9
v 1.1 1.2 1.9
v 1.3 1.2 1.9
v 1.7 1.2 1.9
v 1.9 1.2 1.9
v 2.3 1.2 1.9
v 2.5 1.2 1.9
v -3 1.2 1.8
v -2.9 1.2 1.8
v 2.9 1.2 1.8
v 3 1.2 1.8
v -3 1.2 1.4
v -2.9 1.2 1.4
v 2.9 1.2 1.4
v 3 1.2 1.4
v -3 1.2 1.2
v -2.9 1.2 1.2
v 2.9 1.2 1.2
v 3 1.2 1.2
v -3 1.2 0.8
v -2.9 1.2 0.8
v 2.9 1.2 0.8
v 3 1.2 0.8
v -3 1.2 0.6
v -2.9 1.2 0.6
v 2.9 1.2 0.6
v 3 1.2 0.6
v -3 1.2 0.2
v -2.9 1.2 0.2
v 2.9 1.2 0.2
v 3 1.2 0.2
v -3 1.2 -2.38419e-07
v -2.9 1.2 -2.38419e-07
v 2.9 1.2 -2.38419e-07
v 3 1.2 -2.38419e-07
v -3 1.2 -0.4
v -2.9 1.2 -0.4
v 2.9 1.2 -0.4
v 3 1.2 -0.4
v -3 1.2 -0.6
v -2.9 1.2 -0.6
v 2.9 1.2 -0.6
v 3 1.2 -0.6
v -2.8 1.2 -0.8
v -2.6 1.2 -0.8
v -2.2 1.2 -0.8
v -2 1.2 -0.8
v -1.6 1.2 -0.8
v -1.4 1.2 -0.8
v -1 1.2 -0.8
v -0.8 1.2 -0.8
v -0.4 1.2 -0.8
v -0.2 1.2 -0.8
v 0.2 1.2 -0.8
v 0.4 1.2 -0.8
v 0.8 1.2 -0.8
v 1 1.2 -0.8
v 1.4 1.2 -0.8
v 1.6 1.2 -0.8
v 2 1.2 -0.8
v 2.2 1.2 -0.8
v 2.6 1.2 -0.8
v 2.8 1.2 -0.8
v -2.8 1.2 -0.9
v -2.6 1.2 -0.9
v -2.2 1.2 -0.9
v -2 1.2 -0.9
v -1.6 1.2 -0.9
v -1.4 1.2 -0.9
v -1 1.2 -0.9
v -0.8 1.2 -0.9
v -0.4 1.2 -0.9
v -0.2 1.2 -0.9
v 0.2 1.2 -0.9
v 0.4 1.2 -0.9
v 0.8 1.2 -0.9
v 1 1.2 -0.9
v 1.4 1.2 -0.9
v 1.6 1.2 -0.9
v 2 1.2 -0.9
v 2.2 1.2 -0.9
v 2.6 1.2 -0.9
v 2.8 1.2 -0.9
v -1.9 1.9 0.8
v -1.7 1.9 0.8
v -1.9 1.9 0.7
v -1.7 1.9 0.7
v -2 2.3 1
v -1.9 2.3 1
v -2.1 2.3 0.8
v -2 2.3 0.8
v -1.9 2.3 0.8
v -1.7 2.3 0.8
v -2.1 2.3 0.7
v -2 2.3 0.7
v -1.9 2.3 0.7
v -1.7 2.3 0.7
v -2 2.3 0.5
v -1.9 2.3 0.5

# faces
f 3/2/1 2/2/1 1/2/1
f 4/2/1 2/2/1 3/2/1
f 5/2/1 2/2/1 4/2/1
f 6/2/1 2/2/1 5/2/1
f 7/2/1 2/2/1 6/2/1
f 8/2/1 2/2/1 7/2/1
f 9/2/1 2/2/1 8/2/1
f 10/2/1 2/2/1 9/2/1
f 11/2/1 2/2/1 10/2/1
f 12/2/1 2/2/1 11/2/1
f 13/2/1 3/2/1 1/2/1
f 13/5/1 4/5/1 3/5/1
f 14/2/1 5/2/1 4/2/1
f 14/5/1 4/5/1 13/5/1
f 15/5/1 6/5/1 5/5/1
f 15/2/1 5/2/1 14/2/1
f 16/2/1 7/2/1 6/2/1
f 16/5/1 6/5/1 15/5/1
f 17/5/1 8/5/1 7/5/1
f 17/2/1 7/2/1 16/2/1
f 18/2/1 9/2/1 8/2/1
f 18/5/1 8/5/1 17/5/1
f 19/5/1 10/5/1 9/5/1
f 19/2/1 9/2/1 18/2/1
f 20/2/1 11/2/1 10/2/1
f 20/5/1 10/5/1 19/5/1
f 21/5/1 12/5/1 11/5/1
f 21/2/1 11/2/1 20/2/1
f 22/5/1 12/5/1 21/5/1
f 23/2/1 20/2/1 19/2/1
f 23/2/1 13/2/1 1/2/1
f 23/2/1 22/2/1 21/2/1
f 23/2/1 21/2/1 20/2/1
f 23/2/1 19/2/1 18/2/1
f 23/2/1 18/2/1 17/2/1
f 23/2/1 17/2/1 16/2/1
f 23/2/1 16/2/1 15/2/1
f 23/2/1 15/2/1 14/2/1
f 23/2/1 14/2/1 13/2/1
f 24/2/1 22/2/1 23/2/1
f 25/2/1 22/2/1 24/2/1
f 26/2/1 22/2/1 25/2/1
f 27/2/1 22/2/1 26/2/1
f 28/2/1 22/2/1 27/2/1
f 29/2/1 22/2/1 28/2/1
f 30/2/1 22/2/1 29/2/1
f 31/2/1 22/2/1 30/2/1
f 32/2/1 22/2/1 31/2/1
f 33/2/1 23/2/1 1/2/1
f 34/2/1 23/2/1 33/2/1
f 35/2/1 25/2/1 24/2/1
f 36/2/1 25/2/1 35/2/1
f 37/2/1 27/2/1 26/2/1
f 38/2/1 27/2/1 37/2/1
f 39/2/1 29/2/1 28/2/1
f 40/2/1 29/2/1 39/2/1
f 41/2/1 31/2/1 30/2/1
f 42/2/1 31/2/1 41/2/1
f 45/2/1 44/2/1 43/2/1
f 46/2/1 44/2/1 45/2/1
f 49/2/1 48/2/1 47/2/1
f 50/2/1 48/2/1 49/2/1
f 53/2/1 52/2/1 51/2/1
f 54/2/1 52/2/1 53/2/1
f 57/7/1 56/7/1 55/7/1
f 58/7/1 56/7/1 57/7/1
f 62/5/1 60/5/1 59/5/1
f 63/5/1 60/5/1 62/5/1
f 65/7/1 62/7/1 61/7/1
f 66/7/1 62/7/1 65/7/1
f 67/7/1 64/7/1 63/7/1
f 68/7/1 64/7/1 67/7/1
f 71/2/1 70/2/1 69/2/1
f 72/2/1 70/2/1 71/2/1
f 75/2/1 74/2/1 73/2/1
f 76/2/1 74/2/1 75/2/1
f 79/2/1 78/2/1 77/2/1
f 80/2/1 78/2/1 79/2/1
f 83/2/1 82/2/1 81/2/1
f 84/2/1 82/2/1 83/2/1
f 87/5/1 86/5/1 85/5/1
f 88/5/1 86/5/1 87/5/1
f 91/2/1 90/2/1 89/2/1
f 92/2/1 90/2/1 91/2/1
f 95/2/1 94/2/1 93/2/1
f 96/2/1 94/2/1 95/2/1
f 99/2/1 98/2/1 97/2/1
f 100/2/1 98/2/1 99/2/1
f 103/2/1 102/2/1 101/2/1
f 104/2/1 102/2/1 103/2/1
f 107/2/1 106/2/1 105/2/1
f 108/2/1 106/2/1 107/2/1
f 111/2/1 110/2/1 109/2/1
f 112/2/1 110/2/1 111/2/1
f 115/2/1 114/2/1 113/2/1
f 116/2/1 114/2/1 115/2/1
f 119/2/1 118/2/1 117/2/1
f 120/2/1 118/2/1 119/2/1
f 123/2/1 122/2/1 121/2/1
f 124/2/1 122/2/1 123/2/1
f 127/2/1 126/2/1 125/2/1
f 128/2/1 126/2/1 127/2/1
f 131/2/1 130/2/1 129/2/1
f 132/2/1 130/2/1 131/2/1
f 135/2/1 134/2/1 133/2/1
f 136/2/1 134/2/1 135/2/1
f 140/2/1 138/2/1 137/2/1
f 141/2/1 138/2/1 140/2/1
f 142/2/1 138/2/1 141/2/1
f 143/2/1 138/2/1 142/2/1
f 144/2/1 138/2/1 143/2/1
f 145/2/1 138/2/1 144/2/1
f 146/2/1 138/2/1 145/2/1
f 147/2/1 138/2/1 146/2/1
f 148/2/1 138/2/1 147/2/1
f 149/2/1 138/2/1 148/2/1
f 150/2/1 138/2/1 149/2/1
f 151/2/1 140/2/1 139/2/1
f 151/2/1 141/2/1 140/2/1
f 152/2/1 141/2/1 151/2/1
f 153/2/1 143/2/1 142/2/1
f 154/2/1 143/2/1 153/2/1
f 155/2/1 145/2/1 144/2/1
f 156/2/1 145/2/1 155/2/1
f 157/2/1 147/2/1 146/2/1
f 158/2/1 147/2/1 157/2/1
f 159/2/1 149/2/1 148/2/1
f 160/2/1 149/2/1 159/2/1
f 161/2/2 162/2/2 164/2/2
f 164/2/2 162/2/2 165/2/2
f 165/2/2 162/2/2 166/2/2
f 166/2/2 162/2/2 167/2/2
f 167/2/2 162/2/2 168/2/2
f 168/2/2 162/2/2 169/2/2
f 169/2/2 162/2/2 170/2/2
f 170/2/2 162/2/2 171/2/2
f 171/2/2 162/2/2 172/2/2
f 172/2/2 162/2/2 173/2/2
f 173/2/2 162/2/2 174/2/2
f 163/2/2 164/2/2 175/2/2
f 164/2/2 165/2/2 175/2/2
f 175/2/2 165/2/2 176/2/2
f 166/2/2 167/2/2 177/2/2
f 177/2/2 167/2/2 178/2/2
f 168/2/2 169/2/2 179/2/2
f 179/2/2 169/2/2 180/2/2
f 170/2/2 171/2/2 181/2/2
f 181/2/2 171/2/2 182/2/2
f 172/2/2 173/2/2 183/2/2
f 183/2/2 173/2/2 184/2/2
f 185/2/2 186/2/2 187/2/2
f 187/2/2 186/2/2 188/2/2
f 189/2/2 190/2/2 191/2/2
f 191/2/2 190/2/2 192/2/2
f 193/2/2 194/2/2 195/2/2
f 195/2/2 194/2/2 196/2/2
f 197/5/2 198/5/2 199/5/2
f 199/5/2 198/5/2 200/5/2
f 201/5/2 202/5/2 204/5/2
f 204/5/2 202/5/2 205/5/2
f 203/7/2 204/7/2 207/7/2
f 207/7/2 204/7/2 208/7/2
f 205/7/2 206/7/2 209/7/2
f 209/7/2 206/7/2 210/7/2
f 211/2/2 212/2/2 213/2/2
f 213/2/2 212/2/2 214/2/2
f 215/5/2 216/5/2 217/5/2
f 217/5/2 216/5/2 218/5/2
f 219/7/2 220/7/2 221/7/2
f 221/7/2 220/7/2 222/7/2
f 223/2/2 224/2/2 225/2/2
f 225/2/2 224/2/2 226/2/2
f 227/2/2 228/2/2 229/2/2
f 229/2/2 228/2/2 230/2/2
f 231/2/2 232/2/2 233/2/2
f 233/2/2 232/2/2 234/2/2
f 235/5/2 236/5/2 237/5/2
f 237/5/2 236/5/2 238/5/2
f 239/2/2 240/2/2 241/2/2
f 241/2/2 240/2/2 242/2/2
f 243/2/2 244/2/2 245/2/2
f 245/2/2 244/2/2 246/2/2
f 247/2/2 248/2/2 249/2/2
f 249/2/2 248/2/2 250/2/2
f 251/2/2 252/2/2 253/2/2
f 253/2/2 252/2/2 254/2/2
f 255/2/2 256/2/2 257/2/2
f 257/2/2 256/2/2 258/2/2
f 259/2/2 260/2/2 261/2/2
f 261/2/2 260/2/2 262/2/2
f 263/2/2 264/2/2 265/2/2
f 265/2/2 264/2/2 266/2/2
f 267/2/2 268/2/2 269/2/2
f 269/2/2 268/2/2 270/2/2
f 271/2/2 272/2/2 273/2/2
f 273/2/2 272/2/2 274/2/2
f 275/2/2 276/2/2 277/2/2
f 277/2/2 276/2/2 278/2/2
f 279/2/2 280/2/2 281/2/2
f 281/2/2 280/2/2 282/2/2
f 283/2/2 284/2/2 285/2/2
f 285/2/2 284/2/2 286/2/2
f 287/2/2 288/2/2 289/2/2
f 289/2/2 288/2/2 290/2/2
f 290/2/2 288/2/2 291/2/2
f 291/2/2 288/2/2 292/2/2
f 292/2/2 288/2/2 293/2/2
f 293/2/2 288/2/2 294/2/2
f 294/2/2 288/2/2 295/2/2
f 295/2/2 288/2/2 296/2/2
f 296/2/2 288/2/2 297/2/2
f 297/2/2 288/2/2 298/2/2
f 287/2/2 289/2/2 299/2/2
f 289/5/2 290/5/2 299/5/2
f 290/2/2 291/2/2 300/2/2
f 299/5/2 290/5/2 300/5/2
f 291/5/2 292/5/2 301/5/2
f 300/2/2 291/2/2 301/2/2
f 292/2/2 293/2/2 302/2/2
f 301/5/2 292/5/2 302/5/2
f 293/5/2 294/5/2 303/5/2
f 302/2/2 293/2/2 303/2/2
f 294/2/2 295/2/2 304/2/2
f 303/5/2 294/5/2 304/5/2
f 295/5/2 296/5/2 305/5/2
f 304/2/2 295/2/2 305/2/2
f 296/2/2 297/2/2 306/2/2
f 305/5/2 296/5/2 306/5/2
f 297/5/2 298/5/2 307/5/2
f 306/2/2 297/2/2 307/2/2
f 307/5/2 298/5/2 308/5/2
f 305/2/2 306/2/2 309/2/2
f 287/2/2 299/2/2 309/2/2
f 307/2/2 308/2/2 309/2/2
f 306/2/2 307/2/2 309/2/2
f 304/2/2 305/2/2 309/2/2
f 303/2/2 304/2/2 309/2/2
f 302/2/2 303/2/2 309/2/2
f 301/2/2 302/2/2 309/2/2
f 300/2/2 301/2/2 309/2/2
f 299/2/2 300/2/2 309/2/2
f 309/2/2 308/2/2 310/2/2
f 310/2/2 308/2/2 311/2/2
f 311/2/2 308/2/2 312/2/2
f 312/2/2 308/2/2 313/2/2
f 313/2/2 308/2/2 314/2/2
f 314/2/2 308/2/2 315/2/2
f 315/2/2 308/2/2 316/2/2
f 316/2/2 308/2/2 317/2/2
f 317/2/2 308/2/2 318/2/2
f 287/2/2 309/2/2 319/2/2
f 319/2/2 309/2/2 320/2/2
f 310/2/2 311/2/2 321/2/2
f 321/2/2 311/2/2 322/2/2
f 312/2/2 313/2/2 323/2/2
f 323/2/2 313/2/2 324/2/2
f 314/2/2 315/2/2 325/2/2
f 325/2/2 315/2/2 326/2/2
f 316/2/2 317/2/2 327/2/2
f 327/2/2 317/2/2 328/2/2
f 331/2/3 330/2/3 329/2/3
f 332/2/3 330/2/3 331/2/3
f 333/2/3 330/2/3 332/2/3
f 334/2/3 330/2/3 333/2/3
f 335/2/3 331/2/3 329/2/3
f 335/5/3 332/5/3 331/5/3
f 336/2/3 333/2/3 332/2/3
f 336/5/3 332/5/3 335/5/3
f 337/2/3 333/2/3 336/2/3
f 339/2/3 335/2/3 329/2/3
f 339/2/3 338/2/3 337/2/3
f 339/2/3 337/2/3 336/2/3
f 339/2/3 336/2/3 335/2/3
f 340/2/3 338/2/3 339/2/3
f 341/2/3 338/2/3 340/2/3
f 342/2/3 338/2/3 341/2/3
f 343/2/3 339/2/3 329/2/3
f 343/5/3 340/5/3 339/5/3
f 344/2/3 341/2/3 340/2/3
f 344/5/3 340/5/3 343/5/3
f 345/2/3 341/2/3 344/2/3
f 347/2/3 343/2/3 329/2/3
f 347/2/3 346/2/3 345/2/3
f 347/2/3 345/2/3 344/2/3
f 347/2/3 344/2/3 343/2/3
f 348/2/3 346/2/3 347/2/3
f 349/2/3 346/2/3 348/2/3
f 350/2/3 346/2/3 349/2/3
f 351/2/3 347/2/3 329/2/3
f 351/5/3 348/5/3 347/5/3
f 352/2/3 349/2/3 348/2/3
f 352/5/3 348/5/3 351/5/3
f 353/2/3 349/2/3 352/2/3
f 355/2/3 351/2/3 329/2/3
f 355/2/3 354/2/3 353/2/3
f 355/2/3 353/2/3 352/2/3
f 355/2/3 352/2/3 351/2/3
f 356/2/3 354/2/3 355/2/3
f 357/2/3 354/2/3 356/2/3
f 358/2/3 354/2/3 357/2/3
f 359/2/3 355/2/3 329/2/3
f 359/5/3 356/5/3 355/5/3
f 360/2/3 357/2/3 356/2/3
f 360/5/3 356/5/3 359/5/3
f 361/2/3 357/2/3 360/2/3
f 363/2/3 359/2/3 329/2/3
f 363/2/3 362/2/3 361/2/3
f 363/2/3 361/2/3 360/2/3
f 363/2/3 360/2/3 359/2/3
f 364/2/3 362/2/3 363/2/3
f 365/2/3 362/2/3 364/2/3
f 366/2/3 362/2/3 365/2/3
f 367/2/3 363/2/3 329/2/3
f 367/5/3 364/5/3 363/5/3
f 368/2/3 365/2/3 364/2/3
f 368/5/3 364/5/3 367/5/3
f 369/2/3 365/2/3 368/2/3
f 371/2/3 367/2/3 329/2/3
f 371/2/3 370/2/3 369/2/3
f 371/2/3 369/2/3 368/2/3
f 371/2/3 368/2/3 367/2/3
f 372/2/3 370/2/3 371/2/3
f 373/2/3 370/2/3 372/2/3
f 374/2/3 370/2/3 373/2/3
f 375/2/3 371/2/3 329/2/3
f 375/5/3 372/5/3 371/5/3
f 376/2/3 373/2/3 372/2/3
f 376/5/3 372/5/3 375/5/3
f 377/2/3 373/2/3 376/2/3
f 379/2/3 375/2/3 329/2/3
f 379/2/3 378/2/3 377/2/3
f 379/2/3 377/2/3 376/2/3
f 379/2/3 376/2/3 375/2/3
f 380/2/3 378/2/3 379/2/3
f 381/2/3 378/2/3 380/2/3
f 382/2/3 378/2/3 381/2/3
f 383/2/3 379/2/3 329/2/3
f 383/5/3 380/5/3 379/5/3
f 384/2/3 381/2/3 380/2/3
f 384/5/3 380/5/3 383/5/3
f 385/2/3 381/2/3 384/2/3
f 387/2/3 383/2/3 329/2/3
f 387/2/3 386/2/3 385/2/3
f 387/2/3 385/2/3 384/2/3
f 387/2/3 384/2/3 383/2/3
f 388/2/3 386/2/3 387/2/3
f 389/2/3 386/2/3 388/2/3
f 390/2/3 386/2/3 389/2/3
f 391/2/3 387/2/3 329/2/3
f 391/5/3 388/5/3 387/5/3
f 392/2/3 389/2/3 388/2/3
f 392/5/3 388/5/3 391/5/3
f 393/2/3 389/2/3 392/2/3
f 395/2/3 391/2/3 329/2/3
f 395/2/3 394/2/3 393/2/3
f 395/2/3 393/2/3 392/2/3
f 395/2/3 392/2/3 391/2/3
f 396/2/3 394/2/3 395/2/3
f 397/2/3 394/2/3 396/2/3
f 398/2/3 394/2/3 397/2/3
f 399/2/3 395/2/3 329/2/3
f 399/5/3 396/5/3 395/5/3
f 400/2/3 397/2/3 396/2/3
f 400/5/3 396/5/3 399/5/3
f 401/2/3 397/2/3 400/2/3
f 403/2/3 399/2/3 329/2/3
f 403/2/3 402/2/3 401/2/3
f 403/2/3 401/2/3 400/2/3
f 403/2/3 400/2/3 399/2/3
f 404/2/3 402/2/3 403/2/3
f 405/2/3 402/2/3 404/2/3
f 406/2/3 402/2/3 405/2/3
f 407/2/3 403/2/3 329/2/3
f 407/5/3 404/5/3 403/5/3
f 408/2/3 405/2/3 404/2/3
f 408/5/3 404/5/3 407/5/3
f 409/2/3 405/2/3 408/2/3
f 411/2/3 407/2/3 329/2/3
f 411/2/3 410/2/3 409/2/3
f 411/2/3 409/2/3 408/2/3
f 411/2/3 408/2/3 407/2/3
f 412/2/3 410/2/3 411/2/3
f 415/2/3 414/2/3 413/2/3
f 416/2/3 414/2/3 415/2/3
f 419/2/3 418/2/3 417/2/3
f 420/2/3 418/2/3 419/2/3
f 423/7/3 422/7/3 421/7/3
f 424/7/3 422/7/3 423/7/3
f 427/2/3 426/2/3 425/2/3
f 428/2/3 426/2/3 427/2/3
f 432/7/3 430/7/3 429/7/3
f 433/7/3 430/7/3 432/7/3
f 434/5/3 432/5/3 431/5/3
f 435/5/3 432/5/3 434/5/3
f 436/5/3 432/5/3 435/5/3
f 437/5/3 432/5/3 436/5/3
f 439/5/3 436/5/3 435/5/3
f 440/5/3 436/5/3 439/5/3
f 441/7/3 438/7/3 437/7/3
f 442/7/3 438/7/3 441/7/3
f 445/5/3 444/5/3 443/5/3
f 446/5/3 444/5/3 445/5/3
f 449/2/3 448/2/3 447/2/3
f 450/2/3 448/2/3 449/2/3
f 453/2/3 452/2/3 451/2/3
f 454/2/3 452/2/3 453/2/3
f 457/2/3 456/2/3 455/2/3
f 458/2/3 456/2/3 457/2/3
f 461/2/3 460/2/3 459/2/3
f 462/2/3 460/2/3 461/2/3
f 465/2/3 464/2/3 463/2/3
f 466/2/3 464/2/3 465/2/3
f 469/2/3 468/2/3 467/2/3
f 471/2/3 469/2/3 467/2/3
f 471/2/3 470/2/3 469/2/3
f 472/2/3 470/2/3 471/2/3
f 473/2/3 471/2/3 467/2/3
f 475/2/3 473/2/3 467/2/3
f 475/2/3 474/2/3 473/2/3
f 476/2/3 474/2/3 475/2/3
f 477/2/3 475/2/3 467/2/3
f 479/2/3 477/2/3 467/2/3
f 479/2/3 478/2/3 477/2/3
f 480/2/3 478/2/3 479/2/3
f 481/2/3 479/2/3 467/2/3
f 483/2/3 481/2/3 467/2/3
f 483/2/3 482/2/3 481/2/3
f 484/2/3 482/2/3 483/2/3
f 485/2/3 483/2/3 467/2/3
f 487/2/3 485/2/3 467/2/3
f 487/2/3 486/2/3 485/2/3
f 488/2/3 486/2/3 487/2/3
f 489/2/3 487/2/3 467/2/3
f 491/2/3 489/2/3 467/2/3
f 491/2/3 490/2/3 489/2/3
f 492/2/3 490/2/3 491/2/3
f 493/2/3 491/2/3 467/2/3
f 495/2/3 493/2/3 467/2/3
f 495/2/3 494/2/3 493/2/3
f 496/2/3 494/2/3 495/2/3
f 497/2/3 495/2/3 467/2/3
f 499/2/3 497/2/3 467/2/3
f 499/2/3 498/2/3 497/2/3
f 500/2/3 498/2/3 499/2/3
f 501/2/3 499/2/3 467/2/3
f 503/2/3 501/2/3 467/2/3
f 503/2/3 502/2/3 501/2/3
f 504/2/3 502/2/3 503/2/3
f 505/2/3 503/2/3 467/2/3
f 507/2/3 505/2/3 467/2/3
f 507/2/3 506/2/3 505/2/3
f 508/2/3 506/2/3 507/2/3
f 509/2/3 507/2/3 467/2/3
f 510/2/3 507/2/3 509/2/3
f 511/2/4 512/2/4 513/2/4
f 511/2/4 513/2/4 515/2/4
f 513/2/4 514/2/4 515/2/4
f 515/2/4 514/2/4 516/2/4
f 511/2/4 515/2/4 517/2/4
f 511/2/4 517/2/4 519/2/4
f 517/2/4 518/2/4 519/2/4
f 519/2/4 518/2/4 520/2/4
f 511/2/4 519/2/4 521/2/4
f 511/2/4 521/2/4 523/2/4
f 521/2/4 522/2/4 523/2/4
f 523/2/4 522/2/4 524/2/4
f 511/2/4 523/2/4 525/2/4
f 511/2/4 525/2/4 527/2/4
f 525/2/4 526/2/4 527/2/4
f 527/2/4 526/2/4 528/2/4
f 511/2/4 527/2/4 529/2/4
f 511/2/4 529/2/4 531/2/4
f 529/2/4 530/2/4 531/2/4
f 531/2/4 530/2/4 532/2/4
f 511/2/4 531/2/4 533/2/4
f 511/2/4 533/2/4 535/2/4
f 533/2/4 534/2/4 535/2/4
f 535/2/4 534/2/4 536/2/4
f 511/2/4 535/2/4 537/2/4
f 511/2/4 537/2/4 539/2/4
f 537/2/4 538/2/4 539/2/4
f 539/2/4 538/2/4 540/2/4
f 511/2/4 539/2/4 541/2/4
f 511/2/4 541/2/4 543/2/4
f 541/2/4 542/2/4 543/2/4
f 543/2/4 542/2/4 544/2/4
f 511/2/4 543/2/4 545/2/4
f 511/2/4 545/2/4 547/2/4
f 545/2/4 546/2/4 547/2/4
f 547/2/4 546/2/4 548/2/4
f 511/2/4 547/2/4 549/2/4
f 549/2/4 547/2/4 550/2/4
f 551/2/4 552/2/4 553/2/4
f 553/2/4 552/2/4 554/2/4
f 555/2/4 556/2/4 557/2/4
f 557/2/4 556/2/4 558/2/4
f 559/2/4 560/2/4 561/2/4
f 561/2/4 560/2/4 562/2/4
f 563/2/4 564/2/4 565/2/4
f 565/2/4 564/2/4 566/2/4
f 567/7/4 568/7/4 570/7/4
f 570/7/4 568/7/4 571/7/4
f 569/5/4 570/5/4 572/5/4
f 572/5/4 570/5/4 573/5/4
f 573/5/4 570/5/4 574/5/4
f 574/5/4 570/5/4 575/5/4
f 573/5/4 574/5/4 577/5/4
f 577/5/4 574/5/4 578/5/4
f 575/7/4 576/7/4 579/7/4
f 579/7/4 576/7/4 580/7/4
f 581/5/4 582/5/4 583/5/4
f 583/5/4 582/5/4 584/5/4
f 585/2/4 586/2/4 587/2/4
f 587/2/4 586/2/4 588/2/4
f 589/2/4 590/2/4 591/2/4
f 591/2/4 590/2/4 592/2/4
f 593/7/4 594/7/4 595/7/4
f 595/7/4 594/7/4 596/7/4
f 597/2/4 598/2/4 599/2/4
f 599/2/4 598/2/4 600/2/4
f 601/2/4 602/2/4 603/2/4
f 603/2/4 602/2/4 604/2/4
f 605/2/4 606/2/4 607/2/4
f 607/2/4 606/2/4 608/2/4
f 609/2/4 610/2/4 611/2/4
f 611/2/4 610/2/4 612/2/4
f 613/2/4 614/2/4 617/2/4
f 614/5/4 615/5/4 617/5/4
f 615/2/4 616/2/4 618/2/4
f 617/5/4 615/5/4 618/5/4
f 618/2/4 616/2/4 619/2/4
f 613/2/4 617/2/4 621/2/4
f 619/2/4 620/2/4 621/2/4
f 618/2/4 619/2/4 621/2/4
f 617/2/4 618/2/4 621/2/4
f 621/2/4 620/2/4 622/2/4
f 622/2/4 620/2/4 623/2/4
f 623/2/4 620/2/4 624/2/4
f 613/2/4 621/2/4 625/2/4
f 621/5/4 622/5/4 625/5/4
f 622/2/4 623/2/4 626/2/4
f 625/5/4 622/5/4 626/5/4
f 626/2/4 623/2/4 627/2/4
f 613/2/4 625/2/4 629/2/4
f 627/2/4 628/2/4 629/2/4
f 626/2/4 627/2/4 629/2/4
f 625/2/4 626/2/4 629/2/4
f 629/2/4 628/2/4 630/2/4
f 630/2/4 628/2/4 631/2/4
f 631/2/4 628/2/4 632/2/4
f 613/2/4 629/2/4 633/2/4
f 629/5/4 630/5/4 633/5/4
f 630/2/4 631/2/4 634/2/4
f 633/5/4 630/5/4 634/5/4
f 634/2/4 631/2/4 635/2/4
f 613/2/4 633/2/4 637/2/4
f 635/2/4 636/2/4 637/2/4
f 634/2/4 635/2/4 637/2/4
f 633/2/4 634/2/4 637/2/4
f 637/2/4 636/2/4 638/2/4
f 638/2/4 636/2/4 639/2/4
f 639/2/4 636/2/4 640/2/4
f 613/2/4 637/2/4 641/2/4
f 637/5/4 638/5/4 641/5/4
f 638/2/4 639/2/4 642/2/4
f 641/5/4 638/5/4 642/5/4
f 642/2/4 639/2/4 643/2/4
f 613/2/4 641/2/4 645/2/4
f 643/2/4 644/2/4 645/2/4
f 642/2/4 643/2/4 645/2/4
f 641/2/4 642/2/4 645/2/4
f 645/2/4 644/2/4 646/2/4
f 646/2/4 644/2/4 647/2/4
f 647/2/4 644/2/4 648/2/4
f 613/2/4 645/2/4 649/2/4
f 645/5/4 646/5/4 649/5/4
f 646/2/4 647/2/4 650/2/4
f 649/5/4 646/5/4 650/5/4
f 650/2/4 647/2/4 651/2/4
f 613/2/4 649/2/4 653/2/4
f 651/2/4 652/2/4 653/2/4
f 650/2/4 651/2/4 653/2/4
f 649/2/4 650/2/4 653/2/4
f 653/2/4 652/2/4 654/2/4
f 654/2/4 652/2/4 655/2/4
f 655/2/4 652/2/4 656/2/4
f 613/2/4 653/2/4 657/2/4
f 653/5/4 654/5/4 657/5/4
f 654/2/4 655/2/4 658/2/4
f 657/5/4 654/5/4 658/5/4
f 658/2/4 655/2/4 659/2/4
f 613/2/4 657/2/4 661/2/4
f 659/2/4 660/2/4 661/2/4
f 658/2/4 659/2/4 661/2/4
f 657/2/4 658/2/4 661/2/4
f 661/2/4 660/2/4 662/2/4
f 662/2/4 660/2/4 663/2/4
f 663/2/4 660/2/4 664/2/4
f 613/2/4 661/2/4 665/2/4
f 661/5/4 662/5/4 665/5/4
f 662/2/4 663/2/4 666/2/4
f 665/5/4 662/5/4 666/5/4
f 666/2/4 663/2/4 667/2/4
f 613/2/4 665/2/4 669/2/4
f 667/2/4 668/2/4 669/2/4
f 666/2/4 667/2/4 669/2/4
f 665/2/4 666/2/4 669/2/4
f 669/2/4 668/2/4 670/2/4
f 670/2/4 668/2/4 671/2/4
f 671/2/4 668/2/4 672/2/4
f 613/2/4 669/2/4 673/2/4
f 669/5/4 670/5/4 673/5/4
f 670/2/4 671/2/4 674/2/4
f 673/5/4 670/5/4 674/5/4
f 674/2/4 671/2/4 675/2/4
f 613/2/4 673/2/4 677/2/4
f 675/2/4 676/2/4 677/2/4
f 674/2/4 675/2/4 677/2/4
f 673/2/4 674/2/4 677/2/4
f 677/2/4 676/2/4 678/2/4
f 678/2/4 676/2/4 679/2/4
f 679/2/4 676/2/4 680/2/4
f 613/2/4 677/2/4 681/2/4
f 677/5/4 678/5/4 681/5/4
f 678/2/4 679/2/4 682/2/4
f 681/5/4 678/5/4 682/5/4
f 682/2/4 679/2/4 683/2/4
f 613/2/4 681/2/4 685/2/4
f 683/2/4 684/2/4 685/2/4
f 682/2/4 683/2/4 685/2/4
f 681/2/4 682/2/4 685/2/4
f 685/2/4 684/2/4 686/2/4
f 686/2/4 684/2/4 687/2/4
f 687/2/4 684/2/4 688/2/4
f 613/2/4 685/2/4 689/2/4
f 685/5/4 686/5/4 689/5/4
f 686/2/4 687/2/4 690/2/4
f 689/5/4 686/5/4 690/5/4
f 690/2/4 687/2/4 691/2/4
f 613/2/4 689/2/4 693/2/4
f 691/2/4 692/2/4 693/2/4
f 690/2/4 691/2/4 693/2/4
f 689/2/4 690/2/4 693/2/4
f 693/2/4 692/2/4 694/2/4
f 694/2/4 692/2/4 695/2/4
f 695/2/4 692/2/4 696/2/4
f 613/2/4 693/2/4 697/2/4
f 693/5/4 694/5/4 698/5/4
f 697/2/4 693/2/4 698/2/4
f 694/2/4 695/2/4 699/2/4
f 698/5/4 694/5/4 699/5/4
f 699/2/4 695/2/4 700/2/4
f 703/2/5 702/2/5 701/2/5
f 704/2/5 702/2/5 703/2/5
f 707/5/5 706/5/5 705/5/5
f 708/5/5 706/5/5 707/5/5
f 712/7/5 710/7/5 709/7/5
f 713/7/5 710/7/5 712/7/5
f 715/7/5 712/7/5 711/7/5
f 716/7/5 712/7/5 715/7/5
f 717/7/5 714/7/5 713/7/5
f 718/7/5 714/7/5 717/7/5
f 719/7/5 717/7/5 716/7/5
f 720/7/5 717/7/5 719/7/5
f 721/5/6 722/5/6 723/5/6
f 723/5/6 722/5/6 724/5/6
f 724/5/6 722/5/6 725/5/6
f 725/5/6 722/5/6 726/5/6
f 721/5/6 723/5/6 727/5/6
f 724/5/6 725/5/6 728/5/6
f 728/5/6 725/5/6 729/5/6
f 726/5/6 722/5/6 730/5/6
f 728/5/6 729/5/6 731/5/6
f 729/5/6 730/5/6 731/5/6
f 721/5/6 727/5/6 731/5/6
f 727/5/6 728/5/6 731/5/6
f 730/5/6 722/5/6 732/5/6
f 731/5/6 730/5/6 732/5/6
f 733/2/6 734/2/6 753/2/6
f 753/2/6 734/2/6 754/2/6
f 735/2/6 736/2/6 755/2/6
f 755/2/6 736/2/6 756/2/6
f 737/2/6 738/2/6 757/2/6
f 757/2/6 738/2/6 758/2/6
f 739/2/6 740/2/6 759/2/6
f 759/2/6 740/2/6 760/2/6
f 741/2/6 742/2/6 761/2/6
f 761/2/6 742/2/6 762/2/6
f 743/2/6 744/2/6 763/2/6
f 763/2/6 744/2/6 764/2/6
f 745/2/6 746/2/6 765/2/6
f 765/2/6 746/2/6 766/2/6
f 747/2/6 748/2/6 767/2/6
f 767/2/6 748/2/6 768/2/6
f 749/2/6 750/2/6 769/2/6
f 769/2/6 750/2/6 770/2/6
f 751/2/6 752/2/6 771/2/6
f 771/2/6 752/2/6 772/2/6
f 773/2/6 774/2/6 777/2/6
f 777/2/6 774/2/6 778/2/6
f 775/2/6 776/2/6 779/2/6
f 779/2/6 776/2/6 780/2/6
f 781/2/6 782/2/6 785/2/6
f 785/2/6 782/2/6 786/2/6
f 783/2/6 784/2/6 789/2/6
f 789/2/6 784/2/6 790/2/6
f 787/5/6 788/5/6 791/5/6
f 791/5/6 788/5/6 792/5/6
f 793/2/6 794/2/6 797/2/6
f 797/2/6 794/2/6 798/2/6
f 795/2/6 796/2/6 799/2/6
f 799/2/6 796/2/6 800/2/6
f 801/2/6 802/2/6 805/2/6
f 805/2/6 802/2/6 806/2/6
f 803/2/6 804/2/6 807/2/6
f 807/2/6 804/2/6 808/2/6
f 809/2/6 810/2/6 813/2/6
f 811/2/6 812/2/6 834/2/6
f 809/2/6 813/2/6 835/2/6
f 813/2/6 814/2/6 835/2/6
f 835/2/6 814/2/6 836/2/6
f 815/2/6 816/2/6 837/2/6
f 837/2/6 816/2/6 838/2/6
f 817/2/6 818/2/6 839/2/6
f 839/2/6 818/2/6 840/2/6
f 819/2/6 820/2/6 841/2/6
f 841/2/6 820/2/6 842/2/6
f 821/2/6 822/2/6 843/2/6
f 843/2/6 822/2/6 844/2/6
f 823/2/6 824/2/6 845/2/6
f 845/2/6 824/2/6 846/2/6
f 825/2/6 826/2/6 847/2/6
f 847/2/6 826/2/6 848/2/6
f 827/2/6 828/2/6 849/2/6
f 849/2/6 828/2/6 850/2/6
f 829/2/6 830/2/6 851/2/6
f 851/2/6 830/2/6 852/2/6
f 831/2/6 832/2/6 853/2/6
f 853/2/6 832/2/6 854/2/6
f 833/2/6 834/2/6 855/2/6
f 834/2/6 812/2/6 856/2/6
f 855/2/6 834/2/6 856/2/6
f 859/2/6 860/2/6 879/2/6
f 879/2/6 860/2/6 880/2/6
f 861/2/6 862/2/6 881/2/6
f 881/2/6 862/2/6 882/2/6
f 863/2/6 864/2/6 883/2/6
f 883/2/6 864/2/6 884/2/6
f 865/2/6 866/2/6 885/2/6
f 885/2/6 866/2/6 886/2/6
f 867/2/6 868/2/6 887/2/6
f 887/2/6 868/2/6 888/2/6
f 869/2/6 870/2/6 889/2/6
f 889/2/6 870/2/6 890/2/6
f 871/2/6 872/2/6 891/2/6
f 891/2/6 872/2/6 892/2/6
f 873/2/6 874/2/6 893/2/6
f 893/2/6 874/2/6 894/2/6
f 875/2/6 876/2/6 895/2/6
f 895/2/6 876/2/6 896/2/6
f 857/2/6 858/2/6 897/2/6
f 897/2/6 858/2/6 898/2/6
f 877/2/6 878/2/6 899/2/6
f 899/2/6 878/2/6 900/2/6
f 901/2/6 902/2/6 905/2/6
f 905/2/6 902/2/6 906/2/6
f 903/2/6 904/2/6 907/2/6
f 907/2/6 904/2/6 908/2/6
f 909/2/6 910/2/6 913/2/6
f 913/2/6 910/2/6 914/2/6
f 911/2/6 912/2/6 915/2/6
f 915/2/6 912/2/6 916/2/6
f 917/2/6 918/2/6 921/2/6
f 921/2/6 918/2/6 922/2/6
f 919/2/6 920/2/6 923/2/6
f 923/2/6 920/2/6 924/2/6
f 925/2/6 926/2/6 929/2/6
f 929/2/6 926/2/6 930/2/6
f 927/2/6 928/2/6 931/2/6
f 931/2/6 928/2/6 932/2/6
f 933/2/6 934/2/6 953/2/6
f 953/2/6 934/2/6 954/2/6
f 935/2/6 936/2/6 955/2/6
f 955/2/6 936/2/6 956/2/6
f 937/2/6 938/2/6 957/2/6
f 957/2/6 938/2/6 958/2/6
f 939/2/6 940/2/6 959/2/6
f 959/2/6 940/2/6 960/2/6
f 941/2/6 942/2/6 961/2/6
f 961/2/6 942/2/6 962/2/6
f 943/2/6 944/2/6 963/2/6
f 963/2/6 944/2/6 964/2/6
f 945/2/6 946/2/6 965/2/6
f 965/2/6 946/2/6 966/2/6
f 947/2/6 948/2/6 967/2/6
f 967/2/6 948/2/6 968/2/6
f 949/2/6 950/2/6 969/2/6
f 969/2/6 950/2/6 970/2/6
f 951/2/6 952/2/6 971/2/6
f 971/2/6 952/2/6 972/2/6
f 973/5/6 974/5/6 975/5/6
f 975/5/6 974/5/6 976/5/6
f 977/7/6 978/7/6 980/7/6
f 980/7/6 978/7/6 981/7/6
f 979/7/6 980/7/6 983/7/6
f 980/4/6 981/4/6 984/4/6
f 983/7/6 980/7/6 984/7/6
f 981/7/6 982/7/6 985/7/6
f 984/4/6 981/4/6 985/4/6
f 985/7/6 982/7/6 986/7/6
f 984/7/6 985/7/6 987/7/6
f 987/7/6 985/7/6 988/7/6
