# MagicaVoxel @ Ephtracy

# group
o 

# material
mtllib mushroom.mtl
usemtl palette

# normals
vn -1 0 0
vn 1 0 0
vn 0 0 1
vn 0 0 -1
vn 0 -1 0
vn 0 1 0

# texcoords
vt 0.0332031 0.5
vt 0.201172 0.5
vt 0.337891 0.5
vt 0.775391 0.5
vt 0.798828 0.5
vt 0.958984 0.5

# verts
v -0.8 0.9 0.7
v -0.8 0.9 -0.7
v -0.8 1 0.7
v -0.8 1 0.6
v -0.8 1 0.1
v -0.8 1 -5.96046e-08
v -0.8 1 -0.6
v -0.8 1 -0.7
v -0.8 1.1 0.6
v -0.8 1.1 0.1
v -0.8 1.1 -5.96046e-08
v -0.8 1.1 -0.6
v -0.7 0.9 0.8
v -0.7 0.9 0.7
v -0.7 0.9 -0.7
v -0.7 0.9 -0.8
v -0.7 1 0.8
v -0.7 1 0.7
v -0.7 1 0.6
v -0.7 1 -0.6
v -0.7 1 -0.7
v -0.7 1 -0.8
v -0.7 1.1 0.6
v -0.7 1.1 0.1
v -0.7 1.1 -5.96046e-08
v -0.7 1.1 -0.6
v -0.7 1.2 0.7
v -0.7 1.2 0.6
v -0.7 1.2 0.3
v -0.7 1.2 -0.6
v -0.7 1.2 -0.7
v -0.7 1.3 0.6
v -0.7 1.3 0.3
v -0.7 1.3 -0.6
v -0.6 1 0.8
v -0.6 1 0.7
v -0.6 1 -0.7
v -0.6 1 -0.8
v -0.6 1.1 0.8
v -0.6 1.1 0.7
v -0.6 1.1 -0.7
v -0.6 1.1 -0.8
v -0.6 1.2 0.7
v -0.6 1.2 0.6
v -0.6 1.2 -0.6
v -0.6 1.2 -0.7
v -0.6 1.3 0.7
v -0.6 1.3 0.6
v -0.6 1.3 0.4
v -0.6 1.3 0.3
v -0.6 1.3 -5.96046e-08
v -0.6 1.3 -0.6
v -0.6 1.3 -0.7
v -0.6 1.4 0.6
v -0.6 1.4 0.5
v -0.6 1.4 0.4
v -0.6 1.4 0.1
v -0.6 1.4 -5.96046e-08
v -0.6 1.4 -0.4
v -0.6 1.4 -0.5
v -0.6 1.4 -0.6
v -0.6 1.5 0.5
v -0.6 1.5 0.1
v -0.6 1.5 -0.4
v -0.6 1.5 -0.5
v -0.5 1.4 0.6
v -0.5 1.4 0.5
v -0.5 1.4 -0.5
v -0.5 1.4 -0.6
v -0.5 1.5 0.6
v -0.5 1.5 0.5
v -0.5 1.5 0.1
v -0.5 1.5 -0.1
v -0.5 1.5 -0.2
v -0.5 1.5 -0.3
v -0.5 1.5 -0.4
v -0.5 1.5 -0.5
v -0.5 1.5 -0.6
v -0.5 1.6 0.5
v -0.5 1.6 0.4
v -0.5 1.6 0.2
v -0.5 1.6 0.1
v -0.5 1.6 -0.1
v -0.5 1.6 -0.2
v -0.5 1.6 -0.3
v -0.5 1.6 -0.4
v -0.5 1.6 -0.5
v -0.5 1.7 0.4
v -0.5 1.7 0.2
v -0.5 1.7 0.1
v -0.5 1.7 -0.4
v -0.4 0.2 0.4
v -0.4 0.2 0.3
v -0.4 0.2 0.1
v -0.4 0.2 -0.1
v -0.4 0.2 -0.3
v -0.4 0.2 -0.4
v -0.4 0.6 -0.1
v -0.4 0.6 -0.2
v -0.4 0.8 -0.2
v -0.4 0.8 -0.3
v -0.4 0.9 0.4
v -0.4 0.9 0.3
v -0.4 0.9 0.1
v -0.4 0.9 -0.4
v -0.4 1.6 0.5
v -0.4 1.6 0.4
v -0.4 1.6 -0.4
v -0.4 1.6 -0.5
v -0.4 1.7 0.5
v -0.4 1.7 0.4
v -0.4 1.7 0.3
v -0.4 1.7 0.2
v -0.4 1.7 0.1
v -0.4 1.7 -0.1
v -0.4 1.7 -0.3
v -0.4 1.7 -0.4
v -0.4 1.7 -0.5
v -0.4 1.8 0.3
v -0.4 1.8 0.1
v -0.4 1.8 -0.1
v -0.4 1.8 -0.3
v -0.3 0 0.3
v -0.3 0 0.1
v -0.3 0 -0.3
v -0.3 0.1 -0.1
v -0.3 0.1 -0.2
v -0.3 0.2 0.3
v -0.3 0.2 0.1
v -0.3 0.2 -0.1
v -0.3 0.2 -0.2
v -0.3 0.2 -0.3
v -0.3 1.7 0.4
v -0.3 1.7 0.3
v -0.3 1.7 -0.3
v -0.3 1.7 -0.4
v -0.3 1.8 0.4
v -0.3 1.8 0.3
v -0.3 1.8 0.2
v -0.3 1.8 0.1
v -0.3 1.8 -5.96046e-08
v -0.3 1.8 -0.1
v -0.3 1.8 -0.2
v -0.3 1.8 -0.3
v -0.3 1.8 -0.4
v -0.3 1.9 0.2
v -0.3 1.9 0.1
v -0.3 1.9 -5.96046e-08
v -0.3 1.9 -0.1
v -0.3 1.9 -0.2
v -0.2 1.8 0.3
v -0.2 1.8 0.2
v -0.2 1.8 -0.2
v -0.2 1.8 -0.3
v -0.2 1.9 0.3
v -0.2 1.9 0.2
v -0.2 1.9 -0.2
v -0.2 1.9 -0.3
v 0.2 1.8 0.3
v 0.2 1.8 0.2
v 0.2 1.8 -0.2
v 0.2 1.8 -0.3
v 0.2 1.9 0.3
v 0.2 1.9 0.2
v 0.2 1.9 -0.2
v 0.2 1.9 -0.3
v 0.3 0 0.3
v 0.3 0 -0.3
v 0.3 0.1 0.1
v 0.3 0.1 -0.1
v 0.3 0.2 0.3
v 0.3 0.2 0.1
v 0.3 0.2 -0.1
v 0.3 0.2 -0.3
v 0.3 1.7 0.4
v 0.3 1.7 0.3
v 0.3 1.7 -0.3
v 0.3 1.7 -0.4
v 0.3 1.8 0.4
v 0.3 1.8 0.3
v 0.3 1.8 0.2
v 0.3 1.8 0.1
v 0.3 1.8 -0.1
v 0.3 1.8 -0.2
v 0.3 1.8 -0.3
v 0.3 1.8 -0.4
v 0.3 1.9 0.2
v 0.3 1.9 0.1
v 0.3 1.9 -0.1
v 0.3 1.9 -0.2
v 0.4 0.2 0.4
v 0.4 0.2 0.1
v 0.4 0.2 -0.1
v 0.4 0.2 -0.4
v 0.4 0.6 -5.96046e-08
v 0.4 0.6 -0.1
v 0.4 0.7 0.1
v 0.4 0.7 -5.96046e-08
v 0.4 0.9 0.4
v 0.4 0.9 -0.4
v 0.4 1.6 0.5
v 0.4 1.6 0.4
v 0.4 1.6 -0.4
v 0.4 1.6 -0.5
v 0.4 1.7 0.5
v 0.4 1.7 0.4
v 0.4 1.7 0.3
v 0.4 1.7 0.2
v 0.4 1.7 -0.3
v 0.4 1.7 -0.4
v 0.4 1.7 -0.5
v 0.4 1.8 0.3
v 0.4 1.8 -0.3
v 0.5 1.4 0.6
v 0.5 1.4 0.5
v 0.5 1.4 -0.5
v 0.5 1.4 -0.6
v 0.5 1.5 0.6
v 0.5 1.5 0.5
v 0.5 1.5 0.3
v 0.5 1.5 0.1
v 0.5 1.5 -0.1
v 0.5 1.5 -0.2
v 0.5 1.5 -0.5
v 0.5 1.5 -0.6
v 0.5 1.6 0.5
v 0.5 1.6 0.4
v 0.5 1.6 0.2
v 0.5 1.6 0.1
v 0.5 1.6 -0.4
v 0.5 1.6 -0.5
v 0.5 1.7 0.4
v 0.5 1.7 0.3
v 0.5 1.7 0.2
v 0.5 1.7 -0.4
v 0.6 1 0.8
v 0.6 1 0.7
v 0.6 1 -0.7
v 0.6 1 -0.8
v 0.6 1.1 0.8
v 0.6 1.1 0.7
v 0.6 1.1 -0.7
v 0.6 1.1 -0.8
v 0.6 1.2 0.7
v 0.6 1.2 0.6
v 0.6 1.2 -0.6
v 0.6 1.2 -0.7
v 0.6 1.3 0.7
v 0.6 1.3 0.6
v 0.6 1.3 0.4
v 0.6 1.3 0.3
v 0.6 1.3 -0.1
v 0.6 1.3 -0.3
v 0.6 1.3 -0.4
v 0.6 1.3 -0.5
v 0.6 1.3 -0.6
v 0.6 1.3 -0.7
v 0.6 1.4 0.6
v 0.6 1.4 0.5
v 0.6 1.4 -0.2
v 0.6 1.4 -0.3
v 0.6 1.4 -0.5
v 0.6 1.4 -0.6
v 0.6 1.5 0.5
v 0.6 1.5 -0.1
v 0.6 1.5 -0.2
v 0.6 1.5 -0.5
v 0.7 0.9 0.8
v 0.7 0.9 0.7
v 0.7 0.9 -0.7
v 0.7 0.9 -0.8
v 0.7 1 0.8
v 0.7 1 0.7
v 0.7 1 0.6
v 0.7 1 -0.6
v 0.7 1 -0.7
v 0.7 1 -0.8
v 0.7 1.1 0.7
v 0.7 1.1 0.6
v 0.7 1.1 -5.96046e-08
v 0.7 1.1 -0.1
v 0.7 1.1 -0.4
v 0.7 1.1 -0.5
v 0.7 1.1 -0.6
v 0.7 1.2 0.7
v 0.7 1.2 0.6
v 0.7 1.2 0.4
v 0.7 1.2 0.3
v 0.7 1.2 -0.6
v 0.7 1.2 -0.7
v 0.7 1.3 0.6
v 0.7 1.3 0.4
v 0.7 1.3 0.3
v 0.7 1.3 -0.4
v 0.7 1.3 -0.5
v 0.7 1.3 -0.6
v 0.8 0.9 0.7
v 0.8 0.9 -0.7
v 0.8 1 0.7
v 0.8 1 0.6
v 0.8 1 -5.96046e-08
v 0.8 1 -0.1
v 0.8 1 -0.6
v 0.8 1 -0.7
v 0.8 1.1 0.6
v 0.8 1.1 -5.96046e-08
v 0.8 1.1 -0.1
v 0.8 1.1 -0.6
v -0.7 0.9 0.8
v -0.7 1 0.8
v -0.6 1 0.8
v -0.6 1.1 0.8
v 0.5 1 0.8
v 0.5 1.1 0.8
v 0.6 1 0.8
v 0.6 1.1 0.8
v 0.7 0.9 0.8
v 0.7 1 0.8
v -0.8 0.9 0.7
v -0.8 1 0.7
v -0.7 0.9 0.7
v -0.7 1 0.7
v -0.7 1.2 0.7
v -0.6 1 0.7
v -0.6 1.1 0.7
v -0.6 1.2 0.7
v -0.6 1.3 0.7
v -0.3 1.1 0.7
v -0.3 1.2 0.7
v -0.2 1.1 0.7
v -0.2 1.2 0.7
v 0.1 1.2 0.7
v 0.1 1.3 0.7
v 0.2 1.2 0.7
v 0.2 1.3 0.7
v 0.5 1.1 0.7
v 0.6 1 0.7
v 0.6 1.1 0.7
v 0.6 1.2 0.7
v 0.6 1.3 0.7
v 0.7 0.9 0.7
v 0.7 1 0.7
v 0.7 1.1 0.7
v 0.7 1.2 0.7
v 0.8 0.9 0.7
v 0.8 1 0.7
v -0.8 1 0.6
v -0.8 1.1 0.6
v -0.7 1 0.6
v -0.7 1.1 0.6
v -0.7 1.2 0.6
v -0.7 1.3 0.6
v -0.6 1.2 0.6
v -0.6 1.3 0.6
v -0.6 1.4 0.6
v -0.5 1.4 0.6
v -0.5 1.5 0.6
v -0.1 1.3 0.6
v -0.1 1.4 0.6
v 5.96046e-08 1.3 0.6
v 5.96046e-08 1.4 0.6
v 5.96046e-08 1.5 0.6
v 0.1 1.3 0.6
v 0.1 1.4 0.6
v 0.1 1.5 0.6
v 0.2 1.3 0.6
v 0.2 1.4 0.6
v 0.2 1.5 0.6
v 0.3 1.4 0.6
v 0.3 1.5 0.6
v 0.5 1.4 0.6
v 0.5 1.5 0.6
v 0.6 1.2 0.6
v 0.6 1.3 0.6
v 0.6 1.4 0.6
v 0.7 1 0.6
v 0.7 1.1 0.6
v 0.7 1.2 0.6
v 0.7 1.3 0.6
v 0.8 1 0.6
v 0.8 1.1 0.6
v -0.6 1.4 0.5
v -0.6 1.5 0.5
v -0.5 1.4 0.5
v -0.5 1.5 0.5
v -0.5 1.6 0.5
v -0.4 1.6 0.5
v -0.4 1.7 0.5
v -0.3 1.6 0.5
v -0.3 1.7 0.5
v -0.1 1.5 0.5
v -0.1 1.6 0.5
v 5.96046e-08 1.5 0.5
v 0.1 1.5 0.5
v 0.1 1.6 0.5
v 0.2 1.5 0.5
v 0.3 1.5 0.5
v 0.4 1.6 0.5
v 0.4 1.7 0.5
v 0.5 1.4 0.5
v 0.5 1.5 0.5
v 0.5 1.6 0.5
v 0.6 1.4 0.5
v 0.6 1.5 0.5
v -0.5 1.6 0.4
v -0.5 1.7 0.4
v -0.4 0.2 0.4
v -0.4 0.9 0.4
v -0.4 1.6 0.4
v -0.4 1.7 0.4
v -0.3 1.7 0.4
v -0.3 1.8 0.4
v -0.1 0.2 0.4
v -0.1 0.8 0.4
v 5.96046e-08 1.7 0.4
v 5.96046e-08 1.8 0.4
v 0.1 0.2 0.4
v 0.1 0.8 0.4
v 0.1 1.7 0.4
v 0.1 1.8 0.4
v 0.3 1.7 0.4
v 0.3 1.8 0.4
v 0.4 0.2 0.4
v 0.4 0.9 0.4
v 0.4 1.6 0.4
v 0.4 1.7 0.4
v 0.5 1.6 0.4
v 0.5 1.7 0.4
v -0.4 1.7 0.3
v -0.4 1.8 0.3
v -0.3 0 0.3
v -0.3 0.2 0.3
v -0.3 1.7 0.3
v -0.3 1.8 0.3
v -0.2 0 0.3
v -0.2 0.2 0.3
v -0.2 1.8 0.3
v -0.2 1.9 0.3
v -0.1 0.2 0.3
v 5.96046e-08 1.8 0.3
v 0.1 0 0.3
v 0.1 0.1 0.3
v 0.1 0.2 0.3
v 0.1 1.8 0.3
v 0.2 0 0.3
v 0.2 0.1 0.3
v 0.2 1.8 0.3
v 0.2 1.9 0.3
v 0.3 0 0.3
v 0.3 0.2 0.3
v 0.3 1.7 0.3
v 0.3 1.8 0.3
v 0.4 1.7 0.3
v 0.4 1.8 0.3
v -0.3 1.8 0.2
v -0.3 1.9 0.2
v -0.2 1.8 0.2
v -0.2 1.9 0.2
v 0.2 1.8 0.2
v 0.2 1.9 0.2
v 0.3 1.8 0.2
v 0.3 1.9 0.2
v -0.3 1.8 -0.2
v -0.3 1.9 -0.2
v -0.2 1.8 -0.2
v -0.2 1.9 -0.2
v 0.2 1.8 -0.2
v 0.2 1.9 -0.2
v 0.3 1.8 -0.2
v 0.3 1.9 -0.2
v -0.4 1.7 -0.3
v -0.4 1.8 -0.3
v -0.3 0 -0.3
v -0.3 0.2 -0.3
v -0.3 1.7 -0.3
v -0.3 1.8 -0.3
v -0.2 0 -0.3
v -0.2 0.1 -0.3
v -0.2 1.8 -0.3
v -0.2 1.9 -0.3
v 5.96046e-08 0.1 -0.3
v 5.96046e-08 0.2 -0.3
v 0.1 0.1 -0.3
v 0.1 0.2 -0.3
v 0.2 0 -0.3
v 0.2 0.1 -0.3
v 0.2 0.2 -0.3
v 0.2 1.8 -0.3
v 0.2 1.9 -0.3
v 0.3 0 -0.3
v 0.3 0.2 -0.3
v 0.3 1.7 -0.3
v 0.3 1.8 -0.3
v 0.4 1.7 -0.3
v 0.4 1.8 -0.3
v -0.5 1.6 -0.4
v -0.5 1.7 -0.4
v -0.4 0.2 -0.4
v -0.4 0.9 -0.4
v -0.4 1.6 -0.4
v -0.4 1.7 -0.4
v -0.3 1.7 -0.4
v -0.3 1.8 -0.4
v -0.2 1.7 -0.4
v -0.1 1.7 -0.4
v 5.96046e-08 0.2 -0.4
v 5.96046e-08 0.6 -0.4
v 5.96046e-08 1.7 -0.4
v 0.1 0.6 -0.4
v 0.1 0.8 -0.4
v 0.2 0.2 -0.4
v 0.2 0.8 -0.4
v 0.3 1.7 -0.4
v 0.3 1.8 -0.4
v 0.4 0.2 -0.4
v 0.4 0.9 -0.4
v 0.4 1.6 -0.4
v 0.4 1.7 -0.4
v 0.5 1.6 -0.4
v 0.5 1.7 -0.4
v -0.6 1.4 -0.5
v -0.6 1.5 -0.5
v -0.5 1.4 -0.5
v -0.5 1.5 -0.5
v -0.5 1.6 -0.5
v -0.4 1.5 -0.5
v -0.4 1.6 -0.5
v -0.4 1.7 -0.5
v -0.3 1.6 -0.5
v -0.3 1.7 -0.5
v -0.2 1.6 -0.5
v -0.2 1.7 -0.5
v -0.1 1.5 -0.5
v -0.1 1.7 -0.5
v 5.96046e-08 1.5 -0.5
v 5.96046e-08 1.7 -0.5
v 0.4 1.6 -0.5
v 0.4 1.7 -0.5
v 0.5 1.4 -0.5
v 0.5 1.5 -0.5
v 0.5 1.6 -0.5
v 0.6 1.4 -0.5
v 0.6 1.5 -0.5
v -0.8 1 -0.6
v -0.8 1.1 -0.6
v -0.7 1 -0.6
v -0.7 1.1 -0.6
v -0.7 1.2 -0.6
v -0.7 1.3 -0.6
v -0.6 1.2 -0.6
v -0.6 1.3 -0.6
v -0.6 1.4 -0.6
v -0.5 1.4 -0.6
v -0.5 1.5 -0.6
v -0.3 1.3 -0.6
v -0.2 1.3 -0.6
v -0.2 1.4 -0.6
v -0.1 1.3 -0.6
v 5.96046e-08 1.3 -0.6
v 5.96046e-08 1.4 -0.6
v 5.96046e-08 1.5 -0.6
v 0.1 1.3 -0.6
v 0.1 1.4 -0.6
v 0.3 1.3 -0.6
v 0.5 1.4 -0.6
v 0.5 1.5 -0.6
v 0.6 1.2 -0.6
v 0.6 1.3 -0.6
v 0.6 1.4 -0.6
v 0.7 1 -0.6
v 0.7 1.1 -0.6
v 0.7 1.2 -0.6
v 0.7 1.3 -0.6
v 0.8 1 -0.6
v 0.8 1.1 -0.6
v -0.8 0.9 -0.7
v -0.8 1 -0.7
v -0.7 0.9 -0.7
v -0.7 1 -0.7
v -0.7 1.2 -0.7
v -0.6 1 -0.7
v -0.6 1.1 -0.7
v -0.6 1.2 -0.7
v -0.6 1.3 -0.7
v -0.3 1.2 -0.7
v -0.3 1.3 -0.7
v -0.1 1.2 -0.7
v -0.1 1.3 -0.7
v 5.96046e-08 1.2 -0.7
v 5.96046e-08 1.3 -0.7
v 0.2 1.1 -0.7
v 0.2 1.2 -0.7
v 0.3 1.1 -0.7
v 0.3 1.3 -0.7
v 0.6 1 -0.7
v 0.6 1.1 -0.7
v 0.6 1.2 -0.7
v 0.6 1.3 -0.7
v 0.7 0.9 -0.7
v 0.7 1 -0.7
v 0.7 1.2 -0.7
v 0.8 0.9 -0.7
v 0.8 1 -0.7
v -0.7 0.9 -0.8
v -0.7 1 -0.8
v -0.6 1 -0.8
v -0.6 1.1 -0.8
v 0.2 1 -0.8
v 0.2 1.1 -0.8
v 0.3 1 -0.8
v 0.3 1.1 -0.8
v 0.6 1 -0.8
v 0.6 1.1 -0.8
v 0.7 0.9 -0.8
v 0.7 1 -0.8
v -0.3 0 0.3
v -0.2 0 0.3
v 0.1 0 0.3
v 0.2 0 0.3
v 0.3 0 0.3
v 0.1 0 0.2
v 0.2 0 0.2
v -0.3 0 0.1
v -0.2 0 0.1
v -0.2 0 -0.2
v 0.2 0 -0.2
v -0.3 0 -0.3
v -0.2 0 -0.3
v 0.2 0 -0.3
v 0.3 0 -0.3
v -0.4 0.2 0.4
v -0.1 0.2 0.4
v 0.1 0.2 0.4
v 0.4 0.2 0.4
v -0.4 0.2 0.3
v -0.3 0.2 0.3
v -0.2 0.2 0.3
v -0.1 0.2 0.3
v 0.1 0.2 0.3
v 0.3 0.2 0.3
v -0.4 0.2 0.1
v -0.3 0.2 0.1
v 0.3 0.2 0.1
v 0.4 0.2 0.1
v -0.4 0.2 -0.1
v -0.3 0.2 -0.1
v 0.3 0.2 -0.1
v 0.4 0.2 -0.1
v -0.3 0.2 -0.2
v -0.4 0.2 -0.3
v -0.3 0.2 -0.3
v 5.96046e-08 0.2 -0.3
v 0.1 0.2 -0.3
v 0.2 0.2 -0.3
v 0.3 0.2 -0.3
v -0.4 0.2 -0.4
v 5.96046e-08 0.2 -0.4
v 0.2 0.2 -0.4
v 0.4 0.2 -0.4
v -0.7 0.9 0.8
v 0.7 0.9 0.8
v -0.8 0.9 0.7
v -0.7 0.9 0.7
v 0.7 0.9 0.7
v 0.8 0.9 0.7
v -0.4 0.9 0.4
v 0.4 0.9 0.4
v -0.4 0.9 0.3
v -0.4 0.9 0.1
v -0.4 0.9 -0.4
v 0.4 0.9 -0.4
v -0.8 0.9 -0.7
v -0.7 0.9 -0.7
v 0.7 0.9 -0.7
v 0.8 0.9 -0.7
v -0.7 0.9 -0.8
v 0.7 0.9 -0.8
v -0.7 1 0.8
v -0.6 1 0.8
v 0.6 1 0.8
v 0.7 1 0.8
v -0.8 1 0.7
v -0.7 1 0.7
v -0.6 1 0.7
v 0.6 1 0.7
v 0.7 1 0.7
v 0.8 1 0.7
v -0.8 1 0.6
v -0.7 1 0.6
v 0.7 1 0.6
v 0.8 1 0.6
v -0.8 1 -0.6
v -0.7 1 -0.6
v 0.7 1 -0.6
v 0.8 1 -0.6
v -0.8 1 -0.7
v -0.7 1 -0.7
v -0.6 1 -0.7
v 0.6 1 -0.7
v 0.7 1 -0.7
v 0.8 1 -0.7
v -0.7 1 -0.8
v -0.6 1 -0.8
v 0.6 1 -0.8
v 0.7 1 -0.8
v -0.6 1.1 0.8
v 0.5 1.1 0.8
v 0.6 1.1 0.8
v -0.6 1.1 0.7
v -0.3 1.1 0.7
v -0.2 1.1 0.7
v 0.5 1.1 0.7
v 0.6 1.1 0.7
v -0.8 1.1 0.6
v -0.7 1.1 0.6
v 0.7 1.1 0.6
v 0.8 1.1 0.6
v -0.8 1.1 0.1
v -0.7 1.1 0.1
v -0.8 1.1 -5.96046e-08
v -0.7 1.1 -5.96046e-08
v 0.7 1.1 -5.96046e-08
v 0.8 1.1 -5.96046e-08
v 0.7 1.1 -0.1
v 0.8 1.1 -0.1
v 0.7 1.1 -0.4
v 0.7 1.1 -0.5
v -0.8 1.1 -0.6
v -0.7 1.1 -0.6
v 0.7 1.1 -0.6
v 0.8 1.1 -0.6
v -0.6 1.1 -0.7
v 0.2 1.1 -0.7
v 0.3 1.1 -0.7
v 0.6 1.1 -0.7
v -0.6 1.1 -0.8
v 0.2 1.1 -0.8
v 0.3 1.1 -0.8
v 0.6 1.1 -0.8
v -0.7 1.2 0.7
v -0.6 1.2 0.7
v 0.6 1.2 0.7
v 0.7 1.2 0.7
v -0.7 1.2 0.6
v -0.6 1.2 0.6
v 0.6 1.2 0.6
v 0.7 1.2 0.6
v -0.7 1.2 -0.6
v -0.6 1.2 -0.6
v 0.6 1.2 -0.6
v 0.7 1.2 -0.6
v -0.7 1.2 -0.7
v -0.6 1.2 -0.7
v 0.6 1.2 -0.7
v 0.7 1.2 -0.7
v -0.6 1.3 0.7
v 0.1 1.3 0.7
v 0.2 1.3 0.7
v 0.6 1.3 0.7
v -0.7 1.3 0.6
v -0.6 1.3 0.6
v -0.1 1.3 0.6
v 5.96046e-08 1.3 0.6
v 0.1 1.3 0.6
v 0.2 1.3 0.6
v 0.6 1.3 0.6
v 0.7 1.3 0.6
v -0.6 1.3 0.4
v 0.6 1.3 0.4
v 0.7 1.3 0.4
v -0.7 1.3 0.3
v -0.6 1.3 0.3
v 0.6 1.3 0.3
v 0.7 1.3 0.3
v -0.6 1.3 -5.96046e-08
v 0.6 1.3 -0.1
v 0.6 1.3 -0.3
v 0.6 1.3 -0.4
v 0.7 1.3 -0.4
v 0.6 1.3 -0.5
v 0.7 1.3 -0.5
v -0.7 1.3 -0.6
v -0.6 1.3 -0.6
v -0.3 1.3 -0.6
v -0.2 1.3 -0.6
v -0.1 1.3 -0.6
v 5.96046e-08 1.3 -0.6
v 0.1 1.3 -0.6
v 0.3 1.3 -0.6
v 0.6 1.3 -0.6
v 0.7 1.3 -0.6
v -0.6 1.3 -0.7
v -0.3 1.3 -0.7
v -0.1 1.3 -0.7
v 5.96046e-08 1.3 -0.7
v 0.3 1.3 -0.7
v 0.6 1.3 -0.7
v -0.6 1.4 0.6
v -0.5 1.4 0.6
v 0.5 1.4 0.6
v 0.6 1.4 0.6
v -0.6 1.4 0.5
v -0.5 1.4 0.5
v 0.5 1.4 0.5
v 0.6 1.4 0.5
v -0.6 1.4 -0.5
v -0.5 1.4 -0.5
v 0.5 1.4 -0.5
v 0.6 1.4 -0.5
v -0.6 1.4 -0.6
v -0.5 1.4 -0.6
v 0.5 1.4 -0.6
v 0.6 1.4 -0.6
v -0.5 1.5 0.6
v 5.96046e-08 1.5 0.6
v 0.1 1.5 0.6
v 0.2 1.5 0.6
v 0.3 1.5 0.6
v 0.5 1.5 0.6
v -0.6 1.5 0.5
v -0.5 1.5 0.5
v -0.1 1.5 0.5
v 5.96046e-08 1.5 0.5
v 0.1 1.5 0.5
v 0.2 1.5 0.5
v 0.3 1.5 0.5
v 0.5 1.5 0.5
v 0.6 1.5 0.5
v 0.5 1.5 0.3
v -0.6 1.5 0.1
v -0.5 1.5 0.1
v 0.5 1.5 0.1
v -0.5 1.5 -0.1
v 0.5 1.5 -0.1
v 0.6 1.5 -0.1
v -0.5 1.5 -0.2
v 0.5 1.5 -0.2
v 0.6 1.5 -0.2
v -0.5 1.5 -0.3
v -0.6 1.5 -0.4
v -0.5 1.5 -0.4
v -0.6 1.5 -0.5
v -0.5 1.5 -0.5
v -0.4 1.5 -0.5
v -0.1 1.5 -0.5
v 5.96046e-08 1.5 -0.5
v 0.5 1.5 -0.5
v 0.6 1.5 -0.5
v -0.5 1.5 -0.6
v 5.96046e-08 1.5 -0.6
v 0.5 1.5 -0.6
v -0.5 1.6 0.5
v -0.4 1.6 0.5
v 0.4 1.6 0.5
v 0.5 1.6 0.5
v -0.5 1.6 0.4
v -0.4 1.6 0.4
v 0.4 1.6 0.4
v 0.5 1.6 0.4
v -0.5 1.6 -0.4
v -0.4 1.6 -0.4
v 0.4 1.6 -0.4
v 0.5 1.6 -0.4
v -0.5 1.6 -0.5
v -0.4 1.6 -0.5
v 0.4 1.6 -0.5
v 0.5 1.6 -0.5
v -0.4 1.7 0.5
v -0.3 1.7 0.5
v 0.4 1.7 0.5
v -0.5 1.7 0.4
v -0.4 1.7 0.4
v -0.3 1.7 0.4
v 5.96046e-08 1.7 0.4
v 0.1 1.7 0.4
v 0.3 1.7 0.4
v 0.4 1.7 0.4
v 0.5 1.7 0.4
v -0.4 1.7 0.3
v -0.3 1.7 0.3
v 0.3 1.7 0.3
v 0.4 1.7 0.3
v 0.5 1.7 0.3
v -0.5 1.7 0.2
v -0.4 1.7 0.2
v 0.4 1.7 0.2
v 0.5 1.7 0.2
v -0.5 1.7 0.1
v -0.4 1.7 0.1
v -0.4 1.7 -0.1
v -0.4 1.7 -0.3
v -0.3 1.7 -0.3
v 0.3 1.7 -0.3
v 0.4 1.7 -0.3
v -0.5 1.7 -0.4
v -0.4 1.7 -0.4
v -0.3 1.7 -0.4
v -0.2 1.7 -0.4
v -0.1 1.7 -0.4
v 5.96046e-08 1.7 -0.4
v 0.3 1.7 -0.4
v 0.4 1.7 -0.4
v 0.5 1.7 -0.4
v -0.4 1.7 -0.5
v -0.3 1.7 -0.5
v -0.2 1.7 -0.5
v -0.1 1.7 -0.5
v 5.96046e-08 1.7 -0.5
v 0.4 1.7 -0.5
v -0.3 1.8 0.4
v 5.96046e-08 1.8 0.4
v 0.1 1.8 0.4
v 0.3 1.8 0.4
v -0.4 1.8 0.3
v -0.3 1.8 0.3
v -0.2 1.8 0.3
v 5.96046e-08 1.8 0.3
v 0.1 1.8 0.3
v 0.2 1.8 0.3
v 0.3 1.8 0.3
v 0.4 1.8 0.3
v -0.3 1.8 0.2
v -0.2 1.8 0.2
v 0.2 1.8 0.2
v 0.3 1.8 0.2
v -0.4 1.8 0.1
v -0.3 1.8 0.1
v 0.3 1.8 0.1
v -0.3 1.8 -5.96046e-08
v -0.4 1.8 -0.1
v -0.3 1.8 -0.1
v 0.3 1.8 -0.1
v -0.3 1.8 -0.2
v -0.2 1.8 -0.2
v 0.2 1.8 -0.2
v 0.3 1.8 -0.2
v -0.4 1.8 -0.3
v -0.3 1.8 -0.3
v -0.2 1.8 -0.3
v 0.2 1.8 -0.3
v 0.3 1.8 -0.3
v 0.4 1.8 -0.3
v -0.3 1.8 -0.4
v 0.3 1.8 -0.4
v -0.2 1.9 0.3
v 0.2 1.9 0.3
v -0.3 1.9 0.2
v -0.2 1.9 0.2
v 0.2 1.9 0.2
v 0.3 1.9 0.2
v -0.3 1.9 0.1
v -0.2 1.9 0.1
v 0.2 1.9 0.1
v 0.3 1.9 0.1
v -0.3 1.9 -5.96046e-08
v -0.2 1.9 -5.96046e-08
v -0.3 1.9 -0.1
v -0.2 1.9 -0.1
v 0.2 1.9 -0.1
v 0.3 1.9 -0.1
v -0.3 1.9 -0.2
v -0.2 1.9 -0.2
v 0.2 1.9 -0.2
v 0.3 1.9 -0.2
v -0.2 1.9 -0.3
v 0.2 1.9 -0.3

# faces
f 3/4/1 2/4/1 1/4/1
f 4/4/1 2/4/1 3/4/1
f 5/4/1 2/4/1 4/4/1
f 6/4/1 2/4/1 5/4/1
f 7/4/1 2/4/1 6/4/1
f 8/4/1 2/4/1 7/4/1
f 9/4/1 5/4/1 4/4/1
f 10/6/1 6/6/1 5/6/1
f 10/4/1 5/4/1 9/4/1
f 11/4/1 7/4/1 6/4/1
f 11/6/1 6/6/1 10/6/1
f 12/4/1 7/4/1 11/4/1
f 17/4/1 14/4/1 13/4/1
f 18/4/1 14/4/1 17/4/1
f 21/4/1 16/4/1 15/4/1
f 22/4/1 16/4/1 21/4/1
f 23/4/1 19/4/1 18/4/1
f 26/4/1 21/4/1 20/4/1
f 27/4/1 25/4/1 24/4/1
f 27/4/1 26/4/1 25/4/1
f 27/4/1 23/4/1 18/4/1
f 27/4/1 24/4/1 23/4/1
f 28/4/1 26/4/1 27/4/1
f 29/4/1 26/4/1 28/4/1
f 30/4/1 21/4/1 26/4/1
f 30/4/1 26/4/1 29/4/1
f 31/4/1 21/4/1 30/4/1
f 32/6/1 29/6/1 28/6/1
f 33/4/1 30/4/1 29/4/1
f 33/6/1 29/6/1 32/6/1
f 34/4/1 30/4/1 33/4/1
f 39/4/1 36/4/1 35/4/1
f 40/4/1 36/4/1 39/4/1
f 41/4/1 38/4/1 37/4/1
f 42/4/1 38/4/1 41/4/1
f 47/4/1 44/4/1 43/4/1
f 48/4/1 44/4/1 47/4/1
f 52/4/1 46/4/1 45/4/1
f 53/4/1 46/4/1 52/4/1
f 54/4/1 49/4/1 48/4/1
f 55/4/1 49/4/1 54/4/1
f 56/6/1 51/6/1 50/6/1
f 56/4/1 49/4/1 55/4/1
f 56/6/1 50/6/1 49/6/1
f 57/6/1 51/6/1 56/6/1
f 58/4/1 52/4/1 51/4/1
f 58/6/1 51/6/1 57/6/1
f 59/4/1 52/4/1 58/4/1
f 60/4/1 52/4/1 59/4/1
f 61/4/1 52/4/1 60/4/1
f 62/4/1 57/4/1 56/4/1
f 62/4/1 56/4/1 55/4/1
f 63/6/1 59/6/1 58/6/1
f 63/4/1 57/4/1 62/4/1
f 63/6/1 58/6/1 57/6/1
f 64/4/1 60/4/1 59/4/1
f 64/6/1 59/6/1 63/6/1
f 65/4/1 60/4/1 64/4/1
f 70/4/1 67/4/1 66/4/1
f 71/4/1 67/4/1 70/4/1
f 77/6/1 69/6/1 68/6/1
f 78/6/1 69/6/1 77/6/1
f 79/4/1 72/4/1 71/4/1
f 79/4/1 73/4/1 72/4/1
f 80/4/1 73/4/1 79/4/1
f 81/4/1 73/4/1 80/4/1
f 82/4/1 73/4/1 81/4/1
f 83/6/1 74/6/1 73/6/1
f 83/4/1 73/4/1 82/4/1
f 84/4/1 75/4/1 74/4/1
f 84/6/1 74/6/1 83/6/1
f 85/6/1 76/6/1 75/6/1
f 85/4/1 75/4/1 84/4/1
f 85/6/1 77/6/1 76/6/1
f 86/6/1 77/6/1 85/6/1
f 87/6/1 77/6/1 86/6/1
f 88/4/1 81/4/1 80/4/1
f 89/6/1 82/6/1 81/6/1
f 89/4/1 81/4/1 88/4/1
f 90/4/1 84/4/1 83/4/1
f 90/6/1 82/6/1 89/6/1
f 90/4/1 83/4/1 82/4/1
f 90/4/1 85/4/1 84/4/1
f 90/4/1 86/4/1 85/4/1
f 91/4/1 86/4/1 90/4/1
f 98/1/1 95/1/1 94/1/1
f 98/2/1 96/2/1 95/2/1
f 99/2/1 96/2/1 98/2/1
f 100/1/1 99/1/1 98/1/1
f 100/2/1 96/2/1 99/2/1
f 101/1/1 97/1/1 96/1/1
f 101/2/1 96/2/1 100/2/1
f 102/1/1 93/1/1 92/1/1
f 103/2/1 94/2/1 93/2/1
f 103/1/1 93/1/1 102/1/1
f 104/1/1 100/1/1 98/1/1
f 104/2/1 94/2/1 103/2/1
f 104/1/1 98/1/1 94/1/1
f 104/1/1 101/1/1 100/1/1
f 105/1/1 97/1/1 101/1/1
f 105/1/1 101/1/1 104/1/1
f 110/6/1 107/6/1 106/6/1
f 111/6/1 107/6/1 110/6/1
f 117/4/1 109/4/1 108/4/1
f 118/4/1 109/4/1 117/4/1
f 119/4/1 113/4/1 112/4/1
f 119/4/1 114/4/1 113/4/1
f 120/6/1 115/6/1 114/6/1
f 120/4/1 114/4/1 119/4/1
f 121/4/1 116/4/1 115/4/1
f 121/6/1 115/6/1 120/6/1
f 122/4/1 116/4/1 121/4/1
f 126/1/1 125/1/1 124/1/1
f 127/1/1 125/1/1 126/1/1
f 128/2/1 124/2/1 123/2/1
f 129/1/1 126/1/1 124/1/1
f 129/2/1 124/2/1 128/2/1
f 130/2/1 127/2/1 126/2/1
f 130/1/1 126/1/1 129/1/1
f 131/1/1 125/1/1 127/1/1
f 131/2/1 127/2/1 130/2/1
f 132/1/1 125/1/1 131/1/1
f 137/4/1 134/4/1 133/4/1
f 138/4/1 134/4/1 137/4/1
f 144/4/1 136/4/1 135/4/1
f 145/4/1 136/4/1 144/4/1
f 146/4/1 140/4/1 139/4/1
f 147/6/1 141/6/1 140/6/1
f 147/4/1 140/4/1 146/4/1
f 148/4/1 142/4/1 141/4/1
f 148/6/1 141/6/1 147/6/1
f 149/6/1 143/6/1 142/6/1
f 149/4/1 142/4/1 148/4/1
f 150/6/1 143/6/1 149/6/1
f 155/4/1 152/4/1 151/4/1
f 156/4/1 152/4/1 155/4/1
f 157/4/1 154/4/1 153/4/1
f 158/4/1 154/4/1 157/4/1
f 159/4/2 160/4/2 163/4/2
f 163/4/2 160/4/2 164/4/2
f 161/4/2 162/4/2 165/4/2
f 165/4/2 162/4/2 166/4/2
f 167/1/2 168/1/2 169/1/2
f 169/1/2 168/1/2 170/1/2
f 167/1/2 169/1/2 171/1/2
f 169/2/2 170/2/2 172/2/2
f 171/1/2 169/1/2 172/1/2
f 170/1/2 168/1/2 173/1/2
f 172/2/2 170/2/2 173/2/2
f 173/1/2 168/1/2 174/1/2
f 175/4/2 176/4/2 179/4/2
f 179/4/2 176/4/2 180/4/2
f 177/4/2 178/4/2 185/4/2
f 185/4/2 178/4/2 186/4/2
f 181/4/2 182/4/2 187/4/2
f 182/6/2 183/6/2 188/6/2
f 187/4/2 182/4/2 188/4/2
f 183/4/2 184/4/2 189/4/2
f 188/6/2 183/6/2 189/6/2
f 189/4/2 184/4/2 190/4/2
f 192/2/2 193/2/2 195/2/2
f 193/1/2 194/1/2 196/1/2
f 195/2/2 193/2/2 196/2/2
f 191/1/2 192/1/2 197/1/2
f 192/2/2 195/2/2 197/2/2
f 195/1/2 196/1/2 198/1/2
f 197/2/2 195/2/2 198/2/2
f 191/1/2 197/1/2 199/1/2
f 197/1/2 198/1/2 199/1/2
f 196/1/2 194/1/2 200/1/2
f 199/1/2 198/1/2 200/1/2
f 198/1/2 196/1/2 200/1/2
f 201/4/2 202/4/2 205/4/2
f 205/4/2 202/4/2 206/4/2
f 203/4/2 204/4/2 210/4/2
f 210/4/2 204/4/2 211/4/2
f 208/4/2 209/4/2 212/4/2
f 207/4/2 208/4/2 212/4/2
f 212/4/2 209/4/2 213/4/2
f 214/4/2 215/4/2 218/4/2
f 218/4/2 215/4/2 219/4/2
f 216/4/2 217/4/2 224/4/2
f 224/4/2 217/4/2 225/4/2
f 219/4/2 220/4/2 226/4/2
f 226/4/2 220/4/2 227/4/2
f 220/6/2 221/6/2 228/6/2
f 222/4/2 223/4/2 229/4/2
f 228/6/2 221/6/2 229/6/2
f 223/4/2 224/4/2 229/4/2
f 221/4/2 222/4/2 229/4/2
f 229/4/2 224/4/2 230/4/2
f 230/4/2 224/4/2 231/4/2
f 227/4/2 220/4/2 232/4/2
f 220/6/2 228/6/2 233/6/2
f 232/4/2 220/4/2 233/4/2
f 229/4/2 230/4/2 234/4/2
f 233/6/2 228/6/2 234/6/2
f 228/4/2 229/4/2 234/4/2
f 234/4/2 230/4/2 235/4/2
f 236/6/2 237/6/2 240/6/2
f 240/6/2 237/6/2 241/6/2
f 238/4/2 239/4/2 242/4/2
f 242/4/2 239/4/2 243/4/2
f 244/4/2 245/4/2 248/4/2
f 248/4/2 245/4/2 249/4/2
f 246/4/2 247/4/2 256/4/2
f 256/4/2 247/4/2 257/4/2
f 249/4/2 250/4/2 258/4/2
f 250/4/2 251/4/2 258/4/2
f 251/4/2 252/4/2 258/4/2
f 258/4/2 252/4/2 259/4/2
f 252/6/2 253/6/2 260/6/2
f 254/4/2 255/4/2 261/4/2
f 260/6/2 253/6/2 261/6/2
f 255/4/2 256/4/2 261/4/2
f 253/4/2 254/4/2 261/4/2
f 261/4/2 256/4/2 262/4/2
f 262/4/2 256/4/2 263/4/2
f 259/4/2 252/4/2 264/4/2
f 252/6/2 260/6/2 265/6/2
f 264/4/2 252/4/2 265/4/2
f 261/4/2 262/4/2 266/4/2
f 265/6/2 260/6/2 266/6/2
f 260/4/2 261/4/2 266/4/2
f 266/4/2 262/4/2 267/4/2
f 268/4/2 269/4/2 272/4/2
f 272/4/2 269/4/2 273/4/2
f 270/4/2 271/4/2 276/4/2
f 276/4/2 271/4/2 277/4/2
f 273/4/2 274/4/2 278/4/2
f 278/4/2 274/4/2 279/4/2
f 275/4/2 276/4/2 284/4/2
f 278/6/2 279/6/2 285/6/2
f 279/4/2 280/4/2 286/4/2
f 285/6/2 279/6/2 286/6/2
f 280/4/2 281/4/2 286/4/2
f 281/4/2 282/4/2 286/4/2
f 286/4/2 282/4/2 287/4/2
f 287/4/2 282/4/2 288/4/2
f 283/4/2 284/4/2 289/4/2
f 284/4/2 276/4/2 289/4/2
f 289/4/2 276/4/2 290/4/2
f 286/4/2 287/4/2 291/4/2
f 287/6/2 288/6/2 292/6/2
f 291/4/2 287/4/2 292/4/2
f 288/4/2 282/4/2 293/4/2
f 292/6/2 288/6/2 293/6/2
f 282/6/2 283/6/2 294/6/2
f 293/4/2 282/4/2 294/4/2
f 283/4/2 289/4/2 295/4/2
f 294/6/2 283/6/2 295/6/2
f 295/4/2 289/4/2 296/4/2
f 297/4/2 298/4/2 299/4/2
f 299/4/2 298/4/2 300/4/2
f 300/4/2 298/4/2 301/4/2
f 301/4/2 298/4/2 302/4/2
f 302/4/2 298/4/2 303/4/2
f 303/4/2 298/4/2 304/4/2
f 300/4/2 301/4/2 305/4/2
f 301/6/2 302/6/2 306/6/2
f 305/4/2 301/4/2 306/4/2
f 302/4/2 303/4/2 307/4/2
f 306/6/2 302/6/2 307/6/2
f 307/4/2 303/4/2 308/4/2
f 311/4/3 310/4/3 309/4/3
f 313/4/3 311/4/3 309/4/3
f 313/4/3 312/4/3 311/4/3
f 314/4/3 312/4/3 313/4/3
f 315/4/3 313/4/3 309/4/3
f 315/6/3 314/6/3 313/6/3
f 316/6/3 314/6/3 315/6/3
f 317/4/3 315/4/3 309/4/3
f 318/4/3 315/4/3 317/4/3
f 321/4/3 320/4/3 319/4/3
f 322/4/3 320/4/3 321/4/3
f 324/4/3 323/4/3 322/4/3
f 325/4/3 323/4/3 324/4/3
f 326/4/3 323/4/3 325/4/3
f 328/4/3 327/4/3 326/4/3
f 328/4/3 326/4/3 325/4/3
f 329/4/3 327/4/3 328/4/3
f 330/6/3 329/6/3 328/6/3
f 331/4/3 327/4/3 329/4/3
f 331/6/3 329/6/3 330/6/3
f 332/4/3 331/4/3 330/4/3
f 332/4/3 327/4/3 331/4/3
f 333/4/3 327/4/3 332/4/3
f 334/4/3 332/4/3 330/4/3
f 334/6/3 333/6/3 332/6/3
f 335/6/3 333/6/3 334/6/3
f 336/4/3 334/4/3 330/4/3
f 336/4/3 335/4/3 334/4/3
f 338/4/3 335/4/3 336/4/3
f 339/4/3 335/4/3 338/4/3
f 340/4/3 335/4/3 339/4/3
f 342/4/3 338/4/3 337/4/3
f 343/6/3 339/6/3 338/6/3
f 343/4/3 338/4/3 342/4/3
f 344/6/3 339/6/3 343/6/3
f 345/4/3 342/4/3 341/4/3
f 346/4/3 342/4/3 345/4/3
f 349/4/3 348/4/3 347/4/3
f 350/4/3 348/4/3 349/4/3
f 353/6/3 352/6/3 351/6/3
f 354/6/3 352/6/3 353/6/3
f 356/4/3 355/4/3 354/4/3
f 358/4/3 356/4/3 354/4/3
f 358/4/3 357/4/3 356/4/3
f 359/4/3 357/4/3 358/4/3
f 360/6/3 359/6/3 358/6/3
f 361/4/3 357/4/3 359/4/3
f 361/6/3 359/6/3 360/6/3
f 362/4/3 357/4/3 361/4/3
f 363/4/3 361/4/3 360/4/3
f 364/6/3 362/6/3 361/6/3
f 364/4/3 361/4/3 363/4/3
f 365/6/3 362/6/3 364/6/3
f 366/4/3 364/4/3 363/4/3
f 366/4/3 365/4/3 364/4/3
f 367/4/3 365/4/3 366/4/3
f 368/4/3 365/4/3 367/4/3
f 369/4/3 367/4/3 366/4/3
f 369/6/3 368/6/3 367/6/3
f 370/6/3 368/6/3 369/6/3
f 371/4/3 369/4/3 366/4/3
f 371/4/3 370/4/3 369/4/3
f 372/4/3 370/4/3 371/4/3
f 374/4/3 371/4/3 366/4/3
f 375/4/3 371/4/3 374/4/3
f 378/4/3 374/4/3 373/4/3
f 379/4/3 374/4/3 378/4/3
f 380/4/3 377/4/3 376/4/3
f 381/4/3 377/4/3 380/4/3
f 384/4/3 383/4/3 382/4/3
f 385/4/3 383/4/3 384/4/3
f 387/4/3 386/4/3 385/4/3
f 389/4/3 387/4/3 385/4/3
f 389/6/3 388/6/3 387/6/3
f 390/6/3 388/6/3 389/6/3
f 391/4/3 389/4/3 385/4/3
f 391/4/3 390/4/3 389/4/3
f 392/4/3 390/4/3 391/4/3
f 393/6/3 392/6/3 391/6/3
f 394/6/3 392/6/3 393/6/3
f 395/4/3 390/4/3 392/4/3
f 395/6/3 392/6/3 394/6/3
f 396/4/3 395/4/3 394/4/3
f 397/4/3 395/4/3 396/4/3
f 398/4/3 390/4/3 395/4/3
f 398/4/3 395/4/3 397/4/3
f 399/4/3 390/4/3 398/4/3
f 401/4/3 398/4/3 397/4/3
f 402/4/3 398/4/3 401/4/3
f 403/4/3 401/4/3 400/4/3
f 404/4/3 401/4/3 403/4/3
f 409/4/3 406/4/3 405/4/3
f 410/4/3 406/4/3 409/4/3
f 413/1/3 408/1/3 407/1/3
f 414/1/3 408/1/3 413/1/3
f 415/4/3 412/4/3 411/4/3
f 416/4/3 412/4/3 415/4/3
f 417/2/3 414/2/3 413/2/3
f 418/1/3 408/1/3 414/1/3
f 418/2/3 414/2/3 417/2/3
f 419/6/3 416/6/3 415/6/3
f 420/6/3 416/6/3 419/6/3
f 421/4/3 420/4/3 419/4/3
f 422/4/3 420/4/3 421/4/3
f 423/1/3 418/1/3 417/1/3
f 424/1/3 408/1/3 418/1/3
f 424/1/3 418/1/3 423/1/3
f 427/4/3 426/4/3 425/4/3
f 428/4/3 426/4/3 427/4/3
f 433/4/3 430/4/3 429/4/3
f 434/4/3 430/4/3 433/4/3
f 435/2/3 432/2/3 431/2/3
f 436/2/3 432/2/3 435/2/3
f 439/1/3 436/1/3 435/1/3
f 440/4/3 438/4/3 437/4/3
f 441/1/3 439/1/3 435/1/3
f 442/1/3 439/1/3 441/1/3
f 443/1/3 439/1/3 442/1/3
f 444/4/3 438/4/3 440/4/3
f 445/2/3 442/2/3 441/2/3
f 446/1/3 443/1/3 442/1/3
f 446/2/3 442/2/3 445/2/3
f 447/4/3 438/4/3 444/4/3
f 448/4/3 438/4/3 447/4/3
f 449/1/3 446/1/3 445/1/3
f 450/1/3 443/1/3 446/1/3
f 450/1/3 446/1/3 449/1/3
f 453/4/3 452/4/3 451/4/3
f 454/4/3 452/4/3 453/4/3
f 457/4/3 456/4/3 455/4/3
f 458/4/3 456/4/3 457/4/3
f 461/4/3 460/4/3 459/4/3
f 462/4/3 460/4/3 461/4/3
f 463/6/4 464/6/4 465/6/4
f 465/6/4 464/6/4 466/6/4
f 467/4/4 468/4/4 469/4/4
f 469/4/4 468/4/4 470/4/4
f 471/4/4 472/4/4 475/4/4
f 475/4/4 472/4/4 476/4/4
f 473/1/4 474/1/4 477/1/4
f 477/1/4 474/1/4 478/1/4
f 478/1/4 474/1/4 481/1/4
f 477/2/4 478/2/4 481/2/4
f 481/1/4 474/1/4 482/1/4
f 477/2/4 481/2/4 483/2/4
f 481/2/4 482/2/4 483/2/4
f 483/2/4 482/2/4 484/2/4
f 477/2/4 483/2/4 485/2/4
f 483/1/4 484/1/4 486/1/4
f 485/2/4 483/2/4 486/2/4
f 486/1/4 484/1/4 487/1/4
f 479/4/4 480/4/4 488/4/4
f 488/4/4 480/4/4 489/4/4
f 486/1/4 487/1/4 490/1/4
f 485/1/4 486/1/4 490/1/4
f 490/1/4 487/1/4 491/1/4
f 492/4/4 493/4/4 494/4/4
f 494/4/4 493/4/4 495/4/4
f 496/4/4 497/4/4 500/4/4
f 500/4/4 497/4/4 501/4/4
f 502/4/4 503/4/4 504/4/4
f 504/4/4 503/4/4 505/4/4
f 498/1/4 499/1/4 506/1/4
f 506/1/4 499/1/4 507/1/4
f 505/4/4 503/4/4 508/4/4
f 507/1/4 499/1/4 509/1/4
f 506/2/4 507/2/4 509/2/4
f 509/1/4 499/1/4 510/1/4
f 506/2/4 509/2/4 511/2/4
f 509/2/4 510/2/4 511/2/4
f 510/1/4 499/1/4 512/1/4
f 511/2/4 510/2/4 512/2/4
f 508/4/4 503/4/4 513/4/4
f 513/4/4 503/4/4 514/4/4
f 511/1/4 512/1/4 515/1/4
f 512/1/4 499/1/4 516/1/4
f 515/1/4 512/1/4 516/1/4
f 517/4/4 518/4/4 519/4/4
f 519/4/4 518/4/4 520/4/4
f 521/4/4 522/4/4 523/4/4
f 523/4/4 522/4/4 524/4/4
f 524/6/4 525/6/4 526/6/4
f 526/6/4 525/6/4 527/6/4
f 526/4/4 527/4/4 529/4/4
f 527/4/4 528/4/4 529/4/4
f 529/4/4 528/4/4 530/4/4
f 526/4/4 529/4/4 531/4/4
f 529/6/4 530/6/4 531/6/4
f 531/6/4 530/6/4 532/6/4
f 526/4/4 531/4/4 533/4/4
f 531/4/4 532/4/4 533/4/4
f 533/4/4 532/4/4 534/4/4
f 533/6/4 534/6/4 535/6/4
f 535/6/4 534/6/4 536/6/4
f 535/4/4 536/4/4 537/4/4
f 537/4/4 536/4/4 538/4/4
f 535/4/4 537/4/4 540/4/4
f 540/4/4 537/4/4 541/4/4
f 539/4/4 540/4/4 542/4/4
f 542/4/4 540/4/4 543/4/4
f 544/4/4 545/4/4 546/4/4
f 546/4/4 545/4/4 547/4/4
f 548/4/4 549/4/4 550/4/4
f 550/4/4 549/4/4 551/4/4
f 551/4/4 552/4/4 553/4/4
f 551/4/4 553/4/4 555/4/4
f 555/4/4 553/4/4 556/4/4
f 553/6/4 554/6/4 557/6/4
f 556/4/4 553/4/4 557/4/4
f 556/6/4 557/6/4 558/6/4
f 558/6/4 557/6/4 559/6/4
f 557/6/4 554/6/4 560/6/4
f 559/6/4 557/6/4 560/6/4
f 560/6/4 554/6/4 561/6/4
f 559/6/4 560/6/4 562/6/4
f 560/4/4 561/4/4 563/4/4
f 562/6/4 560/6/4 563/6/4
f 562/4/4 563/4/4 564/4/4
f 563/4/4 561/4/4 565/4/4
f 564/4/4 563/4/4 565/4/4
f 565/4/4 561/4/4 566/4/4
f 564/4/4 565/4/4 568/4/4
f 568/4/4 565/4/4 569/4/4
f 567/4/4 568/4/4 572/4/4
f 572/4/4 568/4/4 573/4/4
f 570/4/4 571/4/4 574/4/4
f 574/4/4 571/4/4 575/4/4
f 576/4/4 577/4/4 578/4/4
f 578/4/4 577/4/4 579/4/4
f 579/4/4 580/4/4 581/4/4
f 581/4/4 580/4/4 582/4/4
f 582/4/4 580/4/4 583/4/4
f 583/4/4 584/4/4 585/4/4
f 582/4/4 583/4/4 585/4/4
f 585/4/4 584/4/4 586/4/4
f 582/4/4 585/4/4 587/4/4
f 585/6/4 586/6/4 587/6/4
f 587/6/4 586/6/4 588/6/4
f 582/4/4 587/4/4 589/4/4
f 587/4/4 588/4/4 589/4/4
f 589/4/4 588/4/4 590/4/4
f 582/4/4 589/4/4 591/4/4
f 589/6/4 590/6/4 592/6/4
f 591/4/4 589/4/4 592/4/4
f 591/6/4 592/6/4 593/6/4
f 592/6/4 590/6/4 594/6/4
f 593/6/4 592/6/4 594/6/4
f 593/4/4 594/4/4 596/4/4
f 596/4/4 594/4/4 597/4/4
f 597/4/4 594/4/4 598/4/4
f 595/4/4 596/4/4 600/4/4
f 596/4/4 597/4/4 600/4/4
f 600/4/4 597/4/4 601/4/4
f 599/4/4 600/4/4 602/4/4
f 602/4/4 600/4/4 603/4/4
f 604/4/4 605/4/4 606/4/4
f 604/4/4 606/4/4 608/4/4
f 606/4/4 607/4/4 608/4/4
f 608/4/4 607/4/4 609/4/4
f 604/4/4 608/4/4 610/4/4
f 608/6/4 609/6/4 610/6/4
f 610/6/4 609/6/4 611/6/4
f 604/4/4 610/4/4 612/4/4
f 610/4/4 611/4/4 612/4/4
f 612/4/4 611/4/4 613/4/4
f 604/4/4 612/4/4 614/4/4
f 614/4/4 612/4/4 615/4/4
f 621/1/5 618/1/5 617/1/5
f 621/2/5 619/2/5 618/2/5
f 622/1/5 620/1/5 619/1/5
f 622/2/5 619/2/5 621/2/5
f 623/2/5 617/2/5 616/2/5
f 624/1/5 621/1/5 617/1/5
f 624/2/5 617/2/5 623/2/5
f 624/1/5 622/1/5 621/1/5
f 625/1/5 624/1/5 623/1/5
f 625/1/5 622/1/5 624/1/5
f 626/1/5 620/1/5 622/1/5
f 626/1/5 622/1/5 625/1/5
f 627/1/5 625/1/5 623/1/5
f 628/2/5 626/2/5 625/2/5
f 628/1/5 625/1/5 627/1/5
f 629/1/5 620/1/5 626/1/5
f 629/2/5 626/2/5 628/2/5
f 630/1/5 620/1/5 629/1/5
f 635/1/5 632/1/5 631/1/5
f 636/1/5 632/1/5 635/1/5
f 637/1/5 632/1/5 636/1/5
f 638/2/5 633/2/5 632/2/5
f 638/1/5 632/1/5 637/1/5
f 639/1/5 634/1/5 633/1/5
f 639/2/5 633/2/5 638/2/5
f 640/1/5 634/1/5 639/1/5
f 641/2/5 636/2/5 635/2/5
f 642/2/5 636/2/5 641/2/5
f 643/1/5 634/1/5 640/1/5
f 644/1/5 634/1/5 643/1/5
f 645/1/5 642/1/5 641/1/5
f 646/1/5 642/1/5 645/1/5
f 647/2/5 644/2/5 643/2/5
f 648/2/5 644/2/5 647/2/5
f 649/2/5 646/2/5 645/2/5
f 650/2/5 649/2/5 645/2/5
f 651/2/5 649/2/5 650/2/5
f 655/1/5 648/1/5 647/1/5
f 656/1/5 651/1/5 650/1/5
f 656/1/5 652/1/5 651/1/5
f 657/2/5 654/2/5 653/2/5
f 657/1/5 652/1/5 656/1/5
f 657/2/5 653/2/5 652/2/5
f 658/1/5 655/1/5 654/1/5
f 658/2/5 654/2/5 657/2/5
f 659/1/5 648/1/5 655/1/5
f 659/1/5 655/1/5 658/1/5
f 663/4/5 661/4/5 660/4/5
f 664/4/5 661/4/5 663/4/5
f 666/4/5 663/4/5 662/4/5
f 666/4/5 665/4/5 664/4/5
f 666/4/5 664/4/5 663/4/5
f 667/4/5 665/4/5 666/4/5
f 668/4/5 666/4/5 662/4/5
f 669/4/5 668/4/5 662/4/5
f 670/4/5 669/4/5 662/4/5
f 671/4/5 665/4/5 667/4/5
f 672/4/5 670/4/5 662/4/5
f 672/4/5 671/4/5 670/4/5
f 673/4/5 671/4/5 672/4/5
f 674/4/5 665/4/5 671/4/5
f 674/4/5 671/4/5 673/4/5
f 675/4/5 665/4/5 674/4/5
f 676/4/5 674/4/5 673/4/5
f 677/4/5 674/4/5 676/4/5
f 678/4/6 679/4/6 683/4/6
f 683/4/6 679/4/6 684/4/6
f 680/4/6 681/4/6 685/4/6
f 685/4/6 681/4/6 686/4/6
f 682/4/6 683/4/6 688/4/6
f 688/4/6 683/4/6 689/4/6
f 686/4/6 687/4/6 690/4/6
f 690/4/6 687/4/6 691/4/6
f 692/4/6 693/4/6 696/4/6
f 696/4/6 693/4/6 697/4/6
f 694/4/6 695/4/6 700/4/6
f 700/4/6 695/4/6 701/4/6
f 697/4/6 698/4/6 702/4/6
f 702/4/6 698/4/6 703/4/6
f 699/4/6 700/4/6 704/4/6
f 704/4/6 700/4/6 705/4/6
f 706/4/6 707/4/6 709/4/6
f 709/4/6 707/4/6 710/4/6
f 710/4/6 707/4/6 711/4/6
f 707/6/6 708/6/6 712/6/6
f 711/4/6 707/4/6 712/4/6
f 712/6/6 708/6/6 713/6/6
f 714/4/6 715/4/6 718/4/6
f 718/4/6 715/4/6 719/4/6
f 718/6/6 719/6/6 720/6/6
f 720/6/6 719/6/6 721/6/6
f 716/4/6 717/4/6 722/4/6
f 722/4/6 717/4/6 723/4/6
f 722/6/6 723/6/6 724/6/6
f 724/6/6 723/6/6 725/6/6
f 724/4/6 725/4/6 726/4/6
f 726/4/6 725/4/6 727/4/6
f 720/4/6 721/4/6 728/4/6
f 728/4/6 721/4/6 729/4/6
f 727/4/6 725/4/6 730/4/6
f 730/4/6 725/4/6 731/4/6
f 732/4/6 733/4/6 736/4/6
f 733/6/6 734/6/6 737/6/6
f 736/4/6 733/4/6 737/4/6
f 734/4/6 735/4/6 738/4/6
f 737/6/6 734/6/6 738/6/6
f 738/4/6 735/4/6 739/4/6
f 740/4/6 741/4/6 744/4/6
f 744/4/6 741/4/6 745/4/6
f 742/6/6 743/6/6 746/6/6
f 746/6/6 743/6/6 747/6/6
f 748/4/6 749/4/6 752/4/6
f 752/4/6 749/4/6 753/4/6
f 750/4/6 751/4/6 754/4/6
f 754/4/6 751/4/6 755/4/6
f 756/4/6 757/4/6 761/4/6
f 761/4/6 757/4/6 762/4/6
f 762/4/6 757/4/6 763/4/6
f 757/6/6 758/6/6 764/6/6
f 763/4/6 757/4/6 764/4/6
f 758/4/6 759/4/6 765/4/6
f 764/6/6 758/6/6 765/6/6
f 765/4/6 759/4/6 766/4/6
f 760/6/6 761/6/6 768/6/6
f 766/4/6 767/4/6 769/4/6
f 769/4/6 767/4/6 770/4/6
f 760/6/6 768/6/6 771/6/6
f 771/6/6 768/6/6 772/6/6
f 769/6/6 770/6/6 773/6/6
f 773/6/6 770/6/6 774/6/6
f 771/4/6 772/4/6 775/4/6
f 773/4/6 774/4/6 776/4/6
f 776/4/6 774/4/6 777/4/6
f 777/4/6 774/4/6 778/4/6
f 778/4/6 774/4/6 779/4/6
f 778/6/6 779/6/6 780/6/6
f 780/6/6 779/6/6 781/6/6
f 771/4/6 775/4/6 782/4/6
f 782/4/6 775/4/6 783/4/6
f 780/4/6 781/4/6 790/4/6
f 790/4/6 781/4/6 791/4/6
f 783/4/6 784/4/6 792/4/6
f 784/6/6 785/6/6 793/6/6
f 792/4/6 784/4/6 793/4/6
f 785/6/6 786/6/6 793/6/6
f 786/4/6 787/4/6 794/4/6
f 793/6/6 786/6/6 794/6/6
f 788/6/6 789/6/6 795/6/6
f 794/4/6 787/4/6 795/4/6
f 787/6/6 788/6/6 795/6/6
f 789/4/6 790/4/6 796/4/6
f 795/6/6 789/6/6 796/6/6
f 796/4/6 790/4/6 797/4/6
f 798/4/6 799/4/6 802/4/6
f 802/4/6 799/4/6 803/4/6
f 800/4/6 801/4/6 804/4/6
f 804/4/6 801/4/6 805/4/6
f 806/4/6 807/4/6 810/4/6
f 810/4/6 807/4/6 811/4/6
f 808/4/6 809/4/6 812/4/6
f 812/4/6 809/4/6 813/4/6
f 814/4/6 815/4/6 821/4/6
f 821/4/6 815/4/6 822/4/6
f 815/6/6 816/6/6 823/6/6
f 822/4/6 815/4/6 823/4/6
f 816/4/6 817/4/6 824/4/6
f 823/6/6 816/6/6 824/6/6
f 817/6/6 818/6/6 825/6/6
f 824/4/6 817/4/6 825/4/6
f 818/4/6 819/4/6 826/4/6
f 825/6/6 818/6/6 826/6/6
f 826/4/6 819/4/6 827/4/6
f 827/4/6 828/4/6 829/4/6
f 820/4/6 821/4/6 830/4/6
f 830/4/6 821/4/6 831/4/6
f 829/4/6 828/4/6 832/4/6
f 830/6/6 831/6/6 833/6/6
f 832/4/6 828/4/6 834/4/6
f 834/4/6 828/4/6 835/4/6
f 830/6/6 833/6/6 836/6/6
f 834/6/6 835/6/6 837/6/6
f 837/6/6 835/6/6 838/6/6
f 830/6/6 836/6/6 839/6/6
f 830/6/6 839/6/6 840/6/6
f 840/6/6 839/6/6 841/6/6
f 840/4/6 841/4/6 842/4/6
f 842/4/6 841/4/6 843/4/6
f 837/4/6 838/4/6 847/4/6
f 847/4/6 838/4/6 848/4/6
f 845/6/6 846/6/6 849/6/6
f 843/6/6 844/6/6 849/6/6
f 844/6/6 845/6/6 849/6/6
f 846/4/6 847/4/6 850/4/6
f 849/6/6 846/6/6 850/6/6
f 850/4/6 847/4/6 851/4/6
f 852/4/6 853/4/6 856/4/6
f 856/4/6 853/4/6 857/4/6
f 854/4/6 855/4/6 858/4/6
f 858/4/6 855/4/6 859/4/6
f 860/6/6 861/6/6 864/6/6
f 864/6/6 861/6/6 865/6/6
f 862/4/6 863/4/6 866/4/6
f 866/4/6 863/4/6 867/4/6
f 868/6/6 869/6/6 872/6/6
f 869/4/6 870/4/6 873/4/6
f 872/6/6 869/6/6 873/6/6
f 873/4/6 870/4/6 874/4/6
f 874/4/6 870/4/6 875/4/6
f 875/4/6 870/4/6 876/4/6
f 876/4/6 870/4/6 877/4/6
f 871/4/6 872/4/6 879/4/6
f 872/4/6 873/4/6 879/4/6
f 879/4/6 873/4/6 880/4/6
f 877/4/6 878/4/6 881/4/6
f 876/4/6 877/4/6 881/4/6
f 881/4/6 878/4/6 882/4/6
f 882/4/6 878/4/6 883/4/6
f 871/4/6 879/4/6 884/4/6
f 884/4/6 879/4/6 885/4/6
f 882/6/6 883/6/6 886/6/6
f 886/6/6 883/6/6 887/6/6
f 884/6/6 885/6/6 888/6/6
f 888/6/6 885/6/6 889/6/6
f 888/4/6 889/4/6 890/4/6
f 888/4/6 890/4/6 891/4/6
f 886/4/6 887/4/6 894/4/6
f 891/4/6 892/4/6 895/4/6
f 888/4/6 891/4/6 895/4/6
f 895/4/6 892/4/6 896/4/6
f 896/4/6 892/4/6 897/4/6
f 893/4/6 894/4/6 901/4/6
f 894/4/6 887/4/6 902/4/6
f 901/4/6 894/4/6 902/4/6
f 902/4/6 887/4/6 903/4/6
f 896/4/6 897/4/6 904/4/6
f 897/6/6 898/6/6 905/6/6
f 904/4/6 897/4/6 905/4/6
f 898/4/6 899/4/6 906/4/6
f 905/6/6 898/6/6 906/6/6
f 899/6/6 900/6/6 907/6/6
f 906/4/6 899/4/6 907/4/6
f 900/4/6 901/4/6 908/4/6
f 907/6/6 900/6/6 908/6/6
f 901/4/6 902/4/6 908/4/6
f 908/4/6 902/4/6 909/4/6
f 910/4/6 911/4/6 915/4/6
f 915/4/6 911/4/6 916/4/6
f 911/6/6 912/6/6 917/6/6
f 916/4/6 911/4/6 917/4/6
f 912/4/6 913/4/6 918/4/6
f 917/6/6 912/6/6 918/6/6
f 918/4/6 913/4/6 919/4/6
f 919/4/6 913/4/6 920/4/6
f 915/4/6 916/4/6 922/4/6
f 914/4/6 915/4/6 922/4/6
f 922/4/6 916/4/6 923/4/6
f 920/4/6 921/4/6 924/4/6
f 919/4/6 920/4/6 924/4/6
f 924/4/6 921/4/6 925/4/6
f 914/4/6 922/4/6 926/4/6
f 926/4/6 922/4/6 927/4/6
f 925/4/6 921/4/6 928/4/6
f 926/6/6 927/6/6 929/6/6
f 926/6/6 929/6/6 930/6/6
f 930/6/6 929/6/6 931/6/6
f 928/4/6 921/4/6 932/4/6
f 930/4/6 931/4/6 933/4/6
f 932/4/6 921/4/6 936/4/6
f 933/4/6 934/4/6 937/4/6
f 930/4/6 933/4/6 937/4/6
f 937/4/6 934/4/6 938/4/6
f 938/4/6 934/4/6 939/4/6
f 935/4/6 936/4/6 940/4/6
f 936/4/6 921/4/6 941/4/6
f 940/4/6 936/4/6 941/4/6
f 941/4/6 921/4/6 942/4/6
f 938/4/6 939/4/6 943/4/6
f 939/4/6 940/4/6 943/4/6
f 940/4/6 941/4/6 943/4/6
f 943/4/6 941/4/6 944/4/6
f 945/4/6 946/4/6 948/4/6
f 948/4/6 946/4/6 949/4/6
f 947/4/6 948/4/6 951/4/6
f 949/4/6 950/4/6 951/4/6
f 948/4/6 949/4/6 951/4/6
f 951/4/6 950/4/6 952/4/6
f 952/4/6 950/4/6 953/4/6
f 953/4/6 950/4/6 954/4/6
f 951/6/6 952/6/6 955/6/6
f 952/4/6 953/4/6 956/4/6
f 955/6/6 952/6/6 956/6/6
f 955/4/6 956/4/6 957/4/6
f 956/4/6 953/4/6 958/4/6
f 957/4/6 956/4/6 958/4/6
f 953/6/6 954/6/6 959/6/6
f 958/4/6 953/4/6 959/4/6
f 959/6/6 954/6/6 960/6/6
f 957/6/6 958/6/6 961/6/6
f 958/4/6 959/4/6 962/4/6
f 961/6/6 958/6/6 962/6/6
f 959/4/6 960/4/6 962/4/6
f 962/4/6 960/4/6 963/4/6
f 963/4/6 960/4/6 964/4/6
f 962/4/6 963/4/6 965/4/6
f 965/4/6 963/4/6 966/4/6
